%TF.GenerationSoftware,KiCad,Pcbnew,(6.0.7)*%
%TF.CreationDate,2022-09-09T14:56:33-07:00*%
%TF.ProjectId,12AQ5 osc amp,31324151-3520-46f7-9363-20616d702e6b,rev?*%
%TF.SameCoordinates,Original*%
%TF.FileFunction,Copper,L2,Bot*%
%TF.FilePolarity,Positive*%
%FSLAX46Y46*%
G04 Gerber Fmt 4.6, Leading zero omitted, Abs format (unit mm)*
G04 Created by KiCad (PCBNEW (6.0.7)) date 2022-09-09 14:56:33*
%MOMM*%
%LPD*%
G01*
G04 APERTURE LIST*
%TA.AperFunction,ComponentPad*%
%ADD10R,1.700000X1.700000*%
%TD*%
%TA.AperFunction,ComponentPad*%
%ADD11O,1.700000X1.700000*%
%TD*%
%TA.AperFunction,ComponentPad*%
%ADD12R,1.300000X1.300000*%
%TD*%
%TA.AperFunction,ComponentPad*%
%ADD13C,1.300000*%
%TD*%
%TA.AperFunction,ComponentPad*%
%ADD14C,3.016000*%
%TD*%
%TA.AperFunction,ComponentPad*%
%ADD15C,2.000000*%
%TD*%
%TA.AperFunction,ComponentPad*%
%ADD16C,3.900000*%
%TD*%
%TA.AperFunction,ComponentPad*%
%ADD17R,2.000000X2.000000*%
%TD*%
%TA.AperFunction,ComponentPad*%
%ADD18C,1.600000*%
%TD*%
%TA.AperFunction,ComponentPad*%
%ADD19C,3.600000*%
%TD*%
%TA.AperFunction,ConnectorPad*%
%ADD20C,5.700000*%
%TD*%
%TA.AperFunction,ComponentPad*%
%ADD21C,2.400000*%
%TD*%
%TA.AperFunction,ComponentPad*%
%ADD22O,2.400000X2.400000*%
%TD*%
%TA.AperFunction,ComponentPad*%
%ADD23C,2.050000*%
%TD*%
%TA.AperFunction,ComponentPad*%
%ADD24C,2.250000*%
%TD*%
%TA.AperFunction,ComponentPad*%
%ADD25O,1.600000X1.600000*%
%TD*%
%TA.AperFunction,ComponentPad*%
%ADD26R,1.600000X1.600000*%
%TD*%
%TA.AperFunction,ComponentPad*%
%ADD27C,3.000000*%
%TD*%
%TA.AperFunction,ComponentPad*%
%ADD28C,9.000000*%
%TD*%
%TA.AperFunction,ViaPad*%
%ADD29C,0.800000*%
%TD*%
%TA.AperFunction,Conductor*%
%ADD30C,0.800000*%
%TD*%
%TA.AperFunction,Conductor*%
%ADD31C,0.400000*%
%TD*%
%TA.AperFunction,Conductor*%
%ADD32C,0.200000*%
%TD*%
G04 APERTURE END LIST*
D10*
%TO.P,J7,1*%
%TO.N,+BATT*%
X119200000Y-141100000D03*
D11*
%TO.P,J7,2*%
%TO.N,GND*%
X119200000Y-143640000D03*
%TD*%
D12*
%TO.P,U1,1,D1*%
%TO.N,GND*%
X80150000Y-156010500D03*
D13*
%TO.P,U1,2,A*%
%TO.N,Keyer*%
X80150000Y-150930500D03*
%TO.P,U1,3,K*%
%TO.N,Net-(R3-Pad1)*%
X80150000Y-145850500D03*
%TO.P,U1,4,D2*%
%TO.N,SK*%
X80150000Y-140770500D03*
%TD*%
D14*
%TO.P,J4,1*%
%TO.N,GND*%
X93367900Y-158500000D03*
%TO.P,J4,2*%
%TO.N,Keyer*%
X97867900Y-155000000D03*
%TO.P,J4,3*%
%TO.N,unconnected-(J4-Pad3)*%
X88367900Y-150200000D03*
%TD*%
D15*
%TO.P,C6,1*%
%TO.N,RFout*%
X106950000Y-117050000D03*
%TO.P,C6,2*%
%TO.N,Net-(\u002AR1-Pad2)*%
X99450000Y-117050000D03*
%TD*%
D10*
%TO.P,J2,1*%
%TO.N,B+*%
X28250000Y-123275000D03*
D11*
%TO.P,J2,2*%
%TO.N,GND*%
X28250000Y-125815000D03*
%TD*%
D16*
%TO.P,V1,1,G1*%
%TO.N,Net-(C1-Pad1)*%
X62007000Y-130650800D03*
%TO.P,V1,2,K*%
%TO.N,Net-(C1-Pad2)*%
X64217000Y-135883000D03*
%TO.P,V1,3,F2*%
%TO.N,GND*%
X69500000Y-138093000D03*
%TO.P,V1,4,F1*%
%TO.N,+BATT*%
X74783000Y-135883000D03*
%TO.P,V1,5,A*%
%TO.N,Net-(\u002AR1-Pad1)*%
X76967600Y-130600000D03*
%TO.P,V1,6,G2*%
%TO.N,Net-(C4-Pad1)*%
X74783000Y-125317000D03*
%TO.P,V1,7,G1*%
%TO.N,unconnected-(V1-Pad7)*%
X69503311Y-123109719D03*
%TD*%
D15*
%TO.P,L2,*%
%TO.N,*%
X93342500Y-119457500D03*
X78142500Y-119457500D03*
D17*
%TO.P,L2,1*%
%TO.N,B+*%
X78142500Y-114357500D03*
D15*
%TO.P,L2,2*%
%TO.N,Net-(\u002AR1-Pad2)*%
X93342500Y-114357500D03*
%TD*%
D18*
%TO.P,C2,1*%
%TO.N,Net-(C1-Pad2)*%
X55300000Y-143900000D03*
%TO.P,C2,2*%
%TO.N,GND*%
X55300000Y-148900000D03*
%TD*%
D19*
%TO.P,H1,*%
%TO.N,GND*%
X27850000Y-156350000D03*
D20*
%TO.P,H1,1,1*%
X27850000Y-156350000D03*
%TD*%
D19*
%TO.P,H4,*%
%TO.N,GND*%
X27850000Y-116350000D03*
D20*
%TO.P,H4,1,1*%
X27850000Y-116350000D03*
%TD*%
D21*
%TO.P,\u002AR1,1*%
%TO.N,Net-(\u002AR1-Pad1)*%
X81900000Y-126350000D03*
D22*
%TO.P,\u002AR1,2*%
%TO.N,Net-(\u002AR1-Pad2)*%
X107300000Y-126350000D03*
%TD*%
D21*
%TO.P,R2,1*%
%TO.N,Net-(C4-Pad1)*%
X59920000Y-120600000D03*
D22*
%TO.P,R2,2*%
%TO.N,B+*%
X44680000Y-120600000D03*
%TD*%
D23*
%TO.P,J6,1,In*%
%TO.N,RFout*%
X118050000Y-129600000D03*
D24*
%TO.P,J6,2,Ext*%
%TO.N,GND*%
X115510000Y-127060000D03*
X115510000Y-132140000D03*
X120590000Y-132140000D03*
X120590000Y-127060000D03*
%TD*%
D18*
%TO.P,R3,1*%
%TO.N,Net-(R3-Pad1)*%
X85600000Y-142510000D03*
D25*
%TO.P,R3,2*%
%TO.N,+BATT*%
X85600000Y-134890000D03*
%TD*%
D15*
%TO.P,L1,*%
%TO.N,*%
X70192500Y-158942500D03*
X70192500Y-143742500D03*
D17*
%TO.P,L1,1*%
%TO.N,Net-(C1-Pad2)*%
X65092500Y-143742500D03*
D15*
%TO.P,L1,2*%
%TO.N,SK*%
X65092500Y-158942500D03*
%TD*%
%TO.P,C3,1*%
%TO.N,SK*%
X58950000Y-155600000D03*
%TO.P,C3,2*%
%TO.N,GND*%
X48950000Y-155600000D03*
%TD*%
D10*
%TO.P,J5,1*%
%TO.N,Net-(C1-Pad1)*%
X28400000Y-145325000D03*
D11*
%TO.P,J5,2*%
%TO.N,GND*%
X28400000Y-147865000D03*
%TD*%
D19*
%TO.P,H3,*%
%TO.N,GND*%
X119700000Y-156350000D03*
D20*
%TO.P,H3,1,1*%
X119700000Y-156350000D03*
%TD*%
D18*
%TO.P,R1,1*%
%TO.N,Net-(C1-Pad1)*%
X49350000Y-135890000D03*
D25*
%TO.P,R1,2*%
%TO.N,GND*%
X49350000Y-143510000D03*
%TD*%
D26*
%TO.P,U2,1,+_cntrl*%
%TO.N,Net-(R4-Pad2)*%
X83750000Y-152550000D03*
D25*
%TO.P,U2,2,-_cntrl*%
%TO.N,Keyer*%
X83750000Y-150010000D03*
%TO.P,U2,3,n/c*%
%TO.N,unconnected-(U2-Pad3)*%
X83750000Y-147470000D03*
%TO.P,U2,4,+_load0*%
%TO.N,SK*%
X76130000Y-147470000D03*
%TO.P,U2,5,-_load*%
%TO.N,GND*%
X76130000Y-150010000D03*
%TO.P,U2,6,+_load1*%
%TO.N,SK*%
X76130000Y-152550000D03*
%TD*%
D18*
%TO.P,C1,1*%
%TO.N,Net-(C1-Pad1)*%
X55150000Y-133300000D03*
%TO.P,C1,2*%
%TO.N,Net-(C1-Pad2)*%
X55150000Y-138300000D03*
%TD*%
%TO.P,R4,1*%
%TO.N,+BATT*%
X90250000Y-134890000D03*
D25*
%TO.P,R4,2*%
%TO.N,Net-(R4-Pad2)*%
X90250000Y-142510000D03*
%TD*%
D10*
%TO.P,J1,1*%
%TO.N,+BATT*%
X28350000Y-133300000D03*
D11*
%TO.P,J1,2*%
%TO.N,GND*%
X28350000Y-135840000D03*
%TD*%
D15*
%TO.P,C5,1*%
%TO.N,B+*%
X34550000Y-114850000D03*
%TO.P,C5,2*%
%TO.N,GND*%
X44550000Y-114850000D03*
%TD*%
%TO.P,C4,1*%
%TO.N,Net-(C4-Pad1)*%
X62550000Y-114800000D03*
%TO.P,C4,2*%
%TO.N,GND*%
X52550000Y-114800000D03*
%TD*%
D19*
%TO.P,H2,*%
%TO.N,GND*%
X119700000Y-116350000D03*
D20*
%TO.P,H2,1,1*%
X119700000Y-116350000D03*
%TD*%
D14*
%TO.P,J3,1*%
%TO.N,GND*%
X109516000Y-158500000D03*
%TO.P,J3,2*%
%TO.N,SK*%
X114016000Y-155000000D03*
%TO.P,J3,3*%
%TO.N,unconnected-(J3-Pad3)*%
X104516000Y-150200000D03*
%TD*%
D27*
%TO.P,Y1,*%
%TO.N,*%
X40250000Y-127575000D03*
X40250000Y-156075000D03*
D28*
%TO.P,Y1,1,1*%
%TO.N,Net-(C1-Pad1)*%
X40250000Y-135650000D03*
%TO.P,Y1,2,2*%
%TO.N,GND*%
X40250000Y-148000000D03*
%TD*%
D29*
%TO.N,SK*%
X73550000Y-152550000D03*
%TD*%
D30*
%TO.N,GND*%
X55300000Y-148900000D02*
X74150000Y-148843500D01*
X74150000Y-148843500D02*
X76130000Y-150010000D01*
X74150000Y-142743000D02*
X69500000Y-138093000D01*
X74150000Y-148843500D02*
X74150000Y-142743000D01*
D31*
X109516000Y-153324000D02*
X119200000Y-143640000D01*
X109516000Y-158500000D02*
X109516000Y-153324000D01*
X119700000Y-144140000D02*
X119700000Y-156350000D01*
X119200000Y-143640000D02*
X119700000Y-144140000D01*
X110450000Y-158500000D02*
X109516000Y-158500000D01*
X111050000Y-157900000D02*
X110450000Y-158500000D01*
X120590000Y-117240000D02*
X119700000Y-116350000D01*
X90878400Y-156010500D02*
X93367900Y-158500000D01*
X120590000Y-127060000D02*
X120590000Y-117240000D01*
D30*
X44480000Y-143510000D02*
X49350000Y-143510000D01*
D31*
X119700000Y-156350000D02*
X118150000Y-157900000D01*
X33585000Y-130605000D02*
X33585000Y-125815000D01*
X31900000Y-156350000D02*
X40250000Y-148000000D01*
D30*
X55300000Y-148900000D02*
X55300000Y-147700000D01*
D31*
X115510000Y-127060000D02*
X120590000Y-127060000D01*
X54740000Y-148900000D02*
X55300000Y-148900000D01*
X28400000Y-147865000D02*
X40115000Y-147865000D01*
X35425000Y-123925000D02*
X35475000Y-123925000D01*
X55300000Y-149250000D02*
X55300000Y-148900000D01*
D30*
X76130000Y-150010000D02*
X80150000Y-154030000D01*
D31*
X115510000Y-132140000D02*
X120590000Y-132140000D01*
X40250000Y-147740000D02*
X40250000Y-148000000D01*
X115510000Y-139950000D02*
X115510000Y-132140000D01*
X118150000Y-157900000D02*
X111050000Y-157900000D01*
X27850000Y-156350000D02*
X31900000Y-156350000D01*
X48950000Y-155600000D02*
X55300000Y-149250000D01*
D30*
X40250000Y-147740000D02*
X44480000Y-143510000D01*
D31*
X44550000Y-114850000D02*
X52500000Y-114850000D01*
D30*
X49350000Y-143510000D02*
X54740000Y-148900000D01*
D31*
X40115000Y-147865000D02*
X40250000Y-148000000D01*
D30*
X28350000Y-135840000D02*
X40250000Y-147740000D01*
X62650000Y-140350000D02*
X67243000Y-140350000D01*
D31*
X119200000Y-143640000D02*
X115510000Y-139950000D01*
X93367900Y-158500000D02*
X109516000Y-158500000D01*
X33585000Y-125815000D02*
X35475000Y-123925000D01*
D30*
X55300000Y-147700000D02*
X62650000Y-140350000D01*
D31*
X120590000Y-127060000D02*
X120590000Y-132140000D01*
X52500000Y-114850000D02*
X52550000Y-114800000D01*
D30*
X80150000Y-154030000D02*
X80150000Y-156010500D01*
D31*
X115510000Y-127060000D02*
X115510000Y-132140000D01*
X80150000Y-156010500D02*
X90878400Y-156010500D01*
X28350000Y-135840000D02*
X33585000Y-130605000D01*
X35475000Y-123925000D02*
X44550000Y-114850000D01*
X27850000Y-116350000D02*
X35425000Y-123925000D01*
X28250000Y-125815000D02*
X33585000Y-125815000D01*
D30*
X67243000Y-140350000D02*
X69500000Y-138093000D01*
D32*
%TO.N,Net-(R3-Pad1)*%
X82259500Y-145850500D02*
X85600000Y-142510000D01*
X80150000Y-145850500D02*
X82259500Y-145850500D01*
%TO.N,SK*%
X71950000Y-152550000D02*
X73550000Y-152550000D01*
X65000000Y-159500000D02*
X71950000Y-152550000D01*
X73550000Y-152550000D02*
X76130000Y-152550000D01*
%TO.N,Net-(R4-Pad2)*%
X86000000Y-150011001D02*
X86000000Y-146760000D01*
X83750000Y-152261001D02*
X86000000Y-150011001D01*
X86000000Y-146760000D02*
X90250000Y-142510000D01*
X83750000Y-152550000D02*
X83750000Y-152261001D01*
%TO.N,Net-(C4-Pad1)*%
X62550000Y-114800000D02*
X59920000Y-117430000D01*
X59920000Y-117430000D02*
X59920000Y-120600000D01*
%TD*%
%TA.AperFunction,Conductor*%
%TO.N,GND*%
G36*
X122933621Y-112228502D02*
G01*
X122980114Y-112282158D01*
X122991500Y-112334500D01*
X122991500Y-114883378D01*
X122971498Y-114951499D01*
X122917842Y-114997992D01*
X122847568Y-115008096D01*
X122782988Y-114978602D01*
X122753308Y-114939139D01*
X122752794Y-114939411D01*
X122584194Y-114620981D01*
X122580682Y-114615137D01*
X122380588Y-114319598D01*
X122376467Y-114314170D01*
X122259041Y-114175704D01*
X122246215Y-114167267D01*
X122235890Y-114173320D01*
X120072022Y-116337188D01*
X120064408Y-116351132D01*
X120064539Y-116352965D01*
X120068790Y-116359580D01*
X122234463Y-118525253D01*
X122248060Y-118532678D01*
X122257669Y-118525981D01*
X122362197Y-118404457D01*
X122366346Y-118399069D01*
X122568503Y-118104929D01*
X122572050Y-118099118D01*
X122741250Y-117784879D01*
X122744157Y-117778701D01*
X122748757Y-117767374D01*
X122792919Y-117711783D01*
X122860124Y-117688893D01*
X122929036Y-117705970D01*
X122977776Y-117757593D01*
X122991500Y-117814778D01*
X122991500Y-150785110D01*
X116382693Y-151096113D01*
X113842366Y-151215658D01*
X111014060Y-151348755D01*
X111136460Y-143907966D01*
X117868257Y-143907966D01*
X117898565Y-144042446D01*
X117901645Y-144052275D01*
X117981770Y-144249603D01*
X117986413Y-144258794D01*
X118097694Y-144440388D01*
X118103777Y-144448699D01*
X118243213Y-144609667D01*
X118250580Y-144616883D01*
X118414434Y-144752916D01*
X118422881Y-144758831D01*
X118606756Y-144866279D01*
X118616042Y-144870729D01*
X118815001Y-144946703D01*
X118824899Y-144949579D01*
X118928250Y-144970606D01*
X118942299Y-144969410D01*
X118946000Y-144959065D01*
X118946000Y-144958517D01*
X119454000Y-144958517D01*
X119458064Y-144972359D01*
X119471478Y-144974393D01*
X119478184Y-144973534D01*
X119488262Y-144971392D01*
X119692255Y-144910191D01*
X119701842Y-144906433D01*
X119893095Y-144812739D01*
X119901945Y-144807464D01*
X120075328Y-144683792D01*
X120083200Y-144677139D01*
X120234052Y-144526812D01*
X120240730Y-144518965D01*
X120365003Y-144346020D01*
X120370313Y-144337183D01*
X120464670Y-144146267D01*
X120468469Y-144136672D01*
X120530377Y-143932910D01*
X120532555Y-143922837D01*
X120533986Y-143911962D01*
X120531775Y-143897778D01*
X120518617Y-143894000D01*
X119472115Y-143894000D01*
X119456876Y-143898475D01*
X119455671Y-143899865D01*
X119454000Y-143907548D01*
X119454000Y-144958517D01*
X118946000Y-144958517D01*
X118946000Y-143912115D01*
X118941525Y-143896876D01*
X118940135Y-143895671D01*
X118932452Y-143894000D01*
X117883225Y-143894000D01*
X117869694Y-143897973D01*
X117868257Y-143907966D01*
X111136460Y-143907966D01*
X111167877Y-141998134D01*
X117841500Y-141998134D01*
X117848255Y-142060316D01*
X117899385Y-142196705D01*
X117986739Y-142313261D01*
X118103295Y-142400615D01*
X118111704Y-142403767D01*
X118111705Y-142403768D01*
X118220960Y-142444726D01*
X118277725Y-142487367D01*
X118302425Y-142553929D01*
X118287218Y-142623278D01*
X118267825Y-142649759D01*
X118144590Y-142778717D01*
X118138104Y-142786727D01*
X118018098Y-142962649D01*
X118013000Y-142971623D01*
X117923338Y-143164783D01*
X117919775Y-143174470D01*
X117864389Y-143374183D01*
X117865912Y-143382607D01*
X117878292Y-143386000D01*
X120518344Y-143386000D01*
X120531875Y-143382027D01*
X120533180Y-143372947D01*
X120491214Y-143205875D01*
X120487894Y-143196124D01*
X120402972Y-143000814D01*
X120398105Y-142991739D01*
X120282426Y-142812926D01*
X120276136Y-142804757D01*
X120132293Y-142646677D01*
X120101241Y-142582831D01*
X120109635Y-142512333D01*
X120154812Y-142457564D01*
X120181256Y-142443895D01*
X120288297Y-142403767D01*
X120296705Y-142400615D01*
X120413261Y-142313261D01*
X120500615Y-142196705D01*
X120551745Y-142060316D01*
X120558500Y-141998134D01*
X120558500Y-140201866D01*
X120551745Y-140139684D01*
X120500615Y-140003295D01*
X120413261Y-139886739D01*
X120296705Y-139799385D01*
X120160316Y-139748255D01*
X120098134Y-139741500D01*
X118301866Y-139741500D01*
X118239684Y-139748255D01*
X118103295Y-139799385D01*
X117986739Y-139886739D01*
X117899385Y-140003295D01*
X117848255Y-140139684D01*
X117841500Y-140201866D01*
X117841500Y-141998134D01*
X111167877Y-141998134D01*
X111308255Y-133464471D01*
X114550884Y-133464471D01*
X114554570Y-133469740D01*
X114762121Y-133596927D01*
X114770915Y-133601408D01*
X114999242Y-133695984D01*
X115008627Y-133699033D01*
X115248940Y-133756728D01*
X115258687Y-133758271D01*
X115505070Y-133777662D01*
X115514930Y-133777662D01*
X115761313Y-133758271D01*
X115771060Y-133756728D01*
X116011373Y-133699033D01*
X116020758Y-133695984D01*
X116249085Y-133601408D01*
X116257879Y-133596927D01*
X116463928Y-133470660D01*
X116467968Y-133464471D01*
X119630884Y-133464471D01*
X119634570Y-133469740D01*
X119842121Y-133596927D01*
X119850915Y-133601408D01*
X120079242Y-133695984D01*
X120088627Y-133699033D01*
X120328940Y-133756728D01*
X120338687Y-133758271D01*
X120585070Y-133777662D01*
X120594930Y-133777662D01*
X120841313Y-133758271D01*
X120851060Y-133756728D01*
X121091373Y-133699033D01*
X121100758Y-133695984D01*
X121329085Y-133601408D01*
X121337879Y-133596927D01*
X121543928Y-133470660D01*
X121549190Y-133462599D01*
X121543183Y-133452393D01*
X120602812Y-132512022D01*
X120588868Y-132504408D01*
X120587035Y-132504539D01*
X120580420Y-132508790D01*
X119638276Y-133450934D01*
X119630884Y-133464471D01*
X116467968Y-133464471D01*
X116469190Y-133462599D01*
X116463183Y-133452393D01*
X115522812Y-132512022D01*
X115508868Y-132504408D01*
X115507035Y-132504539D01*
X115500420Y-132508790D01*
X114558276Y-133450934D01*
X114550884Y-133464471D01*
X111308255Y-133464471D01*
X111314264Y-133099190D01*
X111329961Y-132144930D01*
X113872338Y-132144930D01*
X113891729Y-132391313D01*
X113893272Y-132401060D01*
X113950967Y-132641373D01*
X113954016Y-132650758D01*
X114048592Y-132879085D01*
X114053073Y-132887879D01*
X114179340Y-133093928D01*
X114187401Y-133099190D01*
X114197607Y-133093183D01*
X115137978Y-132152812D01*
X115144356Y-132141132D01*
X115874408Y-132141132D01*
X115874539Y-132142965D01*
X115878790Y-132149580D01*
X116820934Y-133091724D01*
X116834471Y-133099116D01*
X116839740Y-133095430D01*
X116966927Y-132887879D01*
X116971408Y-132879085D01*
X117065984Y-132650758D01*
X117069033Y-132641373D01*
X117126728Y-132401060D01*
X117128271Y-132391313D01*
X117147662Y-132144930D01*
X118952338Y-132144930D01*
X118971729Y-132391313D01*
X118973272Y-132401060D01*
X119030967Y-132641373D01*
X119034016Y-132650758D01*
X119128592Y-132879085D01*
X119133073Y-132887879D01*
X119259340Y-133093928D01*
X119267401Y-133099190D01*
X119277607Y-133093183D01*
X120217978Y-132152812D01*
X120224356Y-132141132D01*
X120954408Y-132141132D01*
X120954539Y-132142965D01*
X120958790Y-132149580D01*
X121900934Y-133091724D01*
X121914471Y-133099116D01*
X121919740Y-133095430D01*
X122046927Y-132887879D01*
X122051408Y-132879085D01*
X122145984Y-132650758D01*
X122149033Y-132641373D01*
X122206728Y-132401060D01*
X122208271Y-132391313D01*
X122227662Y-132144930D01*
X122227662Y-132135070D01*
X122208271Y-131888687D01*
X122206728Y-131878940D01*
X122149033Y-131638627D01*
X122145984Y-131629242D01*
X122051408Y-131400915D01*
X122046927Y-131392121D01*
X121920660Y-131186072D01*
X121912599Y-131180810D01*
X121902393Y-131186817D01*
X120962022Y-132127188D01*
X120954408Y-132141132D01*
X120224356Y-132141132D01*
X120225592Y-132138868D01*
X120225461Y-132137035D01*
X120221210Y-132130420D01*
X119279066Y-131188276D01*
X119265529Y-131180884D01*
X119260260Y-131184570D01*
X119133073Y-131392121D01*
X119128592Y-131400915D01*
X119034016Y-131629242D01*
X119030967Y-131638627D01*
X118973272Y-131878940D01*
X118971729Y-131888687D01*
X118952338Y-132135070D01*
X118952338Y-132144930D01*
X117147662Y-132144930D01*
X117147662Y-132135070D01*
X117128271Y-131888687D01*
X117126728Y-131878940D01*
X117069033Y-131638627D01*
X117065984Y-131629242D01*
X116971408Y-131400915D01*
X116966927Y-131392121D01*
X116840660Y-131186072D01*
X116832599Y-131180810D01*
X116822393Y-131186817D01*
X115882022Y-132127188D01*
X115874408Y-132141132D01*
X115144356Y-132141132D01*
X115145592Y-132138868D01*
X115145461Y-132137035D01*
X115141210Y-132130420D01*
X114199066Y-131188276D01*
X114185529Y-131180884D01*
X114180260Y-131184570D01*
X114053073Y-131392121D01*
X114048592Y-131400915D01*
X113954016Y-131629242D01*
X113950967Y-131638627D01*
X113893272Y-131878940D01*
X113891729Y-131888687D01*
X113872338Y-132135070D01*
X113872338Y-132144930D01*
X111329961Y-132144930D01*
X111347740Y-131064110D01*
X111351798Y-130817401D01*
X114550810Y-130817401D01*
X114556817Y-130827607D01*
X115497188Y-131767978D01*
X115511132Y-131775592D01*
X115512965Y-131775461D01*
X115519580Y-131771210D01*
X116461724Y-130829066D01*
X116469116Y-130815529D01*
X116465430Y-130810260D01*
X116257879Y-130683073D01*
X116249085Y-130678592D01*
X116020758Y-130584016D01*
X116011373Y-130580967D01*
X115771060Y-130523272D01*
X115761313Y-130521729D01*
X115514930Y-130502338D01*
X115505070Y-130502338D01*
X115258687Y-130521729D01*
X115248940Y-130523272D01*
X115008627Y-130580967D01*
X114999242Y-130584016D01*
X114770915Y-130678592D01*
X114762121Y-130683073D01*
X114556072Y-130809340D01*
X114550810Y-130817401D01*
X111351798Y-130817401D01*
X111371824Y-129600000D01*
X116511758Y-129600000D01*
X116530696Y-129840634D01*
X116531850Y-129845441D01*
X116531851Y-129845447D01*
X116567267Y-129992961D01*
X116587045Y-130075343D01*
X116679416Y-130298347D01*
X116805536Y-130504156D01*
X116962299Y-130687701D01*
X117145844Y-130844464D01*
X117351653Y-130970584D01*
X117356223Y-130972477D01*
X117356227Y-130972479D01*
X117570084Y-131061061D01*
X117574657Y-131062955D01*
X117657039Y-131082733D01*
X117804553Y-131118149D01*
X117804559Y-131118150D01*
X117809366Y-131119304D01*
X118050000Y-131138242D01*
X118290634Y-131119304D01*
X118295441Y-131118150D01*
X118295447Y-131118149D01*
X118442961Y-131082733D01*
X118525343Y-131062955D01*
X118529916Y-131061061D01*
X118743773Y-130972479D01*
X118743777Y-130972477D01*
X118748347Y-130970584D01*
X118954156Y-130844464D01*
X118985843Y-130817401D01*
X119630810Y-130817401D01*
X119636817Y-130827607D01*
X120577188Y-131767978D01*
X120591132Y-131775592D01*
X120592965Y-131775461D01*
X120599580Y-131771210D01*
X121541724Y-130829066D01*
X121549116Y-130815529D01*
X121545430Y-130810260D01*
X121337879Y-130683073D01*
X121329085Y-130678592D01*
X121100758Y-130584016D01*
X121091373Y-130580967D01*
X120851060Y-130523272D01*
X120841313Y-130521729D01*
X120594930Y-130502338D01*
X120585070Y-130502338D01*
X120338687Y-130521729D01*
X120328940Y-130523272D01*
X120088627Y-130580967D01*
X120079242Y-130584016D01*
X119850915Y-130678592D01*
X119842121Y-130683073D01*
X119636072Y-130809340D01*
X119630810Y-130817401D01*
X118985843Y-130817401D01*
X119137701Y-130687701D01*
X119294464Y-130504156D01*
X119420584Y-130298347D01*
X119512955Y-130075343D01*
X119532733Y-129992961D01*
X119568149Y-129845447D01*
X119568150Y-129845441D01*
X119569304Y-129840634D01*
X119588242Y-129600000D01*
X119569304Y-129359366D01*
X119568150Y-129354559D01*
X119568149Y-129354553D01*
X119514110Y-129129469D01*
X119512955Y-129124657D01*
X119420584Y-128901653D01*
X119294464Y-128695844D01*
X119137701Y-128512299D01*
X118988034Y-128384471D01*
X119630884Y-128384471D01*
X119634570Y-128389740D01*
X119842121Y-128516927D01*
X119850915Y-128521408D01*
X120079242Y-128615984D01*
X120088627Y-128619033D01*
X120328940Y-128676728D01*
X120338687Y-128678271D01*
X120585070Y-128697662D01*
X120594930Y-128697662D01*
X120841313Y-128678271D01*
X120851060Y-128676728D01*
X121091373Y-128619033D01*
X121100758Y-128615984D01*
X121329085Y-128521408D01*
X121337879Y-128516927D01*
X121543928Y-128390660D01*
X121549190Y-128382599D01*
X121543183Y-128372393D01*
X120602812Y-127432022D01*
X120588868Y-127424408D01*
X120587035Y-127424539D01*
X120580420Y-127428790D01*
X119638276Y-128370934D01*
X119630884Y-128384471D01*
X118988034Y-128384471D01*
X118954156Y-128355536D01*
X118748347Y-128229416D01*
X118743777Y-128227523D01*
X118743773Y-128227521D01*
X118529916Y-128138939D01*
X118529914Y-128138938D01*
X118525343Y-128137045D01*
X118442961Y-128117267D01*
X118295447Y-128081851D01*
X118295441Y-128081850D01*
X118290634Y-128080696D01*
X118050000Y-128061758D01*
X117809366Y-128080696D01*
X117804559Y-128081850D01*
X117804553Y-128081851D01*
X117657039Y-128117267D01*
X117574657Y-128137045D01*
X117570086Y-128138938D01*
X117570084Y-128138939D01*
X117356227Y-128227521D01*
X117356223Y-128227523D01*
X117351653Y-128229416D01*
X117145844Y-128355536D01*
X116962299Y-128512299D01*
X116805536Y-128695844D01*
X116679416Y-128901653D01*
X116587045Y-129124657D01*
X116585890Y-129129469D01*
X116531851Y-129354553D01*
X116531850Y-129354559D01*
X116530696Y-129359366D01*
X116511758Y-129600000D01*
X111371824Y-129600000D01*
X111391820Y-128384471D01*
X114550884Y-128384471D01*
X114554570Y-128389740D01*
X114762121Y-128516927D01*
X114770915Y-128521408D01*
X114999242Y-128615984D01*
X115008627Y-128619033D01*
X115248940Y-128676728D01*
X115258687Y-128678271D01*
X115505070Y-128697662D01*
X115514930Y-128697662D01*
X115761313Y-128678271D01*
X115771060Y-128676728D01*
X116011373Y-128619033D01*
X116020758Y-128615984D01*
X116249085Y-128521408D01*
X116257879Y-128516927D01*
X116463928Y-128390660D01*
X116469190Y-128382599D01*
X116463183Y-128372393D01*
X115522812Y-127432022D01*
X115508868Y-127424408D01*
X115507035Y-127424539D01*
X115500420Y-127428790D01*
X114558276Y-128370934D01*
X114550884Y-128384471D01*
X111391820Y-128384471D01*
X111413526Y-127064930D01*
X113872338Y-127064930D01*
X113891729Y-127311313D01*
X113893272Y-127321060D01*
X113950967Y-127561373D01*
X113954016Y-127570758D01*
X114048592Y-127799085D01*
X114053073Y-127807879D01*
X114179340Y-128013928D01*
X114187401Y-128019190D01*
X114197607Y-128013183D01*
X115137978Y-127072812D01*
X115144356Y-127061132D01*
X115874408Y-127061132D01*
X115874539Y-127062965D01*
X115878790Y-127069580D01*
X116820934Y-128011724D01*
X116834471Y-128019116D01*
X116839740Y-128015430D01*
X116966927Y-127807879D01*
X116971408Y-127799085D01*
X117065984Y-127570758D01*
X117069033Y-127561373D01*
X117126728Y-127321060D01*
X117128271Y-127311313D01*
X117147662Y-127064930D01*
X118952338Y-127064930D01*
X118971729Y-127311313D01*
X118973272Y-127321060D01*
X119030967Y-127561373D01*
X119034016Y-127570758D01*
X119128592Y-127799085D01*
X119133073Y-127807879D01*
X119259340Y-128013928D01*
X119267401Y-128019190D01*
X119277607Y-128013183D01*
X120217978Y-127072812D01*
X120224356Y-127061132D01*
X120954408Y-127061132D01*
X120954539Y-127062965D01*
X120958790Y-127069580D01*
X121900934Y-128011724D01*
X121914471Y-128019116D01*
X121919740Y-128015430D01*
X122046927Y-127807879D01*
X122051408Y-127799085D01*
X122145984Y-127570758D01*
X122149033Y-127561373D01*
X122206728Y-127321060D01*
X122208271Y-127311313D01*
X122227662Y-127064930D01*
X122227662Y-127055070D01*
X122208271Y-126808687D01*
X122206728Y-126798940D01*
X122149033Y-126558627D01*
X122145984Y-126549242D01*
X122051408Y-126320915D01*
X122046927Y-126312121D01*
X121920660Y-126106072D01*
X121912599Y-126100810D01*
X121902393Y-126106817D01*
X120962022Y-127047188D01*
X120954408Y-127061132D01*
X120224356Y-127061132D01*
X120225592Y-127058868D01*
X120225461Y-127057035D01*
X120221210Y-127050420D01*
X119279066Y-126108276D01*
X119265529Y-126100884D01*
X119260260Y-126104570D01*
X119133073Y-126312121D01*
X119128592Y-126320915D01*
X119034016Y-126549242D01*
X119030967Y-126558627D01*
X118973272Y-126798940D01*
X118971729Y-126808687D01*
X118952338Y-127055070D01*
X118952338Y-127064930D01*
X117147662Y-127064930D01*
X117147662Y-127055070D01*
X117128271Y-126808687D01*
X117126728Y-126798940D01*
X117069033Y-126558627D01*
X117065984Y-126549242D01*
X116971408Y-126320915D01*
X116966927Y-126312121D01*
X116840660Y-126106072D01*
X116832599Y-126100810D01*
X116822393Y-126106817D01*
X115882022Y-127047188D01*
X115874408Y-127061132D01*
X115144356Y-127061132D01*
X115145592Y-127058868D01*
X115145461Y-127057035D01*
X115141210Y-127050420D01*
X114199066Y-126108276D01*
X114185529Y-126100884D01*
X114180260Y-126104570D01*
X114053073Y-126312121D01*
X114048592Y-126320915D01*
X113954016Y-126549242D01*
X113950967Y-126558627D01*
X113893272Y-126798940D01*
X113891729Y-126808687D01*
X113872338Y-127055070D01*
X113872338Y-127064930D01*
X111413526Y-127064930D01*
X111435364Y-125737401D01*
X114550810Y-125737401D01*
X114556817Y-125747607D01*
X115497188Y-126687978D01*
X115511132Y-126695592D01*
X115512965Y-126695461D01*
X115519580Y-126691210D01*
X116461724Y-125749066D01*
X116468094Y-125737401D01*
X119630810Y-125737401D01*
X119636817Y-125747607D01*
X120577188Y-126687978D01*
X120591132Y-126695592D01*
X120592965Y-126695461D01*
X120599580Y-126691210D01*
X121541724Y-125749066D01*
X121549116Y-125735529D01*
X121545430Y-125730260D01*
X121337879Y-125603073D01*
X121329085Y-125598592D01*
X121100758Y-125504016D01*
X121091373Y-125500967D01*
X120851060Y-125443272D01*
X120841313Y-125441729D01*
X120594930Y-125422338D01*
X120585070Y-125422338D01*
X120338687Y-125441729D01*
X120328940Y-125443272D01*
X120088627Y-125500967D01*
X120079242Y-125504016D01*
X119850915Y-125598592D01*
X119842121Y-125603073D01*
X119636072Y-125729340D01*
X119630810Y-125737401D01*
X116468094Y-125737401D01*
X116469116Y-125735529D01*
X116465430Y-125730260D01*
X116257879Y-125603073D01*
X116249085Y-125598592D01*
X116020758Y-125504016D01*
X116011373Y-125500967D01*
X115771060Y-125443272D01*
X115761313Y-125441729D01*
X115514930Y-125422338D01*
X115505070Y-125422338D01*
X115258687Y-125441729D01*
X115248940Y-125443272D01*
X115008627Y-125500967D01*
X114999242Y-125504016D01*
X114770915Y-125598592D01*
X114762121Y-125603073D01*
X114556072Y-125729340D01*
X114550810Y-125737401D01*
X111435364Y-125737401D01*
X111547810Y-118901745D01*
X117513795Y-118901745D01*
X117513871Y-118902815D01*
X117517055Y-118907648D01*
X117797342Y-119122720D01*
X117802972Y-119126575D01*
X118107929Y-119311992D01*
X118113931Y-119315210D01*
X118437139Y-119466611D01*
X118443444Y-119469159D01*
X118781117Y-119584771D01*
X118787668Y-119586624D01*
X119135838Y-119665087D01*
X119142557Y-119666224D01*
X119497174Y-119706628D01*
X119503964Y-119707031D01*
X119860865Y-119708899D01*
X119867666Y-119708567D01*
X120222686Y-119671880D01*
X120229414Y-119670814D01*
X120578402Y-119595997D01*
X120584950Y-119594218D01*
X120923820Y-119482147D01*
X120930162Y-119479661D01*
X121254921Y-119331660D01*
X121260975Y-119328495D01*
X121567839Y-119146293D01*
X121573520Y-119142490D01*
X121858918Y-118928207D01*
X121864145Y-118923821D01*
X121876988Y-118911803D01*
X121885057Y-118898123D01*
X121885029Y-118897398D01*
X121879887Y-118889097D01*
X119712812Y-116722022D01*
X119698868Y-116714408D01*
X119697035Y-116714539D01*
X119690420Y-116718790D01*
X117521409Y-118887801D01*
X117513795Y-118901745D01*
X111547810Y-118901745D01*
X111589923Y-116341657D01*
X116337260Y-116341657D01*
X116355318Y-116698127D01*
X116356028Y-116704883D01*
X116412478Y-117057305D01*
X116413917Y-117063960D01*
X116508094Y-117408215D01*
X116510243Y-117414676D01*
X116641053Y-117746756D01*
X116643884Y-117752939D01*
X116809792Y-118068949D01*
X116813275Y-118074791D01*
X117012340Y-118371031D01*
X117016442Y-118376475D01*
X117140942Y-118524322D01*
X117153680Y-118532764D01*
X117164124Y-118526666D01*
X119327978Y-116362812D01*
X119335592Y-116348868D01*
X119335461Y-116347035D01*
X119331210Y-116340420D01*
X117165527Y-114174737D01*
X117151990Y-114167345D01*
X117142289Y-114174132D01*
X117030649Y-114304847D01*
X117026515Y-114310255D01*
X116825394Y-114605086D01*
X116821859Y-114610923D01*
X116653754Y-114925757D01*
X116650878Y-114931926D01*
X116517754Y-115263081D01*
X116515561Y-115269521D01*
X116418979Y-115613121D01*
X116417496Y-115619756D01*
X116358589Y-115971773D01*
X116357830Y-115978545D01*
X116337284Y-116334862D01*
X116337260Y-116341657D01*
X111589923Y-116341657D01*
X111631709Y-113801492D01*
X117514580Y-113801492D01*
X117514615Y-113802333D01*
X117519667Y-113810457D01*
X119687188Y-115977978D01*
X119701132Y-115985592D01*
X119702965Y-115985461D01*
X119709580Y-115981210D01*
X121878166Y-113812624D01*
X121885780Y-113798680D01*
X121885712Y-113797723D01*
X121880771Y-113790251D01*
X121876870Y-113786931D01*
X121592958Y-113570649D01*
X121587332Y-113566825D01*
X121281722Y-113382469D01*
X121275710Y-113379272D01*
X120951966Y-113228995D01*
X120945666Y-113226475D01*
X120607595Y-113112045D01*
X120601017Y-113110209D01*
X120252592Y-113032965D01*
X120245857Y-113031850D01*
X119891106Y-112992685D01*
X119884324Y-112992306D01*
X119527395Y-112991683D01*
X119520622Y-112992038D01*
X119165714Y-113029966D01*
X119159005Y-113031053D01*
X118810289Y-113107086D01*
X118803714Y-113108897D01*
X118465250Y-113222145D01*
X118458928Y-113224648D01*
X118134680Y-113373785D01*
X118128637Y-113376971D01*
X117822404Y-113560248D01*
X117816744Y-113564066D01*
X117532094Y-113779346D01*
X117526891Y-113783742D01*
X117522601Y-113787785D01*
X117514580Y-113801492D01*
X111631709Y-113801492D01*
X111655875Y-112332426D01*
X111676994Y-112264645D01*
X111731407Y-112219041D01*
X111781857Y-112208500D01*
X122865500Y-112208500D01*
X122933621Y-112228502D01*
G37*
%TD.AperFunction*%
%TD*%
%TA.AperFunction,Conductor*%
%TO.N,GND*%
G36*
X122991500Y-154883378D02*
G01*
X122971498Y-154951499D01*
X122917842Y-154997992D01*
X122847568Y-155008096D01*
X122782988Y-154978602D01*
X122753308Y-154939139D01*
X122752794Y-154939411D01*
X122584194Y-154620981D01*
X122580682Y-154615137D01*
X122380588Y-154319598D01*
X122376467Y-154314170D01*
X122259041Y-154175704D01*
X122246215Y-154167267D01*
X122235890Y-154173320D01*
X120072022Y-156337188D01*
X120064408Y-156351132D01*
X120064539Y-156352965D01*
X120068790Y-156359580D01*
X122234463Y-158525253D01*
X122248060Y-158532678D01*
X122257669Y-158525981D01*
X122362197Y-158404457D01*
X122366346Y-158399069D01*
X122568503Y-158104929D01*
X122572050Y-158099118D01*
X122741250Y-157784879D01*
X122744157Y-157778701D01*
X122748757Y-157767374D01*
X122792919Y-157711783D01*
X122860124Y-157688893D01*
X122929036Y-157705970D01*
X122977776Y-157757593D01*
X122991500Y-157814778D01*
X122991500Y-160515500D01*
X122971498Y-160583621D01*
X122917842Y-160630114D01*
X122865500Y-160641500D01*
X116175184Y-160641500D01*
X116213005Y-158901745D01*
X117513795Y-158901745D01*
X117513871Y-158902815D01*
X117517055Y-158907648D01*
X117797342Y-159122720D01*
X117802972Y-159126575D01*
X118107929Y-159311992D01*
X118113931Y-159315210D01*
X118437139Y-159466611D01*
X118443444Y-159469159D01*
X118781117Y-159584771D01*
X118787668Y-159586624D01*
X119135838Y-159665087D01*
X119142557Y-159666224D01*
X119497174Y-159706628D01*
X119503964Y-159707031D01*
X119860865Y-159708899D01*
X119867666Y-159708567D01*
X120222686Y-159671880D01*
X120229414Y-159670814D01*
X120578402Y-159595997D01*
X120584950Y-159594218D01*
X120923820Y-159482147D01*
X120930162Y-159479661D01*
X121254921Y-159331660D01*
X121260975Y-159328495D01*
X121567839Y-159146293D01*
X121573520Y-159142490D01*
X121858918Y-158928207D01*
X121864145Y-158923821D01*
X121876988Y-158911803D01*
X121885057Y-158898123D01*
X121885029Y-158897398D01*
X121879887Y-158889097D01*
X119712812Y-156722022D01*
X119698868Y-156714408D01*
X119697035Y-156714539D01*
X119690420Y-156718790D01*
X117521409Y-158887801D01*
X117513795Y-158901745D01*
X116213005Y-158901745D01*
X116254434Y-156996017D01*
X116261118Y-156994020D01*
X116332114Y-156993688D01*
X116392019Y-157031792D01*
X116418715Y-157081501D01*
X116508094Y-157408215D01*
X116510243Y-157414676D01*
X116641053Y-157746756D01*
X116643884Y-157752939D01*
X116809792Y-158068949D01*
X116813275Y-158074791D01*
X117012340Y-158371031D01*
X117016442Y-158376475D01*
X117140942Y-158524322D01*
X117153680Y-158532764D01*
X117164124Y-158526666D01*
X119327978Y-156362812D01*
X119335592Y-156348868D01*
X119335461Y-156347035D01*
X119331210Y-156340420D01*
X117165527Y-154174737D01*
X117151990Y-154167345D01*
X117142289Y-154174132D01*
X117030649Y-154304847D01*
X117026515Y-154310255D01*
X116825394Y-154605086D01*
X116821859Y-154610923D01*
X116653754Y-154925757D01*
X116650878Y-154931926D01*
X116537112Y-155214926D01*
X116493145Y-155270670D01*
X116426020Y-155293795D01*
X116357049Y-155276958D01*
X116308129Y-155225505D01*
X116294235Y-155165191D01*
X116323881Y-153801492D01*
X117514580Y-153801492D01*
X117514615Y-153802333D01*
X117519667Y-153810457D01*
X119687188Y-155977978D01*
X119701132Y-155985592D01*
X119702965Y-155985461D01*
X119709580Y-155981210D01*
X121878166Y-153812624D01*
X121885780Y-153798680D01*
X121885712Y-153797723D01*
X121880771Y-153790251D01*
X121876870Y-153786931D01*
X121592958Y-153570649D01*
X121587332Y-153566825D01*
X121281722Y-153382469D01*
X121275710Y-153379272D01*
X120951966Y-153228995D01*
X120945666Y-153226475D01*
X120607595Y-153112045D01*
X120601017Y-153110209D01*
X120252592Y-153032965D01*
X120245857Y-153031850D01*
X119891106Y-152992685D01*
X119884324Y-152992306D01*
X119527395Y-152991683D01*
X119520622Y-152992038D01*
X119165714Y-153029966D01*
X119159005Y-153031053D01*
X118810289Y-153107086D01*
X118803714Y-153108897D01*
X118465250Y-153222145D01*
X118458928Y-153224648D01*
X118134680Y-153373785D01*
X118128637Y-153376971D01*
X117822404Y-153560248D01*
X117816744Y-153564066D01*
X117532094Y-153779346D01*
X117526891Y-153783742D01*
X117522601Y-153787785D01*
X117514580Y-153801492D01*
X116323881Y-153801492D01*
X116336381Y-153226475D01*
X116400000Y-150300000D01*
X122991500Y-150018011D01*
X122991500Y-154883378D01*
G37*
%TD.AperFunction*%
%TD*%
%TA.AperFunction,Conductor*%
%TO.N,GND*%
G36*
X95077402Y-154049634D02*
G01*
X95145463Y-154069839D01*
X95191795Y-154123633D01*
X95202989Y-154172561D01*
X95273928Y-157081077D01*
X95273929Y-157081080D01*
X95293886Y-157899300D01*
X95223848Y-157701520D01*
X95220451Y-157693670D01*
X95098309Y-157457024D01*
X95093881Y-157449712D01*
X94973674Y-157278675D01*
X94963152Y-157270295D01*
X94949764Y-157277347D01*
X93739920Y-158487190D01*
X93732308Y-158501131D01*
X93732439Y-158502966D01*
X93736690Y-158509580D01*
X94949353Y-159722242D01*
X94961563Y-159728910D01*
X94973061Y-159720221D01*
X95071505Y-159586206D01*
X95076089Y-159578983D01*
X95203153Y-159344959D01*
X95206721Y-159337165D01*
X95300850Y-159088062D01*
X95303324Y-159079867D01*
X95320817Y-159003489D01*
X95360769Y-160641500D01*
X94099452Y-160641500D01*
X94031331Y-160621498D01*
X93984838Y-160567842D01*
X93974734Y-160497568D01*
X94004228Y-160432988D01*
X94051234Y-160399091D01*
X94262414Y-160311617D01*
X94270082Y-160307811D01*
X94500005Y-160173455D01*
X94507086Y-160168642D01*
X94588253Y-160105000D01*
X94596723Y-160093141D01*
X94590206Y-160081517D01*
X93380710Y-158872020D01*
X93366769Y-158864408D01*
X93364934Y-158864539D01*
X93358320Y-158868790D01*
X92145131Y-160081980D01*
X92137839Y-160095334D01*
X92144892Y-160105305D01*
X92176864Y-160132038D01*
X92183796Y-160137073D01*
X92409365Y-160278573D01*
X92416932Y-160282630D01*
X92659624Y-160392209D01*
X92671670Y-160396689D01*
X92671161Y-160398059D01*
X92725579Y-160433215D01*
X92754918Y-160497866D01*
X92744646Y-160568116D01*
X92698026Y-160621660D01*
X92630158Y-160641500D01*
X78613664Y-160641500D01*
X78545543Y-160621498D01*
X78499050Y-160567842D01*
X78487666Y-160516228D01*
X78475914Y-158483120D01*
X91347547Y-158483120D01*
X91362876Y-158748975D01*
X91363949Y-158757475D01*
X91415218Y-159018791D01*
X91417431Y-159027053D01*
X91503692Y-159279001D01*
X91507008Y-159286888D01*
X91626662Y-159524795D01*
X91631019Y-159532161D01*
X91761494Y-159722003D01*
X91771747Y-159730347D01*
X91785488Y-159723201D01*
X92995880Y-158512810D01*
X93003492Y-158498869D01*
X93003361Y-158497034D01*
X92999110Y-158490420D01*
X91785981Y-157277292D01*
X91773970Y-157270733D01*
X91762232Y-157279701D01*
X91653018Y-157431688D01*
X91648506Y-157438964D01*
X91523894Y-157674316D01*
X91520415Y-157682130D01*
X91428899Y-157932209D01*
X91426510Y-157940432D01*
X91369780Y-158200622D01*
X91368531Y-158209078D01*
X91347636Y-158474570D01*
X91347547Y-158483120D01*
X78475914Y-158483120D01*
X78465637Y-156705169D01*
X78992001Y-156705169D01*
X78992371Y-156711990D01*
X78997895Y-156762852D01*
X79001521Y-156778104D01*
X79046676Y-156898554D01*
X79055214Y-156914149D01*
X79131715Y-157016224D01*
X79144276Y-157028785D01*
X79246351Y-157105286D01*
X79261946Y-157113824D01*
X79382394Y-157158978D01*
X79397649Y-157162605D01*
X79448514Y-157168131D01*
X79455328Y-157168500D01*
X79877885Y-157168500D01*
X79893124Y-157164025D01*
X79894329Y-157162635D01*
X79896000Y-157154952D01*
X79896000Y-157150384D01*
X80404000Y-157150384D01*
X80408475Y-157165623D01*
X80409865Y-157166828D01*
X80417548Y-157168499D01*
X80844669Y-157168499D01*
X80851490Y-157168129D01*
X80902352Y-157162605D01*
X80917604Y-157158979D01*
X81038054Y-157113824D01*
X81053649Y-157105286D01*
X81155724Y-157028785D01*
X81168285Y-157016224D01*
X81244786Y-156914149D01*
X81248805Y-156906808D01*
X92138793Y-156906808D01*
X92145189Y-156918078D01*
X93355090Y-158127980D01*
X93369031Y-158135592D01*
X93370866Y-158135461D01*
X93377480Y-158131210D01*
X94590189Y-156918500D01*
X94597381Y-156905330D01*
X94590059Y-156895095D01*
X94541778Y-156855578D01*
X94534802Y-156850620D01*
X94307755Y-156711486D01*
X94300145Y-156707508D01*
X94056323Y-156600478D01*
X94048263Y-156597576D01*
X93792157Y-156524622D01*
X93783782Y-156522842D01*
X93520145Y-156485321D01*
X93511597Y-156484693D01*
X93245305Y-156483298D01*
X93236771Y-156483835D01*
X92972748Y-156518595D01*
X92964350Y-156520288D01*
X92707501Y-156590554D01*
X92699406Y-156593373D01*
X92454462Y-156697850D01*
X92446835Y-156701736D01*
X92218333Y-156838493D01*
X92211306Y-156843377D01*
X92147262Y-156894685D01*
X92138793Y-156906808D01*
X81248805Y-156906808D01*
X81253324Y-156898554D01*
X81298478Y-156778106D01*
X81302105Y-156762851D01*
X81307631Y-156711986D01*
X81308000Y-156705172D01*
X81308000Y-156282615D01*
X81303525Y-156267376D01*
X81302135Y-156266171D01*
X81294452Y-156264500D01*
X80422115Y-156264500D01*
X80406876Y-156268975D01*
X80405671Y-156270365D01*
X80404000Y-156278048D01*
X80404000Y-157150384D01*
X79896000Y-157150384D01*
X79896000Y-156282615D01*
X79891525Y-156267376D01*
X79890135Y-156266171D01*
X79882452Y-156264500D01*
X79010116Y-156264500D01*
X78994877Y-156268975D01*
X78993672Y-156270365D01*
X78992001Y-156278048D01*
X78992001Y-156705169D01*
X78465637Y-156705169D01*
X78460049Y-155738385D01*
X78992000Y-155738385D01*
X78996475Y-155753624D01*
X78997865Y-155754829D01*
X79005548Y-155756500D01*
X79877885Y-155756500D01*
X79893124Y-155752025D01*
X79894329Y-155750635D01*
X79896000Y-155742952D01*
X79896000Y-155738385D01*
X80404000Y-155738385D01*
X80408475Y-155753624D01*
X80409865Y-155754829D01*
X80417548Y-155756500D01*
X81289884Y-155756500D01*
X81305123Y-155752025D01*
X81306328Y-155750635D01*
X81307999Y-155742952D01*
X81307999Y-155315831D01*
X81307629Y-155309010D01*
X81302105Y-155258148D01*
X81298479Y-155242896D01*
X81253324Y-155122446D01*
X81244786Y-155106851D01*
X81168285Y-155004776D01*
X81155724Y-154992215D01*
X81053649Y-154915714D01*
X81038054Y-154907176D01*
X80917606Y-154862022D01*
X80902351Y-154858395D01*
X80851486Y-154852869D01*
X80844672Y-154852500D01*
X80422115Y-154852500D01*
X80406876Y-154856975D01*
X80405671Y-154858365D01*
X80404000Y-154866048D01*
X80404000Y-155738385D01*
X79896000Y-155738385D01*
X79896000Y-154870616D01*
X79891525Y-154855377D01*
X79890135Y-154854172D01*
X79882452Y-154852501D01*
X79455331Y-154852501D01*
X79448510Y-154852871D01*
X79397648Y-154858395D01*
X79382396Y-154862021D01*
X79261946Y-154907176D01*
X79246351Y-154915714D01*
X79144276Y-154992215D01*
X79131715Y-155004776D01*
X79055214Y-155106851D01*
X79046676Y-155122446D01*
X79001522Y-155242894D01*
X78997895Y-155258149D01*
X78992369Y-155309014D01*
X78992000Y-155315828D01*
X78992000Y-155738385D01*
X78460049Y-155738385D01*
X78450735Y-154127106D01*
X78470343Y-154058871D01*
X78523729Y-154012069D01*
X78577107Y-154000379D01*
X95077402Y-154049634D01*
G37*
%TD.AperFunction*%
%TD*%
%TA.AperFunction,Conductor*%
%TO.N,GND*%
G36*
X116392019Y-157031793D02*
G01*
X116418715Y-157081501D01*
X116508094Y-157408215D01*
X116510243Y-157414676D01*
X116528815Y-157461825D01*
X116382959Y-160641500D01*
X110247552Y-160641500D01*
X110179431Y-160621498D01*
X110132938Y-160567842D01*
X110122834Y-160497568D01*
X110152328Y-160432988D01*
X110199334Y-160399091D01*
X110410514Y-160311617D01*
X110418182Y-160307811D01*
X110648105Y-160173455D01*
X110655186Y-160168642D01*
X110736353Y-160105000D01*
X110744823Y-160093141D01*
X110738306Y-160081517D01*
X109528810Y-158872020D01*
X109514869Y-158864408D01*
X109513034Y-158864539D01*
X109506420Y-158868790D01*
X108293231Y-160081980D01*
X108285939Y-160095334D01*
X108292992Y-160105305D01*
X108324964Y-160132038D01*
X108331896Y-160137073D01*
X108557465Y-160278573D01*
X108565032Y-160282630D01*
X108807724Y-160392209D01*
X108819770Y-160396689D01*
X108819261Y-160398059D01*
X108873679Y-160433215D01*
X108903018Y-160497866D01*
X108892746Y-160568116D01*
X108846126Y-160621660D01*
X108778258Y-160641500D01*
X94725695Y-160641500D01*
X94834944Y-159607833D01*
X94949353Y-159722242D01*
X94961563Y-159728910D01*
X94973061Y-159720221D01*
X95071505Y-159586206D01*
X95076089Y-159578983D01*
X95203153Y-159344959D01*
X95206721Y-159337165D01*
X95300850Y-159088062D01*
X95303323Y-159079870D01*
X95362776Y-158820289D01*
X95364114Y-158811835D01*
X95387948Y-158544784D01*
X95388194Y-158539846D01*
X95388585Y-158502485D01*
X95388442Y-158497519D01*
X95370207Y-158230035D01*
X95369046Y-158221561D01*
X95315042Y-157960788D01*
X95312743Y-157952553D01*
X95223848Y-157701520D01*
X95220451Y-157693670D01*
X95098309Y-157457024D01*
X95093881Y-157449712D01*
X95067070Y-157411565D01*
X95100000Y-157100000D01*
X95287284Y-157099127D01*
X95287285Y-157099127D01*
X97990836Y-157086523D01*
X107835843Y-157040625D01*
X107904054Y-157060310D01*
X107950796Y-157113748D01*
X107961228Y-157183974D01*
X107938751Y-157240150D01*
X107801112Y-157431696D01*
X107796608Y-157438960D01*
X107671994Y-157674316D01*
X107668515Y-157682130D01*
X107576999Y-157932209D01*
X107574610Y-157940432D01*
X107517880Y-158200622D01*
X107516631Y-158209078D01*
X107495736Y-158474570D01*
X107495647Y-158483120D01*
X107510976Y-158748975D01*
X107512049Y-158757475D01*
X107563318Y-159018791D01*
X107565531Y-159027053D01*
X107651792Y-159279001D01*
X107655108Y-159286888D01*
X107774762Y-159524795D01*
X107779119Y-159532161D01*
X107909594Y-159722003D01*
X107919847Y-159730347D01*
X107933588Y-159723201D01*
X109426905Y-158229885D01*
X109489217Y-158195859D01*
X109560033Y-158200924D01*
X109605095Y-158229885D01*
X111097453Y-159722242D01*
X111109663Y-159728910D01*
X111121161Y-159720221D01*
X111219605Y-159586206D01*
X111224189Y-159578983D01*
X111351253Y-159344959D01*
X111354821Y-159337165D01*
X111448950Y-159088062D01*
X111451423Y-159079870D01*
X111510876Y-158820289D01*
X111512214Y-158811835D01*
X111536048Y-158544784D01*
X111536294Y-158539846D01*
X111536685Y-158502485D01*
X111536542Y-158497519D01*
X111518307Y-158230035D01*
X111517146Y-158221561D01*
X111463142Y-157960788D01*
X111460843Y-157952553D01*
X111371948Y-157701520D01*
X111368551Y-157693670D01*
X111246409Y-157457024D01*
X111241981Y-157449712D01*
X111088852Y-157231832D01*
X111087616Y-157230306D01*
X111087378Y-157229735D01*
X111086387Y-157228325D01*
X111086699Y-157228106D01*
X111060290Y-157164778D01*
X111072730Y-157094880D01*
X111120984Y-157042803D01*
X111184949Y-157025012D01*
X113827438Y-157012693D01*
X113838560Y-157013133D01*
X113842630Y-157013474D01*
X113846869Y-157014123D01*
X114121782Y-157018442D01*
X114126035Y-157017927D01*
X114126042Y-157017927D01*
X114175747Y-157011912D01*
X114190296Y-157011001D01*
X114293327Y-157010521D01*
X116343550Y-157000962D01*
X116392019Y-157031793D01*
G37*
%TD.AperFunction*%
%TD*%
%TA.AperFunction,Conductor*%
%TO.N,GND*%
G36*
X111769994Y-151313182D02*
G01*
X111769973Y-151325175D01*
X111769973Y-151325176D01*
X111758135Y-158155701D01*
X111738015Y-158223787D01*
X111684279Y-158270187D01*
X111613987Y-158280169D01*
X111549458Y-158250564D01*
X111511178Y-158190772D01*
X111508753Y-158181034D01*
X111463142Y-157960788D01*
X111460843Y-157952553D01*
X111371948Y-157701520D01*
X111368551Y-157693670D01*
X111246409Y-157457024D01*
X111241981Y-157449712D01*
X111121774Y-157278675D01*
X111111252Y-157270295D01*
X111097864Y-157277347D01*
X109888020Y-158487190D01*
X109880408Y-158501131D01*
X109880539Y-158502966D01*
X109884790Y-158509580D01*
X111097453Y-159722242D01*
X111109663Y-159728910D01*
X111121161Y-159720221D01*
X111219605Y-159586206D01*
X111224189Y-159578983D01*
X111351253Y-159344959D01*
X111354821Y-159337165D01*
X111448950Y-159088062D01*
X111451423Y-159079870D01*
X111508093Y-158832438D01*
X111542798Y-158770502D01*
X111605479Y-158737162D01*
X111676235Y-158743001D01*
X111732602Y-158786168D01*
X111756683Y-158852956D01*
X111756913Y-158860786D01*
X111754045Y-160515718D01*
X111733925Y-160583804D01*
X111680189Y-160630204D01*
X111628045Y-160641500D01*
X110247552Y-160641500D01*
X110179431Y-160621498D01*
X110132938Y-160567842D01*
X110122834Y-160497568D01*
X110152328Y-160432988D01*
X110199334Y-160399091D01*
X110410514Y-160311617D01*
X110418182Y-160307811D01*
X110648105Y-160173455D01*
X110655186Y-160168642D01*
X110736353Y-160105000D01*
X110744823Y-160093141D01*
X110738306Y-160081517D01*
X109528810Y-158872020D01*
X109514869Y-158864408D01*
X109513034Y-158864539D01*
X109506420Y-158868790D01*
X108293231Y-160081980D01*
X108285939Y-160095334D01*
X108292992Y-160105305D01*
X108324964Y-160132038D01*
X108331896Y-160137073D01*
X108557465Y-160278573D01*
X108565032Y-160282630D01*
X108807724Y-160392209D01*
X108819770Y-160396689D01*
X108819261Y-160398059D01*
X108873679Y-160433215D01*
X108903018Y-160497866D01*
X108892746Y-160568116D01*
X108846126Y-160621660D01*
X108778258Y-160641500D01*
X101076000Y-160641500D01*
X101007879Y-160621498D01*
X100961386Y-160567842D01*
X100950000Y-160515500D01*
X100950000Y-158483120D01*
X107495647Y-158483120D01*
X107510976Y-158748975D01*
X107512049Y-158757475D01*
X107563318Y-159018791D01*
X107565531Y-159027053D01*
X107651792Y-159279001D01*
X107655108Y-159286888D01*
X107774762Y-159524795D01*
X107779119Y-159532161D01*
X107909594Y-159722003D01*
X107919847Y-159730347D01*
X107933588Y-159723201D01*
X109143980Y-158512810D01*
X109151592Y-158498869D01*
X109151461Y-158497034D01*
X109147210Y-158490420D01*
X107934081Y-157277292D01*
X107922070Y-157270733D01*
X107910332Y-157279701D01*
X107801118Y-157431688D01*
X107796606Y-157438964D01*
X107671994Y-157674316D01*
X107668515Y-157682130D01*
X107576999Y-157932209D01*
X107574610Y-157940432D01*
X107517880Y-158200622D01*
X107516631Y-158209078D01*
X107495736Y-158474570D01*
X107495647Y-158483120D01*
X100950000Y-158483120D01*
X100950000Y-156906808D01*
X108286893Y-156906808D01*
X108293289Y-156918078D01*
X109503190Y-158127980D01*
X109517131Y-158135592D01*
X109518966Y-158135461D01*
X109525580Y-158131210D01*
X110738289Y-156918500D01*
X110745481Y-156905330D01*
X110738159Y-156895095D01*
X110689878Y-156855578D01*
X110682902Y-156850620D01*
X110455855Y-156711486D01*
X110448245Y-156707508D01*
X110204423Y-156600478D01*
X110196363Y-156597576D01*
X109940257Y-156524622D01*
X109931882Y-156522842D01*
X109668245Y-156485321D01*
X109659697Y-156484693D01*
X109393405Y-156483298D01*
X109384871Y-156483835D01*
X109120848Y-156518595D01*
X109112450Y-156520288D01*
X108855601Y-156590554D01*
X108847506Y-156593373D01*
X108602562Y-156697850D01*
X108594935Y-156701736D01*
X108366433Y-156838493D01*
X108359406Y-156843377D01*
X108295362Y-156894685D01*
X108286893Y-156906808D01*
X100950000Y-156906808D01*
X100950000Y-150178834D01*
X102494899Y-150178834D01*
X102510726Y-150453325D01*
X102511551Y-150457530D01*
X102511552Y-150457538D01*
X102522220Y-150511913D01*
X102563659Y-150723128D01*
X102565046Y-150727178D01*
X102565047Y-150727183D01*
X102651330Y-150979195D01*
X102652719Y-150983251D01*
X102776258Y-151228881D01*
X102778684Y-151232410D01*
X102778687Y-151232416D01*
X102815841Y-151286475D01*
X102931989Y-151455471D01*
X103117032Y-151658830D01*
X103120321Y-151661580D01*
X103324675Y-151832448D01*
X103324680Y-151832452D01*
X103327961Y-151835195D01*
X103560875Y-151981301D01*
X103564777Y-151983063D01*
X103564781Y-151983065D01*
X103807550Y-152092680D01*
X103807554Y-152092682D01*
X103811462Y-152094446D01*
X103815581Y-152095666D01*
X104070973Y-152171317D01*
X104070977Y-152171318D01*
X104075086Y-152172535D01*
X104079320Y-152173183D01*
X104079325Y-152173184D01*
X104342627Y-152213474D01*
X104342629Y-152213474D01*
X104346869Y-152214123D01*
X104486809Y-152216322D01*
X104617491Y-152218375D01*
X104617497Y-152218375D01*
X104621782Y-152218442D01*
X104894737Y-152185411D01*
X105160684Y-152115641D01*
X105414702Y-152010423D01*
X105464539Y-151981301D01*
X105648392Y-151873866D01*
X105648393Y-151873866D01*
X105652090Y-151871705D01*
X105868455Y-151702053D01*
X106059794Y-151504607D01*
X106062327Y-151501159D01*
X106062331Y-151501154D01*
X106220028Y-151286475D01*
X106222566Y-151283020D01*
X106353759Y-151041392D01*
X106450946Y-150784195D01*
X106512328Y-150516187D01*
X106536769Y-150242329D01*
X106537212Y-150200000D01*
X106518511Y-149925690D01*
X106514172Y-149904735D01*
X106463625Y-149660653D01*
X106462756Y-149656456D01*
X106370977Y-149397280D01*
X106244873Y-149152958D01*
X106232190Y-149134911D01*
X106089240Y-148931515D01*
X106086777Y-148928010D01*
X105899615Y-148726600D01*
X105686850Y-148552454D01*
X105452420Y-148408795D01*
X105448484Y-148407067D01*
X105204589Y-148300004D01*
X105204585Y-148300003D01*
X105200661Y-148298280D01*
X104936234Y-148222956D01*
X104734047Y-148194181D01*
X104668282Y-148184821D01*
X104668280Y-148184821D01*
X104664030Y-148184216D01*
X104659741Y-148184194D01*
X104659734Y-148184193D01*
X104393373Y-148182798D01*
X104393366Y-148182798D01*
X104389087Y-148182776D01*
X104384843Y-148183335D01*
X104384839Y-148183335D01*
X104264854Y-148199132D01*
X104116493Y-148218664D01*
X103851291Y-148291215D01*
X103847343Y-148292899D01*
X103602341Y-148397401D01*
X103602337Y-148397403D01*
X103598389Y-148399087D01*
X103578419Y-148411039D01*
X103366149Y-148538079D01*
X103366145Y-148538082D01*
X103362467Y-148540283D01*
X103359124Y-148542961D01*
X103359120Y-148542964D01*
X103347275Y-148552454D01*
X103147890Y-148712192D01*
X103144946Y-148715294D01*
X103144942Y-148715298D01*
X102961579Y-148908522D01*
X102958629Y-148911631D01*
X102956130Y-148915109D01*
X102956129Y-148915110D01*
X102800695Y-149131420D01*
X102800692Y-149131425D01*
X102798187Y-149134911D01*
X102669531Y-149377899D01*
X102575043Y-149636100D01*
X102516471Y-149904735D01*
X102494899Y-150178834D01*
X100950000Y-150178834D01*
X100950000Y-138832385D01*
X100970002Y-138764264D01*
X101025469Y-138716961D01*
X104956073Y-136996189D01*
X111800000Y-134000000D01*
X111769994Y-151313182D01*
G37*
%TD.AperFunction*%
%TD*%
M02*
