%TF.GenerationSoftware,KiCad,Pcbnew,(6.0.7)*%
%TF.CreationDate,2022-09-09T14:56:33-07:00*%
%TF.ProjectId,12AQ5 osc amp,31324151-3520-46f7-9363-20616d702e6b,rev?*%
%TF.SameCoordinates,Original*%
%TF.FileFunction,Legend,Top*%
%TF.FilePolarity,Positive*%
%FSLAX46Y46*%
G04 Gerber Fmt 4.6, Leading zero omitted, Abs format (unit mm)*
G04 Created by KiCad (PCBNEW (6.0.7)) date 2022-09-09 14:56:33*
%MOMM*%
%LPD*%
G01*
G04 APERTURE LIST*
%ADD10C,0.300000*%
%ADD11C,0.150000*%
%ADD12C,0.254000*%
%ADD13C,0.200000*%
%ADD14C,0.120000*%
%ADD15C,0.100000*%
%ADD16C,0.127000*%
%ADD17C,0.340000*%
G04 APERTURE END LIST*
D10*
X113971428Y-135128571D02*
X114828571Y-135128571D01*
X114400000Y-136628571D02*
X114400000Y-135128571D01*
X115542857Y-136628571D02*
X115400000Y-136557142D01*
X115328571Y-136485714D01*
X115257142Y-136342857D01*
X115257142Y-135914285D01*
X115328571Y-135771428D01*
X115400000Y-135700000D01*
X115542857Y-135628571D01*
X115757142Y-135628571D01*
X115900000Y-135700000D01*
X115971428Y-135771428D01*
X116042857Y-135914285D01*
X116042857Y-136342857D01*
X115971428Y-136485714D01*
X115900000Y-136557142D01*
X115757142Y-136628571D01*
X115542857Y-136628571D01*
X118542857Y-136628571D02*
X117828571Y-136628571D01*
X117828571Y-135128571D01*
X119042857Y-136628571D02*
X119042857Y-135128571D01*
X119614285Y-135128571D01*
X119757142Y-135200000D01*
X119828571Y-135271428D01*
X119900000Y-135414285D01*
X119900000Y-135628571D01*
X119828571Y-135771428D01*
X119757142Y-135842857D01*
X119614285Y-135914285D01*
X119042857Y-135914285D01*
X121042857Y-135842857D02*
X120542857Y-135842857D01*
X120542857Y-136628571D02*
X120542857Y-135128571D01*
X121257142Y-135128571D01*
D11*
X52921428Y-128928571D02*
X52064285Y-128928571D01*
X52492857Y-128928571D02*
X52492857Y-127428571D01*
X52350000Y-127642857D01*
X52207142Y-127785714D01*
X52064285Y-127857142D01*
X53492857Y-127571428D02*
X53564285Y-127500000D01*
X53707142Y-127428571D01*
X54064285Y-127428571D01*
X54207142Y-127500000D01*
X54278571Y-127571428D01*
X54350000Y-127714285D01*
X54350000Y-127857142D01*
X54278571Y-128071428D01*
X53421428Y-128928571D01*
X54350000Y-128928571D01*
X54921428Y-128500000D02*
X55635714Y-128500000D01*
X54778571Y-128928571D02*
X55278571Y-127428571D01*
X55778571Y-128928571D01*
X57278571Y-129071428D02*
X57135714Y-129000000D01*
X56992857Y-128857142D01*
X56778571Y-128642857D01*
X56635714Y-128571428D01*
X56492857Y-128571428D01*
X56564285Y-128928571D02*
X56421428Y-128857142D01*
X56278571Y-128714285D01*
X56207142Y-128428571D01*
X56207142Y-127928571D01*
X56278571Y-127642857D01*
X56421428Y-127500000D01*
X56564285Y-127428571D01*
X56850000Y-127428571D01*
X56992857Y-127500000D01*
X57135714Y-127642857D01*
X57207142Y-127928571D01*
X57207142Y-128428571D01*
X57135714Y-128714285D01*
X56992857Y-128857142D01*
X56850000Y-128928571D01*
X56564285Y-128928571D01*
X58564285Y-127428571D02*
X57850000Y-127428571D01*
X57778571Y-128142857D01*
X57850000Y-128071428D01*
X57992857Y-128000000D01*
X58350000Y-128000000D01*
X58492857Y-128071428D01*
X58564285Y-128142857D01*
X58635714Y-128285714D01*
X58635714Y-128642857D01*
X58564285Y-128785714D01*
X58492857Y-128857142D01*
X58350000Y-128928571D01*
X57992857Y-128928571D01*
X57850000Y-128857142D01*
X57778571Y-128785714D01*
D10*
X118828571Y-147257142D02*
X119971428Y-147257142D01*
X25392857Y-131542857D02*
X25392857Y-132685714D01*
X24821428Y-132114285D02*
X25964285Y-132114285D01*
X25607142Y-133900000D02*
X25535714Y-134114285D01*
X25464285Y-134185714D01*
X25321428Y-134257142D01*
X25107142Y-134257142D01*
X24964285Y-134185714D01*
X24892857Y-134114285D01*
X24821428Y-133971428D01*
X24821428Y-133400000D01*
X26321428Y-133400000D01*
X26321428Y-133900000D01*
X26250000Y-134042857D01*
X26178571Y-134114285D01*
X26035714Y-134185714D01*
X25892857Y-134185714D01*
X25750000Y-134114285D01*
X25678571Y-134042857D01*
X25607142Y-133900000D01*
X25607142Y-133400000D01*
X24821428Y-135542857D02*
X25607142Y-135542857D01*
X25750000Y-135471428D01*
X25821428Y-135328571D01*
X25821428Y-135042857D01*
X25750000Y-134900000D01*
X24892857Y-135542857D02*
X24821428Y-135400000D01*
X24821428Y-135042857D01*
X24892857Y-134900000D01*
X25035714Y-134828571D01*
X25178571Y-134828571D01*
X25321428Y-134900000D01*
X25392857Y-135042857D01*
X25392857Y-135400000D01*
X25464285Y-135542857D01*
X25821428Y-136042857D02*
X25821428Y-136614285D01*
X26321428Y-136257142D02*
X25035714Y-136257142D01*
X24892857Y-136328571D01*
X24821428Y-136471428D01*
X24821428Y-136614285D01*
X25392857Y-137114285D02*
X25392857Y-138257142D01*
X93035714Y-144328571D02*
X93035714Y-142828571D01*
X93892857Y-144328571D02*
X93250000Y-143471428D01*
X93892857Y-142828571D02*
X93035714Y-143685714D01*
X95107142Y-144257142D02*
X94964285Y-144328571D01*
X94678571Y-144328571D01*
X94535714Y-144257142D01*
X94464285Y-144114285D01*
X94464285Y-143542857D01*
X94535714Y-143400000D01*
X94678571Y-143328571D01*
X94964285Y-143328571D01*
X95107142Y-143400000D01*
X95178571Y-143542857D01*
X95178571Y-143685714D01*
X94464285Y-143828571D01*
X95678571Y-143328571D02*
X96035714Y-144328571D01*
X96392857Y-143328571D02*
X96035714Y-144328571D01*
X95892857Y-144685714D01*
X95821428Y-144757142D01*
X95678571Y-144828571D01*
X97535714Y-144257142D02*
X97392857Y-144328571D01*
X97107142Y-144328571D01*
X96964285Y-144257142D01*
X96892857Y-144114285D01*
X96892857Y-143542857D01*
X96964285Y-143400000D01*
X97107142Y-143328571D01*
X97392857Y-143328571D01*
X97535714Y-143400000D01*
X97607142Y-143542857D01*
X97607142Y-143685714D01*
X96892857Y-143828571D01*
X98250000Y-144328571D02*
X98250000Y-143328571D01*
X98250000Y-143614285D02*
X98321428Y-143471428D01*
X98392857Y-143400000D01*
X98535714Y-143328571D01*
X98678571Y-143328571D01*
X122057142Y-146207142D02*
X122057142Y-145064285D01*
X121842857Y-143850000D02*
X121914285Y-143635714D01*
X121985714Y-143564285D01*
X122128571Y-143492857D01*
X122342857Y-143492857D01*
X122485714Y-143564285D01*
X122557142Y-143635714D01*
X122628571Y-143778571D01*
X122628571Y-144350000D01*
X121128571Y-144350000D01*
X121128571Y-143850000D01*
X121200000Y-143707142D01*
X121271428Y-143635714D01*
X121414285Y-143564285D01*
X121557142Y-143564285D01*
X121700000Y-143635714D01*
X121771428Y-143707142D01*
X121842857Y-143850000D01*
X121842857Y-144350000D01*
X122628571Y-142207142D02*
X121842857Y-142207142D01*
X121700000Y-142278571D01*
X121628571Y-142421428D01*
X121628571Y-142707142D01*
X121700000Y-142850000D01*
X122557142Y-142207142D02*
X122628571Y-142350000D01*
X122628571Y-142707142D01*
X122557142Y-142850000D01*
X122414285Y-142921428D01*
X122271428Y-142921428D01*
X122128571Y-142850000D01*
X122057142Y-142707142D01*
X122057142Y-142350000D01*
X121985714Y-142207142D01*
X121628571Y-141707142D02*
X121628571Y-141135714D01*
X121128571Y-141492857D02*
X122414285Y-141492857D01*
X122557142Y-141421428D01*
X122628571Y-141278571D01*
X122628571Y-141135714D01*
X122057142Y-140635714D02*
X122057142Y-139492857D01*
X122628571Y-140064285D02*
X121485714Y-140064285D01*
X27578571Y-120657142D02*
X28721428Y-120657142D01*
X28150000Y-121228571D02*
X28150000Y-120085714D01*
X25292857Y-122071428D02*
X25292857Y-123214285D01*
X24721428Y-122642857D02*
X25864285Y-122642857D01*
X24721428Y-123928571D02*
X26221428Y-123928571D01*
X25507142Y-123928571D02*
X25507142Y-124785714D01*
X24721428Y-124785714D02*
X26221428Y-124785714D01*
X26221428Y-125285714D02*
X24721428Y-125785714D01*
X26221428Y-126285714D01*
X25292857Y-126785714D02*
X25292857Y-127928571D01*
X94892857Y-137057142D02*
X95464285Y-137057142D01*
X95750000Y-137200000D01*
X96035714Y-137485714D01*
X96178571Y-138057142D01*
X96178571Y-139057142D01*
X96035714Y-139628571D01*
X95750000Y-139914285D01*
X95464285Y-140057142D01*
X94892857Y-140057142D01*
X94607142Y-139914285D01*
X94321428Y-139628571D01*
X94178571Y-139057142D01*
X94178571Y-138057142D01*
X94321428Y-137485714D01*
X94607142Y-137200000D01*
X94892857Y-137057142D01*
X97321428Y-139914285D02*
X97750000Y-140057142D01*
X98464285Y-140057142D01*
X98750000Y-139914285D01*
X98892857Y-139771428D01*
X99035714Y-139485714D01*
X99035714Y-139200000D01*
X98892857Y-138914285D01*
X98750000Y-138771428D01*
X98464285Y-138628571D01*
X97892857Y-138485714D01*
X97607142Y-138342857D01*
X97464285Y-138200000D01*
X97321428Y-137914285D01*
X97321428Y-137628571D01*
X97464285Y-137342857D01*
X97607142Y-137200000D01*
X97892857Y-137057142D01*
X98607142Y-137057142D01*
X99035714Y-137200000D01*
X102035714Y-139771428D02*
X101892857Y-139914285D01*
X101464285Y-140057142D01*
X101178571Y-140057142D01*
X100750000Y-139914285D01*
X100464285Y-139628571D01*
X100321428Y-139342857D01*
X100178571Y-138771428D01*
X100178571Y-138342857D01*
X100321428Y-137771428D01*
X100464285Y-137485714D01*
X100750000Y-137200000D01*
X101178571Y-137057142D01*
X101464285Y-137057142D01*
X101892857Y-137200000D01*
X102035714Y-137342857D01*
X105464285Y-139200000D02*
X106892857Y-139200000D01*
X105178571Y-140057142D02*
X106178571Y-137057142D01*
X107178571Y-140057142D01*
X108178571Y-140057142D02*
X108178571Y-137057142D01*
X109178571Y-139200000D01*
X110178571Y-137057142D01*
X110178571Y-140057142D01*
X111607142Y-140057142D02*
X111607142Y-137057142D01*
X112750000Y-137057142D01*
X113035714Y-137200000D01*
X113178571Y-137342857D01*
X113321428Y-137628571D01*
X113321428Y-138057142D01*
X113178571Y-138342857D01*
X113035714Y-138485714D01*
X112750000Y-138628571D01*
X111607142Y-138628571D01*
X29057142Y-129221428D02*
X29057142Y-128078571D01*
X94364285Y-133300000D02*
X95792857Y-133300000D01*
X94078571Y-134157142D02*
X95078571Y-131157142D01*
X96078571Y-134157142D01*
X97078571Y-134157142D02*
X97078571Y-131157142D01*
X99792857Y-131157142D02*
X99221428Y-131157142D01*
X98935714Y-131300000D01*
X98792857Y-131442857D01*
X98507142Y-131871428D01*
X98364285Y-132442857D01*
X98364285Y-133585714D01*
X98507142Y-133871428D01*
X98650000Y-134014285D01*
X98935714Y-134157142D01*
X99507142Y-134157142D01*
X99792857Y-134014285D01*
X99935714Y-133871428D01*
X100078571Y-133585714D01*
X100078571Y-132871428D01*
X99935714Y-132585714D01*
X99792857Y-132442857D01*
X99507142Y-132300000D01*
X98935714Y-132300000D01*
X98650000Y-132442857D01*
X98507142Y-132585714D01*
X98364285Y-132871428D01*
X101078571Y-131157142D02*
X103078571Y-134157142D01*
X103078571Y-131157142D02*
X101078571Y-134157142D01*
X105792857Y-131300000D02*
X105507142Y-131157142D01*
X105078571Y-131157142D01*
X104650000Y-131300000D01*
X104364285Y-131585714D01*
X104221428Y-131871428D01*
X104078571Y-132442857D01*
X104078571Y-132871428D01*
X104221428Y-133442857D01*
X104364285Y-133728571D01*
X104650000Y-134014285D01*
X105078571Y-134157142D01*
X105364285Y-134157142D01*
X105792857Y-134014285D01*
X105935714Y-133871428D01*
X105935714Y-132871428D01*
X105364285Y-132871428D01*
X118728571Y-138157142D02*
X119871428Y-138157142D01*
X119300000Y-138728571D02*
X119300000Y-137585714D01*
X26271428Y-144200000D02*
X24771428Y-145200000D01*
X26271428Y-145200000D02*
X24771428Y-144200000D01*
X25771428Y-145557142D02*
X25771428Y-146128571D01*
X26271428Y-145771428D02*
X24985714Y-145771428D01*
X24842857Y-145842857D01*
X24771428Y-145985714D01*
X24771428Y-146128571D01*
X24771428Y-147271428D02*
X25557142Y-147271428D01*
X25700000Y-147200000D01*
X25771428Y-147057142D01*
X25771428Y-146771428D01*
X25700000Y-146628571D01*
X24842857Y-147271428D02*
X24771428Y-147128571D01*
X24771428Y-146771428D01*
X24842857Y-146628571D01*
X24985714Y-146557142D01*
X25128571Y-146557142D01*
X25271428Y-146628571D01*
X25342857Y-146771428D01*
X25342857Y-147128571D01*
X25414285Y-147271428D01*
X24771428Y-148200000D02*
X24842857Y-148057142D01*
X24985714Y-147985714D01*
X26271428Y-147985714D01*
X28457142Y-139771428D02*
X28457142Y-138628571D01*
X105864285Y-144357142D02*
X106078571Y-144428571D01*
X106435714Y-144428571D01*
X106578571Y-144357142D01*
X106650000Y-144285714D01*
X106721428Y-144142857D01*
X106721428Y-144000000D01*
X106650000Y-143857142D01*
X106578571Y-143785714D01*
X106435714Y-143714285D01*
X106150000Y-143642857D01*
X106007142Y-143571428D01*
X105935714Y-143500000D01*
X105864285Y-143357142D01*
X105864285Y-143214285D01*
X105935714Y-143071428D01*
X106007142Y-143000000D01*
X106150000Y-142928571D01*
X106507142Y-142928571D01*
X106721428Y-143000000D01*
X107150000Y-143428571D02*
X107721428Y-143428571D01*
X107364285Y-142928571D02*
X107364285Y-144214285D01*
X107435714Y-144357142D01*
X107578571Y-144428571D01*
X107721428Y-144428571D01*
X108221428Y-144428571D02*
X108221428Y-143428571D01*
X108221428Y-143714285D02*
X108292857Y-143571428D01*
X108364285Y-143500000D01*
X108507142Y-143428571D01*
X108650000Y-143428571D01*
X108935714Y-143428571D02*
X109507142Y-143428571D01*
X109150000Y-142928571D02*
X109150000Y-144214285D01*
X109221428Y-144357142D01*
X109364285Y-144428571D01*
X109507142Y-144428571D01*
X111150000Y-144428571D02*
X111150000Y-142928571D01*
X112007142Y-144428571D02*
X111364285Y-143571428D01*
X112007142Y-142928571D02*
X111150000Y-143785714D01*
X113221428Y-144357142D02*
X113078571Y-144428571D01*
X112792857Y-144428571D01*
X112650000Y-144357142D01*
X112578571Y-144214285D01*
X112578571Y-143642857D01*
X112650000Y-143500000D01*
X112792857Y-143428571D01*
X113078571Y-143428571D01*
X113221428Y-143500000D01*
X113292857Y-143642857D01*
X113292857Y-143785714D01*
X112578571Y-143928571D01*
X113792857Y-143428571D02*
X114150000Y-144428571D01*
X114507142Y-143428571D02*
X114150000Y-144428571D01*
X114007142Y-144785714D01*
X113935714Y-144857142D01*
X113792857Y-144928571D01*
X27728571Y-130257142D02*
X28871428Y-130257142D01*
X28300000Y-130828571D02*
X28300000Y-129685714D01*
D11*
%TO.C,J7*%
X115466666Y-142002380D02*
X115466666Y-142716666D01*
X115419047Y-142859523D01*
X115323809Y-142954761D01*
X115180952Y-143002380D01*
X115085714Y-143002380D01*
X115847619Y-142002380D02*
X116514285Y-142002380D01*
X116085714Y-143002380D01*
D12*
%TO.C,U1*%
X79332380Y-135604523D02*
X79332380Y-136632619D01*
X79392857Y-136753571D01*
X79453333Y-136814047D01*
X79574285Y-136874523D01*
X79816190Y-136874523D01*
X79937142Y-136814047D01*
X79997619Y-136753571D01*
X80058095Y-136632619D01*
X80058095Y-135604523D01*
X81328095Y-136874523D02*
X80602380Y-136874523D01*
X80965238Y-136874523D02*
X80965238Y-135604523D01*
X80844285Y-135785952D01*
X80723333Y-135906904D01*
X80602380Y-135967380D01*
D11*
%TO.C,J4*%
X83702121Y-156319395D02*
X84703167Y-156319395D01*
X84903376Y-156386131D01*
X85036849Y-156519604D01*
X85103586Y-156719813D01*
X85103586Y-156853286D01*
X84169276Y-155051402D02*
X85103586Y-155051402D01*
X83635384Y-155385085D02*
X84636431Y-155718767D01*
X84636431Y-154851193D01*
%TO.C,C6*%
X105433333Y-121207142D02*
X105385714Y-121254761D01*
X105242857Y-121302380D01*
X105147619Y-121302380D01*
X105004761Y-121254761D01*
X104909523Y-121159523D01*
X104861904Y-121064285D01*
X104814285Y-120873809D01*
X104814285Y-120730952D01*
X104861904Y-120540476D01*
X104909523Y-120445238D01*
X105004761Y-120350000D01*
X105147619Y-120302380D01*
X105242857Y-120302380D01*
X105385714Y-120350000D01*
X105433333Y-120397619D01*
X106290476Y-120302380D02*
X106100000Y-120302380D01*
X106004761Y-120350000D01*
X105957142Y-120397619D01*
X105861904Y-120540476D01*
X105814285Y-120730952D01*
X105814285Y-121111904D01*
X105861904Y-121207142D01*
X105909523Y-121254761D01*
X106004761Y-121302380D01*
X106195238Y-121302380D01*
X106290476Y-121254761D01*
X106338095Y-121207142D01*
X106385714Y-121111904D01*
X106385714Y-120873809D01*
X106338095Y-120778571D01*
X106290476Y-120730952D01*
X106195238Y-120683333D01*
X106004761Y-120683333D01*
X105909523Y-120730952D01*
X105861904Y-120778571D01*
X105814285Y-120873809D01*
%TO.C,J2*%
X31066666Y-124002380D02*
X31066666Y-124716666D01*
X31019047Y-124859523D01*
X30923809Y-124954761D01*
X30780952Y-125002380D01*
X30685714Y-125002380D01*
X31495238Y-124097619D02*
X31542857Y-124050000D01*
X31638095Y-124002380D01*
X31876190Y-124002380D01*
X31971428Y-124050000D01*
X32019047Y-124097619D01*
X32066666Y-124192857D01*
X32066666Y-124288095D01*
X32019047Y-124430952D01*
X31447619Y-125002380D01*
X32066666Y-125002380D01*
D13*
%TO.C,V1*%
X48080952Y-126954761D02*
X48747619Y-128954761D01*
X49414285Y-126954761D01*
X51128571Y-128954761D02*
X49985714Y-128954761D01*
X50557142Y-128954761D02*
X50557142Y-126954761D01*
X50366666Y-127240476D01*
X50176190Y-127430952D01*
X49985714Y-127526190D01*
D11*
%TO.C,L2*%
X74183333Y-117552380D02*
X73707142Y-117552380D01*
X73707142Y-116552380D01*
X74469047Y-116647619D02*
X74516666Y-116600000D01*
X74611904Y-116552380D01*
X74850000Y-116552380D01*
X74945238Y-116600000D01*
X74992857Y-116647619D01*
X75040476Y-116742857D01*
X75040476Y-116838095D01*
X74992857Y-116980952D01*
X74421428Y-117552380D01*
X75040476Y-117552380D01*
%TO.C,C2*%
X59107142Y-146566666D02*
X59154761Y-146614285D01*
X59202380Y-146757142D01*
X59202380Y-146852380D01*
X59154761Y-146995238D01*
X59059523Y-147090476D01*
X58964285Y-147138095D01*
X58773809Y-147185714D01*
X58630952Y-147185714D01*
X58440476Y-147138095D01*
X58345238Y-147090476D01*
X58250000Y-146995238D01*
X58202380Y-146852380D01*
X58202380Y-146757142D01*
X58250000Y-146614285D01*
X58297619Y-146566666D01*
X58297619Y-146185714D02*
X58250000Y-146138095D01*
X58202380Y-146042857D01*
X58202380Y-145804761D01*
X58250000Y-145709523D01*
X58297619Y-145661904D01*
X58392857Y-145614285D01*
X58488095Y-145614285D01*
X58630952Y-145661904D01*
X59202380Y-146233333D01*
X59202380Y-145614285D01*
%TO.C,\u002AR1*%
X93623809Y-122182380D02*
X93623809Y-122420476D01*
X93385714Y-122325238D02*
X93623809Y-122420476D01*
X93861904Y-122325238D01*
X93480952Y-122610952D02*
X93623809Y-122420476D01*
X93766666Y-122610952D01*
X94814285Y-123182380D02*
X94480952Y-122706190D01*
X94242857Y-123182380D02*
X94242857Y-122182380D01*
X94623809Y-122182380D01*
X94719047Y-122230000D01*
X94766666Y-122277619D01*
X94814285Y-122372857D01*
X94814285Y-122515714D01*
X94766666Y-122610952D01*
X94719047Y-122658571D01*
X94623809Y-122706190D01*
X94242857Y-122706190D01*
X95766666Y-123182380D02*
X95195238Y-123182380D01*
X95480952Y-123182380D02*
X95480952Y-122182380D01*
X95385714Y-122325238D01*
X95290476Y-122420476D01*
X95195238Y-122468095D01*
%TO.C,R2*%
X52133333Y-123972380D02*
X51800000Y-123496190D01*
X51561904Y-123972380D02*
X51561904Y-122972380D01*
X51942857Y-122972380D01*
X52038095Y-123020000D01*
X52085714Y-123067619D01*
X52133333Y-123162857D01*
X52133333Y-123305714D01*
X52085714Y-123400952D01*
X52038095Y-123448571D01*
X51942857Y-123496190D01*
X51561904Y-123496190D01*
X52514285Y-123067619D02*
X52561904Y-123020000D01*
X52657142Y-122972380D01*
X52895238Y-122972380D01*
X52990476Y-123020000D01*
X53038095Y-123067619D01*
X53085714Y-123162857D01*
X53085714Y-123258095D01*
X53038095Y-123400952D01*
X52466666Y-123972380D01*
X53085714Y-123972380D01*
%TO.C,J6*%
X115966666Y-123552380D02*
X115966666Y-124266666D01*
X115919047Y-124409523D01*
X115823809Y-124504761D01*
X115680952Y-124552380D01*
X115585714Y-124552380D01*
X116871428Y-123552380D02*
X116680952Y-123552380D01*
X116585714Y-123600000D01*
X116538095Y-123647619D01*
X116442857Y-123790476D01*
X116395238Y-123980952D01*
X116395238Y-124361904D01*
X116442857Y-124457142D01*
X116490476Y-124504761D01*
X116585714Y-124552380D01*
X116776190Y-124552380D01*
X116871428Y-124504761D01*
X116919047Y-124457142D01*
X116966666Y-124361904D01*
X116966666Y-124123809D01*
X116919047Y-124028571D01*
X116871428Y-123980952D01*
X116776190Y-123933333D01*
X116585714Y-123933333D01*
X116490476Y-123980952D01*
X116442857Y-124028571D01*
X116395238Y-124123809D01*
%TO.C,R3*%
X85533333Y-132902380D02*
X85200000Y-132426190D01*
X84961904Y-132902380D02*
X84961904Y-131902380D01*
X85342857Y-131902380D01*
X85438095Y-131950000D01*
X85485714Y-131997619D01*
X85533333Y-132092857D01*
X85533333Y-132235714D01*
X85485714Y-132330952D01*
X85438095Y-132378571D01*
X85342857Y-132426190D01*
X84961904Y-132426190D01*
X85866666Y-131902380D02*
X86485714Y-131902380D01*
X86152380Y-132283333D01*
X86295238Y-132283333D01*
X86390476Y-132330952D01*
X86438095Y-132378571D01*
X86485714Y-132473809D01*
X86485714Y-132711904D01*
X86438095Y-132807142D01*
X86390476Y-132854761D01*
X86295238Y-132902380D01*
X86009523Y-132902380D01*
X85914285Y-132854761D01*
X85866666Y-132807142D01*
%TO.C,L1*%
X60883333Y-143352380D02*
X60407142Y-143352380D01*
X60407142Y-142352380D01*
X61740476Y-143352380D02*
X61169047Y-143352380D01*
X61454761Y-143352380D02*
X61454761Y-142352380D01*
X61359523Y-142495238D01*
X61264285Y-142590476D01*
X61169047Y-142638095D01*
%TO.C,C3*%
X53783333Y-159707142D02*
X53735714Y-159754761D01*
X53592857Y-159802380D01*
X53497619Y-159802380D01*
X53354761Y-159754761D01*
X53259523Y-159659523D01*
X53211904Y-159564285D01*
X53164285Y-159373809D01*
X53164285Y-159230952D01*
X53211904Y-159040476D01*
X53259523Y-158945238D01*
X53354761Y-158850000D01*
X53497619Y-158802380D01*
X53592857Y-158802380D01*
X53735714Y-158850000D01*
X53783333Y-158897619D01*
X54116666Y-158802380D02*
X54735714Y-158802380D01*
X54402380Y-159183333D01*
X54545238Y-159183333D01*
X54640476Y-159230952D01*
X54688095Y-159278571D01*
X54735714Y-159373809D01*
X54735714Y-159611904D01*
X54688095Y-159707142D01*
X54640476Y-159754761D01*
X54545238Y-159802380D01*
X54259523Y-159802380D01*
X54164285Y-159754761D01*
X54116666Y-159707142D01*
%TO.C,J5*%
X28066666Y-142447380D02*
X28066666Y-143161666D01*
X28019047Y-143304523D01*
X27923809Y-143399761D01*
X27780952Y-143447380D01*
X27685714Y-143447380D01*
X29019047Y-142447380D02*
X28542857Y-142447380D01*
X28495238Y-142923571D01*
X28542857Y-142875952D01*
X28638095Y-142828333D01*
X28876190Y-142828333D01*
X28971428Y-142875952D01*
X29019047Y-142923571D01*
X29066666Y-143018809D01*
X29066666Y-143256904D01*
X29019047Y-143352142D01*
X28971428Y-143399761D01*
X28876190Y-143447380D01*
X28638095Y-143447380D01*
X28542857Y-143399761D01*
X28495238Y-143352142D01*
%TO.C,R1*%
X52172380Y-139866666D02*
X51696190Y-140200000D01*
X52172380Y-140438095D02*
X51172380Y-140438095D01*
X51172380Y-140057142D01*
X51220000Y-139961904D01*
X51267619Y-139914285D01*
X51362857Y-139866666D01*
X51505714Y-139866666D01*
X51600952Y-139914285D01*
X51648571Y-139961904D01*
X51696190Y-140057142D01*
X51696190Y-140438095D01*
X52172380Y-138914285D02*
X52172380Y-139485714D01*
X52172380Y-139200000D02*
X51172380Y-139200000D01*
X51315238Y-139295238D01*
X51410476Y-139390476D01*
X51458095Y-139485714D01*
%TO.C,U2*%
X75138095Y-154602380D02*
X75138095Y-155411904D01*
X75185714Y-155507142D01*
X75233333Y-155554761D01*
X75328571Y-155602380D01*
X75519047Y-155602380D01*
X75614285Y-155554761D01*
X75661904Y-155507142D01*
X75709523Y-155411904D01*
X75709523Y-154602380D01*
X76138095Y-154697619D02*
X76185714Y-154650000D01*
X76280952Y-154602380D01*
X76519047Y-154602380D01*
X76614285Y-154650000D01*
X76661904Y-154697619D01*
X76709523Y-154792857D01*
X76709523Y-154888095D01*
X76661904Y-155030952D01*
X76090476Y-155602380D01*
X76709523Y-155602380D01*
%TO.C,C1*%
X58957142Y-135966666D02*
X59004761Y-136014285D01*
X59052380Y-136157142D01*
X59052380Y-136252380D01*
X59004761Y-136395238D01*
X58909523Y-136490476D01*
X58814285Y-136538095D01*
X58623809Y-136585714D01*
X58480952Y-136585714D01*
X58290476Y-136538095D01*
X58195238Y-136490476D01*
X58100000Y-136395238D01*
X58052380Y-136252380D01*
X58052380Y-136157142D01*
X58100000Y-136014285D01*
X58147619Y-135966666D01*
X59052380Y-135014285D02*
X59052380Y-135585714D01*
X59052380Y-135300000D02*
X58052380Y-135300000D01*
X58195238Y-135395238D01*
X58290476Y-135490476D01*
X58338095Y-135585714D01*
%TO.C,R4*%
X90033333Y-132952380D02*
X89700000Y-132476190D01*
X89461904Y-132952380D02*
X89461904Y-131952380D01*
X89842857Y-131952380D01*
X89938095Y-132000000D01*
X89985714Y-132047619D01*
X90033333Y-132142857D01*
X90033333Y-132285714D01*
X89985714Y-132380952D01*
X89938095Y-132428571D01*
X89842857Y-132476190D01*
X89461904Y-132476190D01*
X90890476Y-132285714D02*
X90890476Y-132952380D01*
X90652380Y-131904761D02*
X90414285Y-132619047D01*
X91033333Y-132619047D01*
%TO.C,J1*%
X31116666Y-133902380D02*
X31116666Y-134616666D01*
X31069047Y-134759523D01*
X30973809Y-134854761D01*
X30830952Y-134902380D01*
X30735714Y-134902380D01*
X32116666Y-134902380D02*
X31545238Y-134902380D01*
X31830952Y-134902380D02*
X31830952Y-133902380D01*
X31735714Y-134045238D01*
X31640476Y-134140476D01*
X31545238Y-134188095D01*
%TO.C,C5*%
X40733333Y-119057142D02*
X40685714Y-119104761D01*
X40542857Y-119152380D01*
X40447619Y-119152380D01*
X40304761Y-119104761D01*
X40209523Y-119009523D01*
X40161904Y-118914285D01*
X40114285Y-118723809D01*
X40114285Y-118580952D01*
X40161904Y-118390476D01*
X40209523Y-118295238D01*
X40304761Y-118200000D01*
X40447619Y-118152380D01*
X40542857Y-118152380D01*
X40685714Y-118200000D01*
X40733333Y-118247619D01*
X41638095Y-118152380D02*
X41161904Y-118152380D01*
X41114285Y-118628571D01*
X41161904Y-118580952D01*
X41257142Y-118533333D01*
X41495238Y-118533333D01*
X41590476Y-118580952D01*
X41638095Y-118628571D01*
X41685714Y-118723809D01*
X41685714Y-118961904D01*
X41638095Y-119057142D01*
X41590476Y-119104761D01*
X41495238Y-119152380D01*
X41257142Y-119152380D01*
X41161904Y-119104761D01*
X41114285Y-119057142D01*
%TO.C,C4*%
X65783333Y-115157142D02*
X65735714Y-115204761D01*
X65592857Y-115252380D01*
X65497619Y-115252380D01*
X65354761Y-115204761D01*
X65259523Y-115109523D01*
X65211904Y-115014285D01*
X65164285Y-114823809D01*
X65164285Y-114680952D01*
X65211904Y-114490476D01*
X65259523Y-114395238D01*
X65354761Y-114300000D01*
X65497619Y-114252380D01*
X65592857Y-114252380D01*
X65735714Y-114300000D01*
X65783333Y-114347619D01*
X66640476Y-114585714D02*
X66640476Y-115252380D01*
X66402380Y-114204761D02*
X66164285Y-114919047D01*
X66783333Y-114919047D01*
%TO.C,J3*%
X99850221Y-156319395D02*
X100851267Y-156319395D01*
X101051476Y-156386131D01*
X101184949Y-156519604D01*
X101251686Y-156719813D01*
X101251686Y-156853286D01*
X99850221Y-155785503D02*
X99850221Y-154917930D01*
X100384112Y-155385085D01*
X100384112Y-155184875D01*
X100450848Y-155051402D01*
X100517585Y-154984666D01*
X100651058Y-154917930D01*
X100984740Y-154917930D01*
X101118213Y-154984666D01*
X101184949Y-155051402D01*
X101251686Y-155184875D01*
X101251686Y-155585294D01*
X101184949Y-155718767D01*
X101118213Y-155785503D01*
%TO.C,Y1*%
X47176190Y-148526190D02*
X47652380Y-148526190D01*
X46652380Y-148859523D02*
X47176190Y-148526190D01*
X46652380Y-148192857D01*
X47652380Y-147335714D02*
X47652380Y-147907142D01*
X47652380Y-147621428D02*
X46652380Y-147621428D01*
X46795238Y-147716666D01*
X46890476Y-147811904D01*
X46938095Y-147907142D01*
D14*
%TO.C,J7*%
X117870000Y-141100000D02*
X117870000Y-139770000D01*
X120530000Y-142370000D02*
X120530000Y-144970000D01*
X117870000Y-144970000D02*
X120530000Y-144970000D01*
X117870000Y-139770000D02*
X119200000Y-139770000D01*
X117870000Y-142370000D02*
X120530000Y-142370000D01*
X117870000Y-142370000D02*
X117870000Y-144970000D01*
D15*
%TO.C,U1*%
X81801000Y-157991500D02*
X78499000Y-157991500D01*
D13*
X80150000Y-159810500D02*
X80150000Y-159810500D01*
D15*
X78499000Y-157991500D02*
X78499000Y-138789500D01*
X81801000Y-138789500D02*
X81801000Y-157991500D01*
X78499000Y-138789500D02*
X81801000Y-138789500D01*
D13*
X80150000Y-159810500D02*
G75*
G03*
X80150000Y-160010500I0J-100000D01*
G01*
X80150000Y-160010500D02*
G75*
G03*
X80150000Y-159810500I0J100000D01*
G01*
D16*
%TO.C,J4*%
X90367900Y-160300000D02*
X86636900Y-160303400D01*
X86662300Y-146308000D02*
X99559200Y-146304000D01*
X86636900Y-160303400D02*
X86662300Y-146308000D01*
X99590900Y-160303400D02*
X96367900Y-160300000D01*
X99559200Y-146304000D02*
X99590900Y-160303400D01*
D17*
X85638500Y-158677800D02*
G75*
G03*
X85638500Y-158677800I-170000J0D01*
G01*
D14*
%TO.C,C6*%
X108570000Y-119670000D02*
X97830000Y-119670000D01*
X108570000Y-114430000D02*
X97830000Y-114430000D01*
X97830000Y-119670000D02*
X97830000Y-114430000D01*
X108570000Y-119670000D02*
X108570000Y-114430000D01*
%TO.C,J2*%
X26920000Y-124545000D02*
X26920000Y-127145000D01*
X26920000Y-121945000D02*
X28250000Y-121945000D01*
X29580000Y-124545000D02*
X29580000Y-127145000D01*
X26920000Y-123275000D02*
X26920000Y-121945000D01*
X26920000Y-127145000D02*
X29580000Y-127145000D01*
X26920000Y-124545000D02*
X29580000Y-124545000D01*
%TO.C,V1*%
X79007838Y-130625400D02*
G75*
G03*
X79007838Y-130625400I-9558638J0D01*
G01*
X69500000Y-130600000D02*
G75*
G03*
X69500000Y-130600000I0J0D01*
G01*
%TO.C,L2*%
X76142500Y-121807500D02*
X79142500Y-121807500D01*
X76522500Y-121427500D02*
X76522500Y-112387500D01*
X76142500Y-121807500D02*
X76142500Y-120807500D01*
X76522500Y-112387500D02*
X94962500Y-112387500D01*
X94962500Y-121427500D02*
X76522500Y-121427500D01*
X94962500Y-112387500D02*
X94962500Y-121427500D01*
%TO.C,C2*%
X57621000Y-142530000D02*
X52979000Y-142530000D01*
X57621000Y-142530000D02*
X57621000Y-150270000D01*
X57621000Y-150270000D02*
X52979000Y-150270000D01*
X52979000Y-142530000D02*
X52979000Y-150270000D01*
%TO.C,\u002AR1*%
X102470000Y-128970000D02*
X102470000Y-123730000D01*
X105860000Y-126350000D02*
X102470000Y-126350000D01*
X86730000Y-123730000D02*
X86730000Y-128970000D01*
X102470000Y-123730000D02*
X86730000Y-123730000D01*
X83340000Y-126350000D02*
X86730000Y-126350000D01*
X86730000Y-128970000D02*
X102470000Y-128970000D01*
%TO.C,R2*%
X46180000Y-118680000D02*
X46180000Y-122520000D01*
X58420000Y-122520000D02*
X58420000Y-118680000D01*
X46331000Y-122520000D02*
X58243600Y-122520000D01*
X58269000Y-118695000D02*
X46254800Y-118695000D01*
%TO.C,J6*%
X116250000Y-125920000D02*
X119850000Y-125920000D01*
X114370000Y-127800000D02*
X114370000Y-131400000D01*
X116250000Y-133280000D02*
X119850000Y-133280000D01*
X121730000Y-127800000D02*
X121730000Y-131400000D01*
%TO.C,R3*%
X86640000Y-141970000D02*
X86970000Y-141970000D01*
X86970000Y-135430000D02*
X86640000Y-135430000D01*
X86970000Y-141970000D02*
X86970000Y-135430000D01*
X84560000Y-141970000D02*
X84230000Y-141970000D01*
X84230000Y-135430000D02*
X84560000Y-135430000D01*
X84230000Y-141970000D02*
X84230000Y-135430000D01*
%TO.C,L1*%
X62742500Y-141742500D02*
X63742500Y-141742500D01*
X72162500Y-160562500D02*
X63122500Y-160562500D01*
X63122500Y-142122500D02*
X72162500Y-142122500D01*
X72162500Y-142122500D02*
X72162500Y-160562500D01*
X62742500Y-141742500D02*
X62742500Y-144742500D01*
X63122500Y-160562500D02*
X63122500Y-142122500D01*
%TO.C,C3*%
X60320000Y-158220000D02*
X47580000Y-158220000D01*
X47580000Y-158220000D02*
X47580000Y-152980000D01*
X60320000Y-152980000D02*
X47580000Y-152980000D01*
X60320000Y-158220000D02*
X60320000Y-152980000D01*
%TO.C,J5*%
X27070000Y-145325000D02*
X27070000Y-143995000D01*
X27070000Y-146595000D02*
X27070000Y-149195000D01*
X27070000Y-143995000D02*
X28400000Y-143995000D01*
X29730000Y-146595000D02*
X29730000Y-149195000D01*
X27070000Y-149195000D02*
X29730000Y-149195000D01*
X27070000Y-146595000D02*
X29730000Y-146595000D01*
%TO.C,R1*%
X47980000Y-136430000D02*
X47980000Y-142970000D01*
X50720000Y-142970000D02*
X50390000Y-142970000D01*
X48310000Y-136430000D02*
X47980000Y-136430000D01*
X47980000Y-142970000D02*
X48310000Y-142970000D01*
X50390000Y-136430000D02*
X50720000Y-136430000D01*
X50720000Y-136430000D02*
X50720000Y-142970000D01*
%TO.C,U2*%
X85080000Y-153940000D02*
X85080000Y-146080000D01*
X82590000Y-153880000D02*
X82590000Y-146140000D01*
X74800000Y-146080000D02*
X74800000Y-153940000D01*
X77290000Y-146140000D02*
X77290000Y-153880000D01*
%TO.C,C1*%
X57471000Y-131930000D02*
X57471000Y-139670000D01*
X52829000Y-131930000D02*
X52829000Y-139670000D01*
X57471000Y-131930000D02*
X52829000Y-131930000D01*
X57471000Y-139670000D02*
X52829000Y-139670000D01*
%TO.C,R4*%
X89210000Y-135430000D02*
X88880000Y-135430000D01*
X91620000Y-141970000D02*
X91290000Y-141970000D01*
X88880000Y-141970000D02*
X89210000Y-141970000D01*
X88880000Y-135430000D02*
X88880000Y-141970000D01*
X91620000Y-135430000D02*
X91620000Y-141970000D01*
X91290000Y-135430000D02*
X91620000Y-135430000D01*
%TO.C,J1*%
X27020000Y-137170000D02*
X29680000Y-137170000D01*
X27020000Y-131970000D02*
X28350000Y-131970000D01*
X27020000Y-133300000D02*
X27020000Y-131970000D01*
X27020000Y-134570000D02*
X29680000Y-134570000D01*
X29680000Y-134570000D02*
X29680000Y-137170000D01*
X27020000Y-134570000D02*
X27020000Y-137170000D01*
%TO.C,C5*%
X33180000Y-117470000D02*
X45920000Y-117470000D01*
X33180000Y-112230000D02*
X45920000Y-112230000D01*
X33180000Y-112230000D02*
X33180000Y-117470000D01*
X45920000Y-112230000D02*
X45920000Y-117470000D01*
%TO.C,C4*%
X51180000Y-117420000D02*
X51180000Y-112180000D01*
X63920000Y-112180000D02*
X51180000Y-112180000D01*
X63920000Y-117420000D02*
X51180000Y-117420000D01*
X63920000Y-117420000D02*
X63920000Y-112180000D01*
D16*
%TO.C,J3*%
X115739000Y-160303400D02*
X112516000Y-160300000D01*
X115707300Y-146304000D02*
X115739000Y-160303400D01*
X102810400Y-146308000D02*
X115707300Y-146304000D01*
X102785000Y-160303400D02*
X102810400Y-146308000D01*
X106516000Y-160300000D02*
X102785000Y-160303400D01*
D17*
X101786600Y-158677800D02*
G75*
G03*
X101786600Y-158677800I-170000J0D01*
G01*
D14*
%TO.C,Y1*%
X34600000Y-129025000D02*
X34600000Y-154625000D01*
X45900000Y-129025000D02*
X45900000Y-154625000D01*
X45900000Y-129025000D02*
G75*
G03*
X34600000Y-129025000I-5650000J0D01*
G01*
X34611202Y-154649200D02*
G75*
G03*
X45900000Y-154625000I5644368J26590D01*
G01*
%TD*%
M02*
