%TF.GenerationSoftware,KiCad,Pcbnew,(6.0.7)*%
%TF.CreationDate,2022-09-09T14:56:33-07:00*%
%TF.ProjectId,12AQ5 osc amp,31324151-3520-46f7-9363-20616d702e6b,rev?*%
%TF.SameCoordinates,Original*%
%TF.FileFunction,Soldermask,Bot*%
%TF.FilePolarity,Negative*%
%FSLAX46Y46*%
G04 Gerber Fmt 4.6, Leading zero omitted, Abs format (unit mm)*
G04 Created by KiCad (PCBNEW (6.0.7)) date 2022-09-09 14:56:33*
%MOMM*%
%LPD*%
G01*
G04 APERTURE LIST*
%ADD10R,1.700000X1.700000*%
%ADD11O,1.700000X1.700000*%
%ADD12R,1.300000X1.300000*%
%ADD13C,1.300000*%
%ADD14C,3.016000*%
%ADD15C,2.000000*%
%ADD16C,3.900000*%
%ADD17R,2.000000X2.000000*%
%ADD18C,1.600000*%
%ADD19C,3.600000*%
%ADD20C,5.700000*%
%ADD21C,2.400000*%
%ADD22O,2.400000X2.400000*%
%ADD23C,2.050000*%
%ADD24C,2.250000*%
%ADD25O,1.600000X1.600000*%
%ADD26R,1.600000X1.600000*%
%ADD27C,3.000000*%
%ADD28C,9.000000*%
G04 APERTURE END LIST*
D10*
%TO.C,J7*%
X119200000Y-141100000D03*
D11*
X119200000Y-143640000D03*
%TD*%
D12*
%TO.C,U1*%
X80150000Y-156010500D03*
D13*
X80150000Y-150930500D03*
X80150000Y-145850500D03*
X80150000Y-140770500D03*
%TD*%
D14*
%TO.C,J4*%
X93367900Y-158500000D03*
X97867900Y-155000000D03*
X88367900Y-150200000D03*
%TD*%
D15*
%TO.C,C6*%
X106950000Y-117050000D03*
X99450000Y-117050000D03*
%TD*%
D10*
%TO.C,J2*%
X28250000Y-123275000D03*
D11*
X28250000Y-125815000D03*
%TD*%
D16*
%TO.C,V1*%
X62007000Y-130650800D03*
X64217000Y-135883000D03*
X69500000Y-138093000D03*
X74783000Y-135883000D03*
X76967600Y-130600000D03*
X74783000Y-125317000D03*
X69503311Y-123109719D03*
%TD*%
D15*
%TO.C,L2*%
X93342500Y-119457500D03*
X78142500Y-119457500D03*
D17*
X78142500Y-114357500D03*
D15*
X93342500Y-114357500D03*
%TD*%
D18*
%TO.C,C2*%
X55300000Y-143900000D03*
X55300000Y-148900000D03*
%TD*%
D19*
%TO.C,H1*%
X27850000Y-156350000D03*
D20*
X27850000Y-156350000D03*
%TD*%
D19*
%TO.C,H4*%
X27850000Y-116350000D03*
D20*
X27850000Y-116350000D03*
%TD*%
D21*
%TO.C,\u002AR1*%
X81900000Y-126350000D03*
D22*
X107300000Y-126350000D03*
%TD*%
D21*
%TO.C,R2*%
X59920000Y-120600000D03*
D22*
X44680000Y-120600000D03*
%TD*%
D23*
%TO.C,J6*%
X118050000Y-129600000D03*
D24*
X115510000Y-127060000D03*
X115510000Y-132140000D03*
X120590000Y-132140000D03*
X120590000Y-127060000D03*
%TD*%
D18*
%TO.C,R3*%
X85600000Y-142510000D03*
D25*
X85600000Y-134890000D03*
%TD*%
D15*
%TO.C,L1*%
X70192500Y-158942500D03*
X70192500Y-143742500D03*
D17*
X65092500Y-143742500D03*
D15*
X65092500Y-158942500D03*
%TD*%
%TO.C,C3*%
X58950000Y-155600000D03*
X48950000Y-155600000D03*
%TD*%
D10*
%TO.C,J5*%
X28400000Y-145325000D03*
D11*
X28400000Y-147865000D03*
%TD*%
D19*
%TO.C,H3*%
X119700000Y-156350000D03*
D20*
X119700000Y-156350000D03*
%TD*%
D18*
%TO.C,R1*%
X49350000Y-135890000D03*
D25*
X49350000Y-143510000D03*
%TD*%
D26*
%TO.C,U2*%
X83750000Y-152550000D03*
D25*
X83750000Y-150010000D03*
X83750000Y-147470000D03*
X76130000Y-147470000D03*
X76130000Y-150010000D03*
X76130000Y-152550000D03*
%TD*%
D18*
%TO.C,C1*%
X55150000Y-133300000D03*
X55150000Y-138300000D03*
%TD*%
%TO.C,R4*%
X90250000Y-134890000D03*
D25*
X90250000Y-142510000D03*
%TD*%
D10*
%TO.C,J1*%
X28350000Y-133300000D03*
D11*
X28350000Y-135840000D03*
%TD*%
D15*
%TO.C,C5*%
X34550000Y-114850000D03*
X44550000Y-114850000D03*
%TD*%
%TO.C,C4*%
X62550000Y-114800000D03*
X52550000Y-114800000D03*
%TD*%
D19*
%TO.C,H2*%
X119700000Y-116350000D03*
D20*
X119700000Y-116350000D03*
%TD*%
D14*
%TO.C,J3*%
X109516000Y-158500000D03*
X114016000Y-155000000D03*
X104516000Y-150200000D03*
%TD*%
D27*
%TO.C,Y1*%
X40250000Y-127575000D03*
X40250000Y-156075000D03*
D28*
X40250000Y-135650000D03*
X40250000Y-148000000D03*
%TD*%
M02*
