M48
; DRILL file {KiCad (6.0.7)} date Fri Sep  9 14:55:54 2022
; FORMAT={-:-/ absolute / metric / decimal}
; #@! TF.CreationDate,2022-09-09T14:55:54-07:00
; #@! TF.GenerationSoftware,Kicad,Pcbnew,(6.0.7)
; #@! TF.FileFunction,Plated,1,2,PTH
FMAT,2
METRIC
; #@! TA.AperFunction,Plated,PTH,ViaDrill
T1C0.400
; #@! TA.AperFunction,Plated,PTH,ComponentDrill
T2C0.800
; #@! TA.AperFunction,Plated,PTH,ComponentDrill
T3C0.900
; #@! TA.AperFunction,Plated,PTH,ComponentDrill
T4C1.000
; #@! TA.AperFunction,Plated,PTH,ComponentDrill
T5C1.200
; #@! TA.AperFunction,Plated,PTH,ComponentDrill
T6C1.500
; #@! TA.AperFunction,Plated,PTH,ComponentDrill
T7C1.600
; #@! TA.AperFunction,Plated,PTH,ComponentDrill
T8C2.000
; #@! TA.AperFunction,Plated,PTH,ComponentDrill
T9C3.000
; #@! TA.AperFunction,Plated,PTH,ComponentDrill
T10C3.200
; #@! TA.AperFunction,Plated,PTH,ComponentDrill
T11C5.250
%
G90
G05
T1
X73.55Y-152.55
T2
X49.35Y-135.89
X49.35Y-143.51
X55.15Y-133.3
X55.15Y-138.3
X55.3Y-143.9
X55.3Y-148.9
X76.13Y-147.47
X76.13Y-150.01
X76.13Y-152.55
X80.15Y-140.77
X80.15Y-145.85
X80.15Y-150.93
X80.15Y-156.01
X83.75Y-147.47
X83.75Y-150.01
X83.75Y-152.55
X85.6Y-134.89
X85.6Y-142.51
X90.25Y-134.89
X90.25Y-142.51
T3
X65.093Y-143.743
X65.093Y-158.942
X70.192Y-143.743
X70.192Y-158.942
X78.142Y-114.358
X78.142Y-119.457
X93.343Y-114.358
X93.343Y-119.457
T4
X28.25Y-123.275
X28.25Y-125.815
X28.35Y-133.3
X28.35Y-135.84
X28.4Y-145.325
X28.4Y-147.865
X34.55Y-114.85
X44.55Y-114.85
X48.95Y-155.6
X52.55Y-114.8
X58.95Y-155.6
X62.55Y-114.8
X99.45Y-117.05
X106.95Y-117.05
X119.2Y-141.1
X119.2Y-143.64
T5
X44.68Y-120.6
X59.92Y-120.6
X81.9Y-126.35
X107.3Y-126.35
T6
X118.05Y-129.6
T7
X115.51Y-127.06
X115.51Y-132.14
X120.59Y-127.06
X120.59Y-132.14
T8
X62.007Y-130.651
X64.217Y-135.883
X69.5Y-138.093
X69.503Y-123.11
X74.783Y-125.317
X74.783Y-135.883
X76.968Y-130.6
X88.368Y-150.2
X93.368Y-158.5
X97.868Y-155.0
X104.516Y-150.2
X109.516Y-158.5
X114.016Y-155.0
T9
X40.25Y-127.575
X40.25Y-156.075
T10
X27.85Y-116.35
X27.85Y-156.35
X119.7Y-116.35
X119.7Y-156.35
T11
X40.25Y-135.65
X40.25Y-148.0
T0
M30
