%TF.GenerationSoftware,KiCad,Pcbnew,(6.0.7)*%
%TF.CreationDate,2022-09-09T14:56:33-07:00*%
%TF.ProjectId,12AQ5 osc amp,31324151-3520-46f7-9363-20616d702e6b,rev?*%
%TF.SameCoordinates,Original*%
%TF.FileFunction,Legend,Bot*%
%TF.FilePolarity,Positive*%
%FSLAX46Y46*%
G04 Gerber Fmt 4.6, Leading zero omitted, Abs format (unit mm)*
G04 Created by KiCad (PCBNEW (6.0.7)) date 2022-09-09 14:56:33*
%MOMM*%
%LPD*%
G01*
G04 APERTURE LIST*
%ADD10C,0.150000*%
%ADD11C,0.300000*%
G04 APERTURE END LIST*
D10*
X92640476Y-138414285D02*
X92545238Y-138509523D01*
X92640476Y-138604761D01*
X92735714Y-138509523D01*
X92640476Y-138414285D01*
X92640476Y-138604761D01*
X90545238Y-138414285D02*
X90640476Y-138509523D01*
X90926190Y-138604761D01*
X91116666Y-138604761D01*
X91402380Y-138509523D01*
X91592857Y-138319047D01*
X91688095Y-138128571D01*
X91783333Y-137747619D01*
X91783333Y-137461904D01*
X91688095Y-137080952D01*
X91592857Y-136890476D01*
X91402380Y-136700000D01*
X91116666Y-136604761D01*
X90926190Y-136604761D01*
X90640476Y-136700000D01*
X90545238Y-136795238D01*
X89307142Y-136604761D02*
X88926190Y-136604761D01*
X88735714Y-136700000D01*
X88545238Y-136890476D01*
X88450000Y-137271428D01*
X88450000Y-137938095D01*
X88545238Y-138319047D01*
X88735714Y-138509523D01*
X88926190Y-138604761D01*
X89307142Y-138604761D01*
X89497619Y-138509523D01*
X89688095Y-138319047D01*
X89783333Y-137938095D01*
X89783333Y-137271428D01*
X89688095Y-136890476D01*
X89497619Y-136700000D01*
X89307142Y-136604761D01*
X87592857Y-138604761D02*
X87592857Y-136604761D01*
X86926190Y-138033333D01*
X86259523Y-136604761D01*
X86259523Y-138604761D01*
D11*
X112592857Y-137233333D02*
X110211904Y-137233333D01*
X113069047Y-138661904D02*
X111402380Y-133661904D01*
X109735714Y-138661904D01*
X108069047Y-138661904D02*
X108069047Y-133661904D01*
X103545238Y-133661904D02*
X104497619Y-133661904D01*
X104973809Y-133900000D01*
X105211904Y-134138095D01*
X105688095Y-134852380D01*
X105926190Y-135804761D01*
X105926190Y-137709523D01*
X105688095Y-138185714D01*
X105450000Y-138423809D01*
X104973809Y-138661904D01*
X104021428Y-138661904D01*
X103545238Y-138423809D01*
X103307142Y-138185714D01*
X103069047Y-137709523D01*
X103069047Y-136519047D01*
X103307142Y-136042857D01*
X103545238Y-135804761D01*
X104021428Y-135566666D01*
X104973809Y-135566666D01*
X105450000Y-135804761D01*
X105688095Y-136042857D01*
X105926190Y-136519047D01*
X101402380Y-133661904D02*
X98069047Y-138661904D01*
X98069047Y-133661904D02*
X101402380Y-138661904D01*
X93545238Y-133900000D02*
X94021428Y-133661904D01*
X94735714Y-133661904D01*
X95450000Y-133900000D01*
X95926190Y-134376190D01*
X96164285Y-134852380D01*
X96402380Y-135804761D01*
X96402380Y-136519047D01*
X96164285Y-137471428D01*
X95926190Y-137947619D01*
X95450000Y-138423809D01*
X94735714Y-138661904D01*
X94259523Y-138661904D01*
X93545238Y-138423809D01*
X93307142Y-138185714D01*
X93307142Y-136519047D01*
X94259523Y-136519047D01*
D10*
X120433333Y-137421428D02*
X120052380Y-138754761D01*
X119671428Y-137802380D01*
X119290476Y-138754761D01*
X118909523Y-137421428D01*
X118338095Y-137421428D02*
X117957142Y-138754761D01*
X117576190Y-137802380D01*
X117195238Y-138754761D01*
X116814285Y-137421428D01*
X116242857Y-137421428D02*
X115861904Y-138754761D01*
X115480952Y-137802380D01*
X115100000Y-138754761D01*
X114719047Y-137421428D01*
X113957142Y-138564285D02*
X113861904Y-138659523D01*
X113957142Y-138754761D01*
X114052380Y-138659523D01*
X113957142Y-138564285D01*
X113957142Y-138754761D01*
M02*
