%TF.GenerationSoftware,KiCad,Pcbnew,(6.0.7)*%
%TF.CreationDate,2022-09-09T12:51:11-07:00*%
%TF.ProjectId,12AQ5_lpf_rfout,31324151-355f-46c7-9066-5f72666f7574,rev?*%
%TF.SameCoordinates,Original*%
%TF.FileFunction,Legend,Top*%
%TF.FilePolarity,Positive*%
%FSLAX46Y46*%
G04 Gerber Fmt 4.6, Leading zero omitted, Abs format (unit mm)*
G04 Created by KiCad (PCBNEW (6.0.7)) date 2022-09-09 12:51:11*
%MOMM*%
%LPD*%
G01*
G04 APERTURE LIST*
%ADD10C,0.200000*%
%ADD11C,0.300000*%
%ADD12C,0.150000*%
%ADD13C,0.120000*%
G04 APERTURE END LIST*
D10*
X196275000Y-103650000D02*
X223075000Y-103650000D01*
X223075000Y-103650000D02*
X223075000Y-114100000D01*
X223075000Y-114100000D02*
X196275000Y-114100000D01*
X196275000Y-114100000D02*
X196275000Y-103650000D01*
D11*
X183307142Y-82128571D02*
X182807142Y-81414285D01*
X182450000Y-82128571D02*
X182450000Y-80628571D01*
X183021428Y-80628571D01*
X183164285Y-80700000D01*
X183235714Y-80771428D01*
X183307142Y-80914285D01*
X183307142Y-81128571D01*
X183235714Y-81271428D01*
X183164285Y-81342857D01*
X183021428Y-81414285D01*
X182450000Y-81414285D01*
X184450000Y-81342857D02*
X183950000Y-81342857D01*
X183950000Y-82128571D02*
X183950000Y-80628571D01*
X184664285Y-80628571D01*
X186664285Y-80628571D02*
X186950000Y-80628571D01*
X187092857Y-80700000D01*
X187235714Y-80842857D01*
X187307142Y-81128571D01*
X187307142Y-81628571D01*
X187235714Y-81914285D01*
X187092857Y-82057142D01*
X186950000Y-82128571D01*
X186664285Y-82128571D01*
X186521428Y-82057142D01*
X186378571Y-81914285D01*
X186307142Y-81628571D01*
X186307142Y-81128571D01*
X186378571Y-80842857D01*
X186521428Y-80700000D01*
X186664285Y-80628571D01*
X188592857Y-81128571D02*
X188592857Y-82128571D01*
X187950000Y-81128571D02*
X187950000Y-81914285D01*
X188021428Y-82057142D01*
X188164285Y-82128571D01*
X188378571Y-82128571D01*
X188521428Y-82057142D01*
X188592857Y-81985714D01*
X189092857Y-81128571D02*
X189664285Y-81128571D01*
X189307142Y-80628571D02*
X189307142Y-81914285D01*
X189378571Y-82057142D01*
X189521428Y-82128571D01*
X189664285Y-82128571D01*
X95628571Y-84707142D02*
X96771428Y-84707142D01*
X96200000Y-85278571D02*
X96200000Y-84135714D01*
X143212857Y-111371428D02*
X143284285Y-111300000D01*
X143427142Y-111228571D01*
X143784285Y-111228571D01*
X143927142Y-111300000D01*
X143998571Y-111371428D01*
X144070000Y-111514285D01*
X144070000Y-111657142D01*
X143998571Y-111871428D01*
X143141428Y-112728571D01*
X144070000Y-112728571D01*
X144641428Y-111371428D02*
X144712857Y-111300000D01*
X144855714Y-111228571D01*
X145212857Y-111228571D01*
X145355714Y-111300000D01*
X145427142Y-111371428D01*
X145498571Y-111514285D01*
X145498571Y-111657142D01*
X145427142Y-111871428D01*
X144570000Y-112728571D01*
X145498571Y-112728571D01*
X146427142Y-111228571D02*
X146570000Y-111228571D01*
X146712857Y-111300000D01*
X146784285Y-111371428D01*
X146855714Y-111514285D01*
X146927142Y-111800000D01*
X146927142Y-112157142D01*
X146855714Y-112442857D01*
X146784285Y-112585714D01*
X146712857Y-112657142D01*
X146570000Y-112728571D01*
X146427142Y-112728571D01*
X146284285Y-112657142D01*
X146212857Y-112585714D01*
X146141428Y-112442857D01*
X146070000Y-112157142D01*
X146070000Y-111800000D01*
X146141428Y-111514285D01*
X146212857Y-111371428D01*
X146284285Y-111300000D01*
X146427142Y-111228571D01*
X104514285Y-95078571D02*
X104014285Y-94364285D01*
X103657142Y-95078571D02*
X103657142Y-93578571D01*
X104228571Y-93578571D01*
X104371428Y-93650000D01*
X104442857Y-93721428D01*
X104514285Y-93864285D01*
X104514285Y-94078571D01*
X104442857Y-94221428D01*
X104371428Y-94292857D01*
X104228571Y-94364285D01*
X103657142Y-94364285D01*
X105657142Y-94292857D02*
X105157142Y-94292857D01*
X105157142Y-95078571D02*
X105157142Y-93578571D01*
X105871428Y-93578571D01*
X107585714Y-95078571D02*
X107585714Y-93578571D01*
X108300000Y-94078571D02*
X108300000Y-95078571D01*
X108300000Y-94221428D02*
X108371428Y-94150000D01*
X108514285Y-94078571D01*
X108728571Y-94078571D01*
X108871428Y-94150000D01*
X108942857Y-94292857D01*
X108942857Y-95078571D01*
X198821428Y-110257142D02*
X197821428Y-108828571D01*
X197107142Y-110257142D02*
X197107142Y-107257142D01*
X198250000Y-107257142D01*
X198535714Y-107400000D01*
X198678571Y-107542857D01*
X198821428Y-107828571D01*
X198821428Y-108257142D01*
X198678571Y-108542857D01*
X198535714Y-108685714D01*
X198250000Y-108828571D01*
X197107142Y-108828571D01*
X201107142Y-108685714D02*
X200107142Y-108685714D01*
X200107142Y-110257142D02*
X200107142Y-107257142D01*
X201535714Y-107257142D01*
X204821428Y-110114285D02*
X205250000Y-110257142D01*
X205964285Y-110257142D01*
X206250000Y-110114285D01*
X206392857Y-109971428D01*
X206535714Y-109685714D01*
X206535714Y-109400000D01*
X206392857Y-109114285D01*
X206250000Y-108971428D01*
X205964285Y-108828571D01*
X205392857Y-108685714D01*
X205107142Y-108542857D01*
X204964285Y-108400000D01*
X204821428Y-108114285D01*
X204821428Y-107828571D01*
X204964285Y-107542857D01*
X205107142Y-107400000D01*
X205392857Y-107257142D01*
X206107142Y-107257142D01*
X206535714Y-107400000D01*
X207392857Y-108257142D02*
X208535714Y-108257142D01*
X207821428Y-107257142D02*
X207821428Y-109828571D01*
X207964285Y-110114285D01*
X208250000Y-110257142D01*
X208535714Y-110257142D01*
X209535714Y-110257142D02*
X209535714Y-108257142D01*
X209535714Y-108828571D02*
X209678571Y-108542857D01*
X209821428Y-108400000D01*
X210107142Y-108257142D01*
X210392857Y-108257142D01*
X212535714Y-110114285D02*
X212250000Y-110257142D01*
X211678571Y-110257142D01*
X211392857Y-110114285D01*
X211250000Y-109828571D01*
X211250000Y-108685714D01*
X211392857Y-108400000D01*
X211678571Y-108257142D01*
X212250000Y-108257142D01*
X212535714Y-108400000D01*
X212678571Y-108685714D01*
X212678571Y-108971428D01*
X211250000Y-109257142D01*
X213964285Y-108257142D02*
X213964285Y-110257142D01*
X213964285Y-108542857D02*
X214107142Y-108400000D01*
X214392857Y-108257142D01*
X214821428Y-108257142D01*
X215107142Y-108400000D01*
X215250000Y-108685714D01*
X215250000Y-110257142D01*
X217964285Y-108257142D02*
X217964285Y-110685714D01*
X217821428Y-110971428D01*
X217678571Y-111114285D01*
X217392857Y-111257142D01*
X216964285Y-111257142D01*
X216678571Y-111114285D01*
X217964285Y-110114285D02*
X217678571Y-110257142D01*
X217107142Y-110257142D01*
X216821428Y-110114285D01*
X216678571Y-109971428D01*
X216535714Y-109685714D01*
X216535714Y-108828571D01*
X216678571Y-108542857D01*
X216821428Y-108400000D01*
X217107142Y-108257142D01*
X217678571Y-108257142D01*
X217964285Y-108400000D01*
X218964285Y-108257142D02*
X220107142Y-108257142D01*
X219392857Y-107257142D02*
X219392857Y-109828571D01*
X219535714Y-110114285D01*
X219821428Y-110257142D01*
X220107142Y-110257142D01*
X221107142Y-110257142D02*
X221107142Y-107257142D01*
X222392857Y-110257142D02*
X222392857Y-108685714D01*
X222250000Y-108400000D01*
X221964285Y-108257142D01*
X221535714Y-108257142D01*
X221250000Y-108400000D01*
X221107142Y-108542857D01*
X110777142Y-111421428D02*
X110848571Y-111350000D01*
X110991428Y-111278571D01*
X111348571Y-111278571D01*
X111491428Y-111350000D01*
X111562857Y-111421428D01*
X111634285Y-111564285D01*
X111634285Y-111707142D01*
X111562857Y-111921428D01*
X110705714Y-112778571D01*
X111634285Y-112778571D01*
X112205714Y-111421428D02*
X112277142Y-111350000D01*
X112420000Y-111278571D01*
X112777142Y-111278571D01*
X112920000Y-111350000D01*
X112991428Y-111421428D01*
X113062857Y-111564285D01*
X113062857Y-111707142D01*
X112991428Y-111921428D01*
X112134285Y-112778571D01*
X113062857Y-112778571D01*
X158064285Y-82600000D02*
X159492857Y-82600000D01*
X157778571Y-83457142D02*
X158778571Y-80457142D01*
X159778571Y-83457142D01*
X160778571Y-83457142D02*
X160778571Y-80457142D01*
X163492857Y-80457142D02*
X162921428Y-80457142D01*
X162635714Y-80600000D01*
X162492857Y-80742857D01*
X162207142Y-81171428D01*
X162064285Y-81742857D01*
X162064285Y-82885714D01*
X162207142Y-83171428D01*
X162350000Y-83314285D01*
X162635714Y-83457142D01*
X163207142Y-83457142D01*
X163492857Y-83314285D01*
X163635714Y-83171428D01*
X163778571Y-82885714D01*
X163778571Y-82171428D01*
X163635714Y-81885714D01*
X163492857Y-81742857D01*
X163207142Y-81600000D01*
X162635714Y-81600000D01*
X162350000Y-81742857D01*
X162207142Y-81885714D01*
X162064285Y-82171428D01*
X164778571Y-80457142D02*
X166778571Y-83457142D01*
X166778571Y-80457142D02*
X164778571Y-83457142D01*
X169492857Y-80600000D02*
X169207142Y-80457142D01*
X168778571Y-80457142D01*
X168350000Y-80600000D01*
X168064285Y-80885714D01*
X167921428Y-81171428D01*
X167778571Y-81742857D01*
X167778571Y-82171428D01*
X167921428Y-82742857D01*
X168064285Y-83028571D01*
X168350000Y-83314285D01*
X168778571Y-83457142D01*
X169064285Y-83457142D01*
X169492857Y-83314285D01*
X169635714Y-83171428D01*
X169635714Y-82171428D01*
X169064285Y-82171428D01*
X96142857Y-92878571D02*
X96142857Y-94021428D01*
X93042857Y-85792857D02*
X93042857Y-86935714D01*
X92471428Y-86364285D02*
X93614285Y-86364285D01*
X93257142Y-88150000D02*
X93185714Y-88364285D01*
X93114285Y-88435714D01*
X92971428Y-88507142D01*
X92757142Y-88507142D01*
X92614285Y-88435714D01*
X92542857Y-88364285D01*
X92471428Y-88221428D01*
X92471428Y-87650000D01*
X93971428Y-87650000D01*
X93971428Y-88150000D01*
X93900000Y-88292857D01*
X93828571Y-88364285D01*
X93685714Y-88435714D01*
X93542857Y-88435714D01*
X93400000Y-88364285D01*
X93328571Y-88292857D01*
X93257142Y-88150000D01*
X93257142Y-87650000D01*
X92471428Y-89792857D02*
X93257142Y-89792857D01*
X93400000Y-89721428D01*
X93471428Y-89578571D01*
X93471428Y-89292857D01*
X93400000Y-89150000D01*
X92542857Y-89792857D02*
X92471428Y-89650000D01*
X92471428Y-89292857D01*
X92542857Y-89150000D01*
X92685714Y-89078571D01*
X92828571Y-89078571D01*
X92971428Y-89150000D01*
X93042857Y-89292857D01*
X93042857Y-89650000D01*
X93114285Y-89792857D01*
X93471428Y-90292857D02*
X93471428Y-90864285D01*
X93971428Y-90507142D02*
X92685714Y-90507142D01*
X92542857Y-90578571D01*
X92471428Y-90721428D01*
X92471428Y-90864285D01*
X93042857Y-91364285D02*
X93042857Y-92507142D01*
X149420000Y-112728571D02*
X148562857Y-112728571D01*
X148991428Y-112728571D02*
X148991428Y-111228571D01*
X148848571Y-111442857D01*
X148705714Y-111585714D01*
X148562857Y-111657142D01*
X150348571Y-111228571D02*
X150491428Y-111228571D01*
X150634285Y-111300000D01*
X150705714Y-111371428D01*
X150777142Y-111514285D01*
X150848571Y-111800000D01*
X150848571Y-112157142D01*
X150777142Y-112442857D01*
X150705714Y-112585714D01*
X150634285Y-112657142D01*
X150491428Y-112728571D01*
X150348571Y-112728571D01*
X150205714Y-112657142D01*
X150134285Y-112585714D01*
X150062857Y-112442857D01*
X149991428Y-112157142D01*
X149991428Y-111800000D01*
X150062857Y-111514285D01*
X150134285Y-111371428D01*
X150205714Y-111300000D01*
X150348571Y-111228571D01*
X151777142Y-111228571D02*
X151920000Y-111228571D01*
X152062857Y-111300000D01*
X152134285Y-111371428D01*
X152205714Y-111514285D01*
X152277142Y-111800000D01*
X152277142Y-112157142D01*
X152205714Y-112442857D01*
X152134285Y-112585714D01*
X152062857Y-112657142D01*
X151920000Y-112728571D01*
X151777142Y-112728571D01*
X151634285Y-112657142D01*
X151562857Y-112585714D01*
X151491428Y-112442857D01*
X151420000Y-112157142D01*
X151420000Y-111800000D01*
X151491428Y-111514285D01*
X151562857Y-111371428D01*
X151634285Y-111300000D01*
X151777142Y-111228571D01*
X106534285Y-112828571D02*
X105677142Y-112828571D01*
X106105714Y-112828571D02*
X106105714Y-111328571D01*
X105962857Y-111542857D01*
X105820000Y-111685714D01*
X105677142Y-111757142D01*
X107462857Y-111328571D02*
X107605714Y-111328571D01*
X107748571Y-111400000D01*
X107820000Y-111471428D01*
X107891428Y-111614285D01*
X107962857Y-111900000D01*
X107962857Y-112257142D01*
X107891428Y-112542857D01*
X107820000Y-112685714D01*
X107748571Y-112757142D01*
X107605714Y-112828571D01*
X107462857Y-112828571D01*
X107320000Y-112757142D01*
X107248571Y-112685714D01*
X107177142Y-112542857D01*
X107105714Y-112257142D01*
X107105714Y-111900000D01*
X107177142Y-111614285D01*
X107248571Y-111471428D01*
X107320000Y-111400000D01*
X107462857Y-111328571D01*
X134984285Y-112828571D02*
X134127142Y-112828571D01*
X134555714Y-112828571D02*
X134555714Y-111328571D01*
X134412857Y-111542857D01*
X134270000Y-111685714D01*
X134127142Y-111757142D01*
X135912857Y-111328571D02*
X136055714Y-111328571D01*
X136198571Y-111400000D01*
X136270000Y-111471428D01*
X136341428Y-111614285D01*
X136412857Y-111900000D01*
X136412857Y-112257142D01*
X136341428Y-112542857D01*
X136270000Y-112685714D01*
X136198571Y-112757142D01*
X136055714Y-112828571D01*
X135912857Y-112828571D01*
X135770000Y-112757142D01*
X135698571Y-112685714D01*
X135627142Y-112542857D01*
X135555714Y-112257142D01*
X135555714Y-111900000D01*
X135627142Y-111614285D01*
X135698571Y-111471428D01*
X135770000Y-111400000D01*
X135912857Y-111328571D01*
X116541428Y-111778571D02*
X116541428Y-112778571D01*
X116184285Y-111207142D02*
X115827142Y-112278571D01*
X116755714Y-112278571D01*
X117184285Y-111278571D02*
X118184285Y-111278571D01*
X117541428Y-112778571D01*
X91721428Y-97914285D02*
X92435714Y-97414285D01*
X91721428Y-97057142D02*
X93221428Y-97057142D01*
X93221428Y-97628571D01*
X93150000Y-97771428D01*
X93078571Y-97842857D01*
X92935714Y-97914285D01*
X92721428Y-97914285D01*
X92578571Y-97842857D01*
X92507142Y-97771428D01*
X92435714Y-97628571D01*
X92435714Y-97057142D01*
X92507142Y-99057142D02*
X92507142Y-98557142D01*
X91721428Y-98557142D02*
X93221428Y-98557142D01*
X93221428Y-99271428D01*
X91721428Y-100985714D02*
X93221428Y-100985714D01*
X92721428Y-101700000D02*
X91721428Y-101700000D01*
X92578571Y-101700000D02*
X92650000Y-101771428D01*
X92721428Y-101914285D01*
X92721428Y-102128571D01*
X92650000Y-102271428D01*
X92507142Y-102342857D01*
X91721428Y-102342857D01*
X121784285Y-112778571D02*
X120927142Y-112778571D01*
X121355714Y-112778571D02*
X121355714Y-111278571D01*
X121212857Y-111492857D01*
X121070000Y-111635714D01*
X120927142Y-111707142D01*
X123141428Y-111278571D02*
X122427142Y-111278571D01*
X122355714Y-111992857D01*
X122427142Y-111921428D01*
X122570000Y-111850000D01*
X122927142Y-111850000D01*
X123070000Y-111921428D01*
X123141428Y-111992857D01*
X123212857Y-112135714D01*
X123212857Y-112492857D01*
X123141428Y-112635714D01*
X123070000Y-112707142D01*
X122927142Y-112778571D01*
X122570000Y-112778571D01*
X122427142Y-112707142D01*
X122355714Y-112635714D01*
X127577142Y-111278571D02*
X126862857Y-111278571D01*
X126791428Y-111992857D01*
X126862857Y-111921428D01*
X127005714Y-111850000D01*
X127362857Y-111850000D01*
X127505714Y-111921428D01*
X127577142Y-111992857D01*
X127648571Y-112135714D01*
X127648571Y-112492857D01*
X127577142Y-112635714D01*
X127505714Y-112707142D01*
X127362857Y-112778571D01*
X127005714Y-112778571D01*
X126862857Y-112707142D01*
X126791428Y-112635714D01*
X129042857Y-98257142D02*
X127614285Y-98257142D01*
X127614285Y-95257142D01*
X130042857Y-98257142D02*
X130042857Y-95257142D01*
X131185714Y-95257142D01*
X131471428Y-95400000D01*
X131614285Y-95542857D01*
X131757142Y-95828571D01*
X131757142Y-96257142D01*
X131614285Y-96542857D01*
X131471428Y-96685714D01*
X131185714Y-96828571D01*
X130042857Y-96828571D01*
X134042857Y-96685714D02*
X133042857Y-96685714D01*
X133042857Y-98257142D02*
X133042857Y-95257142D01*
X134471428Y-95257142D01*
X154791428Y-111778571D02*
X154791428Y-112778571D01*
X154434285Y-111207142D02*
X154077142Y-112278571D01*
X155005714Y-112278571D01*
X155434285Y-111278571D02*
X156434285Y-111278571D01*
X155791428Y-112778571D01*
X138877142Y-111371428D02*
X138948571Y-111300000D01*
X139091428Y-111228571D01*
X139448571Y-111228571D01*
X139591428Y-111300000D01*
X139662857Y-111371428D01*
X139734285Y-111514285D01*
X139734285Y-111657142D01*
X139662857Y-111871428D01*
X138805714Y-112728571D01*
X139734285Y-112728571D01*
X140305714Y-111371428D02*
X140377142Y-111300000D01*
X140520000Y-111228571D01*
X140877142Y-111228571D01*
X141020000Y-111300000D01*
X141091428Y-111371428D01*
X141162857Y-111514285D01*
X141162857Y-111657142D01*
X141091428Y-111871428D01*
X140234285Y-112728571D01*
X141162857Y-112728571D01*
D12*
%TO.C,C2*%
X109059942Y-106099866D02*
X109107561Y-106147485D01*
X109155180Y-106290342D01*
X109155180Y-106385580D01*
X109107561Y-106528438D01*
X109012323Y-106623676D01*
X108917085Y-106671295D01*
X108726609Y-106718914D01*
X108583752Y-106718914D01*
X108393276Y-106671295D01*
X108298038Y-106623676D01*
X108202800Y-106528438D01*
X108155180Y-106385580D01*
X108155180Y-106290342D01*
X108202800Y-106147485D01*
X108250419Y-106099866D01*
X108250419Y-105718914D02*
X108202800Y-105671295D01*
X108155180Y-105576057D01*
X108155180Y-105337961D01*
X108202800Y-105242723D01*
X108250419Y-105195104D01*
X108345657Y-105147485D01*
X108440895Y-105147485D01*
X108583752Y-105195104D01*
X109155180Y-105766533D01*
X109155180Y-105147485D01*
%TO.C,C3*%
X114139942Y-106099866D02*
X114187561Y-106147485D01*
X114235180Y-106290342D01*
X114235180Y-106385580D01*
X114187561Y-106528438D01*
X114092323Y-106623676D01*
X113997085Y-106671295D01*
X113806609Y-106718914D01*
X113663752Y-106718914D01*
X113473276Y-106671295D01*
X113378038Y-106623676D01*
X113282800Y-106528438D01*
X113235180Y-106385580D01*
X113235180Y-106290342D01*
X113282800Y-106147485D01*
X113330419Y-106099866D01*
X113235180Y-105766533D02*
X113235180Y-105147485D01*
X113616133Y-105480819D01*
X113616133Y-105337961D01*
X113663752Y-105242723D01*
X113711371Y-105195104D01*
X113806609Y-105147485D01*
X114044704Y-105147485D01*
X114139942Y-105195104D01*
X114187561Y-105242723D01*
X114235180Y-105337961D01*
X114235180Y-105623676D01*
X114187561Y-105718914D01*
X114139942Y-105766533D01*
%TO.C,J9*%
X142296666Y-92922380D02*
X142296666Y-93636666D01*
X142249047Y-93779523D01*
X142153809Y-93874761D01*
X142010952Y-93922380D01*
X141915714Y-93922380D01*
X142820476Y-93922380D02*
X143010952Y-93922380D01*
X143106190Y-93874761D01*
X143153809Y-93827142D01*
X143249047Y-93684285D01*
X143296666Y-93493809D01*
X143296666Y-93112857D01*
X143249047Y-93017619D01*
X143201428Y-92970000D01*
X143106190Y-92922380D01*
X142915714Y-92922380D01*
X142820476Y-92970000D01*
X142772857Y-93017619D01*
X142725238Y-93112857D01*
X142725238Y-93350952D01*
X142772857Y-93446190D01*
X142820476Y-93493809D01*
X142915714Y-93541428D01*
X143106190Y-93541428D01*
X143201428Y-93493809D01*
X143249047Y-93446190D01*
X143296666Y-93350952D01*
%TO.C,U1*%
X189588095Y-106852380D02*
X189588095Y-107661904D01*
X189635714Y-107757142D01*
X189683333Y-107804761D01*
X189778571Y-107852380D01*
X189969047Y-107852380D01*
X190064285Y-107804761D01*
X190111904Y-107757142D01*
X190159523Y-107661904D01*
X190159523Y-106852380D01*
X191159523Y-107852380D02*
X190588095Y-107852380D01*
X190873809Y-107852380D02*
X190873809Y-106852380D01*
X190778571Y-106995238D01*
X190683333Y-107090476D01*
X190588095Y-107138095D01*
%TO.C,C13*%
X228102030Y-89407142D02*
X228054411Y-89454761D01*
X227911554Y-89502380D01*
X227816316Y-89502380D01*
X227673459Y-89454761D01*
X227578221Y-89359523D01*
X227530602Y-89264285D01*
X227482983Y-89073809D01*
X227482983Y-88930952D01*
X227530602Y-88740476D01*
X227578221Y-88645238D01*
X227673459Y-88550000D01*
X227816316Y-88502380D01*
X227911554Y-88502380D01*
X228054411Y-88550000D01*
X228102030Y-88597619D01*
X229054411Y-89502380D02*
X228482983Y-89502380D01*
X228768697Y-89502380D02*
X228768697Y-88502380D01*
X228673459Y-88645238D01*
X228578221Y-88740476D01*
X228482983Y-88788095D01*
X229387745Y-88502380D02*
X230006792Y-88502380D01*
X229673459Y-88883333D01*
X229816316Y-88883333D01*
X229911554Y-88930952D01*
X229959173Y-88978571D01*
X230006792Y-89073809D01*
X230006792Y-89311904D01*
X229959173Y-89407142D01*
X229911554Y-89454761D01*
X229816316Y-89502380D01*
X229530602Y-89502380D01*
X229435364Y-89454761D01*
X229387745Y-89407142D01*
%TO.C,C10*%
X152457142Y-106592857D02*
X152504761Y-106640476D01*
X152552380Y-106783333D01*
X152552380Y-106878571D01*
X152504761Y-107021428D01*
X152409523Y-107116666D01*
X152314285Y-107164285D01*
X152123809Y-107211904D01*
X151980952Y-107211904D01*
X151790476Y-107164285D01*
X151695238Y-107116666D01*
X151600000Y-107021428D01*
X151552380Y-106878571D01*
X151552380Y-106783333D01*
X151600000Y-106640476D01*
X151647619Y-106592857D01*
X152552380Y-105640476D02*
X152552380Y-106211904D01*
X152552380Y-105926190D02*
X151552380Y-105926190D01*
X151695238Y-106021428D01*
X151790476Y-106116666D01*
X151838095Y-106211904D01*
X151552380Y-105021428D02*
X151552380Y-104926190D01*
X151600000Y-104830952D01*
X151647619Y-104783333D01*
X151742857Y-104735714D01*
X151933333Y-104688095D01*
X152171428Y-104688095D01*
X152361904Y-104735714D01*
X152457142Y-104783333D01*
X152504761Y-104830952D01*
X152552380Y-104926190D01*
X152552380Y-105021428D01*
X152504761Y-105116666D01*
X152457142Y-105164285D01*
X152361904Y-105211904D01*
X152171428Y-105259523D01*
X151933333Y-105259523D01*
X151742857Y-105211904D01*
X151647619Y-105164285D01*
X151600000Y-105116666D01*
X151552380Y-105021428D01*
%TO.C,J6*%
X119226666Y-92972380D02*
X119226666Y-93686666D01*
X119179047Y-93829523D01*
X119083809Y-93924761D01*
X118940952Y-93972380D01*
X118845714Y-93972380D01*
X120131428Y-92972380D02*
X119940952Y-92972380D01*
X119845714Y-93020000D01*
X119798095Y-93067619D01*
X119702857Y-93210476D01*
X119655238Y-93400952D01*
X119655238Y-93781904D01*
X119702857Y-93877142D01*
X119750476Y-93924761D01*
X119845714Y-93972380D01*
X120036190Y-93972380D01*
X120131428Y-93924761D01*
X120179047Y-93877142D01*
X120226666Y-93781904D01*
X120226666Y-93543809D01*
X120179047Y-93448571D01*
X120131428Y-93400952D01*
X120036190Y-93353333D01*
X119845714Y-93353333D01*
X119750476Y-93400952D01*
X119702857Y-93448571D01*
X119655238Y-93543809D01*
%TO.C,J5*%
X116686666Y-92972380D02*
X116686666Y-93686666D01*
X116639047Y-93829523D01*
X116543809Y-93924761D01*
X116400952Y-93972380D01*
X116305714Y-93972380D01*
X117639047Y-92972380D02*
X117162857Y-92972380D01*
X117115238Y-93448571D01*
X117162857Y-93400952D01*
X117258095Y-93353333D01*
X117496190Y-93353333D01*
X117591428Y-93400952D01*
X117639047Y-93448571D01*
X117686666Y-93543809D01*
X117686666Y-93781904D01*
X117639047Y-93877142D01*
X117591428Y-93924761D01*
X117496190Y-93972380D01*
X117258095Y-93972380D01*
X117162857Y-93924761D01*
X117115238Y-93877142D01*
%TO.C,J7*%
X121766666Y-92972380D02*
X121766666Y-93686666D01*
X121719047Y-93829523D01*
X121623809Y-93924761D01*
X121480952Y-93972380D01*
X121385714Y-93972380D01*
X122147619Y-92972380D02*
X122814285Y-92972380D01*
X122385714Y-93972380D01*
%TO.C,R4*%
X212843333Y-78402380D02*
X212510000Y-77926190D01*
X212271904Y-78402380D02*
X212271904Y-77402380D01*
X212652857Y-77402380D01*
X212748095Y-77450000D01*
X212795714Y-77497619D01*
X212843333Y-77592857D01*
X212843333Y-77735714D01*
X212795714Y-77830952D01*
X212748095Y-77878571D01*
X212652857Y-77926190D01*
X212271904Y-77926190D01*
X213700476Y-77735714D02*
X213700476Y-78402380D01*
X213462380Y-77354761D02*
X213224285Y-78069047D01*
X213843333Y-78069047D01*
%TO.C,T1*%
X170312295Y-86585380D02*
X170883723Y-86585380D01*
X170598009Y-87585380D02*
X170598009Y-86585380D01*
X171740866Y-87585380D02*
X171169438Y-87585380D01*
X171455152Y-87585380D02*
X171455152Y-86585380D01*
X171359914Y-86728238D01*
X171264676Y-86823476D01*
X171169438Y-86871095D01*
%TO.C,C11*%
X157562642Y-106601757D02*
X157610261Y-106649376D01*
X157657880Y-106792233D01*
X157657880Y-106887471D01*
X157610261Y-107030328D01*
X157515023Y-107125566D01*
X157419785Y-107173185D01*
X157229309Y-107220804D01*
X157086452Y-107220804D01*
X156895976Y-107173185D01*
X156800738Y-107125566D01*
X156705500Y-107030328D01*
X156657880Y-106887471D01*
X156657880Y-106792233D01*
X156705500Y-106649376D01*
X156753119Y-106601757D01*
X157657880Y-105649376D02*
X157657880Y-106220804D01*
X157657880Y-105935090D02*
X156657880Y-105935090D01*
X156800738Y-106030328D01*
X156895976Y-106125566D01*
X156943595Y-106220804D01*
X157657880Y-104696995D02*
X157657880Y-105268423D01*
X157657880Y-104982709D02*
X156657880Y-104982709D01*
X156800738Y-105077947D01*
X156895976Y-105173185D01*
X156943595Y-105268423D01*
%TO.C,R3*%
X175183333Y-102102380D02*
X174850000Y-101626190D01*
X174611904Y-102102380D02*
X174611904Y-101102380D01*
X174992857Y-101102380D01*
X175088095Y-101150000D01*
X175135714Y-101197619D01*
X175183333Y-101292857D01*
X175183333Y-101435714D01*
X175135714Y-101530952D01*
X175088095Y-101578571D01*
X174992857Y-101626190D01*
X174611904Y-101626190D01*
X175516666Y-101102380D02*
X176135714Y-101102380D01*
X175802380Y-101483333D01*
X175945238Y-101483333D01*
X176040476Y-101530952D01*
X176088095Y-101578571D01*
X176135714Y-101673809D01*
X176135714Y-101911904D01*
X176088095Y-102007142D01*
X176040476Y-102054761D01*
X175945238Y-102102380D01*
X175659523Y-102102380D01*
X175564285Y-102054761D01*
X175516666Y-102007142D01*
%TO.C,C7*%
X137217142Y-106116666D02*
X137264761Y-106164285D01*
X137312380Y-106307142D01*
X137312380Y-106402380D01*
X137264761Y-106545238D01*
X137169523Y-106640476D01*
X137074285Y-106688095D01*
X136883809Y-106735714D01*
X136740952Y-106735714D01*
X136550476Y-106688095D01*
X136455238Y-106640476D01*
X136360000Y-106545238D01*
X136312380Y-106402380D01*
X136312380Y-106307142D01*
X136360000Y-106164285D01*
X136407619Y-106116666D01*
X136312380Y-105783333D02*
X136312380Y-105116666D01*
X137312380Y-105545238D01*
%TO.C,J2*%
X99216666Y-87452380D02*
X99216666Y-88166666D01*
X99169047Y-88309523D01*
X99073809Y-88404761D01*
X98930952Y-88452380D01*
X98835714Y-88452380D01*
X99645238Y-87547619D02*
X99692857Y-87500000D01*
X99788095Y-87452380D01*
X100026190Y-87452380D01*
X100121428Y-87500000D01*
X100169047Y-87547619D01*
X100216666Y-87642857D01*
X100216666Y-87738095D01*
X100169047Y-87880952D01*
X99597619Y-88452380D01*
X100216666Y-88452380D01*
%TO.C,D1*%
X168702380Y-108238095D02*
X167702380Y-108238095D01*
X167702380Y-108000000D01*
X167750000Y-107857142D01*
X167845238Y-107761904D01*
X167940476Y-107714285D01*
X168130952Y-107666666D01*
X168273809Y-107666666D01*
X168464285Y-107714285D01*
X168559523Y-107761904D01*
X168654761Y-107857142D01*
X168702380Y-108000000D01*
X168702380Y-108238095D01*
X168702380Y-106714285D02*
X168702380Y-107285714D01*
X168702380Y-107000000D02*
X167702380Y-107000000D01*
X167845238Y-107095238D01*
X167940476Y-107190476D01*
X167988095Y-107285714D01*
X170502380Y-103851904D02*
X169502380Y-103851904D01*
X170502380Y-103280476D02*
X169930952Y-103709047D01*
X169502380Y-103280476D02*
X170073809Y-103851904D01*
%TO.C,T2*%
X186912295Y-86585380D02*
X187483723Y-86585380D01*
X187198009Y-87585380D02*
X187198009Y-86585380D01*
X187769438Y-86680619D02*
X187817057Y-86633000D01*
X187912295Y-86585380D01*
X188150390Y-86585380D01*
X188245628Y-86633000D01*
X188293247Y-86680619D01*
X188340866Y-86775857D01*
X188340866Y-86871095D01*
X188293247Y-87013952D01*
X187721819Y-87585380D01*
X188340866Y-87585380D01*
%TO.C,U2*%
X195922380Y-87001904D02*
X196731904Y-87001904D01*
X196827142Y-86954285D01*
X196874761Y-86906666D01*
X196922380Y-86811428D01*
X196922380Y-86620952D01*
X196874761Y-86525714D01*
X196827142Y-86478095D01*
X196731904Y-86430476D01*
X195922380Y-86430476D01*
X196017619Y-86001904D02*
X195970000Y-85954285D01*
X195922380Y-85859047D01*
X195922380Y-85620952D01*
X195970000Y-85525714D01*
X196017619Y-85478095D01*
X196112857Y-85430476D01*
X196208095Y-85430476D01*
X196350952Y-85478095D01*
X196922380Y-86049523D01*
X196922380Y-85430476D01*
%TO.C,L1*%
X115683333Y-77307380D02*
X115207142Y-77307380D01*
X115207142Y-76307380D01*
X116540476Y-77307380D02*
X115969047Y-77307380D01*
X116254761Y-77307380D02*
X116254761Y-76307380D01*
X116159523Y-76450238D01*
X116064285Y-76545476D01*
X115969047Y-76593095D01*
%TO.C,C8*%
X142297142Y-106116666D02*
X142344761Y-106164285D01*
X142392380Y-106307142D01*
X142392380Y-106402380D01*
X142344761Y-106545238D01*
X142249523Y-106640476D01*
X142154285Y-106688095D01*
X141963809Y-106735714D01*
X141820952Y-106735714D01*
X141630476Y-106688095D01*
X141535238Y-106640476D01*
X141440000Y-106545238D01*
X141392380Y-106402380D01*
X141392380Y-106307142D01*
X141440000Y-106164285D01*
X141487619Y-106116666D01*
X141820952Y-105545238D02*
X141773333Y-105640476D01*
X141725714Y-105688095D01*
X141630476Y-105735714D01*
X141582857Y-105735714D01*
X141487619Y-105688095D01*
X141440000Y-105640476D01*
X141392380Y-105545238D01*
X141392380Y-105354761D01*
X141440000Y-105259523D01*
X141487619Y-105211904D01*
X141582857Y-105164285D01*
X141630476Y-105164285D01*
X141725714Y-105211904D01*
X141773333Y-105259523D01*
X141820952Y-105354761D01*
X141820952Y-105545238D01*
X141868571Y-105640476D01*
X141916190Y-105688095D01*
X142011428Y-105735714D01*
X142201904Y-105735714D01*
X142297142Y-105688095D01*
X142344761Y-105640476D01*
X142392380Y-105545238D01*
X142392380Y-105354761D01*
X142344761Y-105259523D01*
X142297142Y-105211904D01*
X142201904Y-105164285D01*
X142011428Y-105164285D01*
X141916190Y-105211904D01*
X141868571Y-105259523D01*
X141820952Y-105354761D01*
%TO.C,C4*%
X119227142Y-106116666D02*
X119274761Y-106164285D01*
X119322380Y-106307142D01*
X119322380Y-106402380D01*
X119274761Y-106545238D01*
X119179523Y-106640476D01*
X119084285Y-106688095D01*
X118893809Y-106735714D01*
X118750952Y-106735714D01*
X118560476Y-106688095D01*
X118465238Y-106640476D01*
X118370000Y-106545238D01*
X118322380Y-106402380D01*
X118322380Y-106307142D01*
X118370000Y-106164285D01*
X118417619Y-106116666D01*
X118655714Y-105259523D02*
X119322380Y-105259523D01*
X118274761Y-105497619D02*
X118989047Y-105735714D01*
X118989047Y-105116666D01*
%TO.C,H2*%
X95588095Y-106602380D02*
X95588095Y-105602380D01*
X95588095Y-106078571D02*
X96159523Y-106078571D01*
X96159523Y-106602380D02*
X96159523Y-105602380D01*
X96588095Y-105697619D02*
X96635714Y-105650000D01*
X96730952Y-105602380D01*
X96969047Y-105602380D01*
X97064285Y-105650000D01*
X97111904Y-105697619D01*
X97159523Y-105792857D01*
X97159523Y-105888095D01*
X97111904Y-106030952D01*
X96540476Y-106602380D01*
X97159523Y-106602380D01*
%TO.C,C12*%
X172157142Y-105692857D02*
X172204761Y-105740476D01*
X172252380Y-105883333D01*
X172252380Y-105978571D01*
X172204761Y-106121428D01*
X172109523Y-106216666D01*
X172014285Y-106264285D01*
X171823809Y-106311904D01*
X171680952Y-106311904D01*
X171490476Y-106264285D01*
X171395238Y-106216666D01*
X171300000Y-106121428D01*
X171252380Y-105978571D01*
X171252380Y-105883333D01*
X171300000Y-105740476D01*
X171347619Y-105692857D01*
X172252380Y-104740476D02*
X172252380Y-105311904D01*
X172252380Y-105026190D02*
X171252380Y-105026190D01*
X171395238Y-105121428D01*
X171490476Y-105216666D01*
X171538095Y-105311904D01*
X171347619Y-104359523D02*
X171300000Y-104311904D01*
X171252380Y-104216666D01*
X171252380Y-103978571D01*
X171300000Y-103883333D01*
X171347619Y-103835714D01*
X171442857Y-103788095D01*
X171538095Y-103788095D01*
X171680952Y-103835714D01*
X172252380Y-104407142D01*
X172252380Y-103788095D01*
%TO.C,L2*%
X144083333Y-77307380D02*
X143607142Y-77307380D01*
X143607142Y-76307380D01*
X144369047Y-76402619D02*
X144416666Y-76355000D01*
X144511904Y-76307380D01*
X144750000Y-76307380D01*
X144845238Y-76355000D01*
X144892857Y-76402619D01*
X144940476Y-76497857D01*
X144940476Y-76593095D01*
X144892857Y-76735952D01*
X144321428Y-77307380D01*
X144940476Y-77307380D01*
%TO.C,J8*%
X139756666Y-92922380D02*
X139756666Y-93636666D01*
X139709047Y-93779523D01*
X139613809Y-93874761D01*
X139470952Y-93922380D01*
X139375714Y-93922380D01*
X140375714Y-93350952D02*
X140280476Y-93303333D01*
X140232857Y-93255714D01*
X140185238Y-93160476D01*
X140185238Y-93112857D01*
X140232857Y-93017619D01*
X140280476Y-92970000D01*
X140375714Y-92922380D01*
X140566190Y-92922380D01*
X140661428Y-92970000D01*
X140709047Y-93017619D01*
X140756666Y-93112857D01*
X140756666Y-93160476D01*
X140709047Y-93255714D01*
X140661428Y-93303333D01*
X140566190Y-93350952D01*
X140375714Y-93350952D01*
X140280476Y-93398571D01*
X140232857Y-93446190D01*
X140185238Y-93541428D01*
X140185238Y-93731904D01*
X140232857Y-93827142D01*
X140280476Y-93874761D01*
X140375714Y-93922380D01*
X140566190Y-93922380D01*
X140661428Y-93874761D01*
X140709047Y-93827142D01*
X140756666Y-93731904D01*
X140756666Y-93541428D01*
X140709047Y-93446190D01*
X140661428Y-93398571D01*
X140566190Y-93350952D01*
%TO.C,J4*%
X114146666Y-92972380D02*
X114146666Y-93686666D01*
X114099047Y-93829523D01*
X114003809Y-93924761D01*
X113860952Y-93972380D01*
X113765714Y-93972380D01*
X115051428Y-93305714D02*
X115051428Y-93972380D01*
X114813333Y-92924761D02*
X114575238Y-93639047D01*
X115194285Y-93639047D01*
%TO.C,J13*%
X175690476Y-75452380D02*
X175690476Y-76166666D01*
X175642857Y-76309523D01*
X175547619Y-76404761D01*
X175404761Y-76452380D01*
X175309523Y-76452380D01*
X176690476Y-76452380D02*
X176119047Y-76452380D01*
X176404761Y-76452380D02*
X176404761Y-75452380D01*
X176309523Y-75595238D01*
X176214285Y-75690476D01*
X176119047Y-75738095D01*
X177023809Y-75452380D02*
X177642857Y-75452380D01*
X177309523Y-75833333D01*
X177452380Y-75833333D01*
X177547619Y-75880952D01*
X177595238Y-75928571D01*
X177642857Y-76023809D01*
X177642857Y-76261904D01*
X177595238Y-76357142D01*
X177547619Y-76404761D01*
X177452380Y-76452380D01*
X177166666Y-76452380D01*
X177071428Y-76404761D01*
X177023809Y-76357142D01*
%TO.C,C5*%
X124307142Y-106106666D02*
X124354761Y-106154285D01*
X124402380Y-106297142D01*
X124402380Y-106392380D01*
X124354761Y-106535238D01*
X124259523Y-106630476D01*
X124164285Y-106678095D01*
X123973809Y-106725714D01*
X123830952Y-106725714D01*
X123640476Y-106678095D01*
X123545238Y-106630476D01*
X123450000Y-106535238D01*
X123402380Y-106392380D01*
X123402380Y-106297142D01*
X123450000Y-106154285D01*
X123497619Y-106106666D01*
X123402380Y-105201904D02*
X123402380Y-105678095D01*
X123878571Y-105725714D01*
X123830952Y-105678095D01*
X123783333Y-105582857D01*
X123783333Y-105344761D01*
X123830952Y-105249523D01*
X123878571Y-105201904D01*
X123973809Y-105154285D01*
X124211904Y-105154285D01*
X124307142Y-105201904D01*
X124354761Y-105249523D01*
X124402380Y-105344761D01*
X124402380Y-105582857D01*
X124354761Y-105678095D01*
X124307142Y-105725714D01*
%TO.C,J12*%
X149440476Y-92922380D02*
X149440476Y-93636666D01*
X149392857Y-93779523D01*
X149297619Y-93874761D01*
X149154761Y-93922380D01*
X149059523Y-93922380D01*
X150440476Y-93922380D02*
X149869047Y-93922380D01*
X150154761Y-93922380D02*
X150154761Y-92922380D01*
X150059523Y-93065238D01*
X149964285Y-93160476D01*
X149869047Y-93208095D01*
X150821428Y-93017619D02*
X150869047Y-92970000D01*
X150964285Y-92922380D01*
X151202380Y-92922380D01*
X151297619Y-92970000D01*
X151345238Y-93017619D01*
X151392857Y-93112857D01*
X151392857Y-93208095D01*
X151345238Y-93350952D01*
X150773809Y-93922380D01*
X151392857Y-93922380D01*
%TO.C,BAR1*%
X193928571Y-98133333D02*
X193976190Y-97990476D01*
X194023809Y-97942857D01*
X194119047Y-97895238D01*
X194261904Y-97895238D01*
X194357142Y-97942857D01*
X194404761Y-97990476D01*
X194452380Y-98085714D01*
X194452380Y-98466666D01*
X193452380Y-98466666D01*
X193452380Y-98133333D01*
X193500000Y-98038095D01*
X193547619Y-97990476D01*
X193642857Y-97942857D01*
X193738095Y-97942857D01*
X193833333Y-97990476D01*
X193880952Y-98038095D01*
X193928571Y-98133333D01*
X193928571Y-98466666D01*
X194166666Y-97514285D02*
X194166666Y-97038095D01*
X194452380Y-97609523D02*
X193452380Y-97276190D01*
X194452380Y-96942857D01*
X194452380Y-96038095D02*
X193976190Y-96371428D01*
X194452380Y-96609523D02*
X193452380Y-96609523D01*
X193452380Y-96228571D01*
X193500000Y-96133333D01*
X193547619Y-96085714D01*
X193642857Y-96038095D01*
X193785714Y-96038095D01*
X193880952Y-96085714D01*
X193928571Y-96133333D01*
X193976190Y-96228571D01*
X193976190Y-96609523D01*
X194452380Y-95085714D02*
X194452380Y-95657142D01*
X194452380Y-95371428D02*
X193452380Y-95371428D01*
X193595238Y-95466666D01*
X193690476Y-95561904D01*
X193738095Y-95657142D01*
%TO.C,R2*%
X160702380Y-104816666D02*
X160226190Y-105150000D01*
X160702380Y-105388095D02*
X159702380Y-105388095D01*
X159702380Y-105007142D01*
X159750000Y-104911904D01*
X159797619Y-104864285D01*
X159892857Y-104816666D01*
X160035714Y-104816666D01*
X160130952Y-104864285D01*
X160178571Y-104911904D01*
X160226190Y-105007142D01*
X160226190Y-105388095D01*
X159797619Y-104435714D02*
X159750000Y-104388095D01*
X159702380Y-104292857D01*
X159702380Y-104054761D01*
X159750000Y-103959523D01*
X159797619Y-103911904D01*
X159892857Y-103864285D01*
X159988095Y-103864285D01*
X160130952Y-103911904D01*
X160702380Y-104483333D01*
X160702380Y-103864285D01*
%TO.C,J1*%
X97966666Y-94702380D02*
X97966666Y-95416666D01*
X97919047Y-95559523D01*
X97823809Y-95654761D01*
X97680952Y-95702380D01*
X97585714Y-95702380D01*
X98966666Y-95702380D02*
X98395238Y-95702380D01*
X98680952Y-95702380D02*
X98680952Y-94702380D01*
X98585714Y-94845238D01*
X98490476Y-94940476D01*
X98395238Y-94988095D01*
%TO.C,C9*%
X147377142Y-106125566D02*
X147424761Y-106173185D01*
X147472380Y-106316042D01*
X147472380Y-106411280D01*
X147424761Y-106554138D01*
X147329523Y-106649376D01*
X147234285Y-106696995D01*
X147043809Y-106744614D01*
X146900952Y-106744614D01*
X146710476Y-106696995D01*
X146615238Y-106649376D01*
X146520000Y-106554138D01*
X146472380Y-106411280D01*
X146472380Y-106316042D01*
X146520000Y-106173185D01*
X146567619Y-106125566D01*
X147472380Y-105649376D02*
X147472380Y-105458900D01*
X147424761Y-105363661D01*
X147377142Y-105316042D01*
X147234285Y-105220804D01*
X147043809Y-105173185D01*
X146662857Y-105173185D01*
X146567619Y-105220804D01*
X146520000Y-105268423D01*
X146472380Y-105363661D01*
X146472380Y-105554138D01*
X146520000Y-105649376D01*
X146567619Y-105696995D01*
X146662857Y-105744614D01*
X146900952Y-105744614D01*
X146996190Y-105696995D01*
X147043809Y-105649376D01*
X147091428Y-105554138D01*
X147091428Y-105363661D01*
X147043809Y-105268423D01*
X146996190Y-105220804D01*
X146900952Y-105173185D01*
%TO.C,J10*%
X144360476Y-92922380D02*
X144360476Y-93636666D01*
X144312857Y-93779523D01*
X144217619Y-93874761D01*
X144074761Y-93922380D01*
X143979523Y-93922380D01*
X145360476Y-93922380D02*
X144789047Y-93922380D01*
X145074761Y-93922380D02*
X145074761Y-92922380D01*
X144979523Y-93065238D01*
X144884285Y-93160476D01*
X144789047Y-93208095D01*
X145979523Y-92922380D02*
X146074761Y-92922380D01*
X146170000Y-92970000D01*
X146217619Y-93017619D01*
X146265238Y-93112857D01*
X146312857Y-93303333D01*
X146312857Y-93541428D01*
X146265238Y-93731904D01*
X146217619Y-93827142D01*
X146170000Y-93874761D01*
X146074761Y-93922380D01*
X145979523Y-93922380D01*
X145884285Y-93874761D01*
X145836666Y-93827142D01*
X145789047Y-93731904D01*
X145741428Y-93541428D01*
X145741428Y-93303333D01*
X145789047Y-93112857D01*
X145836666Y-93017619D01*
X145884285Y-92970000D01*
X145979523Y-92922380D01*
%TO.C,J3*%
X111606666Y-92972380D02*
X111606666Y-93686666D01*
X111559047Y-93829523D01*
X111463809Y-93924761D01*
X111320952Y-93972380D01*
X111225714Y-93972380D01*
X111987619Y-92972380D02*
X112606666Y-92972380D01*
X112273333Y-93353333D01*
X112416190Y-93353333D01*
X112511428Y-93400952D01*
X112559047Y-93448571D01*
X112606666Y-93543809D01*
X112606666Y-93781904D01*
X112559047Y-93877142D01*
X112511428Y-93924761D01*
X112416190Y-93972380D01*
X112130476Y-93972380D01*
X112035238Y-93924761D01*
X111987619Y-93877142D01*
%TO.C,R1*%
X184172380Y-102466666D02*
X183696190Y-102800000D01*
X184172380Y-103038095D02*
X183172380Y-103038095D01*
X183172380Y-102657142D01*
X183220000Y-102561904D01*
X183267619Y-102514285D01*
X183362857Y-102466666D01*
X183505714Y-102466666D01*
X183600952Y-102514285D01*
X183648571Y-102561904D01*
X183696190Y-102657142D01*
X183696190Y-103038095D01*
X184172380Y-101514285D02*
X184172380Y-102085714D01*
X184172380Y-101800000D02*
X183172380Y-101800000D01*
X183315238Y-101895238D01*
X183410476Y-101990476D01*
X183458095Y-102085714D01*
%TO.C,C6*%
X129387142Y-106106666D02*
X129434761Y-106154285D01*
X129482380Y-106297142D01*
X129482380Y-106392380D01*
X129434761Y-106535238D01*
X129339523Y-106630476D01*
X129244285Y-106678095D01*
X129053809Y-106725714D01*
X128910952Y-106725714D01*
X128720476Y-106678095D01*
X128625238Y-106630476D01*
X128530000Y-106535238D01*
X128482380Y-106392380D01*
X128482380Y-106297142D01*
X128530000Y-106154285D01*
X128577619Y-106106666D01*
X128482380Y-105249523D02*
X128482380Y-105440000D01*
X128530000Y-105535238D01*
X128577619Y-105582857D01*
X128720476Y-105678095D01*
X128910952Y-105725714D01*
X129291904Y-105725714D01*
X129387142Y-105678095D01*
X129434761Y-105630476D01*
X129482380Y-105535238D01*
X129482380Y-105344761D01*
X129434761Y-105249523D01*
X129387142Y-105201904D01*
X129291904Y-105154285D01*
X129053809Y-105154285D01*
X128958571Y-105201904D01*
X128910952Y-105249523D01*
X128863333Y-105344761D01*
X128863333Y-105535238D01*
X128910952Y-105630476D01*
X128958571Y-105678095D01*
X129053809Y-105725714D01*
%TO.C,C1*%
X184733333Y-107907142D02*
X184685714Y-107954761D01*
X184542857Y-108002380D01*
X184447619Y-108002380D01*
X184304761Y-107954761D01*
X184209523Y-107859523D01*
X184161904Y-107764285D01*
X184114285Y-107573809D01*
X184114285Y-107430952D01*
X184161904Y-107240476D01*
X184209523Y-107145238D01*
X184304761Y-107050000D01*
X184447619Y-107002380D01*
X184542857Y-107002380D01*
X184685714Y-107050000D01*
X184733333Y-107097619D01*
X185685714Y-108002380D02*
X185114285Y-108002380D01*
X185400000Y-108002380D02*
X185400000Y-107002380D01*
X185304761Y-107145238D01*
X185209523Y-107240476D01*
X185114285Y-107288095D01*
%TO.C,J11*%
X146900476Y-92922380D02*
X146900476Y-93636666D01*
X146852857Y-93779523D01*
X146757619Y-93874761D01*
X146614761Y-93922380D01*
X146519523Y-93922380D01*
X147900476Y-93922380D02*
X147329047Y-93922380D01*
X147614761Y-93922380D02*
X147614761Y-92922380D01*
X147519523Y-93065238D01*
X147424285Y-93160476D01*
X147329047Y-93208095D01*
X148852857Y-93922380D02*
X148281428Y-93922380D01*
X148567142Y-93922380D02*
X148567142Y-92922380D01*
X148471904Y-93065238D01*
X148376666Y-93160476D01*
X148281428Y-93208095D01*
D13*
%TO.C,C2*%
X105942800Y-105221948D02*
X105942800Y-106644452D01*
X107762800Y-105221948D02*
X107762800Y-106644452D01*
%TO.C,C3*%
X112842800Y-105221948D02*
X112842800Y-106644452D01*
X111022800Y-105221948D02*
X111022800Y-106644452D01*
%TO.C,J9*%
X143960000Y-97070000D02*
X143960000Y-99670000D01*
X141300000Y-97070000D02*
X143960000Y-97070000D01*
X141300000Y-94470000D02*
X142630000Y-94470000D01*
X141300000Y-99670000D02*
X143960000Y-99670000D01*
X141300000Y-95800000D02*
X141300000Y-94470000D01*
X141300000Y-97070000D02*
X141300000Y-99670000D01*
%TO.C,U1*%
X192420000Y-108300000D02*
X188820000Y-108300000D01*
X190620000Y-112750001D02*
G75*
G03*
X192458478Y-108311522I0J2600001D01*
G01*
X188781522Y-108311522D02*
G75*
G03*
X190620000Y-112750000I1838478J-1838478D01*
G01*
%TO.C,C13*%
X229545888Y-93840000D02*
X229545888Y-95255000D01*
X230425888Y-90829000D02*
X230425888Y-91760000D01*
X231025888Y-93840000D02*
X231025888Y-94051000D01*
X229505888Y-93840000D02*
X229505888Y-95268000D01*
X229144888Y-93840000D02*
X229144888Y-95350000D01*
X229665888Y-93840000D02*
X229665888Y-95214000D01*
X230345888Y-93840000D02*
X230345888Y-94835000D01*
X230985888Y-91481000D02*
X230985888Y-91760000D01*
X228824888Y-90221000D02*
X228824888Y-95379000D01*
X230545888Y-93840000D02*
X230545888Y-94664000D01*
X230705888Y-93840000D02*
X230705888Y-94499000D01*
X229705888Y-93840000D02*
X229705888Y-95198000D01*
X229985888Y-90532000D02*
X229985888Y-91760000D01*
X230265888Y-90705000D02*
X230265888Y-91760000D01*
X230105888Y-93840000D02*
X230105888Y-95000000D01*
X230465888Y-93840000D02*
X230465888Y-94737000D01*
X230705888Y-91101000D02*
X230705888Y-91760000D01*
X229104888Y-90244000D02*
X229104888Y-91760000D01*
X229064888Y-90239000D02*
X229064888Y-91760000D01*
X229625888Y-93840000D02*
X229625888Y-95228000D01*
X229224888Y-90264000D02*
X229224888Y-91760000D01*
X230185888Y-93840000D02*
X230185888Y-94949000D01*
X226190113Y-91075000D02*
X226190113Y-91575000D01*
X225940113Y-91325000D02*
X226440113Y-91325000D01*
X231225888Y-91995000D02*
X231225888Y-93605000D01*
X230745888Y-91147000D02*
X230745888Y-91760000D01*
X230145888Y-93840000D02*
X230145888Y-94975000D01*
X230665888Y-93840000D02*
X230665888Y-94543000D01*
X229785888Y-90435000D02*
X229785888Y-91760000D01*
X230785888Y-93840000D02*
X230785888Y-94405000D01*
X229865888Y-90471000D02*
X229865888Y-91760000D01*
X231305888Y-92282000D02*
X231305888Y-93318000D01*
X230425888Y-93840000D02*
X230425888Y-94771000D01*
X230465888Y-90863000D02*
X230465888Y-91760000D01*
X231025888Y-91549000D02*
X231025888Y-91760000D01*
X230825888Y-93840000D02*
X230825888Y-94354000D01*
X230065888Y-90576000D02*
X230065888Y-91760000D01*
X229785888Y-93840000D02*
X229785888Y-95165000D01*
X229144888Y-90250000D02*
X229144888Y-91760000D01*
X229545888Y-90345000D02*
X229545888Y-91760000D01*
X229304888Y-93840000D02*
X229304888Y-95320000D01*
X229384888Y-93840000D02*
X229384888Y-95301000D01*
X230745888Y-93840000D02*
X230745888Y-94453000D01*
X229945888Y-93840000D02*
X229945888Y-95090000D01*
X230105888Y-90600000D02*
X230105888Y-91760000D01*
X230625888Y-93840000D02*
X230625888Y-94585000D01*
X229304888Y-90280000D02*
X229304888Y-91760000D01*
X230065888Y-93840000D02*
X230065888Y-95024000D01*
X230585888Y-93840000D02*
X230585888Y-94626000D01*
X229585888Y-90358000D02*
X229585888Y-91760000D01*
X230585888Y-90974000D02*
X230585888Y-91760000D01*
X228984888Y-90231000D02*
X228984888Y-91760000D01*
X229264888Y-93840000D02*
X229264888Y-95328000D01*
X230025888Y-93840000D02*
X230025888Y-95047000D01*
X230825888Y-91246000D02*
X230825888Y-91760000D01*
X231105888Y-91702000D02*
X231105888Y-93898000D01*
X229384888Y-90299000D02*
X229384888Y-91760000D01*
X230345888Y-90765000D02*
X230345888Y-91760000D01*
X230785888Y-91195000D02*
X230785888Y-91760000D01*
X231345888Y-92516000D02*
X231345888Y-93084000D01*
X230225888Y-90678000D02*
X230225888Y-91760000D01*
X230145888Y-90625000D02*
X230145888Y-91760000D01*
X230905888Y-93840000D02*
X230905888Y-94243000D01*
X230385888Y-93840000D02*
X230385888Y-94804000D01*
X230185888Y-90651000D02*
X230185888Y-91760000D01*
X229665888Y-90386000D02*
X229665888Y-91760000D01*
X229585888Y-93840000D02*
X229585888Y-95242000D01*
X228864888Y-90222000D02*
X228864888Y-95378000D01*
X229024888Y-93840000D02*
X229024888Y-95365000D01*
X229825888Y-93840000D02*
X229825888Y-95148000D01*
X230865888Y-91300000D02*
X230865888Y-91760000D01*
X229705888Y-90402000D02*
X229705888Y-91760000D01*
X230905888Y-91357000D02*
X230905888Y-91760000D01*
X229344888Y-90289000D02*
X229344888Y-91760000D01*
X229945888Y-90510000D02*
X229945888Y-91760000D01*
X230625888Y-91015000D02*
X230625888Y-91760000D01*
X228984888Y-93840000D02*
X228984888Y-95369000D01*
X228904888Y-90224000D02*
X228904888Y-95376000D01*
X229344888Y-93840000D02*
X229344888Y-95311000D01*
X228944888Y-90227000D02*
X228944888Y-95373000D01*
X229064888Y-93840000D02*
X229064888Y-95361000D01*
X229424888Y-93840000D02*
X229424888Y-95291000D01*
X229264888Y-90272000D02*
X229264888Y-91760000D01*
X231145888Y-91789000D02*
X231145888Y-93811000D01*
X231185888Y-91885000D02*
X231185888Y-93715000D01*
X230945888Y-91417000D02*
X230945888Y-91760000D01*
X229505888Y-90332000D02*
X229505888Y-91760000D01*
X229224888Y-93840000D02*
X229224888Y-95336000D01*
X229905888Y-90490000D02*
X229905888Y-91760000D01*
X229745888Y-93840000D02*
X229745888Y-95182000D01*
X229104888Y-93840000D02*
X229104888Y-95356000D01*
X230305888Y-90735000D02*
X230305888Y-91760000D01*
X231265888Y-92123000D02*
X231265888Y-93477000D01*
X230225888Y-93840000D02*
X230225888Y-94922000D01*
X230945888Y-93840000D02*
X230945888Y-94183000D01*
X229985888Y-93840000D02*
X229985888Y-95068000D01*
X229825888Y-90452000D02*
X229825888Y-91760000D01*
X229865888Y-93840000D02*
X229865888Y-95129000D01*
X229184888Y-93840000D02*
X229184888Y-95343000D01*
X230305888Y-93840000D02*
X230305888Y-94865000D01*
X229424888Y-90309000D02*
X229424888Y-91760000D01*
X229465888Y-93840000D02*
X229465888Y-95280000D01*
X230505888Y-90899000D02*
X230505888Y-91760000D01*
X229024888Y-90235000D02*
X229024888Y-91760000D01*
X228744888Y-90220000D02*
X228744888Y-95380000D01*
X230545888Y-90936000D02*
X230545888Y-91760000D01*
X230265888Y-93840000D02*
X230265888Y-94895000D01*
X229184888Y-90257000D02*
X229184888Y-91760000D01*
X230025888Y-90553000D02*
X230025888Y-91760000D01*
X230985888Y-93840000D02*
X230985888Y-94119000D01*
X230505888Y-93840000D02*
X230505888Y-94701000D01*
X229625888Y-90372000D02*
X229625888Y-91760000D01*
X228784888Y-90220000D02*
X228784888Y-95380000D01*
X229905888Y-93840000D02*
X229905888Y-95110000D01*
X230665888Y-91057000D02*
X230665888Y-91760000D01*
X231065888Y-91622000D02*
X231065888Y-93978000D01*
X230385888Y-90796000D02*
X230385888Y-91760000D01*
X229745888Y-90418000D02*
X229745888Y-91760000D01*
X229465888Y-90320000D02*
X229465888Y-91760000D01*
X230865888Y-93840000D02*
X230865888Y-94300000D01*
X231364888Y-92800000D02*
G75*
G03*
X231364888Y-92800000I-2620000J0D01*
G01*
%TO.C,C10*%
X149340000Y-105238748D02*
X149340000Y-106661252D01*
X151160000Y-105238748D02*
X151160000Y-106661252D01*
%TO.C,J6*%
X118230000Y-94520000D02*
X119560000Y-94520000D01*
X118230000Y-95850000D02*
X118230000Y-94520000D01*
X118230000Y-97120000D02*
X118230000Y-99720000D01*
X118230000Y-97120000D02*
X120890000Y-97120000D01*
X120890000Y-97120000D02*
X120890000Y-99720000D01*
X118230000Y-99720000D02*
X120890000Y-99720000D01*
%TO.C,J5*%
X115690000Y-99720000D02*
X118350000Y-99720000D01*
X115690000Y-95850000D02*
X115690000Y-94520000D01*
X115690000Y-97120000D02*
X115690000Y-99720000D01*
X115690000Y-94520000D02*
X117020000Y-94520000D01*
X115690000Y-97120000D02*
X118350000Y-97120000D01*
X118350000Y-97120000D02*
X118350000Y-99720000D01*
%TO.C,J7*%
X120770000Y-95850000D02*
X120770000Y-94520000D01*
X120770000Y-99720000D02*
X123430000Y-99720000D01*
X120770000Y-97120000D02*
X123430000Y-97120000D01*
X120770000Y-97120000D02*
X120770000Y-99720000D01*
X120770000Y-94520000D02*
X122100000Y-94520000D01*
X123430000Y-97120000D02*
X123430000Y-99720000D01*
%TO.C,R4*%
X209630000Y-76680000D02*
X209630000Y-77010000D01*
X209630000Y-79420000D02*
X209630000Y-79090000D01*
X203090000Y-79420000D02*
X209630000Y-79420000D01*
X203090000Y-76680000D02*
X209630000Y-76680000D01*
X203090000Y-79090000D02*
X203090000Y-79420000D01*
X203090000Y-77010000D02*
X203090000Y-76680000D01*
%TO.C,T1*%
X174570000Y-89230000D02*
X174570000Y-95970000D01*
X161330000Y-95970000D02*
X165206800Y-95972200D01*
X161330000Y-89230000D02*
X166807000Y-89230000D01*
X161330000Y-89230000D02*
X161330000Y-95970000D01*
X170566200Y-89230000D02*
X174570000Y-89230000D01*
X168483400Y-95972200D02*
X174570000Y-95970000D01*
%TO.C,C11*%
X154445500Y-105247648D02*
X154445500Y-106670152D01*
X156265500Y-105247648D02*
X156265500Y-106670152D01*
%TO.C,R3*%
X174130000Y-104130000D02*
X174130000Y-110670000D01*
X174130000Y-110670000D02*
X174460000Y-110670000D01*
X176540000Y-104130000D02*
X176870000Y-104130000D01*
X176870000Y-104130000D02*
X176870000Y-110670000D01*
X176870000Y-110670000D02*
X176540000Y-110670000D01*
X174460000Y-104130000D02*
X174130000Y-104130000D01*
%TO.C,C7*%
X134100000Y-105238748D02*
X134100000Y-106661252D01*
X135920000Y-105238748D02*
X135920000Y-106661252D01*
%TO.C,J2*%
X95070000Y-86620000D02*
X96400000Y-86620000D01*
X97730000Y-89220000D02*
X97730000Y-91820000D01*
X95070000Y-89220000D02*
X97730000Y-89220000D01*
X95070000Y-91820000D02*
X97730000Y-91820000D01*
X95070000Y-87950000D02*
X95070000Y-86620000D01*
X95070000Y-89220000D02*
X95070000Y-91820000D01*
%TO.C,D1*%
X169370000Y-105880000D02*
X167130000Y-105880000D01*
X168250000Y-104630000D02*
X168250000Y-105280000D01*
X168250000Y-110170000D02*
X168250000Y-109520000D01*
X169370000Y-109520000D02*
X169370000Y-105280000D01*
X167130000Y-109520000D02*
X169370000Y-109520000D01*
X169370000Y-106120000D02*
X167130000Y-106120000D01*
X169370000Y-105280000D02*
X167130000Y-105280000D01*
X169370000Y-106000000D02*
X167130000Y-106000000D01*
X167130000Y-105280000D02*
X167130000Y-109520000D01*
%TO.C,T2*%
X185083400Y-95972200D02*
X191170000Y-95970000D01*
X177930000Y-89230000D02*
X177930000Y-95970000D01*
X177930000Y-95970000D02*
X181806800Y-95972200D01*
X191170000Y-89230000D02*
X191170000Y-95970000D01*
X177930000Y-89230000D02*
X183407000Y-89230000D01*
X187166200Y-89230000D02*
X191170000Y-89230000D01*
%TO.C,U2*%
X197470000Y-87240000D02*
X197470000Y-88890000D01*
X220450000Y-83590000D02*
X197470000Y-83590000D01*
X197470000Y-88890000D02*
X220450000Y-88890000D01*
X220450000Y-88890000D02*
X220450000Y-83590000D01*
X197470000Y-83590000D02*
X197470000Y-85240000D01*
X197470000Y-87240000D02*
G75*
G03*
X197470000Y-85240000I0J1000000D01*
G01*
%TO.C,L1*%
X126765000Y-79485000D02*
X126765000Y-88105000D01*
X113640200Y-88114000D02*
X126765000Y-88105000D01*
X104935000Y-79485000D02*
X104935000Y-88105000D01*
X104935000Y-88105000D02*
X108331600Y-88114000D01*
X123520800Y-79478000D02*
X126765000Y-79485000D01*
X104935000Y-79485000D02*
X117958200Y-79485000D01*
%TO.C,C8*%
X139180000Y-105238748D02*
X139180000Y-106661252D01*
X141000000Y-105238748D02*
X141000000Y-106661252D01*
%TO.C,C4*%
X117930000Y-105238748D02*
X117930000Y-106661252D01*
X116110000Y-105238748D02*
X116110000Y-106661252D01*
%TO.C,C12*%
X173260000Y-109088748D02*
X173260000Y-110511252D01*
X170540000Y-109088748D02*
X170540000Y-110511252D01*
%TO.C,L2*%
X155165000Y-79485000D02*
X155165000Y-88105000D01*
X133335000Y-79485000D02*
X133335000Y-88105000D01*
X133335000Y-79485000D02*
X146358200Y-79485000D01*
X151920800Y-79478000D02*
X155165000Y-79485000D01*
X142040200Y-88114000D02*
X155165000Y-88105000D01*
X133335000Y-88105000D02*
X136731600Y-88114000D01*
%TO.C,J8*%
X138760000Y-99670000D02*
X141420000Y-99670000D01*
X138760000Y-97070000D02*
X138760000Y-99670000D01*
X138760000Y-97070000D02*
X141420000Y-97070000D01*
X141420000Y-97070000D02*
X141420000Y-99670000D01*
X138760000Y-95800000D02*
X138760000Y-94470000D01*
X138760000Y-94470000D02*
X140090000Y-94470000D01*
%TO.C,J4*%
X113150000Y-97120000D02*
X115810000Y-97120000D01*
X113150000Y-94520000D02*
X114480000Y-94520000D01*
X115810000Y-97120000D02*
X115810000Y-99720000D01*
X113150000Y-99720000D02*
X115810000Y-99720000D01*
X113150000Y-95850000D02*
X113150000Y-94520000D01*
X113150000Y-97120000D02*
X113150000Y-99720000D01*
%TO.C,J13*%
X172820000Y-78950000D02*
X172820000Y-82550000D01*
X174700000Y-77070000D02*
X178300000Y-77070000D01*
X180180000Y-78950000D02*
X180180000Y-82550000D01*
X174700000Y-84430000D02*
X178300000Y-84430000D01*
%TO.C,C5*%
X121190000Y-105228748D02*
X121190000Y-106651252D01*
X123010000Y-105228748D02*
X123010000Y-106651252D01*
%TO.C,J12*%
X151580000Y-97070000D02*
X151580000Y-99670000D01*
X148920000Y-97070000D02*
X148920000Y-99670000D01*
X148920000Y-97070000D02*
X151580000Y-97070000D01*
X148920000Y-99670000D02*
X151580000Y-99670000D01*
X148920000Y-95800000D02*
X148920000Y-94470000D01*
X148920000Y-94470000D02*
X150250000Y-94470000D01*
%TO.C,BAR1*%
X222872500Y-94397500D02*
X222872500Y-92697500D01*
X222872500Y-92697500D02*
X221172500Y-92697500D01*
X196902500Y-92987500D02*
X222582500Y-92987500D01*
X222582500Y-103427500D02*
X196902500Y-103427500D01*
%TO.C,R2*%
X161810000Y-99930000D02*
X161330000Y-99930000D01*
X165170000Y-99930000D02*
X165170000Y-110070000D01*
X164690000Y-99930000D02*
X165170000Y-99930000D01*
X161330000Y-99930000D02*
X161330000Y-110070000D01*
X161330000Y-110070000D02*
X161810000Y-110070000D01*
X165170000Y-110070000D02*
X164690000Y-110070000D01*
%TO.C,J1*%
X101980000Y-98200000D02*
X101980000Y-101800000D01*
X96500000Y-103680000D02*
X100100000Y-103680000D01*
X94620000Y-98200000D02*
X94620000Y-101800000D01*
X96500000Y-96320000D02*
X100100000Y-96320000D01*
%TO.C,C9*%
X144260000Y-105247648D02*
X144260000Y-106670152D01*
X146080000Y-105247648D02*
X146080000Y-106670152D01*
%TO.C,J10*%
X143840000Y-99670000D02*
X146500000Y-99670000D01*
X143840000Y-95800000D02*
X143840000Y-94470000D01*
X143840000Y-97070000D02*
X143840000Y-99670000D01*
X143840000Y-97070000D02*
X146500000Y-97070000D01*
X146500000Y-97070000D02*
X146500000Y-99670000D01*
X143840000Y-94470000D02*
X145170000Y-94470000D01*
%TO.C,J3*%
X110610000Y-99720000D02*
X113270000Y-99720000D01*
X110610000Y-97120000D02*
X110610000Y-99720000D01*
X113270000Y-97120000D02*
X113270000Y-99720000D01*
X110610000Y-95850000D02*
X110610000Y-94520000D01*
X110610000Y-94520000D02*
X111940000Y-94520000D01*
X110610000Y-97120000D02*
X113270000Y-97120000D01*
%TO.C,R1*%
X182240000Y-100080000D02*
X182720000Y-100080000D01*
X182720000Y-110220000D02*
X182240000Y-110220000D01*
X182720000Y-100080000D02*
X182720000Y-110220000D01*
X178880000Y-100080000D02*
X178880000Y-110220000D01*
X178880000Y-110220000D02*
X179360000Y-110220000D01*
X179360000Y-100080000D02*
X178880000Y-100080000D01*
%TO.C,C6*%
X128090000Y-105228748D02*
X128090000Y-106651252D01*
X126270000Y-105228748D02*
X126270000Y-106651252D01*
%TO.C,C1*%
X186570000Y-108730000D02*
X185945000Y-108730000D01*
X186570000Y-108730000D02*
X186570000Y-112770000D01*
X184355000Y-112770000D02*
X183730000Y-112770000D01*
X184355000Y-108730000D02*
X183730000Y-108730000D01*
X183730000Y-108730000D02*
X183730000Y-112770000D01*
X186570000Y-112770000D02*
X185945000Y-112770000D01*
%TO.C,J11*%
X146380000Y-94470000D02*
X147710000Y-94470000D01*
X149040000Y-97070000D02*
X149040000Y-99670000D01*
X146380000Y-99670000D02*
X149040000Y-99670000D01*
X146380000Y-95800000D02*
X146380000Y-94470000D01*
X146380000Y-97070000D02*
X146380000Y-99670000D01*
X146380000Y-97070000D02*
X149040000Y-97070000D01*
%TD*%
M02*
