%TF.GenerationSoftware,KiCad,Pcbnew,(6.0.7)*%
%TF.CreationDate,2022-09-09T12:51:11-07:00*%
%TF.ProjectId,12AQ5_lpf_rfout,31324151-355f-46c7-9066-5f72666f7574,rev?*%
%TF.SameCoordinates,Original*%
%TF.FileFunction,Soldermask,Top*%
%TF.FilePolarity,Negative*%
%FSLAX46Y46*%
G04 Gerber Fmt 4.6, Leading zero omitted, Abs format (unit mm)*
G04 Created by KiCad (PCBNEW (6.0.7)) date 2022-09-09 12:51:11*
%MOMM*%
%LPD*%
G01*
G04 APERTURE LIST*
G04 Aperture macros list*
%AMRoundRect*
0 Rectangle with rounded corners*
0 $1 Rounding radius*
0 $2 $3 $4 $5 $6 $7 $8 $9 X,Y pos of 4 corners*
0 Add a 4 corners polygon primitive as box body*
4,1,4,$2,$3,$4,$5,$6,$7,$8,$9,$2,$3,0*
0 Add four circle primitives for the rounded corners*
1,1,$1+$1,$2,$3*
1,1,$1+$1,$4,$5*
1,1,$1+$1,$6,$7*
1,1,$1+$1,$8,$9*
0 Add four rect primitives between the rounded corners*
20,1,$1+$1,$2,$3,$4,$5,0*
20,1,$1+$1,$4,$5,$6,$7,0*
20,1,$1+$1,$6,$7,$8,$9,0*
20,1,$1+$1,$8,$9,$2,$3,0*%
G04 Aperture macros list end*
%ADD10RoundRect,0.216566X-0.677934X0.357334X-0.677934X-0.357334X0.677934X-0.357334X0.677934X0.357334X0*%
%ADD11O,1.955800X1.562000*%
%ADD12O,1.905000X1.562000*%
%ADD13RoundRect,0.232754X-0.674446X0.384046X-0.674446X-0.384046X0.674446X-0.384046X0.674446X0.384046X0*%
%ADD14R,1.700000X1.700000*%
%ADD15O,1.700000X1.700000*%
%ADD16R,1.050000X1.500000*%
%ADD17O,1.050000X1.500000*%
%ADD18R,1.600000X1.600000*%
%ADD19C,1.600000*%
%ADD20O,1.600000X1.600000*%
%ADD21C,2.600000*%
%ADD22C,3.000000*%
%ADD23C,3.600000*%
%ADD24C,5.700000*%
%ADD25RoundRect,0.250000X-1.100000X0.412500X-1.100000X-0.412500X1.100000X-0.412500X1.100000X0.412500X0*%
%ADD26C,2.050000*%
%ADD27C,2.250000*%
%ADD28R,1.600000X2.032000*%
%ADD29C,2.400000*%
%ADD30O,2.400000X2.400000*%
G04 APERTURE END LIST*
D10*
%TO.C,C2*%
X106847300Y-104424300D03*
D11*
X106865500Y-103374200D03*
D12*
X106840100Y-108454200D03*
D13*
X106860000Y-107450000D03*
%TD*%
D11*
%TO.C,C3*%
X111945500Y-103374200D03*
D10*
X111927300Y-104424300D03*
D13*
X111940000Y-107450000D03*
D12*
X111920100Y-108454200D03*
%TD*%
D14*
%TO.C,J9*%
X142630000Y-95800000D03*
D15*
X142630000Y-98340000D03*
%TD*%
D16*
%TO.C,U1*%
X191890000Y-110150000D03*
D17*
X190620000Y-110150000D03*
X189350000Y-110150000D03*
%TD*%
D18*
%TO.C,C13*%
X227494888Y-92800000D03*
D19*
X229994888Y-92800000D03*
%TD*%
D11*
%TO.C,C10*%
X150262700Y-103391000D03*
D10*
X150244500Y-104441100D03*
D13*
X150257200Y-107466800D03*
D12*
X150237300Y-108471000D03*
%TD*%
D14*
%TO.C,J6*%
X119560000Y-95850000D03*
D15*
X119560000Y-98390000D03*
%TD*%
D14*
%TO.C,J5*%
X117020000Y-95850000D03*
D15*
X117020000Y-98390000D03*
%TD*%
D14*
%TO.C,J7*%
X122100000Y-95850000D03*
D15*
X122100000Y-98390000D03*
%TD*%
D19*
%TO.C,R4*%
X202550000Y-78050000D03*
D20*
X210170000Y-78050000D03*
%TD*%
D21*
%TO.C,T1*%
X167950000Y-86800000D03*
X167915200Y-98400000D03*
X168950000Y-89740000D03*
X166950000Y-95460000D03*
%TD*%
D10*
%TO.C,C11*%
X155350000Y-104450000D03*
D11*
X155368200Y-103399900D03*
D13*
X155362700Y-107475700D03*
D12*
X155342800Y-108479900D03*
%TD*%
D19*
%TO.C,R3*%
X175500000Y-103590000D03*
D20*
X175500000Y-111210000D03*
%TD*%
D11*
%TO.C,C7*%
X135022700Y-103391000D03*
D10*
X135004500Y-104441100D03*
D13*
X135017200Y-107466800D03*
D12*
X134997300Y-108471000D03*
%TD*%
D14*
%TO.C,J2*%
X96400000Y-87950000D03*
D15*
X96400000Y-90490000D03*
%TD*%
D19*
%TO.C,J15*%
X223790000Y-102200000D03*
%TD*%
D18*
%TO.C,D1*%
X168250000Y-103590000D03*
D20*
X168250000Y-111210000D03*
%TD*%
D19*
%TO.C,J14*%
X195740000Y-102000000D03*
%TD*%
D21*
%TO.C,T2*%
X184515200Y-98400000D03*
X184550000Y-86800000D03*
X183550000Y-95460000D03*
X185550000Y-89740000D03*
%TD*%
D18*
%TO.C,U2*%
X198800000Y-90050000D03*
D20*
X201340000Y-90050000D03*
X203880000Y-90050000D03*
X206420000Y-90050000D03*
X208960000Y-90050000D03*
X211500000Y-90050000D03*
X214040000Y-90050000D03*
X216580000Y-90050000D03*
X219120000Y-90050000D03*
X219120000Y-82430000D03*
X216580000Y-82430000D03*
X214040000Y-82430000D03*
X211500000Y-82430000D03*
X208960000Y-82430000D03*
X206420000Y-82430000D03*
X203880000Y-82430000D03*
X201340000Y-82430000D03*
X198800000Y-82430000D03*
%TD*%
D22*
%TO.C,L1*%
X110770000Y-87605000D03*
X120930000Y-79985000D03*
%TD*%
D10*
%TO.C,C8*%
X140084500Y-104441100D03*
D11*
X140102700Y-103391000D03*
D13*
X140097200Y-107466800D03*
D12*
X140077300Y-108471000D03*
%TD*%
D10*
%TO.C,C4*%
X117014500Y-104441100D03*
D11*
X117032700Y-103391000D03*
D13*
X117027200Y-107466800D03*
D12*
X117007300Y-108471000D03*
%TD*%
D23*
%TO.C,H3*%
X229350000Y-110000000D03*
D24*
X229350000Y-110000000D03*
X229350000Y-110000000D03*
%TD*%
%TO.C,H2*%
X96350000Y-110000000D03*
D23*
X96350000Y-110000000D03*
D24*
X96350000Y-110000000D03*
%TD*%
D25*
%TO.C,C12*%
X171900000Y-108237500D03*
X171900000Y-111362500D03*
%TD*%
D22*
%TO.C,L2*%
X139170000Y-87605000D03*
X149330000Y-79985000D03*
%TD*%
D14*
%TO.C,J8*%
X140090000Y-95800000D03*
D15*
X140090000Y-98340000D03*
%TD*%
D14*
%TO.C,J4*%
X114480000Y-95850000D03*
D15*
X114480000Y-98390000D03*
%TD*%
D26*
%TO.C,J13*%
X176500000Y-80750000D03*
D27*
X179040000Y-83290000D03*
X173960000Y-78210000D03*
X179040000Y-78210000D03*
X173960000Y-83290000D03*
%TD*%
D11*
%TO.C,C5*%
X122112700Y-103381000D03*
D10*
X122094500Y-104431100D03*
D12*
X122087300Y-108461000D03*
D13*
X122107200Y-107456800D03*
%TD*%
D14*
%TO.C,J12*%
X150250000Y-95800000D03*
D15*
X150250000Y-98340000D03*
%TD*%
D28*
%TO.C,BAR1*%
X221172500Y-94397500D03*
D19*
X218632500Y-94397500D03*
X216092500Y-94397500D03*
X213552500Y-94397500D03*
X211012500Y-94397500D03*
X208472500Y-94397500D03*
X205932500Y-94397500D03*
X203392500Y-94397500D03*
X200852500Y-94397500D03*
X198312500Y-94397500D03*
X198312500Y-102017500D03*
X200852500Y-102017500D03*
X203392500Y-102017500D03*
X205932500Y-102017500D03*
X208472500Y-102017500D03*
X211012500Y-102017500D03*
X213552500Y-102017500D03*
X216092500Y-102017500D03*
X218632500Y-102017500D03*
X221172500Y-102017500D03*
%TD*%
D29*
%TO.C,R2*%
X163250000Y-98650000D03*
D30*
X163250000Y-111350000D03*
%TD*%
D26*
%TO.C,J1*%
X98300000Y-100000000D03*
D27*
X95760000Y-102540000D03*
X100840000Y-97460000D03*
X100840000Y-102540000D03*
X95760000Y-97460000D03*
%TD*%
D10*
%TO.C,C9*%
X145164500Y-104450000D03*
D11*
X145182700Y-103399900D03*
D12*
X145157300Y-108479900D03*
D13*
X145177200Y-107475700D03*
%TD*%
D14*
%TO.C,J10*%
X145170000Y-95800000D03*
D15*
X145170000Y-98340000D03*
%TD*%
D14*
%TO.C,J3*%
X111940000Y-95850000D03*
D15*
X111940000Y-98390000D03*
%TD*%
D24*
%TO.C,H1*%
X96350000Y-80000000D03*
D23*
X96350000Y-80000000D03*
D24*
X96350000Y-80000000D03*
%TD*%
D29*
%TO.C,R1*%
X180800000Y-98800000D03*
D30*
X180800000Y-111500000D03*
%TD*%
D10*
%TO.C,C6*%
X127174500Y-104431100D03*
D11*
X127192700Y-103381000D03*
D13*
X127187200Y-107456800D03*
D12*
X127167300Y-108461000D03*
%TD*%
D19*
%TO.C,C1*%
X185150000Y-109500000D03*
X185150000Y-112000000D03*
%TD*%
D14*
%TO.C,J11*%
X147710000Y-95800000D03*
D15*
X147710000Y-98340000D03*
%TD*%
D24*
%TO.C,H4*%
X229350000Y-80000000D03*
D23*
X229350000Y-80000000D03*
D24*
X229350000Y-80000000D03*
%TD*%
M02*
