M48
; DRILL file {KiCad (6.0.7)} date Fri Sep  9 12:50:53 2022
; FORMAT={-:-/ absolute / metric / decimal}
; #@! TF.CreationDate,2022-09-09T12:50:53-07:00
; #@! TF.GenerationSoftware,Kicad,Pcbnew,(6.0.7)
; #@! TF.FileFunction,Plated,1,2,PTH
FMAT,2
METRIC
; #@! TA.AperFunction,Plated,PTH,ViaDrill
T1C0.400
; #@! TA.AperFunction,Plated,PTH,ComponentDrill
T2C0.750
; #@! TA.AperFunction,Plated,PTH,ComponentDrill
T3C0.800
; #@! TA.AperFunction,Plated,PTH,ComponentDrill
T4C1.000
; #@! TA.AperFunction,Plated,PTH,ComponentDrill
T5C1.200
; #@! TA.AperFunction,Plated,PTH,ComponentDrill
T6C1.300
; #@! TA.AperFunction,Plated,PTH,ComponentDrill
T7C1.500
; #@! TA.AperFunction,Plated,PTH,ComponentDrill
T8C1.600
; #@! TA.AperFunction,Plated,PTH,ComponentDrill
T9C3.200
%
G90
G05
T1
X195.05Y-91.85
X196.065Y-95.515
X197.195Y-96.645
T2
X189.35Y-110.15
X190.62Y-110.15
X191.89Y-110.15
T3
X106.853Y-103.393
X106.853Y-108.473
X111.933Y-103.393
X111.933Y-108.473
X117.02Y-103.41
X117.02Y-108.49
X122.1Y-103.4
X122.1Y-108.48
X127.18Y-103.4
X127.18Y-108.48
X135.01Y-103.41
X135.01Y-108.49
X140.09Y-103.41
X140.09Y-108.49
X145.17Y-103.419
X145.17Y-108.499
X150.25Y-103.41
X150.25Y-108.49
X155.356Y-103.419
X155.356Y-108.499
X168.25Y-103.59
X168.25Y-111.21
X175.5Y-103.59
X175.5Y-111.21
X185.15Y-109.5
X185.15Y-112.0
X195.74Y-102.0
X198.312Y-94.397
X198.312Y-102.017
X198.8Y-82.43
X198.8Y-90.05
X200.852Y-94.397
X200.852Y-102.017
X201.34Y-82.43
X201.34Y-90.05
X202.55Y-78.05
X203.392Y-94.397
X203.392Y-102.017
X203.88Y-82.43
X203.88Y-90.05
X205.933Y-94.397
X205.933Y-102.017
X206.42Y-82.43
X206.42Y-90.05
X208.472Y-94.397
X208.472Y-102.017
X208.96Y-82.43
X208.96Y-90.05
X210.17Y-78.05
X211.012Y-94.397
X211.012Y-102.017
X211.5Y-82.43
X211.5Y-90.05
X213.552Y-94.397
X213.552Y-102.017
X214.04Y-82.43
X214.04Y-90.05
X216.093Y-94.397
X216.093Y-102.017
X216.58Y-82.43
X216.58Y-90.05
X218.632Y-94.397
X218.632Y-102.017
X219.12Y-82.43
X219.12Y-90.05
X221.172Y-94.397
X221.172Y-102.017
X223.79Y-102.2
X227.495Y-92.8
X229.995Y-92.8
T4
X96.4Y-87.95
X96.4Y-90.49
X111.94Y-95.85
X111.94Y-98.39
X114.48Y-95.85
X114.48Y-98.39
X117.02Y-95.85
X117.02Y-98.39
X119.56Y-95.85
X119.56Y-98.39
X122.1Y-95.85
X122.1Y-98.39
X140.09Y-95.8
X140.09Y-98.34
X142.63Y-95.8
X142.63Y-98.34
X145.17Y-95.8
X145.17Y-98.34
X147.71Y-95.8
X147.71Y-98.34
X150.25Y-95.8
X150.25Y-98.34
T5
X163.25Y-98.65
X163.25Y-111.35
X180.8Y-98.8
X180.8Y-111.5
T6
X166.95Y-95.46
X167.915Y-98.4
X167.95Y-86.8
X168.95Y-89.74
X183.55Y-95.46
X184.515Y-98.4
X184.55Y-86.8
X185.55Y-89.74
T7
X98.3Y-100.0
X110.77Y-87.605
X120.93Y-79.985
X139.17Y-87.605
X149.33Y-79.985
X176.5Y-80.75
T8
X95.76Y-97.46
X95.76Y-102.54
X100.84Y-97.46
X100.84Y-102.54
X173.96Y-78.21
X173.96Y-83.29
X179.04Y-78.21
X179.04Y-83.29
T9
X96.35Y-80.0
X96.35Y-80.0
X96.35Y-110.0
X96.35Y-110.0
X229.35Y-80.0
X229.35Y-80.0
X229.35Y-110.0
X229.35Y-110.0
T0
M30
