%TF.GenerationSoftware,KiCad,Pcbnew,(6.0.7)*%
%TF.CreationDate,2022-12-08T20:23:21-08:00*%
%TF.ProjectId,TR interface,54522069-6e74-4657-9266-6163652e6b69,rev?*%
%TF.SameCoordinates,Original*%
%TF.FileFunction,Drillmap*%
%TF.FilePolarity,Positive*%
%FSLAX45Y45*%
G04 Gerber Fmt 4.5, Leading zero omitted, Abs format (unit mm)*
G04 Created by KiCad (PCBNEW (6.0.7)) date 2022-12-08 20:23:21*
%MOMM*%
%LPD*%
G01*
G04 APERTURE LIST*
%ADD10C,0.100000*%
%ADD11C,0.200000*%
G04 APERTURE END LIST*
D10*
X3280000Y-2130000D02*
X12280000Y-2130000D01*
X12280000Y-2130000D02*
X12280000Y-8830000D01*
X12280000Y-8830000D02*
X3280000Y-8830000D01*
X3280000Y-8830000D02*
X3280000Y-2130000D01*
D11*
X3532619Y-9145476D02*
X3532619Y-8945476D01*
X3580238Y-8945476D01*
X3608809Y-8955000D01*
X3627857Y-8974048D01*
X3637381Y-8993095D01*
X3646905Y-9031190D01*
X3646905Y-9059762D01*
X3637381Y-9097857D01*
X3627857Y-9116905D01*
X3608809Y-9135952D01*
X3580238Y-9145476D01*
X3532619Y-9145476D01*
X3732619Y-9145476D02*
X3732619Y-9012143D01*
X3732619Y-9050238D02*
X3742143Y-9031190D01*
X3751667Y-9021667D01*
X3770714Y-9012143D01*
X3789762Y-9012143D01*
X3856428Y-9145476D02*
X3856428Y-9012143D01*
X3856428Y-8945476D02*
X3846905Y-8955000D01*
X3856428Y-8964524D01*
X3865952Y-8955000D01*
X3856428Y-8945476D01*
X3856428Y-8964524D01*
X3980238Y-9145476D02*
X3961190Y-9135952D01*
X3951667Y-9116905D01*
X3951667Y-8945476D01*
X4085000Y-9145476D02*
X4065952Y-9135952D01*
X4056428Y-9116905D01*
X4056428Y-8945476D01*
X4313571Y-9145476D02*
X4313571Y-8945476D01*
X4380238Y-9088333D01*
X4446905Y-8945476D01*
X4446905Y-9145476D01*
X4627857Y-9145476D02*
X4627857Y-9040714D01*
X4618333Y-9021667D01*
X4599286Y-9012143D01*
X4561190Y-9012143D01*
X4542143Y-9021667D01*
X4627857Y-9135952D02*
X4608810Y-9145476D01*
X4561190Y-9145476D01*
X4542143Y-9135952D01*
X4532619Y-9116905D01*
X4532619Y-9097857D01*
X4542143Y-9078810D01*
X4561190Y-9069286D01*
X4608810Y-9069286D01*
X4627857Y-9059762D01*
X4723095Y-9012143D02*
X4723095Y-9212143D01*
X4723095Y-9021667D02*
X4742143Y-9012143D01*
X4780238Y-9012143D01*
X4799286Y-9021667D01*
X4808810Y-9031190D01*
X4818333Y-9050238D01*
X4818333Y-9107381D01*
X4808810Y-9126429D01*
X4799286Y-9135952D01*
X4780238Y-9145476D01*
X4742143Y-9145476D01*
X4723095Y-9135952D01*
X4904048Y-9126429D02*
X4913571Y-9135952D01*
X4904048Y-9145476D01*
X4894524Y-9135952D01*
X4904048Y-9126429D01*
X4904048Y-9145476D01*
X4904048Y-9021667D02*
X4913571Y-9031190D01*
X4904048Y-9040714D01*
X4894524Y-9031190D01*
X4904048Y-9021667D01*
X4904048Y-9040714D01*
M02*
