%TF.GenerationSoftware,KiCad,Pcbnew,(6.0.7)*%
%TF.CreationDate,2022-12-07T12:16:08-08:00*%
%TF.ProjectId,TR interface,54522069-6e74-4657-9266-6163652e6b69,rev?*%
%TF.SameCoordinates,Original*%
%TF.FileFunction,Copper,L2,Bot*%
%TF.FilePolarity,Positive*%
%FSLAX46Y46*%
G04 Gerber Fmt 4.6, Leading zero omitted, Abs format (unit mm)*
G04 Created by KiCad (PCBNEW (6.0.7)) date 2022-12-07 12:16:08*
%MOMM*%
%LPD*%
G01*
G04 APERTURE LIST*
%TA.AperFunction,ComponentPad*%
%ADD10C,3.016000*%
%TD*%
%TA.AperFunction,ComponentPad*%
%ADD11R,1.600000X1.600000*%
%TD*%
%TA.AperFunction,ComponentPad*%
%ADD12O,1.600000X1.600000*%
%TD*%
%TA.AperFunction,ComponentPad*%
%ADD13C,3.300000*%
%TD*%
%TA.AperFunction,ComponentPad*%
%ADD14R,1.800000X2.600000*%
%TD*%
%TA.AperFunction,ComponentPad*%
%ADD15O,1.800000X2.600000*%
%TD*%
%TA.AperFunction,ComponentPad*%
%ADD16C,1.600000*%
%TD*%
%TA.AperFunction,ComponentPad*%
%ADD17R,1.500000X1.500000*%
%TD*%
%TA.AperFunction,ComponentPad*%
%ADD18C,1.500000*%
%TD*%
%TA.AperFunction,ComponentPad*%
%ADD19R,1.398000X1.398000*%
%TD*%
%TA.AperFunction,ComponentPad*%
%ADD20C,1.398000*%
%TD*%
%TA.AperFunction,ComponentPad*%
%ADD21C,3.015000*%
%TD*%
%TA.AperFunction,SMDPad,CuDef*%
%ADD22R,1.350000X4.200000*%
%TD*%
%TA.AperFunction,ComponentPad*%
%ADD23R,1.800000X1.800000*%
%TD*%
%TA.AperFunction,ComponentPad*%
%ADD24C,1.800000*%
%TD*%
%TA.AperFunction,ViaPad*%
%ADD25C,0.800000*%
%TD*%
%TA.AperFunction,Conductor*%
%ADD26C,0.800000*%
%TD*%
%TA.AperFunction,Conductor*%
%ADD27C,0.400000*%
%TD*%
%TA.AperFunction,Conductor*%
%ADD28C,1.000000*%
%TD*%
G04 APERTURE END LIST*
D10*
%TO.P,J5,1*%
%TO.N,GND*%
X39382100Y-23400000D03*
%TO.P,J5,2*%
%TO.N,{slash}key*%
X34882100Y-26900000D03*
%TO.P,J5,3*%
%TO.N,unconnected-(J5-Pad3)*%
X44382100Y-31700000D03*
%TD*%
D11*
%TO.P,D1,1,K*%
%TO.N,+5V*%
X59500000Y-30000000D03*
D12*
%TO.P,D1,2,A*%
%TO.N,Net-(C1-Pad2)*%
X59500000Y-32540000D03*
%TD*%
D13*
%TO.P,J1,*%
%TO.N,*%
X114049480Y-78300700D03*
X38650900Y-46900000D03*
X114050000Y-46900000D03*
X38650900Y-78300700D03*
D14*
%TO.P,J1,1,Pin_1*%
%TO.N,GND*%
X44150000Y-46900000D03*
D15*
%TO.P,J1,2,Pin_2*%
%TO.N,+5V*%
X46690000Y-46900000D03*
%TO.P,J1,3,Pin_3*%
%TO.N,Vo*%
X49230000Y-46900000D03*
%TO.P,J1,4,Pin_4*%
%TO.N,RS*%
X51770000Y-46900000D03*
%TO.P,J1,5,Pin_5*%
%TO.N,GND*%
X54310000Y-46900000D03*
%TO.P,J1,6,Pin_6*%
%TO.N,EN*%
X56850000Y-46900000D03*
%TO.P,J1,7,Pin_7*%
%TO.N,{slash}RX_TX*%
X59390000Y-46900000D03*
%TO.P,J1,8,Pin_8*%
%TO.N,{slash}TX_RX*%
X61930000Y-46900000D03*
%TO.P,J1,9,Pin_9*%
%TO.N,{slash}key*%
X64470000Y-46900000D03*
%TO.P,J1,10,Pin_10*%
%TO.N,RX_Sig*%
X67010000Y-46900000D03*
%TO.P,J1,11,Pin_11*%
%TO.N,DB4*%
X69550000Y-46900000D03*
%TO.P,J1,12,Pin_12*%
%TO.N,DB5*%
X72090000Y-46900000D03*
%TO.P,J1,13,Pin_13*%
%TO.N,DB6*%
X74630000Y-46900000D03*
%TO.P,J1,14,Pin_14*%
%TO.N,DB7*%
X77170000Y-46900000D03*
%TO.P,J1,15,Pin_15*%
%TO.N,unconnected-(J1-Pad15)*%
X79710000Y-46900000D03*
%TO.P,J1,16,Pin_16*%
%TO.N,GND*%
X82250000Y-46900000D03*
%TD*%
D16*
%TO.P,R1,1*%
%TO.N,+5V*%
X107360000Y-45700000D03*
D12*
%TO.P,R1,2*%
%TO.N,T*%
X99740000Y-45700000D03*
%TD*%
D11*
%TO.P,D2,1,K*%
%TO.N,+5V*%
X102450000Y-39050000D03*
D12*
%TO.P,D2,2,A*%
%TO.N,Net-(C2-Pad2)*%
X102450000Y-36510000D03*
%TD*%
D16*
%TO.P,R7,1*%
%TO.N,Net-(Q2-Pad2)*%
X63860000Y-41450000D03*
D12*
%TO.P,R7,2*%
%TO.N,Net-(R7-Pad2)*%
X56240000Y-41450000D03*
%TD*%
D17*
%TO.P,Q1,1,E*%
%TO.N,Net-(D3-Pad2)*%
X35910000Y-42040000D03*
D18*
%TO.P,Q1,2,B*%
%TO.N,T*%
X38450000Y-42040000D03*
%TO.P,Q1,3,C*%
%TO.N,+5V*%
X40990000Y-42040000D03*
%TD*%
D16*
%TO.P,R3,1*%
%TO.N,Net-(C2-Pad2)*%
X106900000Y-36700000D03*
D12*
%TO.P,R3,2*%
%TO.N,+5V*%
X106900000Y-39240000D03*
%TD*%
D11*
%TO.P,D5,1,K*%
%TO.N,+5V*%
X105000000Y-30640000D03*
D12*
%TO.P,D5,2,A*%
%TO.N,SET*%
X105000000Y-28100000D03*
%TD*%
D16*
%TO.P,C4,1*%
%TO.N,GND*%
X120800000Y-39000000D03*
%TO.P,C4,2*%
%TO.N,Net-(C4-Pad2)*%
X120800000Y-36500000D03*
%TD*%
D11*
%TO.P,D4,1,K*%
%TO.N,+5V*%
X67700000Y-29935686D03*
D12*
%TO.P,D4,2,A*%
%TO.N,RESET*%
X67700000Y-32475686D03*
%TD*%
D17*
%TO.P,Q3,1,E*%
%TO.N,GND*%
X100890000Y-22860000D03*
D18*
%TO.P,Q3,2,B*%
%TO.N,Net-(Q3-Pad2)*%
X100890000Y-25400000D03*
%TO.P,Q3,3,C*%
%TO.N,SET*%
X100890000Y-27940000D03*
%TD*%
D17*
%TO.P,Q2,1,E*%
%TO.N,GND*%
X67750000Y-40750000D03*
D18*
%TO.P,Q2,2,B*%
%TO.N,Net-(Q2-Pad2)*%
X67750000Y-38210000D03*
%TO.P,Q2,3,C*%
%TO.N,RESET*%
X67750000Y-35670000D03*
%TD*%
D16*
%TO.P,R4,1*%
%TO.N,Net-(C3-Pad2)*%
X51200000Y-41250000D03*
D12*
%TO.P,R4,2*%
%TO.N,+5V*%
X43580000Y-41250000D03*
%TD*%
D16*
%TO.P,C3,1*%
%TO.N,GND*%
X47850000Y-24950000D03*
%TO.P,C3,2*%
%TO.N,Net-(C3-Pad2)*%
X47850000Y-27450000D03*
%TD*%
%TO.P,R2,1*%
%TO.N,Net-(C1-Pad2)*%
X62400000Y-32145000D03*
D12*
%TO.P,R2,2*%
%TO.N,+5V*%
X62400000Y-29605000D03*
%TD*%
D11*
%TO.P,U2,1,GND*%
%TO.N,GND*%
X110050000Y-30750000D03*
D12*
%TO.P,U2,2,~{TRIG}*%
%TO.N,Net-(C2-Pad2)*%
X110050000Y-33290000D03*
%TO.P,U2,3,OUT*%
%TO.N,Net-(R8-Pad2)*%
X110050000Y-35830000D03*
%TO.P,U2,4,~{RESET}*%
%TO.N,+5V*%
X110050000Y-38370000D03*
%TO.P,U2,5,CONT*%
%TO.N,unconnected-(U2-Pad5)*%
X117670000Y-38370000D03*
%TO.P,U2,6,THRES*%
%TO.N,Net-(C4-Pad2)*%
X117670000Y-35830000D03*
%TO.P,U2,7,DISCH*%
X117670000Y-33290000D03*
%TO.P,U2,8,VDD*%
%TO.N,+5V*%
X117670000Y-30750000D03*
%TD*%
D19*
%TO.P,J3,1,1*%
%TO.N,ANT*%
X89650000Y-34341500D03*
D20*
%TO.P,J3,2,2*%
%TO.N,GND*%
X87110000Y-34341500D03*
D21*
%TO.P,J3,P1,SHIELD*%
X84570000Y-29261500D03*
%TO.P,J3,P2,SHIELD*%
X94730000Y-29261500D03*
%TD*%
D16*
%TO.P,R8,1*%
%TO.N,Net-(Q3-Pad2)*%
X102870000Y-42050000D03*
D12*
%TO.P,R8,2*%
%TO.N,Net-(R8-Pad2)*%
X113030000Y-42050000D03*
%TD*%
D16*
%TO.P,R5,1*%
%TO.N,Net-(C4-Pad2)*%
X121000000Y-33495000D03*
D12*
%TO.P,R5,2*%
%TO.N,+5V*%
X121000000Y-30955000D03*
%TD*%
D16*
%TO.P,C1,1*%
%TO.N,{slash}RX_TX*%
X63950000Y-35250000D03*
%TO.P,C1,2*%
%TO.N,Net-(C1-Pad2)*%
X58950000Y-35250000D03*
%TD*%
D22*
%TO.P,J4,2,Ext*%
%TO.N,GND*%
X62575000Y-23900000D03*
X68225000Y-23900000D03*
%TD*%
D23*
%TO.P,D3,1,K*%
%TO.N,Net-(D3-Pad1)*%
X52925000Y-23600000D03*
D24*
%TO.P,D3,2,A*%
%TO.N,Net-(D3-Pad2)*%
X50385000Y-23600000D03*
%TD*%
D18*
%TO.P,DS1,1,VSS_1*%
%TO.N,GND*%
X44300000Y-85400000D03*
%TO.P,DS1,2,VDD_1*%
%TO.N,+5V*%
X46840000Y-85400000D03*
%TO.P,DS1,3,VEE_1*%
%TO.N,Vo*%
X49380000Y-85400000D03*
%TO.P,DS1,4,RS_1*%
%TO.N,RS*%
X51920000Y-85400000D03*
%TO.P,DS1,5,R/W_1*%
%TO.N,GND*%
X54460000Y-85400000D03*
%TO.P,DS1,6,E_1*%
%TO.N,EN*%
X57000000Y-85400000D03*
%TO.P,DS1,7,DB0_1*%
%TO.N,unconnected-(DS1-Pad7)*%
X59540000Y-85400000D03*
%TO.P,DS1,8,DB1_1*%
%TO.N,unconnected-(DS1-Pad8)*%
X62080000Y-85400000D03*
%TO.P,DS1,9,DB2_1*%
%TO.N,unconnected-(DS1-Pad9)*%
X64620000Y-85400000D03*
%TO.P,DS1,10,DB3_1*%
%TO.N,unconnected-(DS1-Pad10)*%
X67160000Y-85400000D03*
%TO.P,DS1,11,DB4_1*%
%TO.N,DB4*%
X69700000Y-85400000D03*
%TO.P,DS1,12,DB5_1*%
%TO.N,DB5*%
X72240000Y-85400000D03*
%TO.P,DS1,13,DB6_1*%
%TO.N,DB6*%
X74780000Y-85400000D03*
%TO.P,DS1,14,DB7_1*%
%TO.N,DB7*%
X77320000Y-85400000D03*
%TO.P,DS1,15,LEDA_1*%
%TO.N,unconnected-(DS1-Pad15)*%
X79860000Y-85400000D03*
%TO.P,DS1,16,LEDK_1*%
%TO.N,unconnected-(DS1-Pad16)*%
X82400000Y-85400000D03*
%TO.P,DS1,17,VSS_2*%
%TO.N,GND*%
X44300000Y-54400000D03*
%TO.P,DS1,18,VDD_2*%
%TO.N,+5V*%
X46840000Y-54400000D03*
%TO.P,DS1,19,VEE_2*%
%TO.N,Vo*%
X49380000Y-54400000D03*
%TO.P,DS1,20,RS_2*%
%TO.N,RS*%
X51920000Y-54400000D03*
%TO.P,DS1,21,R/W_2*%
%TO.N,GND*%
X54460000Y-54400000D03*
%TO.P,DS1,22,E_2*%
%TO.N,EN*%
X57000000Y-54400000D03*
%TO.P,DS1,23,DB0_2*%
%TO.N,unconnected-(DS1-Pad23)*%
X59540000Y-54400000D03*
%TO.P,DS1,24,DB1_2*%
%TO.N,unconnected-(DS1-Pad24)*%
X62080000Y-54400000D03*
%TO.P,DS1,25,DB2_2*%
%TO.N,unconnected-(DS1-Pad25)*%
X64620000Y-54400000D03*
%TO.P,DS1,26,DB3_2*%
%TO.N,unconnected-(DS1-Pad26)*%
X67160000Y-54400000D03*
%TO.P,DS1,27,DB4_2*%
%TO.N,DB4*%
X69700000Y-54400000D03*
%TO.P,DS1,28,DB5_2*%
%TO.N,DB5*%
X72240000Y-54400000D03*
%TO.P,DS1,29,DB6_2*%
%TO.N,DB6*%
X74780000Y-54400000D03*
%TO.P,DS1,30,DB7_2*%
%TO.N,DB7*%
X77320000Y-54400000D03*
%TO.P,DS1,31,LEDA_2*%
%TO.N,unconnected-(DS1-Pad31)*%
X79860000Y-54400000D03*
%TO.P,DS1,32,LEDK_2*%
%TO.N,unconnected-(DS1-Pad32)*%
X82400000Y-54400000D03*
D13*
%TO.P,DS1,MH1*%
%TO.N,N/C*%
X38800000Y-85400000D03*
%TO.P,DS1,MH2*%
X38800000Y-54400000D03*
%TO.P,DS1,MH3*%
X113800000Y-54400000D03*
%TO.P,DS1,MH4*%
X113800000Y-85400000D03*
%TD*%
D16*
%TO.P,R6,1*%
%TO.N,Net-(D3-Pad1)*%
X88890000Y-45700000D03*
D12*
%TO.P,R6,2*%
%TO.N,GND*%
X96510000Y-45700000D03*
%TD*%
D16*
%TO.P,C6,1*%
%TO.N,GND*%
X112650000Y-26950000D03*
%TO.P,C6,2*%
%TO.N,+5V*%
X115150000Y-26950000D03*
%TD*%
D11*
%TO.P,U1,1,GND*%
%TO.N,GND*%
X56300000Y-37850000D03*
D12*
%TO.P,U1,2,~{TRIG}*%
%TO.N,Net-(C1-Pad2)*%
X56300000Y-35310000D03*
%TO.P,U1,3,OUT*%
%TO.N,Net-(R7-Pad2)*%
X56300000Y-32770000D03*
%TO.P,U1,4,~{RESET}*%
%TO.N,+5V*%
X56300000Y-30230000D03*
%TO.P,U1,5,CONT*%
%TO.N,unconnected-(U1-Pad5)*%
X48680000Y-30230000D03*
%TO.P,U1,6,THRES*%
%TO.N,Net-(C3-Pad2)*%
X48680000Y-32770000D03*
%TO.P,U1,7,DISCH*%
X48680000Y-35310000D03*
%TO.P,U1,8,VDD*%
%TO.N,+5V*%
X48680000Y-37850000D03*
%TD*%
D16*
%TO.P,C5,1*%
%TO.N,GND*%
X53550000Y-27250000D03*
%TO.P,C5,2*%
%TO.N,+5V*%
X56050000Y-27250000D03*
%TD*%
%TO.P,C2,1*%
%TO.N,{slash}TX_RX*%
X102250000Y-33500000D03*
%TO.P,C2,2*%
%TO.N,Net-(C2-Pad2)*%
X107250000Y-33500000D03*
%TD*%
D25*
%TO.N,T*%
X58000000Y-56300000D03*
X35500000Y-46950000D03*
X95204668Y-41164668D03*
X84900000Y-41200000D03*
X35500000Y-50150000D03*
X79650000Y-56300000D03*
X43250000Y-56300000D03*
X83080000Y-33470000D03*
X68800000Y-56300000D03*
%TO.N,GND*%
X60500000Y-23750000D03*
X70750000Y-23750000D03*
%TO.N,RX_Sig*%
X71650000Y-36000000D03*
X76600000Y-28400000D03*
%TO.N,SET*%
X97700000Y-26750000D03*
%TO.N,RESET*%
X69550000Y-26750000D03*
%TO.N,Net-(Q3-Pad2)*%
X98850000Y-34950000D03*
%TO.N,Net-(R8-Pad2)*%
X112900000Y-37350000D03*
%TO.N,Net-(D3-Pad1)*%
X57450000Y-44400000D03*
X65600000Y-44450000D03*
X52650000Y-36100000D03*
X52650000Y-32050000D03*
%TO.N,{slash}TX_RX*%
X97050000Y-40400000D03*
X98000000Y-37600000D03*
%TO.N,{slash}key*%
X42400000Y-50300000D03*
X58350000Y-50300000D03*
%TD*%
D26*
%TO.N,GND*%
X46499200Y-23400000D02*
X39382100Y-23400000D01*
X46524600Y-23374600D02*
X46499200Y-23400000D01*
D27*
%TO.N,T*%
X79650000Y-56300000D02*
X68800000Y-56300000D01*
X83080000Y-33470000D02*
X83120000Y-33470000D01*
X35500000Y-50150000D02*
X35500000Y-46950000D01*
X84950000Y-35300000D02*
X84950000Y-41200000D01*
X58000000Y-56300000D02*
X43250000Y-56300000D01*
X83120000Y-33470000D02*
X84950000Y-35300000D01*
X84950000Y-41200000D02*
X84900000Y-41200000D01*
X95240000Y-41200000D02*
X99740000Y-45700000D01*
D26*
%TO.N,GND*%
X110500000Y-24800000D02*
X112650000Y-26950000D01*
X87110000Y-42040000D02*
X92850000Y-42040000D01*
X100890000Y-22860000D02*
X108110000Y-22860000D01*
X94730000Y-29261500D02*
X94730000Y-24420000D01*
X64850000Y-37850000D02*
X67750000Y-40750000D01*
X82250000Y-49450000D02*
X82250000Y-46900000D01*
D28*
X44150000Y-46900000D02*
X44150000Y-46500000D01*
D26*
X115800000Y-39950000D02*
X117300000Y-41450000D01*
X56300000Y-37850000D02*
X64850000Y-37850000D01*
X87110000Y-31801500D02*
X84570000Y-29261500D01*
X110050000Y-24800000D02*
X110050000Y-30750000D01*
D28*
X46660000Y-43990000D02*
X54310000Y-43990000D01*
D26*
X110050000Y-24800000D02*
X110500000Y-24800000D01*
X52320739Y-83260739D02*
X54460000Y-85400000D01*
X96290000Y-22860000D02*
X100890000Y-22860000D01*
X46439261Y-83260739D02*
X52320739Y-83260739D01*
X117300000Y-41450000D02*
X118350000Y-41450000D01*
X89650000Y-29261500D02*
X94730000Y-29261500D01*
X56960000Y-51900000D02*
X79800000Y-51900000D01*
X53550000Y-27050000D02*
X56850000Y-23750000D01*
X56300000Y-37850000D02*
X54349999Y-35899999D01*
X92850000Y-42040000D02*
X96510000Y-45700000D01*
X79800000Y-51900000D02*
X82250000Y-49450000D01*
D28*
X44150000Y-46500000D02*
X46660000Y-43990000D01*
D26*
X54310000Y-39840000D02*
X56300000Y-37850000D01*
X52320739Y-52260739D02*
X54460000Y-54400000D01*
X53550000Y-27050000D02*
X50200000Y-27050000D01*
X54460000Y-54400000D02*
X56960000Y-51900000D01*
X87110000Y-34341500D02*
X87110000Y-31801500D01*
X108110000Y-22860000D02*
X110050000Y-24800000D01*
X46439261Y-52260739D02*
X52320739Y-52260739D01*
X60500000Y-23750000D02*
X56850000Y-23750000D01*
X44300000Y-54400000D02*
X46439261Y-52260739D01*
X50200000Y-27050000D02*
X46524600Y-23374600D01*
X87110000Y-42040000D02*
X87110000Y-34341500D01*
X54349999Y-35899999D02*
X54349999Y-27849999D01*
X44300000Y-85400000D02*
X46439261Y-83260739D01*
X54349999Y-27849999D02*
X53550000Y-27050000D01*
X82250000Y-46900000D02*
X87110000Y-42040000D01*
X79058500Y-23750000D02*
X84570000Y-29261500D01*
X94730000Y-24420000D02*
X96290000Y-22860000D01*
X70750000Y-23750000D02*
X60500000Y-23750000D01*
D28*
X53750000Y-27250000D02*
X53550000Y-27050000D01*
D26*
X54310000Y-46900000D02*
X54310000Y-43990000D01*
X79058500Y-23750000D02*
X70750000Y-23750000D01*
X110050000Y-30750000D02*
X115800000Y-36500000D01*
X87110000Y-31801500D02*
X89650000Y-29261500D01*
X118350000Y-41450000D02*
X120800000Y-39000000D01*
X115800000Y-36500000D02*
X115800000Y-39950000D01*
X54310000Y-43990000D02*
X54310000Y-39840000D01*
D27*
%TO.N,RX_Sig*%
X72800000Y-36000000D02*
X75250000Y-33550000D01*
X71650000Y-43000000D02*
X71650000Y-36000000D01*
X75250000Y-29750000D02*
X76600000Y-28400000D01*
X71650000Y-36000000D02*
X72800000Y-36000000D01*
X67050000Y-44700000D02*
X71650000Y-43000000D01*
X67010000Y-46900000D02*
X67050000Y-44700000D01*
X75250000Y-33550000D02*
X75250000Y-29750000D01*
%TO.N,SET*%
X97700000Y-26750000D02*
X99700000Y-26750000D01*
X99700000Y-26750000D02*
X100890000Y-27940000D01*
%TO.N,RESET*%
X67700000Y-32475686D02*
X69275686Y-32475686D01*
X69550000Y-32201372D02*
X69550000Y-26750000D01*
X69275686Y-32475686D02*
X69550000Y-32201372D01*
%TO.N,Net-(Q3-Pad2)*%
X98850000Y-40600000D02*
X100300000Y-42050000D01*
X100300000Y-42050000D02*
X102870000Y-42050000D01*
X98850000Y-34950000D02*
X98850000Y-40600000D01*
%TO.N,Net-(C3-Pad2)*%
X48680000Y-35310000D02*
X51200000Y-37830000D01*
X51200000Y-37830000D02*
X51200000Y-41250000D01*
%TO.N,Net-(C2-Pad2)*%
X102640000Y-36700000D02*
X102450000Y-36510000D01*
X106900000Y-36700000D02*
X102640000Y-36700000D01*
%TO.N,Net-(R8-Pad2)*%
X110050000Y-35830000D02*
X111380000Y-35830000D01*
X111380000Y-35830000D02*
X112900000Y-37350000D01*
%TO.N,Net-(D3-Pad1)*%
X57900000Y-44450000D02*
X57500000Y-44450000D01*
X65600000Y-44450000D02*
X57900000Y-44450000D01*
X57500000Y-44450000D02*
X57450000Y-44400000D01*
X52650000Y-36100000D02*
X52650000Y-32050000D01*
%TO.N,{slash}TX_RX*%
X97850000Y-39600000D02*
X98000000Y-39450000D01*
X97050000Y-40400000D02*
X97850000Y-39600000D01*
X98000000Y-39450000D02*
X98000000Y-37600000D01*
%TO.N,{slash}key*%
X58350000Y-50300000D02*
X42400000Y-50300000D01*
%TD*%
%TA.AperFunction,Conductor*%
%TO.N,GND*%
G36*
X38165742Y-21828502D02*
G01*
X38186716Y-21845405D01*
X39369290Y-23027980D01*
X39383231Y-23035592D01*
X39385066Y-23035461D01*
X39391680Y-23031210D01*
X40577484Y-21845405D01*
X40639796Y-21811380D01*
X40666579Y-21808500D01*
X61266000Y-21808500D01*
X61334121Y-21828502D01*
X61380614Y-21882158D01*
X61392000Y-21934500D01*
X61392000Y-23627885D01*
X61396475Y-23643124D01*
X61397865Y-23644329D01*
X61405548Y-23646000D01*
X63739884Y-23646000D01*
X63755123Y-23641525D01*
X63756328Y-23640135D01*
X63757999Y-23632452D01*
X63757999Y-21934500D01*
X63778001Y-21866379D01*
X63831657Y-21819886D01*
X63883999Y-21808500D01*
X66916000Y-21808500D01*
X66984121Y-21828502D01*
X67030614Y-21882158D01*
X67042000Y-21934500D01*
X67042000Y-23627885D01*
X67046475Y-23643124D01*
X67047865Y-23644329D01*
X67055548Y-23646000D01*
X69389884Y-23646000D01*
X69405123Y-23641525D01*
X69406328Y-23640135D01*
X69407999Y-23632452D01*
X69407999Y-21934500D01*
X69428001Y-21866379D01*
X69481657Y-21819886D01*
X69533999Y-21808500D01*
X99528662Y-21808500D01*
X99596783Y-21828502D01*
X99643276Y-21882158D01*
X99653380Y-21952432D01*
X99646644Y-21978729D01*
X99641522Y-21992391D01*
X99637895Y-22007649D01*
X99632369Y-22058514D01*
X99632000Y-22065328D01*
X99632000Y-22587885D01*
X99636475Y-22603124D01*
X99637865Y-22604329D01*
X99645548Y-22606000D01*
X102129884Y-22606000D01*
X102145123Y-22601525D01*
X102146328Y-22600135D01*
X102147999Y-22592452D01*
X102147999Y-22065331D01*
X102147629Y-22058510D01*
X102142105Y-22007648D01*
X102138478Y-21992393D01*
X102133356Y-21978729D01*
X102128173Y-21907921D01*
X102162095Y-21845553D01*
X102224350Y-21811424D01*
X102251338Y-21808500D01*
X122165500Y-21808500D01*
X122233621Y-21828502D01*
X122280114Y-21882158D01*
X122291500Y-21934500D01*
X122291500Y-30118532D01*
X122271498Y-30186653D01*
X122217842Y-30233146D01*
X122147568Y-30243250D01*
X122082988Y-30213756D01*
X122062287Y-30190803D01*
X122009357Y-30115211D01*
X122009355Y-30115208D01*
X122006198Y-30110700D01*
X121844300Y-29948802D01*
X121839792Y-29945645D01*
X121839789Y-29945643D01*
X121699839Y-29847649D01*
X121656749Y-29817477D01*
X121651767Y-29815154D01*
X121651762Y-29815151D01*
X121454225Y-29723039D01*
X121454224Y-29723039D01*
X121449243Y-29720716D01*
X121443935Y-29719294D01*
X121443933Y-29719293D01*
X121233402Y-29662881D01*
X121233400Y-29662881D01*
X121228087Y-29661457D01*
X121000000Y-29641502D01*
X120771913Y-29661457D01*
X120766600Y-29662881D01*
X120766598Y-29662881D01*
X120556067Y-29719293D01*
X120556065Y-29719294D01*
X120550757Y-29720716D01*
X120545776Y-29723039D01*
X120545775Y-29723039D01*
X120348238Y-29815151D01*
X120348233Y-29815154D01*
X120343251Y-29817477D01*
X120300161Y-29847649D01*
X120160211Y-29945643D01*
X120160208Y-29945645D01*
X120155700Y-29948802D01*
X119993802Y-30110700D01*
X119862477Y-30298251D01*
X119860154Y-30303233D01*
X119860151Y-30303238D01*
X119772370Y-30491488D01*
X119765716Y-30505757D01*
X119764294Y-30511065D01*
X119764293Y-30511067D01*
X119732044Y-30631420D01*
X119706457Y-30726913D01*
X119686502Y-30955000D01*
X119706457Y-31183087D01*
X119707881Y-31188400D01*
X119707881Y-31188402D01*
X119760776Y-31385805D01*
X119765716Y-31404243D01*
X119768039Y-31409224D01*
X119768039Y-31409225D01*
X119860151Y-31606762D01*
X119860154Y-31606767D01*
X119862477Y-31611749D01*
X119913578Y-31684729D01*
X119971675Y-31767699D01*
X119993802Y-31799300D01*
X120155700Y-31961198D01*
X120160208Y-31964355D01*
X120160211Y-31964357D01*
X120177556Y-31976502D01*
X120343251Y-32092523D01*
X120348233Y-32094846D01*
X120348238Y-32094849D01*
X120382457Y-32110805D01*
X120435742Y-32157722D01*
X120455203Y-32225999D01*
X120434661Y-32293959D01*
X120382457Y-32339195D01*
X120348238Y-32355151D01*
X120348233Y-32355154D01*
X120343251Y-32357477D01*
X120243564Y-32427279D01*
X120160211Y-32485643D01*
X120160208Y-32485645D01*
X120155700Y-32488802D01*
X119993802Y-32650700D01*
X119990645Y-32655208D01*
X119990643Y-32655211D01*
X119945434Y-32719777D01*
X119862477Y-32838251D01*
X119860154Y-32843233D01*
X119860151Y-32843238D01*
X119785466Y-33003402D01*
X119765716Y-33045757D01*
X119764294Y-33051065D01*
X119764293Y-33051067D01*
X119723128Y-33204697D01*
X119706457Y-33266913D01*
X119686502Y-33495000D01*
X119706457Y-33723087D01*
X119707881Y-33728400D01*
X119707881Y-33728402D01*
X119762547Y-33932415D01*
X119765716Y-33944243D01*
X119768039Y-33949224D01*
X119768039Y-33949225D01*
X119860151Y-34146762D01*
X119860154Y-34146767D01*
X119862477Y-34151749D01*
X119906674Y-34214869D01*
X119971675Y-34307699D01*
X119993802Y-34339300D01*
X120155700Y-34501198D01*
X120160208Y-34504355D01*
X120160211Y-34504357D01*
X120167352Y-34509357D01*
X120343251Y-34632523D01*
X120348233Y-34634846D01*
X120348238Y-34634849D01*
X120501141Y-34706148D01*
X120550757Y-34729284D01*
X120556065Y-34730706D01*
X120556067Y-34730707D01*
X120766598Y-34787119D01*
X120766600Y-34787119D01*
X120771913Y-34788543D01*
X121000000Y-34808498D01*
X121228087Y-34788543D01*
X121233400Y-34787119D01*
X121233402Y-34787119D01*
X121443933Y-34730707D01*
X121443935Y-34730706D01*
X121449243Y-34729284D01*
X121498859Y-34706148D01*
X121651762Y-34634849D01*
X121651767Y-34634846D01*
X121656749Y-34632523D01*
X121832648Y-34509357D01*
X121839789Y-34504357D01*
X121839792Y-34504355D01*
X121844300Y-34501198D01*
X122006198Y-34339300D01*
X122028326Y-34307699D01*
X122062287Y-34259197D01*
X122117744Y-34214869D01*
X122188364Y-34207560D01*
X122251724Y-34239591D01*
X122287709Y-34300792D01*
X122291500Y-34331468D01*
X122291500Y-36053634D01*
X122271498Y-36121755D01*
X122217842Y-36168248D01*
X122147568Y-36178352D01*
X122082988Y-36148858D01*
X122043793Y-36086245D01*
X122035707Y-36056067D01*
X122035706Y-36056065D01*
X122034284Y-36050757D01*
X122010616Y-36000000D01*
X121939849Y-35848238D01*
X121939846Y-35848233D01*
X121937523Y-35843251D01*
X121832969Y-35693933D01*
X121809357Y-35660211D01*
X121809355Y-35660208D01*
X121806198Y-35655700D01*
X121644300Y-35493802D01*
X121639792Y-35490645D01*
X121639789Y-35490643D01*
X121521592Y-35407881D01*
X121456749Y-35362477D01*
X121451767Y-35360154D01*
X121451762Y-35360151D01*
X121254225Y-35268039D01*
X121254224Y-35268039D01*
X121249243Y-35265716D01*
X121243935Y-35264294D01*
X121243933Y-35264293D01*
X121033402Y-35207881D01*
X121033400Y-35207881D01*
X121028087Y-35206457D01*
X120800000Y-35186502D01*
X120571913Y-35206457D01*
X120566600Y-35207881D01*
X120566598Y-35207881D01*
X120356067Y-35264293D01*
X120356065Y-35264294D01*
X120350757Y-35265716D01*
X120345776Y-35268039D01*
X120345775Y-35268039D01*
X120148238Y-35360151D01*
X120148233Y-35360154D01*
X120143251Y-35362477D01*
X120078408Y-35407881D01*
X119960211Y-35490643D01*
X119960208Y-35490645D01*
X119955700Y-35493802D01*
X119793802Y-35655700D01*
X119790645Y-35660208D01*
X119790643Y-35660211D01*
X119767031Y-35693933D01*
X119662477Y-35843251D01*
X119660154Y-35848233D01*
X119660151Y-35848238D01*
X119589384Y-36000000D01*
X119565716Y-36050757D01*
X119564294Y-36056065D01*
X119564293Y-36056067D01*
X119528425Y-36189928D01*
X119506457Y-36271913D01*
X119486502Y-36500000D01*
X119506457Y-36728087D01*
X119507881Y-36733400D01*
X119507881Y-36733402D01*
X119562972Y-36939001D01*
X119565716Y-36949243D01*
X119568039Y-36954224D01*
X119568039Y-36954225D01*
X119660151Y-37151762D01*
X119660154Y-37151767D01*
X119662477Y-37156749D01*
X119717079Y-37234729D01*
X119774382Y-37316565D01*
X119793802Y-37344300D01*
X119955700Y-37506198D01*
X119960208Y-37509355D01*
X119960211Y-37509357D01*
X120031246Y-37559096D01*
X120143251Y-37637523D01*
X120148235Y-37639847D01*
X120150528Y-37641171D01*
X120199521Y-37692553D01*
X120212957Y-37762267D01*
X120186571Y-37828178D01*
X120150528Y-37859409D01*
X120138998Y-37866066D01*
X120086952Y-37902509D01*
X120078576Y-37912988D01*
X120085644Y-37926434D01*
X120787188Y-38627978D01*
X120801132Y-38635592D01*
X120802965Y-38635461D01*
X120809580Y-38631210D01*
X121515077Y-37925713D01*
X121521507Y-37913938D01*
X121512211Y-37901923D01*
X121461002Y-37866066D01*
X121449472Y-37859409D01*
X121400479Y-37808027D01*
X121387042Y-37738313D01*
X121413429Y-37672402D01*
X121449472Y-37641171D01*
X121451765Y-37639847D01*
X121456749Y-37637523D01*
X121568754Y-37559096D01*
X121639789Y-37509357D01*
X121639792Y-37509355D01*
X121644300Y-37506198D01*
X121806198Y-37344300D01*
X121825619Y-37316565D01*
X121882921Y-37234729D01*
X121937523Y-37156749D01*
X121939846Y-37151767D01*
X121939849Y-37151762D01*
X122031961Y-36954225D01*
X122031961Y-36954224D01*
X122034284Y-36949243D01*
X122043793Y-36913755D01*
X122080745Y-36853132D01*
X122144605Y-36822111D01*
X122215100Y-36830539D01*
X122269847Y-36875742D01*
X122291500Y-36946366D01*
X122291500Y-38555564D01*
X122271498Y-38623685D01*
X122217842Y-38670178D01*
X122147568Y-38680282D01*
X122082988Y-38650788D01*
X122043793Y-38588175D01*
X122035236Y-38556239D01*
X122031490Y-38545947D01*
X121939414Y-38348489D01*
X121933931Y-38338994D01*
X121897491Y-38286952D01*
X121887012Y-38278576D01*
X121873566Y-38285644D01*
X121172022Y-38987188D01*
X121164408Y-39001132D01*
X121164539Y-39002965D01*
X121168790Y-39009580D01*
X121874287Y-39715077D01*
X121886062Y-39721507D01*
X121898077Y-39712211D01*
X121933931Y-39661006D01*
X121939414Y-39651511D01*
X122031490Y-39454053D01*
X122035236Y-39443761D01*
X122043793Y-39411825D01*
X122080745Y-39351202D01*
X122144605Y-39320181D01*
X122215100Y-39328609D01*
X122269847Y-39373812D01*
X122291500Y-39444436D01*
X122291500Y-43325685D01*
X122271498Y-43393806D01*
X122217842Y-43440299D01*
X122165571Y-43451684D01*
X113678730Y-43456320D01*
X113610599Y-43436355D01*
X113564077Y-43382725D01*
X113553935Y-43312456D01*
X113583393Y-43247860D01*
X113625412Y-43216125D01*
X113681762Y-43189849D01*
X113681767Y-43189846D01*
X113686749Y-43187523D01*
X113821717Y-43093017D01*
X113869789Y-43059357D01*
X113869792Y-43059355D01*
X113874300Y-43056198D01*
X114036198Y-42894300D01*
X114167523Y-42706749D01*
X114169846Y-42701767D01*
X114169849Y-42701762D01*
X114261961Y-42504225D01*
X114261961Y-42504224D01*
X114264284Y-42499243D01*
X114271564Y-42472076D01*
X114322119Y-42283402D01*
X114322119Y-42283400D01*
X114323543Y-42278087D01*
X114343498Y-42050000D01*
X114323543Y-41821913D01*
X114301073Y-41738054D01*
X114265707Y-41606067D01*
X114265706Y-41606065D01*
X114264284Y-41600757D01*
X114253336Y-41577279D01*
X114169849Y-41398238D01*
X114169846Y-41398233D01*
X114167523Y-41393251D01*
X114067217Y-41250000D01*
X114039357Y-41210211D01*
X114039355Y-41210208D01*
X114036198Y-41205700D01*
X113874300Y-41043802D01*
X113869792Y-41040645D01*
X113869789Y-41040643D01*
X113785042Y-40981303D01*
X113686749Y-40912477D01*
X113681767Y-40910154D01*
X113681762Y-40910151D01*
X113484225Y-40818039D01*
X113484224Y-40818039D01*
X113479243Y-40815716D01*
X113473935Y-40814294D01*
X113473933Y-40814293D01*
X113263402Y-40757881D01*
X113263400Y-40757881D01*
X113258087Y-40756457D01*
X113030000Y-40736502D01*
X112801913Y-40756457D01*
X112796600Y-40757881D01*
X112796598Y-40757881D01*
X112586067Y-40814293D01*
X112586065Y-40814294D01*
X112580757Y-40815716D01*
X112575776Y-40818039D01*
X112575775Y-40818039D01*
X112378238Y-40910151D01*
X112378233Y-40910154D01*
X112373251Y-40912477D01*
X112274958Y-40981303D01*
X112190211Y-41040643D01*
X112190208Y-41040645D01*
X112185700Y-41043802D01*
X112023802Y-41205700D01*
X112020645Y-41210208D01*
X112020643Y-41210211D01*
X111992783Y-41250000D01*
X111892477Y-41393251D01*
X111890154Y-41398233D01*
X111890151Y-41398238D01*
X111806664Y-41577279D01*
X111795716Y-41600757D01*
X111794294Y-41606065D01*
X111794293Y-41606067D01*
X111758927Y-41738054D01*
X111736457Y-41821913D01*
X111716502Y-42050000D01*
X111736457Y-42278087D01*
X111737881Y-42283400D01*
X111737881Y-42283402D01*
X111788437Y-42472076D01*
X111795716Y-42499243D01*
X111798039Y-42504224D01*
X111798039Y-42504225D01*
X111890151Y-42701762D01*
X111890154Y-42701767D01*
X111892477Y-42706749D01*
X112023802Y-42894300D01*
X112185700Y-43056198D01*
X112190208Y-43059355D01*
X112190211Y-43059357D01*
X112238283Y-43093017D01*
X112373251Y-43187523D01*
X112378233Y-43189846D01*
X112378238Y-43189849D01*
X112436106Y-43216833D01*
X112489391Y-43263751D01*
X112508852Y-43332028D01*
X112488310Y-43399988D01*
X112434287Y-43446053D01*
X112382928Y-43457027D01*
X103506817Y-43461875D01*
X103438685Y-43441910D01*
X103392163Y-43388280D01*
X103382021Y-43318011D01*
X103411479Y-43253415D01*
X103453499Y-43221680D01*
X103521758Y-43189851D01*
X103521764Y-43189847D01*
X103526749Y-43187523D01*
X103661717Y-43093017D01*
X103709789Y-43059357D01*
X103709792Y-43059355D01*
X103714300Y-43056198D01*
X103876198Y-42894300D01*
X104007523Y-42706749D01*
X104009846Y-42701767D01*
X104009849Y-42701762D01*
X104101961Y-42504225D01*
X104101961Y-42504224D01*
X104104284Y-42499243D01*
X104111564Y-42472076D01*
X104162119Y-42283402D01*
X104162119Y-42283400D01*
X104163543Y-42278087D01*
X104183498Y-42050000D01*
X104163543Y-41821913D01*
X104141073Y-41738054D01*
X104105707Y-41606067D01*
X104105706Y-41606065D01*
X104104284Y-41600757D01*
X104093336Y-41577279D01*
X104009849Y-41398238D01*
X104009846Y-41398233D01*
X104007523Y-41393251D01*
X103907217Y-41250000D01*
X103879357Y-41210211D01*
X103879355Y-41210208D01*
X103876198Y-41205700D01*
X103714300Y-41043802D01*
X103709792Y-41040645D01*
X103709789Y-41040643D01*
X103625042Y-40981303D01*
X103526749Y-40912477D01*
X103521767Y-40910154D01*
X103521762Y-40910151D01*
X103324225Y-40818039D01*
X103324224Y-40818039D01*
X103319243Y-40815716D01*
X103313935Y-40814294D01*
X103313933Y-40814293D01*
X103103402Y-40757881D01*
X103103400Y-40757881D01*
X103098087Y-40756457D01*
X102870000Y-40736502D01*
X102641913Y-40756457D01*
X102636600Y-40757881D01*
X102636598Y-40757881D01*
X102426067Y-40814293D01*
X102426065Y-40814294D01*
X102420757Y-40815716D01*
X102415776Y-40818039D01*
X102415775Y-40818039D01*
X102218238Y-40910151D01*
X102218233Y-40910154D01*
X102213251Y-40912477D01*
X102114958Y-40981303D01*
X102030211Y-41040643D01*
X102030208Y-41040645D01*
X102025700Y-41043802D01*
X101863802Y-41205700D01*
X101860645Y-41210208D01*
X101860643Y-41210211D01*
X101806335Y-41287771D01*
X101750878Y-41332099D01*
X101703122Y-41341500D01*
X100645661Y-41341500D01*
X100577540Y-41321498D01*
X100556571Y-41304600D01*
X99595404Y-40343434D01*
X99561380Y-40281123D01*
X99558500Y-40254340D01*
X99558500Y-36510000D01*
X101136502Y-36510000D01*
X101156457Y-36738087D01*
X101157881Y-36743400D01*
X101157881Y-36743402D01*
X101212266Y-36946366D01*
X101215716Y-36959243D01*
X101218039Y-36964224D01*
X101218039Y-36964225D01*
X101310151Y-37161762D01*
X101310154Y-37161767D01*
X101312477Y-37166749D01*
X101360077Y-37234729D01*
X101439529Y-37348197D01*
X101443802Y-37354300D01*
X101605700Y-37516198D01*
X101610211Y-37519357D01*
X101614424Y-37522892D01*
X101613473Y-37524026D01*
X101653471Y-37574071D01*
X101660776Y-37644690D01*
X101628742Y-37708049D01*
X101567538Y-37744030D01*
X101550483Y-37747082D01*
X101539684Y-37748255D01*
X101403295Y-37799385D01*
X101286739Y-37886739D01*
X101199385Y-38003295D01*
X101148255Y-38139684D01*
X101141500Y-38201866D01*
X101141500Y-39898134D01*
X101148255Y-39960316D01*
X101199385Y-40096705D01*
X101286739Y-40213261D01*
X101403295Y-40300615D01*
X101539684Y-40351745D01*
X101601866Y-40358500D01*
X103298134Y-40358500D01*
X103360316Y-40351745D01*
X103496705Y-40300615D01*
X103613261Y-40213261D01*
X103700615Y-40096705D01*
X103751745Y-39960316D01*
X103758500Y-39898134D01*
X103758500Y-38201866D01*
X103751745Y-38139684D01*
X103700615Y-38003295D01*
X103613261Y-37886739D01*
X103496705Y-37799385D01*
X103360316Y-37748255D01*
X103349526Y-37747083D01*
X103347394Y-37746197D01*
X103344778Y-37745575D01*
X103344879Y-37745152D01*
X103283965Y-37719845D01*
X103243537Y-37661483D01*
X103241078Y-37590529D01*
X103277371Y-37529510D01*
X103286031Y-37522511D01*
X103289793Y-37519354D01*
X103294300Y-37516198D01*
X103365093Y-37445405D01*
X103427405Y-37411379D01*
X103454188Y-37408500D01*
X105733122Y-37408500D01*
X105801243Y-37428502D01*
X105836335Y-37462229D01*
X105886145Y-37533365D01*
X105893802Y-37544300D01*
X106055700Y-37706198D01*
X106060208Y-37709355D01*
X106060211Y-37709357D01*
X106111332Y-37745152D01*
X106243251Y-37837523D01*
X106248233Y-37839846D01*
X106248238Y-37839849D01*
X106282457Y-37855805D01*
X106335742Y-37902722D01*
X106355203Y-37970999D01*
X106334661Y-38038959D01*
X106282457Y-38084195D01*
X106248238Y-38100151D01*
X106248233Y-38100154D01*
X106243251Y-38102477D01*
X106178895Y-38147540D01*
X106060211Y-38230643D01*
X106060208Y-38230645D01*
X106055700Y-38233802D01*
X105893802Y-38395700D01*
X105762477Y-38583251D01*
X105760154Y-38588233D01*
X105760151Y-38588238D01*
X105683625Y-38752351D01*
X105665716Y-38790757D01*
X105664294Y-38796065D01*
X105664293Y-38796067D01*
X105608182Y-39005475D01*
X105606457Y-39011913D01*
X105586502Y-39240000D01*
X105606457Y-39468087D01*
X105607881Y-39473400D01*
X105607881Y-39473402D01*
X105664177Y-39683498D01*
X105665716Y-39689243D01*
X105668039Y-39694224D01*
X105668039Y-39694225D01*
X105760151Y-39891762D01*
X105760154Y-39891767D01*
X105762477Y-39896749D01*
X105803495Y-39955328D01*
X105886791Y-40074287D01*
X105893802Y-40084300D01*
X106055700Y-40246198D01*
X106060208Y-40249355D01*
X106060211Y-40249357D01*
X106071898Y-40257540D01*
X106243251Y-40377523D01*
X106248233Y-40379846D01*
X106248238Y-40379849D01*
X106445775Y-40471961D01*
X106450757Y-40474284D01*
X106456065Y-40475706D01*
X106456067Y-40475707D01*
X106666598Y-40532119D01*
X106666600Y-40532119D01*
X106671913Y-40533543D01*
X106900000Y-40553498D01*
X107128087Y-40533543D01*
X107133400Y-40532119D01*
X107133402Y-40532119D01*
X107343933Y-40475707D01*
X107343935Y-40475706D01*
X107349243Y-40474284D01*
X107354225Y-40471961D01*
X107551762Y-40379849D01*
X107551767Y-40379846D01*
X107556749Y-40377523D01*
X107728102Y-40257540D01*
X107739789Y-40249357D01*
X107739792Y-40249355D01*
X107744300Y-40246198D01*
X107904436Y-40086062D01*
X120078493Y-40086062D01*
X120087789Y-40098077D01*
X120138994Y-40133931D01*
X120148489Y-40139414D01*
X120345947Y-40231490D01*
X120356239Y-40235236D01*
X120566688Y-40291625D01*
X120577481Y-40293528D01*
X120794525Y-40312517D01*
X120805475Y-40312517D01*
X121022519Y-40293528D01*
X121033312Y-40291625D01*
X121243761Y-40235236D01*
X121254053Y-40231490D01*
X121451511Y-40139414D01*
X121461006Y-40133931D01*
X121513048Y-40097491D01*
X121521424Y-40087012D01*
X121514356Y-40073566D01*
X120812812Y-39372022D01*
X120798868Y-39364408D01*
X120797035Y-39364539D01*
X120790420Y-39368790D01*
X120084923Y-40074287D01*
X120078493Y-40086062D01*
X107904436Y-40086062D01*
X107906198Y-40084300D01*
X107913210Y-40074287D01*
X107996505Y-39955328D01*
X108037523Y-39896749D01*
X108039846Y-39891767D01*
X108039849Y-39891762D01*
X108131961Y-39694225D01*
X108131961Y-39694224D01*
X108134284Y-39689243D01*
X108135824Y-39683498D01*
X108192119Y-39473402D01*
X108192119Y-39473400D01*
X108193543Y-39468087D01*
X108213498Y-39240000D01*
X108193543Y-39011913D01*
X108191818Y-39005475D01*
X108135707Y-38796067D01*
X108135706Y-38796065D01*
X108134284Y-38790757D01*
X108116375Y-38752351D01*
X108039849Y-38588238D01*
X108039846Y-38588233D01*
X108037523Y-38583251D01*
X107906198Y-38395700D01*
X107744300Y-38233802D01*
X107739792Y-38230645D01*
X107739789Y-38230643D01*
X107621105Y-38147540D01*
X107556749Y-38102477D01*
X107551767Y-38100154D01*
X107551762Y-38100151D01*
X107517543Y-38084195D01*
X107464258Y-38037278D01*
X107444797Y-37969001D01*
X107465339Y-37901041D01*
X107517543Y-37855805D01*
X107551762Y-37839849D01*
X107551767Y-37839846D01*
X107556749Y-37837523D01*
X107688668Y-37745152D01*
X107739789Y-37709357D01*
X107739792Y-37709355D01*
X107744300Y-37706198D01*
X107906198Y-37544300D01*
X107913857Y-37533363D01*
X107995590Y-37416635D01*
X108037523Y-37356749D01*
X108039846Y-37351767D01*
X108039849Y-37351762D01*
X108131961Y-37154225D01*
X108131961Y-37154224D01*
X108134284Y-37149243D01*
X108147747Y-37099001D01*
X108192119Y-36933402D01*
X108192119Y-36933400D01*
X108193543Y-36928087D01*
X108213498Y-36700000D01*
X108193543Y-36471913D01*
X108192119Y-36466598D01*
X108135707Y-36256067D01*
X108135706Y-36256065D01*
X108134284Y-36250757D01*
X108067047Y-36106565D01*
X108039849Y-36048238D01*
X108039846Y-36048233D01*
X108037523Y-36043251D01*
X107906198Y-35855700D01*
X107744300Y-35693802D01*
X107739792Y-35690645D01*
X107739789Y-35690643D01*
X107637296Y-35618877D01*
X107556749Y-35562477D01*
X107551767Y-35560154D01*
X107551762Y-35560151D01*
X107354225Y-35468039D01*
X107354224Y-35468039D01*
X107349243Y-35465716D01*
X107343935Y-35464294D01*
X107343933Y-35464293D01*
X107133402Y-35407881D01*
X107133400Y-35407881D01*
X107128087Y-35406457D01*
X106900000Y-35386502D01*
X106671913Y-35406457D01*
X106666600Y-35407881D01*
X106666598Y-35407881D01*
X106456067Y-35464293D01*
X106456065Y-35464294D01*
X106450757Y-35465716D01*
X106445776Y-35468039D01*
X106445775Y-35468039D01*
X106248238Y-35560151D01*
X106248233Y-35560154D01*
X106243251Y-35562477D01*
X106162704Y-35618877D01*
X106060211Y-35690643D01*
X106060208Y-35690645D01*
X106055700Y-35693802D01*
X105893802Y-35855700D01*
X105890645Y-35860208D01*
X105890643Y-35860211D01*
X105836335Y-35937771D01*
X105780878Y-35982099D01*
X105733122Y-35991500D01*
X103732260Y-35991500D01*
X103664139Y-35971498D01*
X103618065Y-35918749D01*
X103589851Y-35858242D01*
X103589847Y-35858236D01*
X103587523Y-35853251D01*
X103475967Y-35693933D01*
X103459357Y-35670211D01*
X103459355Y-35670208D01*
X103456198Y-35665700D01*
X103294300Y-35503802D01*
X103289792Y-35500645D01*
X103289789Y-35500643D01*
X103141173Y-35396581D01*
X103106749Y-35372477D01*
X103101767Y-35370154D01*
X103101762Y-35370151D01*
X102904225Y-35278039D01*
X102904224Y-35278039D01*
X102899243Y-35275716D01*
X102893935Y-35274294D01*
X102893933Y-35274293D01*
X102683402Y-35217881D01*
X102683400Y-35217881D01*
X102678087Y-35216457D01*
X102450000Y-35196502D01*
X102221913Y-35216457D01*
X102216600Y-35217881D01*
X102216598Y-35217881D01*
X102006067Y-35274293D01*
X102006065Y-35274294D01*
X102000757Y-35275716D01*
X101995776Y-35278039D01*
X101995775Y-35278039D01*
X101798238Y-35370151D01*
X101798233Y-35370154D01*
X101793251Y-35372477D01*
X101758827Y-35396581D01*
X101610211Y-35500643D01*
X101610208Y-35500645D01*
X101605700Y-35503802D01*
X101443802Y-35665700D01*
X101440645Y-35670208D01*
X101440643Y-35670211D01*
X101424033Y-35693933D01*
X101312477Y-35853251D01*
X101310154Y-35858233D01*
X101310151Y-35858238D01*
X101244047Y-36000000D01*
X101215716Y-36060757D01*
X101214294Y-36066065D01*
X101214293Y-36066067D01*
X101158595Y-36273933D01*
X101156457Y-36281913D01*
X101136502Y-36510000D01*
X99558500Y-36510000D01*
X99558500Y-35568744D01*
X99578502Y-35500623D01*
X99582564Y-35494683D01*
X99584621Y-35491852D01*
X99589040Y-35486944D01*
X99594366Y-35477719D01*
X99681223Y-35327279D01*
X99681224Y-35327278D01*
X99684527Y-35321556D01*
X99743542Y-35139928D01*
X99745632Y-35120048D01*
X99762814Y-34956565D01*
X99763504Y-34950000D01*
X99753325Y-34853152D01*
X99744232Y-34766635D01*
X99744232Y-34766633D01*
X99743542Y-34760072D01*
X99684527Y-34578444D01*
X99666035Y-34546414D01*
X99628531Y-34481457D01*
X99589040Y-34413056D01*
X99529541Y-34346975D01*
X99465675Y-34276045D01*
X99465674Y-34276044D01*
X99461253Y-34271134D01*
X99325464Y-34172477D01*
X99312094Y-34162763D01*
X99312093Y-34162762D01*
X99306752Y-34158882D01*
X99300724Y-34156198D01*
X99300722Y-34156197D01*
X99138319Y-34083891D01*
X99138318Y-34083891D01*
X99132288Y-34081206D01*
X99038887Y-34061353D01*
X98951944Y-34042872D01*
X98951939Y-34042872D01*
X98945487Y-34041500D01*
X98754513Y-34041500D01*
X98748061Y-34042872D01*
X98748056Y-34042872D01*
X98661113Y-34061353D01*
X98567712Y-34081206D01*
X98561682Y-34083891D01*
X98561681Y-34083891D01*
X98399278Y-34156197D01*
X98399276Y-34156198D01*
X98393248Y-34158882D01*
X98387907Y-34162762D01*
X98387906Y-34162763D01*
X98374536Y-34172477D01*
X98238747Y-34271134D01*
X98234326Y-34276044D01*
X98234325Y-34276045D01*
X98170460Y-34346975D01*
X98110960Y-34413056D01*
X98071469Y-34481457D01*
X98033966Y-34546414D01*
X98015473Y-34578444D01*
X97956458Y-34760072D01*
X97955768Y-34766633D01*
X97955768Y-34766635D01*
X97946675Y-34853152D01*
X97936496Y-34950000D01*
X97937186Y-34956565D01*
X97954369Y-35120048D01*
X97956458Y-35139928D01*
X98015473Y-35321556D01*
X98018776Y-35327278D01*
X98018777Y-35327279D01*
X98105634Y-35477719D01*
X98110960Y-35486944D01*
X98115379Y-35491852D01*
X98117436Y-35494683D01*
X98141295Y-35561551D01*
X98141500Y-35568744D01*
X98141500Y-36565500D01*
X98121498Y-36633621D01*
X98067842Y-36680114D01*
X98015500Y-36691500D01*
X97904513Y-36691500D01*
X97898061Y-36692872D01*
X97898056Y-36692872D01*
X97823161Y-36708792D01*
X97717712Y-36731206D01*
X97711682Y-36733891D01*
X97711681Y-36733891D01*
X97549278Y-36806197D01*
X97549276Y-36806198D01*
X97543248Y-36808882D01*
X97537907Y-36812762D01*
X97537906Y-36812763D01*
X97513440Y-36830539D01*
X97388747Y-36921134D01*
X97384326Y-36926044D01*
X97384325Y-36926045D01*
X97297135Y-37022880D01*
X97260960Y-37063056D01*
X97165473Y-37228444D01*
X97106458Y-37410072D01*
X97105768Y-37416633D01*
X97105768Y-37416635D01*
X97092824Y-37539789D01*
X97086496Y-37600000D01*
X97087186Y-37606565D01*
X97105755Y-37783235D01*
X97106458Y-37789928D01*
X97165473Y-37971556D01*
X97168776Y-37977278D01*
X97168777Y-37977279D01*
X97241060Y-38102477D01*
X97260960Y-38136944D01*
X97265379Y-38141852D01*
X97267436Y-38144683D01*
X97291295Y-38211551D01*
X97291500Y-38218744D01*
X97291500Y-39104340D01*
X97271498Y-39172461D01*
X97254595Y-39193435D01*
X96983467Y-39464563D01*
X96920569Y-39498715D01*
X96767712Y-39531206D01*
X96761682Y-39533891D01*
X96761681Y-39533891D01*
X96599278Y-39606197D01*
X96599276Y-39606198D01*
X96593248Y-39608882D01*
X96587907Y-39612762D01*
X96587906Y-39612763D01*
X96537843Y-39649136D01*
X96438747Y-39721134D01*
X96434326Y-39726044D01*
X96434325Y-39726045D01*
X96416042Y-39746351D01*
X96310960Y-39863056D01*
X96257687Y-39955328D01*
X96222822Y-40015716D01*
X96215473Y-40028444D01*
X96156458Y-40210072D01*
X96155768Y-40216633D01*
X96155768Y-40216635D01*
X96147584Y-40294502D01*
X96136496Y-40400000D01*
X96137186Y-40406565D01*
X96148537Y-40514566D01*
X96135765Y-40584404D01*
X96087263Y-40636251D01*
X96018430Y-40653645D01*
X95951120Y-40631063D01*
X95929591Y-40612046D01*
X95923878Y-40605700D01*
X95815921Y-40485802D01*
X95670090Y-40379849D01*
X95666762Y-40377431D01*
X95666761Y-40377430D01*
X95661420Y-40373550D01*
X95655392Y-40370866D01*
X95655390Y-40370865D01*
X95492987Y-40298559D01*
X95492986Y-40298559D01*
X95486956Y-40295874D01*
X95393555Y-40276021D01*
X95306612Y-40257540D01*
X95306607Y-40257540D01*
X95300155Y-40256168D01*
X95109181Y-40256168D01*
X95102729Y-40257540D01*
X95102724Y-40257540D01*
X95015781Y-40276021D01*
X94922380Y-40295874D01*
X94916350Y-40298559D01*
X94916349Y-40298559D01*
X94753946Y-40370865D01*
X94753944Y-40370866D01*
X94747916Y-40373550D01*
X94742575Y-40377430D01*
X94742574Y-40377431D01*
X94739246Y-40379849D01*
X94593415Y-40485802D01*
X94588994Y-40490712D01*
X94588993Y-40490713D01*
X94479745Y-40612046D01*
X94465628Y-40627724D01*
X94448063Y-40658148D01*
X94379621Y-40776693D01*
X94370141Y-40793112D01*
X94311126Y-40974740D01*
X94310436Y-40981301D01*
X94310436Y-40981303D01*
X94300182Y-41078866D01*
X94291164Y-41164668D01*
X94291854Y-41171233D01*
X94309750Y-41341500D01*
X94311126Y-41354596D01*
X94370141Y-41536224D01*
X94373444Y-41541946D01*
X94373445Y-41541947D01*
X94378955Y-41551490D01*
X94465628Y-41701612D01*
X94470046Y-41706519D01*
X94470047Y-41706520D01*
X94588993Y-41838623D01*
X94593415Y-41843534D01*
X94747916Y-41955786D01*
X94753944Y-41958470D01*
X94753946Y-41958471D01*
X94865191Y-42008000D01*
X94922380Y-42033462D01*
X95059079Y-42062518D01*
X95075237Y-42065953D01*
X95138135Y-42100105D01*
X96288801Y-43250771D01*
X96322827Y-43313083D01*
X96317762Y-43383898D01*
X96275215Y-43440734D01*
X96208695Y-43465545D01*
X96199783Y-43465866D01*
X72408213Y-43478859D01*
X72340083Y-43458895D01*
X72293561Y-43405265D01*
X72283419Y-43334996D01*
X72290753Y-43307091D01*
X72309842Y-43258130D01*
X72309936Y-43257888D01*
X72323866Y-43222375D01*
X72340916Y-43178908D01*
X72341013Y-43178180D01*
X72341282Y-43177491D01*
X72343764Y-43158642D01*
X72352369Y-43093274D01*
X72352403Y-43093017D01*
X72362641Y-43016466D01*
X72363648Y-43008937D01*
X72359233Y-42968178D01*
X72358500Y-42954611D01*
X72358500Y-36834500D01*
X72378502Y-36766379D01*
X72432158Y-36719886D01*
X72484500Y-36708500D01*
X72771088Y-36708500D01*
X72779658Y-36708792D01*
X72829776Y-36712209D01*
X72829780Y-36712209D01*
X72837352Y-36712725D01*
X72844829Y-36711420D01*
X72844830Y-36711420D01*
X72878893Y-36705475D01*
X72900303Y-36701738D01*
X72906821Y-36700777D01*
X72970242Y-36693102D01*
X72977343Y-36690419D01*
X72979952Y-36689778D01*
X72996262Y-36685315D01*
X72998798Y-36684550D01*
X73006284Y-36683243D01*
X73064800Y-36657556D01*
X73070904Y-36655065D01*
X73087064Y-36648959D01*
X73108370Y-36640908D01*
X73123548Y-36635173D01*
X73123549Y-36635172D01*
X73130656Y-36632487D01*
X73136919Y-36628183D01*
X73139285Y-36626946D01*
X73154097Y-36618701D01*
X73156351Y-36617368D01*
X73163305Y-36614315D01*
X73214002Y-36575413D01*
X73219332Y-36571541D01*
X73265720Y-36539661D01*
X73265725Y-36539656D01*
X73271981Y-36535357D01*
X73313436Y-36488829D01*
X73318416Y-36483554D01*
X75730528Y-34071443D01*
X75736793Y-34065589D01*
X75774664Y-34032552D01*
X75774665Y-34032551D01*
X75780385Y-34027561D01*
X75817136Y-33975271D01*
X75821028Y-33970029D01*
X75860476Y-33919718D01*
X75863600Y-33912799D01*
X75864988Y-33910507D01*
X75873357Y-33895835D01*
X75874622Y-33893475D01*
X75878990Y-33887261D01*
X75902203Y-33827723D01*
X75904759Y-33821642D01*
X75925279Y-33776198D01*
X75931045Y-33763427D01*
X75932430Y-33755954D01*
X75933234Y-33753388D01*
X75937855Y-33737165D01*
X75938520Y-33734573D01*
X75941282Y-33727491D01*
X75949622Y-33664139D01*
X75950654Y-33657623D01*
X75959471Y-33610052D01*
X75962295Y-33594814D01*
X75958709Y-33532620D01*
X75958500Y-33525367D01*
X75958500Y-33470000D01*
X82166496Y-33470000D01*
X82167186Y-33476565D01*
X82181918Y-33616728D01*
X82186458Y-33659928D01*
X82245473Y-33841556D01*
X82340960Y-34006944D01*
X82345378Y-34011851D01*
X82345379Y-34011852D01*
X82464325Y-34143955D01*
X82468747Y-34148866D01*
X82501245Y-34172477D01*
X82599415Y-34243802D01*
X82623248Y-34261118D01*
X82629276Y-34263802D01*
X82629278Y-34263803D01*
X82791681Y-34336109D01*
X82797712Y-34338794D01*
X82984513Y-34378500D01*
X82987539Y-34378500D01*
X83051968Y-34405005D01*
X83062240Y-34414210D01*
X84204595Y-35556565D01*
X84238621Y-35618877D01*
X84241500Y-35645660D01*
X84241500Y-40525241D01*
X84221498Y-40593362D01*
X84209136Y-40609551D01*
X84177599Y-40644577D01*
X84160960Y-40663056D01*
X84157659Y-40668774D01*
X84072822Y-40815716D01*
X84065473Y-40828444D01*
X84006458Y-41010072D01*
X84005768Y-41016633D01*
X84005768Y-41016635D01*
X83988985Y-41176316D01*
X83986496Y-41200000D01*
X83987186Y-41206565D01*
X84005506Y-41380866D01*
X84006458Y-41389928D01*
X84065473Y-41571556D01*
X84068776Y-41577278D01*
X84068777Y-41577279D01*
X84083253Y-41602352D01*
X84160960Y-41736944D01*
X84165378Y-41741851D01*
X84165379Y-41741852D01*
X84252512Y-41838623D01*
X84288747Y-41878866D01*
X84443248Y-41991118D01*
X84449276Y-41993802D01*
X84449278Y-41993803D01*
X84611331Y-42065953D01*
X84617712Y-42068794D01*
X84711112Y-42088647D01*
X84798056Y-42107128D01*
X84798061Y-42107128D01*
X84804513Y-42108500D01*
X84995487Y-42108500D01*
X85001939Y-42107128D01*
X85001944Y-42107128D01*
X85088888Y-42088647D01*
X85182288Y-42068794D01*
X85188669Y-42065953D01*
X85350722Y-41993803D01*
X85350724Y-41993802D01*
X85356752Y-41991118D01*
X85511253Y-41878866D01*
X85547488Y-41838623D01*
X85634621Y-41741852D01*
X85634622Y-41741851D01*
X85639040Y-41736944D01*
X85716747Y-41602352D01*
X85731223Y-41577279D01*
X85731224Y-41577278D01*
X85734527Y-41571556D01*
X85793542Y-41389928D01*
X85794495Y-41380866D01*
X85812814Y-41206565D01*
X85813504Y-41200000D01*
X85811015Y-41176316D01*
X85794232Y-41016635D01*
X85794232Y-41016633D01*
X85793542Y-41010072D01*
X85734527Y-40828444D01*
X85727179Y-40815716D01*
X85692965Y-40756457D01*
X85675381Y-40726000D01*
X85658500Y-40663001D01*
X85658500Y-35355043D01*
X86461011Y-35355043D01*
X86470306Y-35367058D01*
X86499689Y-35387631D01*
X86509179Y-35393110D01*
X86690623Y-35477719D01*
X86700915Y-35481465D01*
X86894291Y-35533280D01*
X86905086Y-35535183D01*
X87104525Y-35552632D01*
X87115475Y-35552632D01*
X87314914Y-35535183D01*
X87325709Y-35533280D01*
X87519085Y-35481465D01*
X87529377Y-35477719D01*
X87710821Y-35393110D01*
X87720311Y-35387631D01*
X87750532Y-35366471D01*
X87758906Y-35355995D01*
X87751838Y-35342548D01*
X87122812Y-34713522D01*
X87108868Y-34705908D01*
X87107035Y-34706039D01*
X87100420Y-34710290D01*
X86467441Y-35343269D01*
X86461011Y-35355043D01*
X85658500Y-35355043D01*
X85658500Y-35328927D01*
X85658792Y-35320358D01*
X85662210Y-35270225D01*
X85662210Y-35270221D01*
X85662726Y-35262648D01*
X85651736Y-35199681D01*
X85650775Y-35193165D01*
X85648915Y-35177798D01*
X85643102Y-35129758D01*
X85640419Y-35122657D01*
X85639778Y-35120048D01*
X85635309Y-35103715D01*
X85634548Y-35101195D01*
X85633243Y-35093717D01*
X85629512Y-35085217D01*
X85607559Y-35035204D01*
X85605068Y-35029099D01*
X85585175Y-34976456D01*
X85585173Y-34976452D01*
X85582487Y-34969344D01*
X85578184Y-34963083D01*
X85576947Y-34960717D01*
X85568720Y-34945937D01*
X85567369Y-34943652D01*
X85564315Y-34936695D01*
X85559695Y-34930675D01*
X85559692Y-34930669D01*
X85525421Y-34886009D01*
X85521541Y-34880668D01*
X85489661Y-34834280D01*
X85489656Y-34834275D01*
X85485357Y-34828019D01*
X85477079Y-34820643D01*
X85438830Y-34786565D01*
X85433554Y-34781584D01*
X84998945Y-34346975D01*
X85898868Y-34346975D01*
X85916317Y-34546414D01*
X85918220Y-34557209D01*
X85970035Y-34750585D01*
X85973781Y-34760877D01*
X86058388Y-34942318D01*
X86063871Y-34951813D01*
X86085029Y-34982030D01*
X86095506Y-34990405D01*
X86108953Y-34983337D01*
X86737978Y-34354312D01*
X86744356Y-34342632D01*
X87474408Y-34342632D01*
X87474539Y-34344465D01*
X87478790Y-34351080D01*
X88111768Y-34984058D01*
X88123543Y-34990488D01*
X88135558Y-34981192D01*
X88156129Y-34951813D01*
X88161612Y-34942318D01*
X88202305Y-34855051D01*
X88249223Y-34801766D01*
X88317500Y-34782305D01*
X88385460Y-34802847D01*
X88431525Y-34856870D01*
X88442500Y-34908301D01*
X88442500Y-35088634D01*
X88449255Y-35150816D01*
X88500385Y-35287205D01*
X88587739Y-35403761D01*
X88704295Y-35491115D01*
X88840684Y-35542245D01*
X88902866Y-35549000D01*
X90397134Y-35549000D01*
X90459316Y-35542245D01*
X90595705Y-35491115D01*
X90712261Y-35403761D01*
X90799615Y-35287205D01*
X90850745Y-35150816D01*
X90857500Y-35088634D01*
X90857500Y-33594366D01*
X90850745Y-33532184D01*
X90838680Y-33500000D01*
X100936502Y-33500000D01*
X100956457Y-33728087D01*
X100957881Y-33733400D01*
X100957881Y-33733402D01*
X101011616Y-33933940D01*
X101015716Y-33949243D01*
X101018039Y-33954224D01*
X101018039Y-33954225D01*
X101110151Y-34151762D01*
X101110154Y-34151767D01*
X101112477Y-34156749D01*
X101153173Y-34214869D01*
X101239947Y-34338794D01*
X101243802Y-34344300D01*
X101405700Y-34506198D01*
X101410208Y-34509355D01*
X101410211Y-34509357D01*
X101431529Y-34524284D01*
X101593251Y-34637523D01*
X101598233Y-34639846D01*
X101598238Y-34639849D01*
X101790034Y-34729284D01*
X101800757Y-34734284D01*
X101806065Y-34735706D01*
X101806067Y-34735707D01*
X102016598Y-34792119D01*
X102016600Y-34792119D01*
X102021913Y-34793543D01*
X102250000Y-34813498D01*
X102478087Y-34793543D01*
X102483400Y-34792119D01*
X102483402Y-34792119D01*
X102693933Y-34735707D01*
X102693935Y-34735706D01*
X102699243Y-34734284D01*
X102709966Y-34729284D01*
X102901762Y-34639849D01*
X102901767Y-34639846D01*
X102906749Y-34637523D01*
X103068471Y-34524284D01*
X103089789Y-34509357D01*
X103089792Y-34509355D01*
X103094300Y-34506198D01*
X103256198Y-34344300D01*
X103260054Y-34338794D01*
X103346827Y-34214869D01*
X103387523Y-34156749D01*
X103389846Y-34151767D01*
X103389849Y-34151762D01*
X103481961Y-33954225D01*
X103481961Y-33954224D01*
X103484284Y-33949243D01*
X103488385Y-33933940D01*
X103542119Y-33733402D01*
X103542119Y-33733400D01*
X103543543Y-33728087D01*
X103563498Y-33500000D01*
X105936502Y-33500000D01*
X105956457Y-33728087D01*
X105957881Y-33733400D01*
X105957881Y-33733402D01*
X106011616Y-33933940D01*
X106015716Y-33949243D01*
X106018039Y-33954224D01*
X106018039Y-33954225D01*
X106110151Y-34151762D01*
X106110154Y-34151767D01*
X106112477Y-34156749D01*
X106153173Y-34214869D01*
X106239947Y-34338794D01*
X106243802Y-34344300D01*
X106405700Y-34506198D01*
X106410208Y-34509355D01*
X106410211Y-34509357D01*
X106431529Y-34524284D01*
X106593251Y-34637523D01*
X106598233Y-34639846D01*
X106598238Y-34639849D01*
X106790034Y-34729284D01*
X106800757Y-34734284D01*
X106806065Y-34735706D01*
X106806067Y-34735707D01*
X107016598Y-34792119D01*
X107016600Y-34792119D01*
X107021913Y-34793543D01*
X107250000Y-34813498D01*
X107478087Y-34793543D01*
X107483400Y-34792119D01*
X107483402Y-34792119D01*
X107693933Y-34735707D01*
X107693935Y-34735706D01*
X107699243Y-34734284D01*
X107709966Y-34729284D01*
X107901762Y-34639849D01*
X107901767Y-34639846D01*
X107906749Y-34637523D01*
X108068471Y-34524284D01*
X108089789Y-34509357D01*
X108089792Y-34509355D01*
X108094300Y-34506198D01*
X108256198Y-34344300D01*
X108260054Y-34338794D01*
X108346827Y-34214869D01*
X108387523Y-34156749D01*
X108389846Y-34151767D01*
X108389849Y-34151762D01*
X108481961Y-33954225D01*
X108481961Y-33954224D01*
X108484284Y-33949243D01*
X108488385Y-33933940D01*
X108542119Y-33733402D01*
X108542119Y-33733400D01*
X108543543Y-33728087D01*
X108544023Y-33722603D01*
X108544024Y-33722596D01*
X108547522Y-33682621D01*
X108573385Y-33616503D01*
X108630889Y-33574864D01*
X108701776Y-33570924D01*
X108763540Y-33605934D01*
X108794749Y-33660992D01*
X108798332Y-33674366D01*
X108808254Y-33711393D01*
X108815716Y-33739243D01*
X108818039Y-33744224D01*
X108818039Y-33744225D01*
X108910151Y-33941762D01*
X108910154Y-33941767D01*
X108912477Y-33946749D01*
X108962395Y-34018039D01*
X109026893Y-34110151D01*
X109043802Y-34134300D01*
X109205700Y-34296198D01*
X109210208Y-34299355D01*
X109210211Y-34299357D01*
X109274632Y-34344465D01*
X109393251Y-34427523D01*
X109398233Y-34429846D01*
X109398238Y-34429849D01*
X109432457Y-34445805D01*
X109485742Y-34492722D01*
X109505203Y-34560999D01*
X109484661Y-34628959D01*
X109432457Y-34674195D01*
X109398238Y-34690151D01*
X109398233Y-34690154D01*
X109393251Y-34692477D01*
X109296716Y-34760072D01*
X109210211Y-34820643D01*
X109210208Y-34820645D01*
X109205700Y-34823802D01*
X109043802Y-34985700D01*
X109040645Y-34990208D01*
X109040643Y-34990211D01*
X109010095Y-35033838D01*
X108912477Y-35173251D01*
X108910154Y-35178233D01*
X108910151Y-35178238D01*
X108819577Y-35372477D01*
X108815716Y-35380757D01*
X108814294Y-35386065D01*
X108814293Y-35386067D01*
X108772135Y-35543402D01*
X108756457Y-35601913D01*
X108736502Y-35830000D01*
X108756457Y-36058087D01*
X108757881Y-36063400D01*
X108757881Y-36063402D01*
X108810388Y-36259357D01*
X108815716Y-36279243D01*
X108818039Y-36284224D01*
X108818039Y-36284225D01*
X108910151Y-36481762D01*
X108910154Y-36481767D01*
X108912477Y-36486749D01*
X108967619Y-36565500D01*
X109031151Y-36656232D01*
X109043802Y-36674300D01*
X109205700Y-36836198D01*
X109210208Y-36839355D01*
X109210211Y-36839357D01*
X109278591Y-36887237D01*
X109393251Y-36967523D01*
X109398233Y-36969846D01*
X109398238Y-36969849D01*
X109432457Y-36985805D01*
X109485742Y-37032722D01*
X109505203Y-37100999D01*
X109484661Y-37168959D01*
X109432457Y-37214195D01*
X109398238Y-37230151D01*
X109398233Y-37230154D01*
X109393251Y-37232477D01*
X109373727Y-37246148D01*
X109210211Y-37360643D01*
X109210208Y-37360645D01*
X109205700Y-37363802D01*
X109043802Y-37525700D01*
X109040645Y-37530208D01*
X109040643Y-37530211D01*
X109006938Y-37578347D01*
X108912477Y-37713251D01*
X108910154Y-37718233D01*
X108910151Y-37718238D01*
X108828231Y-37893919D01*
X108815716Y-37920757D01*
X108814294Y-37926065D01*
X108814293Y-37926067D01*
X108759321Y-38131225D01*
X108756457Y-38141913D01*
X108736502Y-38370000D01*
X108756457Y-38598087D01*
X108757881Y-38603400D01*
X108757881Y-38603402D01*
X108783282Y-38698197D01*
X108815716Y-38819243D01*
X108818039Y-38824224D01*
X108818039Y-38824225D01*
X108910151Y-39021762D01*
X108910154Y-39021767D01*
X108912477Y-39026749D01*
X108915634Y-39031257D01*
X109020421Y-39180908D01*
X109043802Y-39214300D01*
X109205700Y-39376198D01*
X109210208Y-39379355D01*
X109210211Y-39379357D01*
X109256580Y-39411825D01*
X109393251Y-39507523D01*
X109398233Y-39509846D01*
X109398238Y-39509849D01*
X109477215Y-39546676D01*
X109600757Y-39604284D01*
X109606065Y-39605706D01*
X109606067Y-39605707D01*
X109816598Y-39662119D01*
X109816600Y-39662119D01*
X109821913Y-39663543D01*
X110050000Y-39683498D01*
X110278087Y-39663543D01*
X110283400Y-39662119D01*
X110283402Y-39662119D01*
X110493933Y-39605707D01*
X110493935Y-39605706D01*
X110499243Y-39604284D01*
X110622785Y-39546676D01*
X110701762Y-39509849D01*
X110701767Y-39509846D01*
X110706749Y-39507523D01*
X110843420Y-39411825D01*
X110889789Y-39379357D01*
X110889792Y-39379355D01*
X110894300Y-39376198D01*
X111056198Y-39214300D01*
X111079580Y-39180908D01*
X111184366Y-39031257D01*
X111187523Y-39026749D01*
X111189846Y-39021767D01*
X111189849Y-39021762D01*
X111281961Y-38824225D01*
X111281961Y-38824224D01*
X111284284Y-38819243D01*
X111316719Y-38698197D01*
X111342119Y-38603402D01*
X111342119Y-38603400D01*
X111343543Y-38598087D01*
X111363498Y-38370000D01*
X116356502Y-38370000D01*
X116376457Y-38598087D01*
X116377881Y-38603400D01*
X116377881Y-38603402D01*
X116403282Y-38698197D01*
X116435716Y-38819243D01*
X116438039Y-38824224D01*
X116438039Y-38824225D01*
X116530151Y-39021762D01*
X116530154Y-39021767D01*
X116532477Y-39026749D01*
X116535634Y-39031257D01*
X116640421Y-39180908D01*
X116663802Y-39214300D01*
X116825700Y-39376198D01*
X116830208Y-39379355D01*
X116830211Y-39379357D01*
X116876580Y-39411825D01*
X117013251Y-39507523D01*
X117018233Y-39509846D01*
X117018238Y-39509849D01*
X117097215Y-39546676D01*
X117220757Y-39604284D01*
X117226065Y-39605706D01*
X117226067Y-39605707D01*
X117436598Y-39662119D01*
X117436600Y-39662119D01*
X117441913Y-39663543D01*
X117670000Y-39683498D01*
X117898087Y-39663543D01*
X117903400Y-39662119D01*
X117903402Y-39662119D01*
X118113933Y-39605707D01*
X118113935Y-39605706D01*
X118119243Y-39604284D01*
X118242785Y-39546676D01*
X118321762Y-39509849D01*
X118321767Y-39509846D01*
X118326749Y-39507523D01*
X118463420Y-39411825D01*
X118509789Y-39379357D01*
X118509792Y-39379355D01*
X118514300Y-39376198D01*
X118676198Y-39214300D01*
X118699580Y-39180908D01*
X118804366Y-39031257D01*
X118807523Y-39026749D01*
X118809846Y-39021767D01*
X118809849Y-39021762D01*
X118817444Y-39005475D01*
X119487483Y-39005475D01*
X119506472Y-39222519D01*
X119508375Y-39233312D01*
X119564764Y-39443761D01*
X119568510Y-39454053D01*
X119660586Y-39651511D01*
X119666069Y-39661006D01*
X119702509Y-39713048D01*
X119712988Y-39721424D01*
X119726434Y-39714356D01*
X120427978Y-39012812D01*
X120435592Y-38998868D01*
X120435461Y-38997035D01*
X120431210Y-38990420D01*
X119725713Y-38284923D01*
X119713938Y-38278493D01*
X119701923Y-38287789D01*
X119666069Y-38338994D01*
X119660586Y-38348489D01*
X119568510Y-38545947D01*
X119564764Y-38556239D01*
X119508375Y-38766688D01*
X119506472Y-38777481D01*
X119487483Y-38994525D01*
X119487483Y-39005475D01*
X118817444Y-39005475D01*
X118901961Y-38824225D01*
X118901961Y-38824224D01*
X118904284Y-38819243D01*
X118936719Y-38698197D01*
X118962119Y-38603402D01*
X118962119Y-38603400D01*
X118963543Y-38598087D01*
X118983498Y-38370000D01*
X118963543Y-38141913D01*
X118960679Y-38131225D01*
X118905707Y-37926067D01*
X118905706Y-37926065D01*
X118904284Y-37920757D01*
X118891769Y-37893919D01*
X118809849Y-37718238D01*
X118809846Y-37718233D01*
X118807523Y-37713251D01*
X118713062Y-37578347D01*
X118679357Y-37530211D01*
X118679355Y-37530208D01*
X118676198Y-37525700D01*
X118514300Y-37363802D01*
X118509792Y-37360645D01*
X118509789Y-37360643D01*
X118346273Y-37246148D01*
X118326749Y-37232477D01*
X118321767Y-37230154D01*
X118321762Y-37230151D01*
X118287543Y-37214195D01*
X118234258Y-37167278D01*
X118214797Y-37099001D01*
X118235339Y-37031041D01*
X118287543Y-36985805D01*
X118321762Y-36969849D01*
X118321767Y-36969846D01*
X118326749Y-36967523D01*
X118441409Y-36887237D01*
X118509789Y-36839357D01*
X118509792Y-36839355D01*
X118514300Y-36836198D01*
X118676198Y-36674300D01*
X118688850Y-36656232D01*
X118752381Y-36565500D01*
X118807523Y-36486749D01*
X118809846Y-36481767D01*
X118809849Y-36481762D01*
X118901961Y-36284225D01*
X118901961Y-36284224D01*
X118904284Y-36279243D01*
X118909613Y-36259357D01*
X118962119Y-36063402D01*
X118962119Y-36063400D01*
X118963543Y-36058087D01*
X118983498Y-35830000D01*
X118963543Y-35601913D01*
X118947865Y-35543402D01*
X118905707Y-35386067D01*
X118905706Y-35386065D01*
X118904284Y-35380757D01*
X118900423Y-35372477D01*
X118809849Y-35178238D01*
X118809846Y-35178233D01*
X118807523Y-35173251D01*
X118709905Y-35033838D01*
X118679357Y-34990211D01*
X118679355Y-34990208D01*
X118676198Y-34985700D01*
X118514300Y-34823802D01*
X118509792Y-34820645D01*
X118509789Y-34820643D01*
X118423284Y-34760072D01*
X118326749Y-34692477D01*
X118321767Y-34690154D01*
X118321762Y-34690151D01*
X118287543Y-34674195D01*
X118234258Y-34627278D01*
X118214797Y-34559001D01*
X118235339Y-34491041D01*
X118287543Y-34445805D01*
X118321762Y-34429849D01*
X118321767Y-34429846D01*
X118326749Y-34427523D01*
X118445368Y-34344465D01*
X118509789Y-34299357D01*
X118509792Y-34299355D01*
X118514300Y-34296198D01*
X118676198Y-34134300D01*
X118693108Y-34110151D01*
X118757605Y-34018039D01*
X118807523Y-33946749D01*
X118809846Y-33941767D01*
X118809849Y-33941762D01*
X118901961Y-33744225D01*
X118901961Y-33744224D01*
X118904284Y-33739243D01*
X118910082Y-33717607D01*
X118962119Y-33523402D01*
X118962119Y-33523400D01*
X118963543Y-33518087D01*
X118983498Y-33290000D01*
X118963543Y-33061913D01*
X118945406Y-32994225D01*
X118905707Y-32846067D01*
X118905706Y-32846065D01*
X118904284Y-32840757D01*
X118901013Y-32833743D01*
X118809849Y-32638238D01*
X118809846Y-32638233D01*
X118807523Y-32633251D01*
X118712608Y-32497699D01*
X118679357Y-32450211D01*
X118679355Y-32450208D01*
X118676198Y-32445700D01*
X118514300Y-32283802D01*
X118509792Y-32280645D01*
X118509789Y-32280643D01*
X118421641Y-32218921D01*
X118326749Y-32152477D01*
X118321767Y-32150154D01*
X118321762Y-32150151D01*
X118287543Y-32134195D01*
X118234258Y-32087278D01*
X118214797Y-32019001D01*
X118235339Y-31951041D01*
X118287543Y-31905805D01*
X118321762Y-31889849D01*
X118321767Y-31889846D01*
X118326749Y-31887523D01*
X118452744Y-31799300D01*
X118509789Y-31759357D01*
X118509792Y-31759355D01*
X118514300Y-31756198D01*
X118676198Y-31594300D01*
X118681159Y-31587216D01*
X118742927Y-31499001D01*
X118807523Y-31406749D01*
X118809846Y-31401767D01*
X118809849Y-31401762D01*
X118901961Y-31204225D01*
X118901961Y-31204224D01*
X118904284Y-31199243D01*
X118910082Y-31177607D01*
X118962119Y-30983402D01*
X118962119Y-30983400D01*
X118963543Y-30978087D01*
X118983498Y-30750000D01*
X118963543Y-30521913D01*
X118953476Y-30484342D01*
X118905707Y-30306067D01*
X118905706Y-30306065D01*
X118904284Y-30300757D01*
X118900856Y-30293406D01*
X118809849Y-30098238D01*
X118809846Y-30098233D01*
X118807523Y-30093251D01*
X118709107Y-29952699D01*
X118679357Y-29910211D01*
X118679355Y-29910208D01*
X118676198Y-29905700D01*
X118514300Y-29743802D01*
X118509792Y-29740645D01*
X118509789Y-29740643D01*
X118427944Y-29683335D01*
X118326749Y-29612477D01*
X118321767Y-29610154D01*
X118321762Y-29610151D01*
X118124225Y-29518039D01*
X118124224Y-29518039D01*
X118119243Y-29515716D01*
X118113935Y-29514294D01*
X118113933Y-29514293D01*
X117903402Y-29457881D01*
X117903400Y-29457881D01*
X117898087Y-29456457D01*
X117670000Y-29436502D01*
X117441913Y-29456457D01*
X117436600Y-29457881D01*
X117436598Y-29457881D01*
X117226067Y-29514293D01*
X117226065Y-29514294D01*
X117220757Y-29515716D01*
X117215776Y-29518039D01*
X117215775Y-29518039D01*
X117018238Y-29610151D01*
X117018233Y-29610154D01*
X117013251Y-29612477D01*
X116912056Y-29683335D01*
X116830211Y-29740643D01*
X116830208Y-29740645D01*
X116825700Y-29743802D01*
X116663802Y-29905700D01*
X116660645Y-29910208D01*
X116660643Y-29910211D01*
X116630893Y-29952699D01*
X116532477Y-30093251D01*
X116530154Y-30098233D01*
X116530151Y-30098238D01*
X116439144Y-30293406D01*
X116435716Y-30300757D01*
X116434294Y-30306065D01*
X116434293Y-30306067D01*
X116386524Y-30484342D01*
X116376457Y-30521913D01*
X116356502Y-30750000D01*
X116376457Y-30978087D01*
X116377881Y-30983400D01*
X116377881Y-30983402D01*
X116429919Y-31177607D01*
X116435716Y-31199243D01*
X116438039Y-31204224D01*
X116438039Y-31204225D01*
X116530151Y-31401762D01*
X116530154Y-31401767D01*
X116532477Y-31406749D01*
X116597073Y-31499001D01*
X116658842Y-31587216D01*
X116663802Y-31594300D01*
X116825700Y-31756198D01*
X116830208Y-31759355D01*
X116830211Y-31759357D01*
X116887256Y-31799300D01*
X117013251Y-31887523D01*
X117018233Y-31889846D01*
X117018238Y-31889849D01*
X117052457Y-31905805D01*
X117105742Y-31952722D01*
X117125203Y-32020999D01*
X117104661Y-32088959D01*
X117052457Y-32134195D01*
X117018238Y-32150151D01*
X117018233Y-32150154D01*
X117013251Y-32152477D01*
X116918359Y-32218921D01*
X116830211Y-32280643D01*
X116830208Y-32280645D01*
X116825700Y-32283802D01*
X116663802Y-32445700D01*
X116660645Y-32450208D01*
X116660643Y-32450211D01*
X116627392Y-32497699D01*
X116532477Y-32633251D01*
X116530154Y-32638233D01*
X116530151Y-32638238D01*
X116438987Y-32833743D01*
X116435716Y-32840757D01*
X116434294Y-32846065D01*
X116434293Y-32846067D01*
X116394594Y-32994225D01*
X116376457Y-33061913D01*
X116356502Y-33290000D01*
X116376457Y-33518087D01*
X116377881Y-33523400D01*
X116377881Y-33523402D01*
X116429919Y-33717607D01*
X116435716Y-33739243D01*
X116438039Y-33744224D01*
X116438039Y-33744225D01*
X116530151Y-33941762D01*
X116530154Y-33941767D01*
X116532477Y-33946749D01*
X116582395Y-34018039D01*
X116646893Y-34110151D01*
X116663802Y-34134300D01*
X116825700Y-34296198D01*
X116830208Y-34299355D01*
X116830211Y-34299357D01*
X116894632Y-34344465D01*
X117013251Y-34427523D01*
X117018233Y-34429846D01*
X117018238Y-34429849D01*
X117052457Y-34445805D01*
X117105742Y-34492722D01*
X117125203Y-34560999D01*
X117104661Y-34628959D01*
X117052457Y-34674195D01*
X117018238Y-34690151D01*
X117018233Y-34690154D01*
X117013251Y-34692477D01*
X116916716Y-34760072D01*
X116830211Y-34820643D01*
X116830208Y-34820645D01*
X116825700Y-34823802D01*
X116663802Y-34985700D01*
X116660645Y-34990208D01*
X116660643Y-34990211D01*
X116630095Y-35033838D01*
X116532477Y-35173251D01*
X116530154Y-35178233D01*
X116530151Y-35178238D01*
X116439577Y-35372477D01*
X116435716Y-35380757D01*
X116434294Y-35386065D01*
X116434293Y-35386067D01*
X116392135Y-35543402D01*
X116376457Y-35601913D01*
X116356502Y-35830000D01*
X116376457Y-36058087D01*
X116377881Y-36063400D01*
X116377881Y-36063402D01*
X116430388Y-36259357D01*
X116435716Y-36279243D01*
X116438039Y-36284224D01*
X116438039Y-36284225D01*
X116530151Y-36481762D01*
X116530154Y-36481767D01*
X116532477Y-36486749D01*
X116587619Y-36565500D01*
X116651151Y-36656232D01*
X116663802Y-36674300D01*
X116825700Y-36836198D01*
X116830208Y-36839355D01*
X116830211Y-36839357D01*
X116898591Y-36887237D01*
X117013251Y-36967523D01*
X117018233Y-36969846D01*
X117018238Y-36969849D01*
X117052457Y-36985805D01*
X117105742Y-37032722D01*
X117125203Y-37100999D01*
X117104661Y-37168959D01*
X117052457Y-37214195D01*
X117018238Y-37230151D01*
X117018233Y-37230154D01*
X117013251Y-37232477D01*
X116993727Y-37246148D01*
X116830211Y-37360643D01*
X116830208Y-37360645D01*
X116825700Y-37363802D01*
X116663802Y-37525700D01*
X116660645Y-37530208D01*
X116660643Y-37530211D01*
X116626938Y-37578347D01*
X116532477Y-37713251D01*
X116530154Y-37718233D01*
X116530151Y-37718238D01*
X116448231Y-37893919D01*
X116435716Y-37920757D01*
X116434294Y-37926065D01*
X116434293Y-37926067D01*
X116379321Y-38131225D01*
X116376457Y-38141913D01*
X116356502Y-38370000D01*
X111363498Y-38370000D01*
X111343543Y-38141913D01*
X111340679Y-38131225D01*
X111285707Y-37926067D01*
X111285706Y-37926065D01*
X111284284Y-37920757D01*
X111271769Y-37893919D01*
X111189849Y-37718238D01*
X111189846Y-37718233D01*
X111187523Y-37713251D01*
X111093062Y-37578347D01*
X111059357Y-37530211D01*
X111059355Y-37530208D01*
X111056198Y-37525700D01*
X110894300Y-37363802D01*
X110889792Y-37360645D01*
X110889789Y-37360643D01*
X110726273Y-37246148D01*
X110706749Y-37232477D01*
X110701767Y-37230154D01*
X110701762Y-37230151D01*
X110667543Y-37214195D01*
X110614258Y-37167278D01*
X110594797Y-37099001D01*
X110615339Y-37031041D01*
X110667543Y-36985805D01*
X110701762Y-36969849D01*
X110701767Y-36969846D01*
X110706749Y-36967523D01*
X110821409Y-36887237D01*
X110889789Y-36839357D01*
X110889792Y-36839355D01*
X110894300Y-36836198D01*
X111050169Y-36680329D01*
X111112481Y-36646303D01*
X111183296Y-36651368D01*
X111228359Y-36680329D01*
X111965335Y-37417305D01*
X111999361Y-37479617D01*
X112001550Y-37493228D01*
X112006458Y-37539928D01*
X112008498Y-37546205D01*
X112008498Y-37546207D01*
X112023844Y-37593435D01*
X112065473Y-37721556D01*
X112068776Y-37727278D01*
X112068777Y-37727279D01*
X112095139Y-37772939D01*
X112160960Y-37886944D01*
X112165378Y-37891851D01*
X112165379Y-37891852D01*
X112191405Y-37920757D01*
X112288747Y-38028866D01*
X112302639Y-38038959D01*
X112429632Y-38131225D01*
X112443248Y-38141118D01*
X112449276Y-38143802D01*
X112449278Y-38143803D01*
X112610257Y-38215475D01*
X112617712Y-38218794D01*
X112688319Y-38233802D01*
X112798056Y-38257128D01*
X112798061Y-38257128D01*
X112804513Y-38258500D01*
X112995487Y-38258500D01*
X113001939Y-38257128D01*
X113001944Y-38257128D01*
X113111681Y-38233802D01*
X113182288Y-38218794D01*
X113189743Y-38215475D01*
X113350722Y-38143803D01*
X113350724Y-38143802D01*
X113356752Y-38141118D01*
X113370369Y-38131225D01*
X113497361Y-38038959D01*
X113511253Y-38028866D01*
X113608595Y-37920757D01*
X113634621Y-37891852D01*
X113634622Y-37891851D01*
X113639040Y-37886944D01*
X113704861Y-37772939D01*
X113731223Y-37727279D01*
X113731224Y-37727278D01*
X113734527Y-37721556D01*
X113793542Y-37539928D01*
X113795038Y-37525700D01*
X113812814Y-37356565D01*
X113813504Y-37350000D01*
X113809990Y-37316565D01*
X113794232Y-37166635D01*
X113794232Y-37166633D01*
X113793542Y-37160072D01*
X113734527Y-36978444D01*
X113727406Y-36966109D01*
X113684109Y-36891118D01*
X113639040Y-36813056D01*
X113611752Y-36782749D01*
X113515675Y-36676045D01*
X113515674Y-36676044D01*
X113511253Y-36671134D01*
X113379516Y-36575421D01*
X113362094Y-36562763D01*
X113362093Y-36562762D01*
X113356752Y-36558882D01*
X113350724Y-36556198D01*
X113350722Y-36556197D01*
X113188319Y-36483891D01*
X113188318Y-36483891D01*
X113182288Y-36481206D01*
X113082105Y-36459911D01*
X113029432Y-36448715D01*
X112966534Y-36414563D01*
X111901442Y-35349472D01*
X111895588Y-35343206D01*
X111862556Y-35305340D01*
X111862553Y-35305337D01*
X111857561Y-35299615D01*
X111805280Y-35262871D01*
X111799986Y-35258939D01*
X111755693Y-35224209D01*
X111749718Y-35219524D01*
X111742802Y-35216401D01*
X111740516Y-35215017D01*
X111725835Y-35206643D01*
X111723475Y-35205378D01*
X111717261Y-35201010D01*
X111710182Y-35198250D01*
X111710180Y-35198249D01*
X111657725Y-35177798D01*
X111651656Y-35175247D01*
X111593427Y-35148955D01*
X111585960Y-35147571D01*
X111583405Y-35146770D01*
X111567152Y-35142141D01*
X111564572Y-35141478D01*
X111557491Y-35138718D01*
X111549960Y-35137727D01*
X111549958Y-35137726D01*
X111516831Y-35133365D01*
X111494139Y-35130378D01*
X111487641Y-35129348D01*
X111424814Y-35117704D01*
X111417234Y-35118141D01*
X111417233Y-35118141D01*
X111362608Y-35121291D01*
X111355354Y-35121500D01*
X111216878Y-35121500D01*
X111148757Y-35101498D01*
X111113665Y-35067771D01*
X111059357Y-34990211D01*
X111059355Y-34990208D01*
X111056198Y-34985700D01*
X110894300Y-34823802D01*
X110889792Y-34820645D01*
X110889789Y-34820643D01*
X110803284Y-34760072D01*
X110706749Y-34692477D01*
X110701767Y-34690154D01*
X110701762Y-34690151D01*
X110667543Y-34674195D01*
X110614258Y-34627278D01*
X110594797Y-34559001D01*
X110615339Y-34491041D01*
X110667543Y-34445805D01*
X110701762Y-34429849D01*
X110701767Y-34429846D01*
X110706749Y-34427523D01*
X110825368Y-34344465D01*
X110889789Y-34299357D01*
X110889792Y-34299355D01*
X110894300Y-34296198D01*
X111056198Y-34134300D01*
X111073108Y-34110151D01*
X111137605Y-34018039D01*
X111187523Y-33946749D01*
X111189846Y-33941767D01*
X111189849Y-33941762D01*
X111281961Y-33744225D01*
X111281961Y-33744224D01*
X111284284Y-33739243D01*
X111290082Y-33717607D01*
X111342119Y-33523402D01*
X111342119Y-33523400D01*
X111343543Y-33518087D01*
X111363498Y-33290000D01*
X111343543Y-33061913D01*
X111325406Y-32994225D01*
X111285707Y-32846067D01*
X111285706Y-32846065D01*
X111284284Y-32840757D01*
X111281013Y-32833743D01*
X111189849Y-32638238D01*
X111189846Y-32638233D01*
X111187523Y-32633251D01*
X111092608Y-32497699D01*
X111059357Y-32450211D01*
X111059355Y-32450208D01*
X111056198Y-32445700D01*
X110894300Y-32283802D01*
X110889789Y-32280643D01*
X110885576Y-32277108D01*
X110886388Y-32276140D01*
X110845910Y-32225506D01*
X110838596Y-32154887D01*
X110870624Y-32091524D01*
X110931823Y-32055536D01*
X110948901Y-32052480D01*
X110952352Y-32052105D01*
X110967604Y-32048479D01*
X111088054Y-32003324D01*
X111103649Y-31994786D01*
X111205724Y-31918285D01*
X111218285Y-31905724D01*
X111294786Y-31803649D01*
X111303324Y-31788054D01*
X111348478Y-31667606D01*
X111352105Y-31652351D01*
X111357631Y-31601486D01*
X111358000Y-31594672D01*
X111358000Y-31022115D01*
X111353525Y-31006876D01*
X111352135Y-31005671D01*
X111344452Y-31004000D01*
X108760116Y-31004000D01*
X108744877Y-31008475D01*
X108743672Y-31009865D01*
X108742001Y-31017548D01*
X108742001Y-31594669D01*
X108742371Y-31601490D01*
X108747895Y-31652352D01*
X108751521Y-31667604D01*
X108796676Y-31788054D01*
X108805214Y-31803649D01*
X108881715Y-31905724D01*
X108894276Y-31918285D01*
X108996351Y-31994786D01*
X109011946Y-32003324D01*
X109132394Y-32048478D01*
X109147643Y-32052104D01*
X109151096Y-32052479D01*
X109153606Y-32053522D01*
X109155331Y-32053932D01*
X109155265Y-32054211D01*
X109216659Y-32079719D01*
X109257088Y-32138080D01*
X109259546Y-32209034D01*
X109223253Y-32270054D01*
X109211760Y-32279344D01*
X109210214Y-32280641D01*
X109205700Y-32283802D01*
X109043802Y-32445700D01*
X109040645Y-32450208D01*
X109040643Y-32450211D01*
X109007392Y-32497699D01*
X108912477Y-32633251D01*
X108910154Y-32638233D01*
X108910151Y-32638238D01*
X108818987Y-32833743D01*
X108815716Y-32840757D01*
X108814294Y-32846065D01*
X108814293Y-32846067D01*
X108774594Y-32994225D01*
X108756457Y-33061913D01*
X108755978Y-33067393D01*
X108755976Y-33067404D01*
X108752478Y-33107379D01*
X108726615Y-33173497D01*
X108669111Y-33215136D01*
X108598224Y-33219076D01*
X108536460Y-33184066D01*
X108505251Y-33129007D01*
X108485707Y-33056067D01*
X108485706Y-33056065D01*
X108484284Y-33050757D01*
X108481961Y-33045775D01*
X108389849Y-32848238D01*
X108389846Y-32848233D01*
X108387523Y-32843251D01*
X108304758Y-32725050D01*
X108259357Y-32660211D01*
X108259355Y-32660208D01*
X108256198Y-32655700D01*
X108094300Y-32493802D01*
X108089792Y-32490645D01*
X108089789Y-32490643D01*
X107981471Y-32414798D01*
X107906749Y-32362477D01*
X107901767Y-32360154D01*
X107901762Y-32360151D01*
X107704225Y-32268039D01*
X107704224Y-32268039D01*
X107699243Y-32265716D01*
X107693935Y-32264294D01*
X107693933Y-32264293D01*
X107483402Y-32207881D01*
X107483400Y-32207881D01*
X107478087Y-32206457D01*
X107250000Y-32186502D01*
X107021913Y-32206457D01*
X107016600Y-32207881D01*
X107016598Y-32207881D01*
X106806067Y-32264293D01*
X106806065Y-32264294D01*
X106800757Y-32265716D01*
X106795776Y-32268039D01*
X106795775Y-32268039D01*
X106598238Y-32360151D01*
X106598233Y-32360154D01*
X106593251Y-32362477D01*
X106518529Y-32414798D01*
X106410211Y-32490643D01*
X106410208Y-32490645D01*
X106405700Y-32493802D01*
X106243802Y-32655700D01*
X106240645Y-32660208D01*
X106240643Y-32660211D01*
X106195242Y-32725050D01*
X106112477Y-32843251D01*
X106110154Y-32848233D01*
X106110151Y-32848238D01*
X106018039Y-33045775D01*
X106015716Y-33050757D01*
X106014294Y-33056065D01*
X106014293Y-33056067D01*
X105974311Y-33205281D01*
X105956457Y-33271913D01*
X105936502Y-33500000D01*
X103563498Y-33500000D01*
X103543543Y-33271913D01*
X103525689Y-33205281D01*
X103485707Y-33056067D01*
X103485706Y-33056065D01*
X103484284Y-33050757D01*
X103481961Y-33045775D01*
X103389849Y-32848238D01*
X103389846Y-32848233D01*
X103387523Y-32843251D01*
X103304758Y-32725050D01*
X103259357Y-32660211D01*
X103259355Y-32660208D01*
X103256198Y-32655700D01*
X103094300Y-32493802D01*
X103089792Y-32490645D01*
X103089789Y-32490643D01*
X102981471Y-32414798D01*
X102906749Y-32362477D01*
X102901767Y-32360154D01*
X102901762Y-32360151D01*
X102704225Y-32268039D01*
X102704224Y-32268039D01*
X102699243Y-32265716D01*
X102693935Y-32264294D01*
X102693933Y-32264293D01*
X102483402Y-32207881D01*
X102483400Y-32207881D01*
X102478087Y-32206457D01*
X102250000Y-32186502D01*
X102021913Y-32206457D01*
X102016600Y-32207881D01*
X102016598Y-32207881D01*
X101806067Y-32264293D01*
X101806065Y-32264294D01*
X101800757Y-32265716D01*
X101795776Y-32268039D01*
X101795775Y-32268039D01*
X101598238Y-32360151D01*
X101598233Y-32360154D01*
X101593251Y-32362477D01*
X101518529Y-32414798D01*
X101410211Y-32490643D01*
X101410208Y-32490645D01*
X101405700Y-32493802D01*
X101243802Y-32655700D01*
X101240645Y-32660208D01*
X101240643Y-32660211D01*
X101195242Y-32725050D01*
X101112477Y-32843251D01*
X101110154Y-32848233D01*
X101110151Y-32848238D01*
X101018039Y-33045775D01*
X101015716Y-33050757D01*
X101014294Y-33056065D01*
X101014293Y-33056067D01*
X100974311Y-33205281D01*
X100956457Y-33271913D01*
X100936502Y-33500000D01*
X90838680Y-33500000D01*
X90799615Y-33395795D01*
X90712261Y-33279239D01*
X90595705Y-33191885D01*
X90459316Y-33140755D01*
X90397134Y-33134000D01*
X88902866Y-33134000D01*
X88840684Y-33140755D01*
X88704295Y-33191885D01*
X88587739Y-33279239D01*
X88500385Y-33395795D01*
X88449255Y-33532184D01*
X88442500Y-33594366D01*
X88442500Y-33774699D01*
X88422498Y-33842820D01*
X88368842Y-33889313D01*
X88298568Y-33899417D01*
X88233988Y-33869923D01*
X88202305Y-33827949D01*
X88161612Y-33740682D01*
X88156129Y-33731187D01*
X88134971Y-33700970D01*
X88124494Y-33692595D01*
X88111047Y-33699663D01*
X87482022Y-34328688D01*
X87474408Y-34342632D01*
X86744356Y-34342632D01*
X86745592Y-34340368D01*
X86745461Y-34338535D01*
X86741210Y-34331920D01*
X86108232Y-33698942D01*
X86096457Y-33692512D01*
X86084442Y-33701808D01*
X86063871Y-33731187D01*
X86058388Y-33740682D01*
X85973781Y-33922123D01*
X85970035Y-33932415D01*
X85918220Y-34125791D01*
X85916317Y-34136586D01*
X85898868Y-34336025D01*
X85898868Y-34346975D01*
X84998945Y-34346975D01*
X84009967Y-33357997D01*
X83993044Y-33327006D01*
X86461095Y-33327006D01*
X86468163Y-33340453D01*
X87097188Y-33969478D01*
X87111132Y-33977092D01*
X87112965Y-33976961D01*
X87119580Y-33972710D01*
X87752559Y-33339731D01*
X87758989Y-33327957D01*
X87749694Y-33315942D01*
X87720311Y-33295369D01*
X87710821Y-33289890D01*
X87529377Y-33205281D01*
X87519085Y-33201535D01*
X87325709Y-33149720D01*
X87314914Y-33147817D01*
X87115475Y-33130368D01*
X87104525Y-33130368D01*
X86905086Y-33147817D01*
X86894291Y-33149720D01*
X86700915Y-33201535D01*
X86690623Y-33205281D01*
X86509182Y-33289888D01*
X86499687Y-33295371D01*
X86469470Y-33316529D01*
X86461095Y-33327006D01*
X83993044Y-33327006D01*
X83975941Y-33295685D01*
X83975276Y-33291547D01*
X83974232Y-33286635D01*
X83973542Y-33280072D01*
X83914527Y-33098444D01*
X83909653Y-33090001D01*
X83853422Y-32992607D01*
X83819040Y-32933056D01*
X83811723Y-32924929D01*
X83695675Y-32796045D01*
X83695674Y-32796044D01*
X83691253Y-32791134D01*
X83578327Y-32709088D01*
X83542094Y-32682763D01*
X83542093Y-32682762D01*
X83536752Y-32678882D01*
X83530724Y-32676198D01*
X83530722Y-32676197D01*
X83368319Y-32603891D01*
X83368318Y-32603891D01*
X83362288Y-32601206D01*
X83248719Y-32577066D01*
X83181944Y-32562872D01*
X83181939Y-32562872D01*
X83175487Y-32561500D01*
X82984513Y-32561500D01*
X82978061Y-32562872D01*
X82978056Y-32562872D01*
X82911281Y-32577066D01*
X82797712Y-32601206D01*
X82791682Y-32603891D01*
X82791681Y-32603891D01*
X82629278Y-32676197D01*
X82629276Y-32676198D01*
X82623248Y-32678882D01*
X82617907Y-32682762D01*
X82617906Y-32682763D01*
X82581673Y-32709088D01*
X82468747Y-32791134D01*
X82464326Y-32796044D01*
X82464325Y-32796045D01*
X82348278Y-32924929D01*
X82340960Y-32933056D01*
X82306578Y-32992607D01*
X82250348Y-33090001D01*
X82245473Y-33098444D01*
X82186458Y-33280072D01*
X82185768Y-33286633D01*
X82185768Y-33286635D01*
X82175977Y-33379789D01*
X82166496Y-33470000D01*
X75958500Y-33470000D01*
X75958500Y-30856480D01*
X83340293Y-30856480D01*
X83347345Y-30866449D01*
X83379266Y-30893138D01*
X83386182Y-30898162D01*
X83611708Y-31039635D01*
X83619259Y-31043684D01*
X83861899Y-31153239D01*
X83869930Y-31156226D01*
X84125192Y-31231839D01*
X84133544Y-31233706D01*
X84396712Y-31273976D01*
X84405245Y-31274692D01*
X84671439Y-31278874D01*
X84679991Y-31278425D01*
X84944293Y-31246442D01*
X84952692Y-31244840D01*
X85210222Y-31177278D01*
X85218324Y-31174551D01*
X85464291Y-31072668D01*
X85471959Y-31068862D01*
X85701823Y-30934540D01*
X85708904Y-30929727D01*
X85789997Y-30866143D01*
X85796899Y-30856480D01*
X93500293Y-30856480D01*
X93507345Y-30866449D01*
X93539266Y-30893138D01*
X93546182Y-30898162D01*
X93771708Y-31039635D01*
X93779259Y-31043684D01*
X94021899Y-31153239D01*
X94029930Y-31156226D01*
X94285192Y-31231839D01*
X94293544Y-31233706D01*
X94556712Y-31273976D01*
X94565245Y-31274692D01*
X94831439Y-31278874D01*
X94839991Y-31278425D01*
X95104293Y-31246442D01*
X95112692Y-31244840D01*
X95370222Y-31177278D01*
X95378324Y-31174551D01*
X95624291Y-31072668D01*
X95631959Y-31068862D01*
X95861823Y-30934540D01*
X95868904Y-30929727D01*
X95949997Y-30866143D01*
X95958467Y-30854284D01*
X95951950Y-30842660D01*
X94742812Y-29633522D01*
X94728868Y-29625908D01*
X94727035Y-29626039D01*
X94720420Y-29630290D01*
X93507585Y-30843125D01*
X93500293Y-30856480D01*
X85796899Y-30856480D01*
X85798467Y-30854284D01*
X85791950Y-30842660D01*
X84582812Y-29633522D01*
X84568868Y-29625908D01*
X84567035Y-29626039D01*
X84560420Y-29630290D01*
X83347585Y-30843125D01*
X83340293Y-30856480D01*
X75958500Y-30856480D01*
X75958500Y-30095661D01*
X75978502Y-30027540D01*
X75995405Y-30006565D01*
X76666536Y-29335435D01*
X76729433Y-29301284D01*
X76882288Y-29268794D01*
X76888319Y-29266109D01*
X76936573Y-29244625D01*
X82550148Y-29244625D01*
X82565473Y-29510412D01*
X82566546Y-29518912D01*
X82617802Y-29780162D01*
X82620015Y-29788424D01*
X82706254Y-30040307D01*
X82709570Y-30048194D01*
X82829193Y-30286040D01*
X82833549Y-30293406D01*
X82963953Y-30483144D01*
X82974207Y-30491488D01*
X82987948Y-30484342D01*
X84197978Y-29274312D01*
X84204356Y-29262632D01*
X84934408Y-29262632D01*
X84934539Y-29264465D01*
X84938790Y-29271080D01*
X86151095Y-30483385D01*
X86163305Y-30490052D01*
X86174804Y-30481363D01*
X86273182Y-30347438D01*
X86277766Y-30340215D01*
X86404798Y-30106251D01*
X86408366Y-30098457D01*
X86502470Y-29849417D01*
X86504943Y-29841225D01*
X86564381Y-29581710D01*
X86565720Y-29573251D01*
X86589547Y-29306272D01*
X86589793Y-29301335D01*
X86590184Y-29263985D01*
X86590041Y-29259019D01*
X86589060Y-29244625D01*
X92710148Y-29244625D01*
X92725473Y-29510412D01*
X92726546Y-29518912D01*
X92777802Y-29780162D01*
X92780015Y-29788424D01*
X92866254Y-30040307D01*
X92869570Y-30048194D01*
X92989193Y-30286040D01*
X92993549Y-30293406D01*
X93123953Y-30483144D01*
X93134207Y-30491488D01*
X93147948Y-30484342D01*
X94357978Y-29274312D01*
X94364356Y-29262632D01*
X95094408Y-29262632D01*
X95094539Y-29264465D01*
X95098790Y-29271080D01*
X96311095Y-30483385D01*
X96323305Y-30490052D01*
X96334804Y-30481363D01*
X96433182Y-30347438D01*
X96437766Y-30340215D01*
X96564798Y-30106251D01*
X96568366Y-30098457D01*
X96662470Y-29849417D01*
X96664943Y-29841225D01*
X96724381Y-29581710D01*
X96725720Y-29573251D01*
X96749547Y-29306272D01*
X96749793Y-29301335D01*
X96750184Y-29263985D01*
X96750041Y-29259019D01*
X96731811Y-28991603D01*
X96730650Y-28983129D01*
X96676660Y-28722422D01*
X96674361Y-28714187D01*
X96585488Y-28463219D01*
X96582091Y-28455369D01*
X96459983Y-28218790D01*
X96455545Y-28211463D01*
X96335415Y-28040534D01*
X96324893Y-28032153D01*
X96311505Y-28039205D01*
X95102022Y-29248688D01*
X95094408Y-29262632D01*
X94364356Y-29262632D01*
X94365592Y-29260368D01*
X94365461Y-29258535D01*
X94361210Y-29251920D01*
X93148439Y-28039149D01*
X93136429Y-28032590D01*
X93124690Y-28041558D01*
X93015546Y-28193448D01*
X93011024Y-28200743D01*
X92886457Y-28436010D01*
X92882971Y-28443838D01*
X92791480Y-28693848D01*
X92789091Y-28702071D01*
X92732375Y-28962196D01*
X92731126Y-28970652D01*
X92710237Y-29236074D01*
X92710148Y-29244625D01*
X86589060Y-29244625D01*
X86571811Y-28991603D01*
X86570650Y-28983129D01*
X86516660Y-28722422D01*
X86514361Y-28714187D01*
X86425488Y-28463219D01*
X86422091Y-28455369D01*
X86299983Y-28218790D01*
X86295545Y-28211463D01*
X86175415Y-28040534D01*
X86164893Y-28032153D01*
X86151505Y-28039205D01*
X84942022Y-29248688D01*
X84934408Y-29262632D01*
X84204356Y-29262632D01*
X84205592Y-29260368D01*
X84205461Y-29258535D01*
X84201210Y-29251920D01*
X82988439Y-28039149D01*
X82976429Y-28032590D01*
X82964690Y-28041558D01*
X82855546Y-28193448D01*
X82851024Y-28200743D01*
X82726457Y-28436010D01*
X82722971Y-28443838D01*
X82631480Y-28693848D01*
X82629091Y-28702071D01*
X82572375Y-28962196D01*
X82571126Y-28970652D01*
X82550237Y-29236074D01*
X82550148Y-29244625D01*
X76936573Y-29244625D01*
X77050722Y-29193803D01*
X77050724Y-29193802D01*
X77056752Y-29191118D01*
X77065732Y-29184594D01*
X77148037Y-29124795D01*
X77211253Y-29078866D01*
X77251600Y-29034056D01*
X77334621Y-28941852D01*
X77334622Y-28941851D01*
X77339040Y-28936944D01*
X77408447Y-28816728D01*
X77431223Y-28777279D01*
X77431224Y-28777278D01*
X77434527Y-28771556D01*
X77493542Y-28589928D01*
X77497295Y-28554225D01*
X77512814Y-28406565D01*
X77513504Y-28400000D01*
X77502101Y-28291502D01*
X77494232Y-28216635D01*
X77494232Y-28216633D01*
X77493542Y-28210072D01*
X77434527Y-28028444D01*
X77339040Y-27863056D01*
X77211253Y-27721134D01*
X77139035Y-27668664D01*
X83341248Y-27668664D01*
X83347644Y-27679934D01*
X84557188Y-28889478D01*
X84571132Y-28897092D01*
X84572965Y-28896961D01*
X84579580Y-28892710D01*
X85791934Y-27680356D01*
X85798318Y-27668664D01*
X93501248Y-27668664D01*
X93507644Y-27679934D01*
X94717188Y-28889478D01*
X94731132Y-28897092D01*
X94732965Y-28896961D01*
X94739580Y-28892710D01*
X95951934Y-27680356D01*
X95959125Y-27667187D01*
X95951803Y-27656950D01*
X95903588Y-27617487D01*
X95896616Y-27612532D01*
X95669617Y-27473427D01*
X95662019Y-27469455D01*
X95418250Y-27362447D01*
X95410196Y-27359548D01*
X95154155Y-27286613D01*
X95145777Y-27284831D01*
X94882208Y-27247320D01*
X94873661Y-27246693D01*
X94607436Y-27245298D01*
X94598902Y-27245835D01*
X94334947Y-27280586D01*
X94326549Y-27282279D01*
X94069759Y-27352529D01*
X94061672Y-27355345D01*
X93816797Y-27459794D01*
X93809157Y-27463687D01*
X93580723Y-27600401D01*
X93573691Y-27605288D01*
X93509717Y-27656541D01*
X93501248Y-27668664D01*
X85798318Y-27668664D01*
X85799125Y-27667187D01*
X85791803Y-27656950D01*
X85743588Y-27617487D01*
X85736616Y-27612532D01*
X85509617Y-27473427D01*
X85502019Y-27469455D01*
X85258250Y-27362447D01*
X85250196Y-27359548D01*
X84994155Y-27286613D01*
X84985777Y-27284831D01*
X84722208Y-27247320D01*
X84713661Y-27246693D01*
X84447436Y-27245298D01*
X84438902Y-27245835D01*
X84174947Y-27280586D01*
X84166549Y-27282279D01*
X83909759Y-27352529D01*
X83901672Y-27355345D01*
X83656797Y-27459794D01*
X83649157Y-27463687D01*
X83420723Y-27600401D01*
X83413691Y-27605288D01*
X83349717Y-27656541D01*
X83341248Y-27668664D01*
X77139035Y-27668664D01*
X77056752Y-27608882D01*
X77050724Y-27606198D01*
X77050722Y-27606197D01*
X76888319Y-27533891D01*
X76888318Y-27533891D01*
X76882288Y-27531206D01*
X76788887Y-27511353D01*
X76701944Y-27492872D01*
X76701939Y-27492872D01*
X76695487Y-27491500D01*
X76504513Y-27491500D01*
X76498061Y-27492872D01*
X76498056Y-27492872D01*
X76411113Y-27511353D01*
X76317712Y-27531206D01*
X76311682Y-27533891D01*
X76311681Y-27533891D01*
X76149278Y-27606197D01*
X76149276Y-27606198D01*
X76143248Y-27608882D01*
X75988747Y-27721134D01*
X75860960Y-27863056D01*
X75765473Y-28028444D01*
X75745541Y-28089789D01*
X75709356Y-28201154D01*
X75706458Y-28210072D01*
X75705768Y-28216635D01*
X75705768Y-28216637D01*
X75701550Y-28256770D01*
X75674537Y-28322427D01*
X75665335Y-28332695D01*
X74769480Y-29228550D01*
X74763215Y-29234404D01*
X74719615Y-29272439D01*
X74699307Y-29301335D01*
X74682872Y-29324719D01*
X74678939Y-29330014D01*
X74639524Y-29380282D01*
X74636401Y-29387198D01*
X74635017Y-29389484D01*
X74626643Y-29404165D01*
X74625378Y-29406525D01*
X74621010Y-29412739D01*
X74618250Y-29419818D01*
X74618249Y-29419820D01*
X74604152Y-29455978D01*
X74598156Y-29471358D01*
X74597798Y-29472275D01*
X74595247Y-29478344D01*
X74568955Y-29536573D01*
X74567571Y-29544040D01*
X74566770Y-29546595D01*
X74562141Y-29562848D01*
X74561478Y-29565428D01*
X74558718Y-29572509D01*
X74557727Y-29580040D01*
X74557726Y-29580042D01*
X74550379Y-29635852D01*
X74549348Y-29642359D01*
X74537704Y-29705186D01*
X74538141Y-29712766D01*
X74538141Y-29712767D01*
X74541291Y-29767392D01*
X74541500Y-29774646D01*
X74541500Y-33204340D01*
X74521498Y-33272461D01*
X74504595Y-33293435D01*
X72543435Y-35254595D01*
X72481123Y-35288621D01*
X72454340Y-35291500D01*
X72261405Y-35291500D01*
X72193284Y-35271498D01*
X72187344Y-35267436D01*
X72112094Y-35212763D01*
X72112093Y-35212762D01*
X72106752Y-35208882D01*
X72100724Y-35206198D01*
X72100722Y-35206197D01*
X71938319Y-35133891D01*
X71938318Y-35133891D01*
X71932288Y-35131206D01*
X71838887Y-35111353D01*
X71751944Y-35092872D01*
X71751939Y-35092872D01*
X71745487Y-35091500D01*
X71554513Y-35091500D01*
X71548061Y-35092872D01*
X71548056Y-35092872D01*
X71461113Y-35111353D01*
X71367712Y-35131206D01*
X71361682Y-35133891D01*
X71361681Y-35133891D01*
X71199278Y-35206197D01*
X71199276Y-35206198D01*
X71193248Y-35208882D01*
X71187907Y-35212762D01*
X71187906Y-35212763D01*
X71153275Y-35237924D01*
X71038747Y-35321134D01*
X71034326Y-35326044D01*
X71034325Y-35326045D01*
X70973940Y-35393110D01*
X70910960Y-35463056D01*
X70870805Y-35532607D01*
X70820997Y-35618877D01*
X70815473Y-35628444D01*
X70756458Y-35810072D01*
X70755768Y-35816633D01*
X70755768Y-35816635D01*
X70746297Y-35906749D01*
X70736496Y-36000000D01*
X70756458Y-36189928D01*
X70815473Y-36371556D01*
X70818776Y-36377278D01*
X70818777Y-36377279D01*
X70907658Y-36531225D01*
X70910960Y-36536944D01*
X70915379Y-36541852D01*
X70917436Y-36544683D01*
X70941295Y-36611551D01*
X70941500Y-36618744D01*
X70941500Y-42418738D01*
X70921498Y-42486859D01*
X70867842Y-42533352D01*
X70859178Y-42536925D01*
X69092446Y-43189848D01*
X68345575Y-43465866D01*
X68325459Y-43473300D01*
X68281850Y-43481113D01*
X63469250Y-43483742D01*
X41376456Y-43495808D01*
X41308326Y-43475843D01*
X41261804Y-43422213D01*
X41251662Y-43351944D01*
X41281120Y-43287348D01*
X41343777Y-43248102D01*
X41416754Y-43228547D01*
X41416764Y-43228543D01*
X41422076Y-43227120D01*
X41621654Y-43134056D01*
X41802038Y-43007749D01*
X41957749Y-42852038D01*
X41969878Y-42834717D01*
X42080899Y-42676162D01*
X42080900Y-42676160D01*
X42084056Y-42671653D01*
X42086379Y-42666671D01*
X42086382Y-42666666D01*
X42143794Y-42543543D01*
X42177120Y-42472076D01*
X42234115Y-42259371D01*
X42253307Y-42040000D01*
X42252895Y-42035294D01*
X42272830Y-41967402D01*
X42326486Y-41920909D01*
X42396760Y-41910805D01*
X42461340Y-41940299D01*
X42482041Y-41963252D01*
X42542783Y-42050000D01*
X42573802Y-42094300D01*
X42735700Y-42256198D01*
X42740208Y-42259355D01*
X42740211Y-42259357D01*
X42818389Y-42314098D01*
X42923251Y-42387523D01*
X42928233Y-42389846D01*
X42928238Y-42389849D01*
X43115267Y-42477061D01*
X43130757Y-42484284D01*
X43136065Y-42485706D01*
X43136067Y-42485707D01*
X43346598Y-42542119D01*
X43346600Y-42542119D01*
X43351913Y-42543543D01*
X43580000Y-42563498D01*
X43808087Y-42543543D01*
X43813400Y-42542119D01*
X43813402Y-42542119D01*
X44023933Y-42485707D01*
X44023935Y-42485706D01*
X44029243Y-42484284D01*
X44044733Y-42477061D01*
X44231762Y-42389849D01*
X44231767Y-42389846D01*
X44236749Y-42387523D01*
X44341611Y-42314098D01*
X44419789Y-42259357D01*
X44419792Y-42259355D01*
X44424300Y-42256198D01*
X44586198Y-42094300D01*
X44624220Y-42040000D01*
X44648641Y-42005123D01*
X44717523Y-41906749D01*
X44719846Y-41901767D01*
X44719849Y-41901762D01*
X44811961Y-41704225D01*
X44811961Y-41704224D01*
X44814284Y-41699243D01*
X44840674Y-41600757D01*
X44872119Y-41483402D01*
X44872119Y-41483400D01*
X44873543Y-41478087D01*
X44893498Y-41250000D01*
X44873543Y-41021913D01*
X44854033Y-40949101D01*
X44815707Y-40806067D01*
X44815706Y-40806065D01*
X44814284Y-40800757D01*
X44808057Y-40787402D01*
X44719849Y-40598238D01*
X44719846Y-40598233D01*
X44717523Y-40593251D01*
X44642286Y-40485802D01*
X44589357Y-40410211D01*
X44589355Y-40410208D01*
X44586198Y-40405700D01*
X44424300Y-40243802D01*
X44419792Y-40240645D01*
X44419789Y-40240643D01*
X44301592Y-40157881D01*
X44236749Y-40112477D01*
X44231767Y-40110154D01*
X44231762Y-40110151D01*
X44034225Y-40018039D01*
X44034224Y-40018039D01*
X44029243Y-40015716D01*
X44023935Y-40014294D01*
X44023933Y-40014293D01*
X43813402Y-39957881D01*
X43813400Y-39957881D01*
X43808087Y-39956457D01*
X43580000Y-39936502D01*
X43351913Y-39956457D01*
X43346600Y-39957881D01*
X43346598Y-39957881D01*
X43136067Y-40014293D01*
X43136065Y-40014294D01*
X43130757Y-40015716D01*
X43125776Y-40018039D01*
X43125775Y-40018039D01*
X42928238Y-40110151D01*
X42928233Y-40110154D01*
X42923251Y-40112477D01*
X42858408Y-40157881D01*
X42740211Y-40240643D01*
X42740208Y-40240645D01*
X42735700Y-40243802D01*
X42573802Y-40405700D01*
X42570645Y-40410208D01*
X42570643Y-40410211D01*
X42517714Y-40485802D01*
X42442477Y-40593251D01*
X42440154Y-40598233D01*
X42440151Y-40598238D01*
X42351943Y-40787402D01*
X42345716Y-40800757D01*
X42344294Y-40806065D01*
X42344293Y-40806067D01*
X42305967Y-40949101D01*
X42286457Y-41021913D01*
X42266502Y-41250000D01*
X42266981Y-41255475D01*
X42266981Y-41255479D01*
X42267400Y-41260266D01*
X42253414Y-41329872D01*
X42204017Y-41380866D01*
X42134891Y-41397059D01*
X42067985Y-41373309D01*
X42038667Y-41343524D01*
X41960908Y-41232473D01*
X41960906Y-41232470D01*
X41957749Y-41227962D01*
X41802038Y-41072251D01*
X41792843Y-41065812D01*
X41704272Y-41003794D01*
X41621654Y-40945944D01*
X41422076Y-40852880D01*
X41209371Y-40795885D01*
X40990000Y-40776693D01*
X40770629Y-40795885D01*
X40557924Y-40852880D01*
X40464562Y-40896415D01*
X40363334Y-40943618D01*
X40363329Y-40943621D01*
X40358347Y-40945944D01*
X40353840Y-40949100D01*
X40353838Y-40949101D01*
X40182473Y-41069092D01*
X40182470Y-41069094D01*
X40177962Y-41072251D01*
X40022251Y-41227962D01*
X40019094Y-41232470D01*
X40019092Y-41232473D01*
X39909671Y-41388743D01*
X39895944Y-41408347D01*
X39893621Y-41413329D01*
X39893618Y-41413334D01*
X39834195Y-41540769D01*
X39787278Y-41594054D01*
X39719001Y-41613515D01*
X39651041Y-41592973D01*
X39605805Y-41540769D01*
X39546382Y-41413334D01*
X39546379Y-41413329D01*
X39544056Y-41408347D01*
X39530329Y-41388743D01*
X39420908Y-41232473D01*
X39420906Y-41232470D01*
X39417749Y-41227962D01*
X39262038Y-41072251D01*
X39252843Y-41065812D01*
X39164272Y-41003794D01*
X39081654Y-40945944D01*
X38882076Y-40852880D01*
X38669371Y-40795885D01*
X38450000Y-40776693D01*
X38230629Y-40795885D01*
X38017924Y-40852880D01*
X37924562Y-40896415D01*
X37823334Y-40943618D01*
X37823329Y-40943621D01*
X37818347Y-40945944D01*
X37813840Y-40949100D01*
X37813838Y-40949101D01*
X37642473Y-41069092D01*
X37642470Y-41069094D01*
X37637962Y-41072251D01*
X37482251Y-41227962D01*
X37479094Y-41232470D01*
X37479092Y-41232473D01*
X37440372Y-41287771D01*
X37398177Y-41348033D01*
X37397713Y-41348695D01*
X37342256Y-41393023D01*
X37271637Y-41400332D01*
X37208276Y-41368301D01*
X37172291Y-41307100D01*
X37168500Y-41276424D01*
X37168500Y-41241866D01*
X37161745Y-41179684D01*
X37110615Y-41043295D01*
X37023261Y-40926739D01*
X36906705Y-40839385D01*
X36770316Y-40788255D01*
X36708134Y-40781500D01*
X35111866Y-40781500D01*
X35049684Y-40788255D01*
X34913295Y-40839385D01*
X34796739Y-40926739D01*
X34709385Y-41043295D01*
X34658255Y-41179684D01*
X34651500Y-41241866D01*
X34651500Y-42838134D01*
X34658255Y-42900316D01*
X34709385Y-43036705D01*
X34796739Y-43153261D01*
X34913295Y-43240615D01*
X34921704Y-43243767D01*
X34921705Y-43243768D01*
X34952621Y-43255358D01*
X35009386Y-43297999D01*
X35034086Y-43364561D01*
X35018879Y-43433910D01*
X34968593Y-43484028D01*
X34908461Y-43499340D01*
X33817452Y-43499936D01*
X33749320Y-43479971D01*
X33702798Y-43426341D01*
X33691698Y-43382843D01*
X33308815Y-37979945D01*
X33308500Y-37971038D01*
X33308500Y-37850000D01*
X47366502Y-37850000D01*
X47386457Y-38078087D01*
X47387881Y-38083400D01*
X47387881Y-38083402D01*
X47442423Y-38286952D01*
X47445716Y-38299243D01*
X47448039Y-38304224D01*
X47448039Y-38304225D01*
X47540151Y-38501762D01*
X47540154Y-38501767D01*
X47542477Y-38506749D01*
X47599492Y-38588175D01*
X47656912Y-38670178D01*
X47673802Y-38694300D01*
X47835700Y-38856198D01*
X47840208Y-38859355D01*
X47840211Y-38859357D01*
X47881195Y-38888054D01*
X48023251Y-38987523D01*
X48028233Y-38989846D01*
X48028238Y-38989849D01*
X48117039Y-39031257D01*
X48230757Y-39084284D01*
X48236065Y-39085706D01*
X48236067Y-39085707D01*
X48446598Y-39142119D01*
X48446600Y-39142119D01*
X48451913Y-39143543D01*
X48680000Y-39163498D01*
X48908087Y-39143543D01*
X48913400Y-39142119D01*
X48913402Y-39142119D01*
X49123933Y-39085707D01*
X49123935Y-39085706D01*
X49129243Y-39084284D01*
X49242961Y-39031257D01*
X49331762Y-38989849D01*
X49331767Y-38989846D01*
X49336749Y-38987523D01*
X49478805Y-38888054D01*
X49519789Y-38859357D01*
X49519792Y-38859355D01*
X49524300Y-38856198D01*
X49686198Y-38694300D01*
X49703089Y-38670178D01*
X49760508Y-38588175D01*
X49817523Y-38506749D01*
X49819846Y-38501767D01*
X49819849Y-38501762D01*
X49911961Y-38304225D01*
X49911961Y-38304224D01*
X49914284Y-38299243D01*
X49917578Y-38286952D01*
X49972119Y-38083402D01*
X49972119Y-38083400D01*
X49973543Y-38078087D01*
X49974022Y-38072611D01*
X49974023Y-38072606D01*
X49982129Y-37979945D01*
X49988012Y-37912711D01*
X50013874Y-37846593D01*
X50071378Y-37804954D01*
X50142265Y-37801013D01*
X50202627Y-37834598D01*
X50454595Y-38086566D01*
X50488621Y-38148878D01*
X50491500Y-38175661D01*
X50491500Y-40083122D01*
X50471498Y-40151243D01*
X50437771Y-40186335D01*
X50360211Y-40240643D01*
X50360208Y-40240645D01*
X50355700Y-40243802D01*
X50193802Y-40405700D01*
X50190645Y-40410208D01*
X50190643Y-40410211D01*
X50137714Y-40485802D01*
X50062477Y-40593251D01*
X50060154Y-40598233D01*
X50060151Y-40598238D01*
X49971943Y-40787402D01*
X49965716Y-40800757D01*
X49964294Y-40806065D01*
X49964293Y-40806067D01*
X49925967Y-40949101D01*
X49906457Y-41021913D01*
X49886502Y-41250000D01*
X49906457Y-41478087D01*
X49907881Y-41483400D01*
X49907881Y-41483402D01*
X49939327Y-41600757D01*
X49965716Y-41699243D01*
X49968039Y-41704224D01*
X49968039Y-41704225D01*
X50060151Y-41901762D01*
X50060154Y-41901767D01*
X50062477Y-41906749D01*
X50131359Y-42005123D01*
X50155781Y-42040000D01*
X50193802Y-42094300D01*
X50355700Y-42256198D01*
X50360208Y-42259355D01*
X50360211Y-42259357D01*
X50438389Y-42314098D01*
X50543251Y-42387523D01*
X50548233Y-42389846D01*
X50548238Y-42389849D01*
X50735267Y-42477061D01*
X50750757Y-42484284D01*
X50756065Y-42485706D01*
X50756067Y-42485707D01*
X50966598Y-42542119D01*
X50966600Y-42542119D01*
X50971913Y-42543543D01*
X51200000Y-42563498D01*
X51428087Y-42543543D01*
X51433400Y-42542119D01*
X51433402Y-42542119D01*
X51643933Y-42485707D01*
X51643935Y-42485706D01*
X51649243Y-42484284D01*
X51664733Y-42477061D01*
X51851762Y-42389849D01*
X51851767Y-42389846D01*
X51856749Y-42387523D01*
X51961611Y-42314098D01*
X52039789Y-42259357D01*
X52039792Y-42259355D01*
X52044300Y-42256198D01*
X52206198Y-42094300D01*
X52244220Y-42040000D01*
X52268641Y-42005123D01*
X52337523Y-41906749D01*
X52339846Y-41901767D01*
X52339849Y-41901762D01*
X52431961Y-41704225D01*
X52431961Y-41704224D01*
X52434284Y-41699243D01*
X52460674Y-41600757D01*
X52492119Y-41483402D01*
X52492119Y-41483400D01*
X52493543Y-41478087D01*
X52496000Y-41450000D01*
X54926502Y-41450000D01*
X54946457Y-41678087D01*
X54947881Y-41683400D01*
X54947881Y-41683402D01*
X54960696Y-41731226D01*
X55005716Y-41899243D01*
X55008039Y-41904224D01*
X55008039Y-41904225D01*
X55100151Y-42101762D01*
X55100154Y-42101767D01*
X55102477Y-42106749D01*
X55105634Y-42111257D01*
X55222450Y-42278087D01*
X55233802Y-42294300D01*
X55395700Y-42456198D01*
X55400208Y-42459355D01*
X55400211Y-42459357D01*
X55410391Y-42466485D01*
X55583251Y-42587523D01*
X55588233Y-42589846D01*
X55588238Y-42589849D01*
X55767347Y-42673368D01*
X55790757Y-42684284D01*
X55796065Y-42685706D01*
X55796067Y-42685707D01*
X56006598Y-42742119D01*
X56006600Y-42742119D01*
X56011913Y-42743543D01*
X56240000Y-42763498D01*
X56468087Y-42743543D01*
X56473400Y-42742119D01*
X56473402Y-42742119D01*
X56683933Y-42685707D01*
X56683935Y-42685706D01*
X56689243Y-42684284D01*
X56712653Y-42673368D01*
X56891762Y-42589849D01*
X56891767Y-42589846D01*
X56896749Y-42587523D01*
X57069609Y-42466485D01*
X57079789Y-42459357D01*
X57079792Y-42459355D01*
X57084300Y-42456198D01*
X57246198Y-42294300D01*
X57257551Y-42278087D01*
X57374366Y-42111257D01*
X57377523Y-42106749D01*
X57379846Y-42101767D01*
X57379849Y-42101762D01*
X57471961Y-41904225D01*
X57471961Y-41904224D01*
X57474284Y-41899243D01*
X57519305Y-41731226D01*
X57532119Y-41683402D01*
X57532119Y-41683400D01*
X57533543Y-41678087D01*
X57553498Y-41450000D01*
X62546502Y-41450000D01*
X62566457Y-41678087D01*
X62567881Y-41683400D01*
X62567881Y-41683402D01*
X62580696Y-41731226D01*
X62625716Y-41899243D01*
X62628039Y-41904224D01*
X62628039Y-41904225D01*
X62720151Y-42101762D01*
X62720154Y-42101767D01*
X62722477Y-42106749D01*
X62725634Y-42111257D01*
X62842450Y-42278087D01*
X62853802Y-42294300D01*
X63015700Y-42456198D01*
X63020208Y-42459355D01*
X63020211Y-42459357D01*
X63030391Y-42466485D01*
X63203251Y-42587523D01*
X63208233Y-42589846D01*
X63208238Y-42589849D01*
X63387347Y-42673368D01*
X63410757Y-42684284D01*
X63416065Y-42685706D01*
X63416067Y-42685707D01*
X63626598Y-42742119D01*
X63626600Y-42742119D01*
X63631913Y-42743543D01*
X63860000Y-42763498D01*
X64088087Y-42743543D01*
X64093400Y-42742119D01*
X64093402Y-42742119D01*
X64303933Y-42685707D01*
X64303935Y-42685706D01*
X64309243Y-42684284D01*
X64332653Y-42673368D01*
X64511762Y-42589849D01*
X64511767Y-42589846D01*
X64516749Y-42587523D01*
X64689609Y-42466485D01*
X64699789Y-42459357D01*
X64699792Y-42459355D01*
X64704300Y-42456198D01*
X64866198Y-42294300D01*
X64877551Y-42278087D01*
X64994366Y-42111257D01*
X64997523Y-42106749D01*
X64999846Y-42101767D01*
X64999849Y-42101762D01*
X65091961Y-41904225D01*
X65091961Y-41904224D01*
X65094284Y-41899243D01*
X65139305Y-41731226D01*
X65152119Y-41683402D01*
X65152119Y-41683400D01*
X65153543Y-41678087D01*
X65165216Y-41544669D01*
X66492001Y-41544669D01*
X66492371Y-41551490D01*
X66497895Y-41602352D01*
X66501521Y-41617604D01*
X66546676Y-41738054D01*
X66555214Y-41753649D01*
X66631715Y-41855724D01*
X66644276Y-41868285D01*
X66746351Y-41944786D01*
X66761946Y-41953324D01*
X66882394Y-41998478D01*
X66897649Y-42002105D01*
X66948514Y-42007631D01*
X66955328Y-42008000D01*
X67477885Y-42008000D01*
X67493124Y-42003525D01*
X67494329Y-42002135D01*
X67496000Y-41994452D01*
X67496000Y-41989884D01*
X68004000Y-41989884D01*
X68008475Y-42005123D01*
X68009865Y-42006328D01*
X68017548Y-42007999D01*
X68544669Y-42007999D01*
X68551490Y-42007629D01*
X68602352Y-42002105D01*
X68617604Y-41998479D01*
X68738054Y-41953324D01*
X68753649Y-41944786D01*
X68855724Y-41868285D01*
X68868285Y-41855724D01*
X68944786Y-41753649D01*
X68953324Y-41738054D01*
X68998478Y-41617606D01*
X69002105Y-41602351D01*
X69007631Y-41551486D01*
X69008000Y-41544672D01*
X69008000Y-41022115D01*
X69003525Y-41006876D01*
X69002135Y-41005671D01*
X68994452Y-41004000D01*
X68022115Y-41004000D01*
X68006876Y-41008475D01*
X68005671Y-41009865D01*
X68004000Y-41017548D01*
X68004000Y-41989884D01*
X67496000Y-41989884D01*
X67496000Y-41022115D01*
X67491525Y-41006876D01*
X67490135Y-41005671D01*
X67482452Y-41004000D01*
X66510116Y-41004000D01*
X66494877Y-41008475D01*
X66493672Y-41009865D01*
X66492001Y-41017548D01*
X66492001Y-41544669D01*
X65165216Y-41544669D01*
X65173498Y-41450000D01*
X65153543Y-41221913D01*
X65152119Y-41216598D01*
X65095707Y-41006067D01*
X65095706Y-41006065D01*
X65094284Y-41000757D01*
X65068807Y-40946121D01*
X64999849Y-40798238D01*
X64999846Y-40798233D01*
X64997523Y-40793251D01*
X64885623Y-40633442D01*
X64869357Y-40610211D01*
X64869355Y-40610208D01*
X64866198Y-40605700D01*
X64704300Y-40443802D01*
X64699792Y-40440645D01*
X64699789Y-40440643D01*
X64581949Y-40358131D01*
X64516749Y-40312477D01*
X64511767Y-40310154D01*
X64511762Y-40310151D01*
X64314225Y-40218039D01*
X64314224Y-40218039D01*
X64309243Y-40215716D01*
X64303935Y-40214294D01*
X64303933Y-40214293D01*
X64093402Y-40157881D01*
X64093400Y-40157881D01*
X64088087Y-40156457D01*
X63860000Y-40136502D01*
X63631913Y-40156457D01*
X63626600Y-40157881D01*
X63626598Y-40157881D01*
X63416067Y-40214293D01*
X63416065Y-40214294D01*
X63410757Y-40215716D01*
X63405776Y-40218039D01*
X63405775Y-40218039D01*
X63208238Y-40310151D01*
X63208233Y-40310154D01*
X63203251Y-40312477D01*
X63138051Y-40358131D01*
X63020211Y-40440643D01*
X63020208Y-40440645D01*
X63015700Y-40443802D01*
X62853802Y-40605700D01*
X62850645Y-40610208D01*
X62850643Y-40610211D01*
X62834377Y-40633442D01*
X62722477Y-40793251D01*
X62720154Y-40798233D01*
X62720151Y-40798238D01*
X62651193Y-40946121D01*
X62625716Y-41000757D01*
X62624294Y-41006065D01*
X62624293Y-41006067D01*
X62567881Y-41216598D01*
X62566457Y-41221913D01*
X62546502Y-41450000D01*
X57553498Y-41450000D01*
X57533543Y-41221913D01*
X57532119Y-41216598D01*
X57475707Y-41006067D01*
X57475706Y-41006065D01*
X57474284Y-41000757D01*
X57448807Y-40946121D01*
X57379849Y-40798238D01*
X57379846Y-40798233D01*
X57377523Y-40793251D01*
X57265623Y-40633442D01*
X57249357Y-40610211D01*
X57249355Y-40610208D01*
X57246198Y-40605700D01*
X57084300Y-40443802D01*
X57079792Y-40440645D01*
X57079789Y-40440643D01*
X56961949Y-40358131D01*
X56896749Y-40312477D01*
X56891767Y-40310154D01*
X56891762Y-40310151D01*
X56694225Y-40218039D01*
X56694224Y-40218039D01*
X56689243Y-40215716D01*
X56683935Y-40214294D01*
X56683933Y-40214293D01*
X56473402Y-40157881D01*
X56473400Y-40157881D01*
X56468087Y-40156457D01*
X56240000Y-40136502D01*
X56011913Y-40156457D01*
X56006600Y-40157881D01*
X56006598Y-40157881D01*
X55796067Y-40214293D01*
X55796065Y-40214294D01*
X55790757Y-40215716D01*
X55785776Y-40218039D01*
X55785775Y-40218039D01*
X55588238Y-40310151D01*
X55588233Y-40310154D01*
X55583251Y-40312477D01*
X55518051Y-40358131D01*
X55400211Y-40440643D01*
X55400208Y-40440645D01*
X55395700Y-40443802D01*
X55233802Y-40605700D01*
X55230645Y-40610208D01*
X55230643Y-40610211D01*
X55214377Y-40633442D01*
X55102477Y-40793251D01*
X55100154Y-40798233D01*
X55100151Y-40798238D01*
X55031193Y-40946121D01*
X55005716Y-41000757D01*
X55004294Y-41006065D01*
X55004293Y-41006067D01*
X54947881Y-41216598D01*
X54946457Y-41221913D01*
X54926502Y-41450000D01*
X52496000Y-41450000D01*
X52513498Y-41250000D01*
X52493543Y-41021913D01*
X52474033Y-40949101D01*
X52435707Y-40806067D01*
X52435706Y-40806065D01*
X52434284Y-40800757D01*
X52428057Y-40787402D01*
X52339849Y-40598238D01*
X52339846Y-40598233D01*
X52337523Y-40593251D01*
X52262286Y-40485802D01*
X52209357Y-40410211D01*
X52209355Y-40410208D01*
X52206198Y-40405700D01*
X52044300Y-40243802D01*
X52039792Y-40240645D01*
X52039789Y-40240643D01*
X51962229Y-40186335D01*
X51917901Y-40130878D01*
X51908500Y-40083122D01*
X51908500Y-38694669D01*
X54992001Y-38694669D01*
X54992371Y-38701490D01*
X54997895Y-38752352D01*
X55001521Y-38767604D01*
X55046676Y-38888054D01*
X55055214Y-38903649D01*
X55131715Y-39005724D01*
X55144276Y-39018285D01*
X55246351Y-39094786D01*
X55261946Y-39103324D01*
X55382394Y-39148478D01*
X55397649Y-39152105D01*
X55448514Y-39157631D01*
X55455328Y-39158000D01*
X56027885Y-39158000D01*
X56043124Y-39153525D01*
X56044329Y-39152135D01*
X56046000Y-39144452D01*
X56046000Y-39139884D01*
X56554000Y-39139884D01*
X56558475Y-39155123D01*
X56559865Y-39156328D01*
X56567548Y-39157999D01*
X57144669Y-39157999D01*
X57151490Y-39157629D01*
X57202352Y-39152105D01*
X57217604Y-39148479D01*
X57338054Y-39103324D01*
X57353649Y-39094786D01*
X57455724Y-39018285D01*
X57468285Y-39005724D01*
X57544786Y-38903649D01*
X57553324Y-38888054D01*
X57598478Y-38767606D01*
X57602105Y-38752351D01*
X57607631Y-38701486D01*
X57608000Y-38694672D01*
X57608000Y-38210000D01*
X66486693Y-38210000D01*
X66505885Y-38429371D01*
X66562880Y-38642076D01*
X66587406Y-38694672D01*
X66653618Y-38836666D01*
X66653621Y-38836671D01*
X66655944Y-38841653D01*
X66659100Y-38846160D01*
X66659101Y-38846162D01*
X66778999Y-39017393D01*
X66782251Y-39022038D01*
X66937962Y-39177749D01*
X66942471Y-39180906D01*
X66942473Y-39180908D01*
X66990162Y-39214300D01*
X67059409Y-39262787D01*
X67059410Y-39262788D01*
X67103738Y-39318245D01*
X67111047Y-39388865D01*
X67079016Y-39452225D01*
X67017815Y-39488210D01*
X66987139Y-39492001D01*
X66955331Y-39492001D01*
X66948510Y-39492371D01*
X66897648Y-39497895D01*
X66882396Y-39501521D01*
X66761946Y-39546676D01*
X66746351Y-39555214D01*
X66644276Y-39631715D01*
X66631715Y-39644276D01*
X66555214Y-39746351D01*
X66546676Y-39761946D01*
X66501522Y-39882394D01*
X66497895Y-39897649D01*
X66492369Y-39948514D01*
X66492000Y-39955328D01*
X66492000Y-40477885D01*
X66496475Y-40493124D01*
X66497865Y-40494329D01*
X66505548Y-40496000D01*
X68989884Y-40496000D01*
X69005123Y-40491525D01*
X69006328Y-40490135D01*
X69007999Y-40482452D01*
X69007999Y-39955331D01*
X69007629Y-39948510D01*
X69002105Y-39897648D01*
X68998479Y-39882396D01*
X68953324Y-39761946D01*
X68944786Y-39746351D01*
X68868285Y-39644276D01*
X68855724Y-39631715D01*
X68753649Y-39555214D01*
X68738054Y-39546676D01*
X68617606Y-39501522D01*
X68602351Y-39497895D01*
X68551486Y-39492369D01*
X68544672Y-39492000D01*
X68512863Y-39492000D01*
X68444742Y-39471998D01*
X68398249Y-39418342D01*
X68388145Y-39348068D01*
X68417639Y-39283488D01*
X68440592Y-39262787D01*
X68557527Y-39180908D01*
X68557529Y-39180906D01*
X68562038Y-39177749D01*
X68717749Y-39022038D01*
X68721002Y-39017393D01*
X68840899Y-38846162D01*
X68840900Y-38846160D01*
X68844056Y-38841653D01*
X68846379Y-38836671D01*
X68846382Y-38836666D01*
X68912594Y-38694672D01*
X68937120Y-38642076D01*
X68994115Y-38429371D01*
X69013307Y-38210000D01*
X68994115Y-37990629D01*
X68937120Y-37777924D01*
X68882823Y-37661483D01*
X68846382Y-37583334D01*
X68846379Y-37583329D01*
X68844056Y-37578347D01*
X68832739Y-37562184D01*
X68720908Y-37402473D01*
X68720906Y-37402470D01*
X68717749Y-37397962D01*
X68562038Y-37242251D01*
X68548080Y-37232477D01*
X68454966Y-37167278D01*
X68381654Y-37115944D01*
X68376672Y-37113621D01*
X68376667Y-37113618D01*
X68249232Y-37054195D01*
X68195947Y-37007278D01*
X68176486Y-36939001D01*
X68197028Y-36871041D01*
X68249232Y-36825805D01*
X68376667Y-36766382D01*
X68376672Y-36766379D01*
X68381654Y-36764056D01*
X68497066Y-36683243D01*
X68557527Y-36640908D01*
X68557529Y-36640906D01*
X68562038Y-36637749D01*
X68717749Y-36482038D01*
X68721002Y-36477393D01*
X68840899Y-36306162D01*
X68840900Y-36306160D01*
X68844056Y-36301653D01*
X68846379Y-36296671D01*
X68846382Y-36296666D01*
X68901552Y-36178352D01*
X68937120Y-36102076D01*
X68994115Y-35889371D01*
X69013307Y-35670000D01*
X68994115Y-35450629D01*
X68937120Y-35237924D01*
X68890397Y-35137726D01*
X68846382Y-35043334D01*
X68846379Y-35043329D01*
X68844056Y-35038347D01*
X68840899Y-35033838D01*
X68720908Y-34862473D01*
X68720906Y-34862470D01*
X68717749Y-34857962D01*
X68562038Y-34702251D01*
X68548080Y-34692477D01*
X68469597Y-34637523D01*
X68381654Y-34575944D01*
X68182076Y-34482880D01*
X67969371Y-34425885D01*
X67750000Y-34406693D01*
X67530629Y-34425885D01*
X67317924Y-34482880D01*
X67261144Y-34509357D01*
X67123334Y-34573618D01*
X67123329Y-34573621D01*
X67118347Y-34575944D01*
X67113840Y-34579100D01*
X67113838Y-34579101D01*
X66942473Y-34699092D01*
X66942470Y-34699094D01*
X66937962Y-34702251D01*
X66782251Y-34857962D01*
X66779094Y-34862470D01*
X66779092Y-34862473D01*
X66659101Y-35033838D01*
X66655944Y-35038347D01*
X66653621Y-35043329D01*
X66653618Y-35043334D01*
X66609603Y-35137726D01*
X66562880Y-35237924D01*
X66505885Y-35450629D01*
X66486693Y-35670000D01*
X66505885Y-35889371D01*
X66562880Y-36102076D01*
X66598448Y-36178352D01*
X66653618Y-36296666D01*
X66653621Y-36296671D01*
X66655944Y-36301653D01*
X66659100Y-36306160D01*
X66659101Y-36306162D01*
X66778999Y-36477393D01*
X66782251Y-36482038D01*
X66937962Y-36637749D01*
X66942471Y-36640906D01*
X66942473Y-36640908D01*
X67002934Y-36683243D01*
X67118346Y-36764056D01*
X67123328Y-36766379D01*
X67123333Y-36766382D01*
X67250768Y-36825805D01*
X67304053Y-36872722D01*
X67323514Y-36940999D01*
X67302972Y-37008959D01*
X67250768Y-37054195D01*
X67123334Y-37113618D01*
X67123329Y-37113621D01*
X67118347Y-37115944D01*
X67113840Y-37119100D01*
X67113838Y-37119101D01*
X66942473Y-37239092D01*
X66942470Y-37239094D01*
X66937962Y-37242251D01*
X66782251Y-37397962D01*
X66779094Y-37402470D01*
X66779092Y-37402473D01*
X66667261Y-37562184D01*
X66655944Y-37578347D01*
X66653621Y-37583329D01*
X66653618Y-37583334D01*
X66617177Y-37661483D01*
X66562880Y-37777924D01*
X66505885Y-37990629D01*
X66486693Y-38210000D01*
X57608000Y-38210000D01*
X57608000Y-38122115D01*
X57603525Y-38106876D01*
X57602135Y-38105671D01*
X57594452Y-38104000D01*
X56572115Y-38104000D01*
X56556876Y-38108475D01*
X56555671Y-38109865D01*
X56554000Y-38117548D01*
X56554000Y-39139884D01*
X56046000Y-39139884D01*
X56046000Y-38122115D01*
X56041525Y-38106876D01*
X56040135Y-38105671D01*
X56032452Y-38104000D01*
X55010116Y-38104000D01*
X54994877Y-38108475D01*
X54993672Y-38109865D01*
X54992001Y-38117548D01*
X54992001Y-38694669D01*
X51908500Y-38694669D01*
X51908500Y-37858912D01*
X51908792Y-37850342D01*
X51912209Y-37800224D01*
X51912209Y-37800220D01*
X51912725Y-37792648D01*
X51901738Y-37729697D01*
X51900776Y-37723175D01*
X51900179Y-37718238D01*
X51893102Y-37659758D01*
X51890419Y-37652657D01*
X51889778Y-37650048D01*
X51885315Y-37633738D01*
X51884550Y-37631202D01*
X51883243Y-37623716D01*
X51857556Y-37565200D01*
X51855065Y-37559096D01*
X51835173Y-37506452D01*
X51835172Y-37506451D01*
X51832487Y-37499344D01*
X51828183Y-37493081D01*
X51826946Y-37490715D01*
X51818701Y-37475903D01*
X51817368Y-37473649D01*
X51814315Y-37466695D01*
X51775413Y-37415998D01*
X51771541Y-37410668D01*
X51739661Y-37364280D01*
X51739656Y-37364275D01*
X51735357Y-37358019D01*
X51728335Y-37351762D01*
X51688830Y-37316565D01*
X51683554Y-37311584D01*
X50471970Y-36100000D01*
X51736496Y-36100000D01*
X51737186Y-36106565D01*
X51755616Y-36281913D01*
X51756458Y-36289928D01*
X51815473Y-36471556D01*
X51818776Y-36477278D01*
X51818777Y-36477279D01*
X51823643Y-36485707D01*
X51910960Y-36636944D01*
X51915378Y-36641851D01*
X51915379Y-36641852D01*
X51975389Y-36708500D01*
X52038747Y-36778866D01*
X52193248Y-36891118D01*
X52199276Y-36893802D01*
X52199278Y-36893803D01*
X52361178Y-36965885D01*
X52367712Y-36968794D01*
X52442680Y-36984729D01*
X52548056Y-37007128D01*
X52548061Y-37007128D01*
X52554513Y-37008500D01*
X52745487Y-37008500D01*
X52751939Y-37007128D01*
X52751944Y-37007128D01*
X52857320Y-36984729D01*
X52932288Y-36968794D01*
X52938822Y-36965885D01*
X53100722Y-36893803D01*
X53100724Y-36893802D01*
X53106752Y-36891118D01*
X53261253Y-36778866D01*
X53324611Y-36708500D01*
X53384621Y-36641852D01*
X53384622Y-36641851D01*
X53389040Y-36636944D01*
X53476357Y-36485707D01*
X53481223Y-36477279D01*
X53481224Y-36477278D01*
X53484527Y-36471556D01*
X53543542Y-36289928D01*
X53544385Y-36281913D01*
X53562814Y-36106565D01*
X53563504Y-36100000D01*
X53548975Y-35961762D01*
X53544232Y-35916635D01*
X53544232Y-35916633D01*
X53543542Y-35910072D01*
X53484527Y-35728444D01*
X53466777Y-35697699D01*
X53392342Y-35568775D01*
X53392341Y-35568774D01*
X53389040Y-35563056D01*
X53384621Y-35558148D01*
X53382564Y-35555317D01*
X53358705Y-35488449D01*
X53358500Y-35481256D01*
X53358500Y-35310000D01*
X54986502Y-35310000D01*
X55006457Y-35538087D01*
X55007881Y-35543400D01*
X55007881Y-35543402D01*
X55047335Y-35690643D01*
X55065716Y-35759243D01*
X55068039Y-35764224D01*
X55068039Y-35764225D01*
X55160151Y-35961762D01*
X55160154Y-35961767D01*
X55162477Y-35966749D01*
X55217812Y-36045775D01*
X55271014Y-36121755D01*
X55293802Y-36154300D01*
X55455700Y-36316198D01*
X55460211Y-36319357D01*
X55464424Y-36322892D01*
X55463612Y-36323860D01*
X55504090Y-36374494D01*
X55511404Y-36445113D01*
X55479376Y-36508476D01*
X55418177Y-36544464D01*
X55401099Y-36547520D01*
X55397648Y-36547895D01*
X55382396Y-36551521D01*
X55261946Y-36596676D01*
X55246351Y-36605214D01*
X55144276Y-36681715D01*
X55131715Y-36694276D01*
X55055214Y-36796351D01*
X55046676Y-36811946D01*
X55001522Y-36932394D01*
X54997895Y-36947649D01*
X54992369Y-36998514D01*
X54992000Y-37005328D01*
X54992000Y-37577885D01*
X54996475Y-37593124D01*
X54997865Y-37594329D01*
X55005548Y-37596000D01*
X57589884Y-37596000D01*
X57605123Y-37591525D01*
X57606328Y-37590135D01*
X57607999Y-37582452D01*
X57607999Y-37005331D01*
X57607629Y-36998510D01*
X57602105Y-36947648D01*
X57598479Y-36932396D01*
X57553324Y-36811946D01*
X57544786Y-36796351D01*
X57468285Y-36694276D01*
X57455724Y-36681715D01*
X57353649Y-36605214D01*
X57338054Y-36596676D01*
X57217606Y-36551522D01*
X57202357Y-36547896D01*
X57198904Y-36547521D01*
X57196394Y-36546478D01*
X57194669Y-36546068D01*
X57194735Y-36545789D01*
X57133341Y-36520281D01*
X57092912Y-36461920D01*
X57090454Y-36390966D01*
X57126747Y-36329946D01*
X57138240Y-36320656D01*
X57139788Y-36319357D01*
X57144300Y-36316198D01*
X57306198Y-36154300D01*
X57328987Y-36121755D01*
X57382188Y-36045775D01*
X57437523Y-35966749D01*
X57439847Y-35961764D01*
X57439851Y-35961758D01*
X57524794Y-35779595D01*
X57571711Y-35726309D01*
X57639988Y-35706848D01*
X57707948Y-35727390D01*
X57753184Y-35779594D01*
X57810151Y-35901762D01*
X57810154Y-35901767D01*
X57812477Y-35906749D01*
X57873175Y-35993435D01*
X57938162Y-36086245D01*
X57943802Y-36094300D01*
X58105700Y-36256198D01*
X58110208Y-36259355D01*
X58110211Y-36259357D01*
X58150251Y-36287393D01*
X58293251Y-36387523D01*
X58298233Y-36389846D01*
X58298238Y-36389849D01*
X58495775Y-36481961D01*
X58500757Y-36484284D01*
X58506065Y-36485706D01*
X58506067Y-36485707D01*
X58716598Y-36542119D01*
X58716600Y-36542119D01*
X58721913Y-36543543D01*
X58950000Y-36563498D01*
X59178087Y-36543543D01*
X59183400Y-36542119D01*
X59183402Y-36542119D01*
X59393933Y-36485707D01*
X59393935Y-36485706D01*
X59399243Y-36484284D01*
X59404225Y-36481961D01*
X59601762Y-36389849D01*
X59601767Y-36389846D01*
X59606749Y-36387523D01*
X59749749Y-36287393D01*
X59789789Y-36259357D01*
X59789792Y-36259355D01*
X59794300Y-36256198D01*
X59956198Y-36094300D01*
X59961839Y-36086245D01*
X60026825Y-35993435D01*
X60087523Y-35906749D01*
X60089846Y-35901767D01*
X60089849Y-35901762D01*
X60181961Y-35704225D01*
X60181961Y-35704224D01*
X60184284Y-35699243D01*
X60186589Y-35690643D01*
X60242119Y-35483402D01*
X60242119Y-35483400D01*
X60243543Y-35478087D01*
X60263498Y-35250000D01*
X62636502Y-35250000D01*
X62656457Y-35478087D01*
X62657881Y-35483400D01*
X62657881Y-35483402D01*
X62713412Y-35690643D01*
X62715716Y-35699243D01*
X62718039Y-35704224D01*
X62718039Y-35704225D01*
X62810151Y-35901762D01*
X62810154Y-35901767D01*
X62812477Y-35906749D01*
X62873175Y-35993435D01*
X62938162Y-36086245D01*
X62943802Y-36094300D01*
X63105700Y-36256198D01*
X63110208Y-36259355D01*
X63110211Y-36259357D01*
X63150251Y-36287393D01*
X63293251Y-36387523D01*
X63298233Y-36389846D01*
X63298238Y-36389849D01*
X63495775Y-36481961D01*
X63500757Y-36484284D01*
X63506065Y-36485706D01*
X63506067Y-36485707D01*
X63716598Y-36542119D01*
X63716600Y-36542119D01*
X63721913Y-36543543D01*
X63950000Y-36563498D01*
X64178087Y-36543543D01*
X64183400Y-36542119D01*
X64183402Y-36542119D01*
X64393933Y-36485707D01*
X64393935Y-36485706D01*
X64399243Y-36484284D01*
X64404225Y-36481961D01*
X64601762Y-36389849D01*
X64601767Y-36389846D01*
X64606749Y-36387523D01*
X64749749Y-36287393D01*
X64789789Y-36259357D01*
X64789792Y-36259355D01*
X64794300Y-36256198D01*
X64956198Y-36094300D01*
X64961839Y-36086245D01*
X65026825Y-35993435D01*
X65087523Y-35906749D01*
X65089846Y-35901767D01*
X65089849Y-35901762D01*
X65181961Y-35704225D01*
X65181961Y-35704224D01*
X65184284Y-35699243D01*
X65186589Y-35690643D01*
X65242119Y-35483402D01*
X65242119Y-35483400D01*
X65243543Y-35478087D01*
X65263498Y-35250000D01*
X65243543Y-35021913D01*
X65235123Y-34990488D01*
X65185707Y-34806067D01*
X65185706Y-34806065D01*
X65184284Y-34800757D01*
X65181961Y-34795775D01*
X65089849Y-34598238D01*
X65089846Y-34598233D01*
X65087523Y-34593251D01*
X64984280Y-34445805D01*
X64959357Y-34410211D01*
X64959355Y-34410208D01*
X64956198Y-34405700D01*
X64794300Y-34243802D01*
X64789792Y-34240645D01*
X64789789Y-34240643D01*
X64689116Y-34170151D01*
X64606749Y-34112477D01*
X64601767Y-34110154D01*
X64601762Y-34110151D01*
X64404225Y-34018039D01*
X64404224Y-34018039D01*
X64399243Y-34015716D01*
X64393935Y-34014294D01*
X64393933Y-34014293D01*
X64183402Y-33957881D01*
X64183400Y-33957881D01*
X64178087Y-33956457D01*
X63950000Y-33936502D01*
X63721913Y-33956457D01*
X63716600Y-33957881D01*
X63716598Y-33957881D01*
X63506067Y-34014293D01*
X63506065Y-34014294D01*
X63500757Y-34015716D01*
X63495776Y-34018039D01*
X63495775Y-34018039D01*
X63298238Y-34110151D01*
X63298233Y-34110154D01*
X63293251Y-34112477D01*
X63210884Y-34170151D01*
X63110211Y-34240643D01*
X63110208Y-34240645D01*
X63105700Y-34243802D01*
X62943802Y-34405700D01*
X62940645Y-34410208D01*
X62940643Y-34410211D01*
X62915720Y-34445805D01*
X62812477Y-34593251D01*
X62810154Y-34598233D01*
X62810151Y-34598238D01*
X62718039Y-34795775D01*
X62715716Y-34800757D01*
X62714294Y-34806065D01*
X62714293Y-34806067D01*
X62664877Y-34990488D01*
X62656457Y-35021913D01*
X62636502Y-35250000D01*
X60263498Y-35250000D01*
X60243543Y-35021913D01*
X60235123Y-34990488D01*
X60185707Y-34806067D01*
X60185706Y-34806065D01*
X60184284Y-34800757D01*
X60181961Y-34795775D01*
X60089849Y-34598238D01*
X60089846Y-34598233D01*
X60087523Y-34593251D01*
X59984280Y-34445805D01*
X59959357Y-34410211D01*
X59959355Y-34410208D01*
X59956198Y-34405700D01*
X59794300Y-34243802D01*
X59789792Y-34240645D01*
X59789789Y-34240643D01*
X59689116Y-34170151D01*
X59606749Y-34112477D01*
X59601761Y-34110151D01*
X59601758Y-34110149D01*
X59548424Y-34085280D01*
X59495139Y-34038364D01*
X59475677Y-33970087D01*
X59496218Y-33902127D01*
X59550240Y-33856060D01*
X59590691Y-33845565D01*
X59722595Y-33834024D01*
X59722601Y-33834023D01*
X59728087Y-33833543D01*
X59733400Y-33832119D01*
X59733402Y-33832119D01*
X59943933Y-33775707D01*
X59943935Y-33775706D01*
X59949243Y-33774284D01*
X59954225Y-33771961D01*
X60151762Y-33679849D01*
X60151767Y-33679846D01*
X60156749Y-33677523D01*
X60308988Y-33570924D01*
X60339789Y-33549357D01*
X60339792Y-33549355D01*
X60344300Y-33546198D01*
X60506198Y-33384300D01*
X60509711Y-33379284D01*
X60569823Y-33293435D01*
X60637523Y-33196749D01*
X60639846Y-33191767D01*
X60639849Y-33191762D01*
X60731961Y-32994225D01*
X60731961Y-32994224D01*
X60734284Y-32989243D01*
X60742324Y-32959240D01*
X60792119Y-32773402D01*
X60792119Y-32773400D01*
X60793543Y-32768087D01*
X60813498Y-32540000D01*
X60793543Y-32311913D01*
X60781787Y-32268039D01*
X60748819Y-32145000D01*
X61086502Y-32145000D01*
X61106457Y-32373087D01*
X61107881Y-32378400D01*
X61107881Y-32378402D01*
X61152649Y-32545475D01*
X61165716Y-32594243D01*
X61168039Y-32599224D01*
X61168039Y-32599225D01*
X61260151Y-32796762D01*
X61260154Y-32796767D01*
X61262477Y-32801749D01*
X61288036Y-32838251D01*
X61372754Y-32959240D01*
X61393802Y-32989300D01*
X61555700Y-33151198D01*
X61560208Y-33154355D01*
X61560211Y-33154357D01*
X61620753Y-33196749D01*
X61743251Y-33282523D01*
X61748233Y-33284846D01*
X61748238Y-33284849D01*
X61939138Y-33373866D01*
X61950757Y-33379284D01*
X61956065Y-33380706D01*
X61956067Y-33380707D01*
X62166598Y-33437119D01*
X62166600Y-33437119D01*
X62171913Y-33438543D01*
X62400000Y-33458498D01*
X62628087Y-33438543D01*
X62633400Y-33437119D01*
X62633402Y-33437119D01*
X62843933Y-33380707D01*
X62843935Y-33380706D01*
X62849243Y-33379284D01*
X62860862Y-33373866D01*
X63051762Y-33284849D01*
X63051767Y-33284846D01*
X63056749Y-33282523D01*
X63179247Y-33196749D01*
X63239789Y-33154357D01*
X63239792Y-33154355D01*
X63244300Y-33151198D01*
X63406198Y-32989300D01*
X63427247Y-32959240D01*
X63511964Y-32838251D01*
X63537523Y-32801749D01*
X63539846Y-32796767D01*
X63539849Y-32796762D01*
X63631961Y-32599225D01*
X63631961Y-32599224D01*
X63634284Y-32594243D01*
X63647352Y-32545475D01*
X63666052Y-32475686D01*
X66386502Y-32475686D01*
X66406457Y-32703773D01*
X66407881Y-32709086D01*
X66407881Y-32709088D01*
X66445167Y-32848238D01*
X66465716Y-32924929D01*
X66468039Y-32929910D01*
X66468039Y-32929911D01*
X66560151Y-33127448D01*
X66560154Y-33127453D01*
X66562477Y-33132435D01*
X66619543Y-33213933D01*
X66675211Y-33293435D01*
X66693802Y-33319986D01*
X66855700Y-33481884D01*
X66860208Y-33485041D01*
X66860211Y-33485043D01*
X66896458Y-33510423D01*
X67043251Y-33613209D01*
X67048233Y-33615532D01*
X67048238Y-33615535D01*
X67199194Y-33685926D01*
X67250757Y-33709970D01*
X67256065Y-33711392D01*
X67256067Y-33711393D01*
X67466598Y-33767805D01*
X67466600Y-33767805D01*
X67471913Y-33769229D01*
X67700000Y-33789184D01*
X67928087Y-33769229D01*
X67933400Y-33767805D01*
X67933402Y-33767805D01*
X68143933Y-33711393D01*
X68143935Y-33711392D01*
X68149243Y-33709970D01*
X68200806Y-33685926D01*
X68351762Y-33615535D01*
X68351767Y-33615532D01*
X68356749Y-33613209D01*
X68503542Y-33510423D01*
X68539789Y-33485043D01*
X68539792Y-33485041D01*
X68544300Y-33481884D01*
X68706198Y-33319986D01*
X68723435Y-33295369D01*
X68763665Y-33237915D01*
X68819122Y-33193587D01*
X68866878Y-33184186D01*
X69246774Y-33184186D01*
X69255344Y-33184478D01*
X69305462Y-33187895D01*
X69305466Y-33187895D01*
X69313038Y-33188411D01*
X69320515Y-33187106D01*
X69320516Y-33187106D01*
X69346994Y-33182485D01*
X69375989Y-33177424D01*
X69382507Y-33176463D01*
X69445928Y-33168788D01*
X69453029Y-33166105D01*
X69455638Y-33165464D01*
X69471948Y-33161001D01*
X69474484Y-33160236D01*
X69481970Y-33158929D01*
X69540486Y-33133242D01*
X69546590Y-33130751D01*
X69551206Y-33129007D01*
X69606342Y-33108173D01*
X69612605Y-33103869D01*
X69614971Y-33102632D01*
X69629783Y-33094387D01*
X69632037Y-33093054D01*
X69638991Y-33090001D01*
X69689688Y-33051099D01*
X69695018Y-33047227D01*
X69741406Y-33015347D01*
X69741411Y-33015342D01*
X69747667Y-33011043D01*
X69753402Y-33004607D01*
X69789121Y-32964516D01*
X69794102Y-32959240D01*
X70030520Y-32722822D01*
X70036785Y-32716968D01*
X70045818Y-32709088D01*
X70080385Y-32678933D01*
X70117114Y-32626672D01*
X70121046Y-32621377D01*
X70134757Y-32603891D01*
X70160477Y-32571090D01*
X70163602Y-32564168D01*
X70164964Y-32561920D01*
X70173368Y-32547187D01*
X70174622Y-32544848D01*
X70178990Y-32538633D01*
X70181749Y-32531557D01*
X70181751Y-32531553D01*
X70202202Y-32479098D01*
X70204758Y-32473018D01*
X70206025Y-32470211D01*
X70231045Y-32414798D01*
X70232429Y-32407327D01*
X70233230Y-32404773D01*
X70237867Y-32388494D01*
X70238523Y-32385939D01*
X70241282Y-32378863D01*
X70246504Y-32339195D01*
X70249621Y-32315521D01*
X70250653Y-32309005D01*
X70260912Y-32253652D01*
X70262296Y-32246185D01*
X70258709Y-32183974D01*
X70258500Y-32176721D01*
X70258500Y-27368744D01*
X70278502Y-27300623D01*
X70282564Y-27294683D01*
X70284621Y-27291852D01*
X70289040Y-27286944D01*
X70312774Y-27245835D01*
X70381223Y-27127279D01*
X70381224Y-27127278D01*
X70384527Y-27121556D01*
X70443542Y-26939928D01*
X70447478Y-26902485D01*
X70462814Y-26756565D01*
X70463504Y-26750000D01*
X96786496Y-26750000D01*
X96787186Y-26756565D01*
X96802523Y-26902485D01*
X96806458Y-26939928D01*
X96865473Y-27121556D01*
X96868776Y-27127278D01*
X96868777Y-27127279D01*
X96871776Y-27132473D01*
X96960960Y-27286944D01*
X96965378Y-27291851D01*
X96965379Y-27291852D01*
X96989634Y-27318790D01*
X97088747Y-27428866D01*
X97243248Y-27541118D01*
X97249276Y-27543802D01*
X97249278Y-27543803D01*
X97408155Y-27614539D01*
X97417712Y-27618794D01*
X97511112Y-27638647D01*
X97598056Y-27657128D01*
X97598061Y-27657128D01*
X97604513Y-27658500D01*
X97795487Y-27658500D01*
X97801939Y-27657128D01*
X97801944Y-27657128D01*
X97888887Y-27638647D01*
X97982288Y-27618794D01*
X97991845Y-27614539D01*
X98150722Y-27543803D01*
X98150724Y-27543802D01*
X98156752Y-27541118D01*
X98195130Y-27513235D01*
X98237344Y-27482564D01*
X98304211Y-27458706D01*
X98311405Y-27458500D01*
X99354340Y-27458500D01*
X99422461Y-27478502D01*
X99443435Y-27495405D01*
X99606171Y-27658141D01*
X99640197Y-27720453D01*
X99642597Y-27758214D01*
X99626693Y-27940000D01*
X99645885Y-28159371D01*
X99702880Y-28372076D01*
X99722564Y-28414288D01*
X99793618Y-28566666D01*
X99793621Y-28566671D01*
X99795944Y-28571653D01*
X99799100Y-28576160D01*
X99799101Y-28576162D01*
X99916303Y-28743543D01*
X99922251Y-28752038D01*
X100077962Y-28907749D01*
X100082471Y-28910906D01*
X100082473Y-28910908D01*
X100142927Y-28953238D01*
X100258346Y-29034056D01*
X100457924Y-29127120D01*
X100670629Y-29184115D01*
X100890000Y-29203307D01*
X101109371Y-29184115D01*
X101322076Y-29127120D01*
X101521654Y-29034056D01*
X101637073Y-28953238D01*
X101697527Y-28910908D01*
X101697529Y-28910906D01*
X101702038Y-28907749D01*
X101857749Y-28752038D01*
X101863698Y-28743543D01*
X101980899Y-28576162D01*
X101980900Y-28576160D01*
X101984056Y-28571653D01*
X101986379Y-28566671D01*
X101986382Y-28566666D01*
X102057436Y-28414288D01*
X102077120Y-28372076D01*
X102134115Y-28159371D01*
X102139309Y-28100000D01*
X103686502Y-28100000D01*
X103706457Y-28328087D01*
X103707881Y-28333400D01*
X103707881Y-28333402D01*
X103764189Y-28543543D01*
X103765716Y-28549243D01*
X103768039Y-28554224D01*
X103768039Y-28554225D01*
X103860151Y-28751762D01*
X103860154Y-28751767D01*
X103862477Y-28756749D01*
X103903714Y-28815641D01*
X103975335Y-28917926D01*
X103993802Y-28944300D01*
X104155700Y-29106198D01*
X104160211Y-29109357D01*
X104164424Y-29112892D01*
X104163473Y-29114026D01*
X104203471Y-29164071D01*
X104210776Y-29234690D01*
X104178742Y-29298049D01*
X104117538Y-29334030D01*
X104100483Y-29337082D01*
X104089684Y-29338255D01*
X103953295Y-29389385D01*
X103836739Y-29476739D01*
X103749385Y-29593295D01*
X103698255Y-29729684D01*
X103691500Y-29791866D01*
X103691500Y-31488134D01*
X103698255Y-31550316D01*
X103749385Y-31686705D01*
X103836739Y-31803261D01*
X103953295Y-31890615D01*
X104089684Y-31941745D01*
X104151866Y-31948500D01*
X105848134Y-31948500D01*
X105910316Y-31941745D01*
X106046705Y-31890615D01*
X106163261Y-31803261D01*
X106250615Y-31686705D01*
X106301745Y-31550316D01*
X106308500Y-31488134D01*
X106308500Y-30477885D01*
X108742000Y-30477885D01*
X108746475Y-30493124D01*
X108747865Y-30494329D01*
X108755548Y-30496000D01*
X109777885Y-30496000D01*
X109793124Y-30491525D01*
X109794329Y-30490135D01*
X109796000Y-30482452D01*
X109796000Y-30477885D01*
X110304000Y-30477885D01*
X110308475Y-30493124D01*
X110309865Y-30494329D01*
X110317548Y-30496000D01*
X111339884Y-30496000D01*
X111355123Y-30491525D01*
X111356328Y-30490135D01*
X111357999Y-30482452D01*
X111357999Y-29905331D01*
X111357629Y-29898510D01*
X111352105Y-29847648D01*
X111348479Y-29832396D01*
X111303324Y-29711946D01*
X111294786Y-29696351D01*
X111218285Y-29594276D01*
X111205724Y-29581715D01*
X111103649Y-29505214D01*
X111088054Y-29496676D01*
X110967606Y-29451522D01*
X110952351Y-29447895D01*
X110901486Y-29442369D01*
X110894672Y-29442000D01*
X110322115Y-29442000D01*
X110306876Y-29446475D01*
X110305671Y-29447865D01*
X110304000Y-29455548D01*
X110304000Y-30477885D01*
X109796000Y-30477885D01*
X109796000Y-29460116D01*
X109791525Y-29444877D01*
X109790135Y-29443672D01*
X109782452Y-29442001D01*
X109205331Y-29442001D01*
X109198510Y-29442371D01*
X109147648Y-29447895D01*
X109132396Y-29451521D01*
X109011946Y-29496676D01*
X108996351Y-29505214D01*
X108894276Y-29581715D01*
X108881715Y-29594276D01*
X108805214Y-29696351D01*
X108796676Y-29711946D01*
X108751522Y-29832394D01*
X108747895Y-29847649D01*
X108742369Y-29898514D01*
X108742000Y-29905328D01*
X108742000Y-30477885D01*
X106308500Y-30477885D01*
X106308500Y-29791866D01*
X106301745Y-29729684D01*
X106250615Y-29593295D01*
X106163261Y-29476739D01*
X106046705Y-29389385D01*
X105910316Y-29338255D01*
X105899526Y-29337083D01*
X105897394Y-29336197D01*
X105894778Y-29335575D01*
X105894879Y-29335152D01*
X105833965Y-29309845D01*
X105793537Y-29251483D01*
X105791078Y-29180529D01*
X105827371Y-29119510D01*
X105836031Y-29112511D01*
X105839793Y-29109354D01*
X105844300Y-29106198D01*
X106006198Y-28944300D01*
X106024666Y-28917926D01*
X106096286Y-28815641D01*
X106137523Y-28756749D01*
X106139846Y-28751767D01*
X106139849Y-28751762D01*
X106231961Y-28554225D01*
X106231961Y-28554224D01*
X106234284Y-28549243D01*
X106235812Y-28543543D01*
X106292119Y-28333402D01*
X106292119Y-28333400D01*
X106293543Y-28328087D01*
X106313498Y-28100000D01*
X106307904Y-28036062D01*
X111928493Y-28036062D01*
X111937789Y-28048077D01*
X111988994Y-28083931D01*
X111998489Y-28089414D01*
X112195947Y-28181490D01*
X112206239Y-28185236D01*
X112416688Y-28241625D01*
X112427481Y-28243528D01*
X112644525Y-28262517D01*
X112655475Y-28262517D01*
X112872519Y-28243528D01*
X112883312Y-28241625D01*
X113093761Y-28185236D01*
X113104053Y-28181490D01*
X113301511Y-28089414D01*
X113311006Y-28083931D01*
X113363048Y-28047491D01*
X113371424Y-28037012D01*
X113364356Y-28023566D01*
X112662812Y-27322022D01*
X112648868Y-27314408D01*
X112647035Y-27314539D01*
X112640420Y-27318790D01*
X111934923Y-28024287D01*
X111928493Y-28036062D01*
X106307904Y-28036062D01*
X106293543Y-27871913D01*
X106252101Y-27717251D01*
X106235707Y-27656067D01*
X106235706Y-27656065D01*
X106234284Y-27650757D01*
X106218770Y-27617487D01*
X106139849Y-27448238D01*
X106139846Y-27448233D01*
X106137523Y-27443251D01*
X106031512Y-27291852D01*
X106009357Y-27260211D01*
X106009355Y-27260208D01*
X106006198Y-27255700D01*
X105844300Y-27093802D01*
X105839792Y-27090645D01*
X105839789Y-27090643D01*
X105734170Y-27016688D01*
X105656749Y-26962477D01*
X105651767Y-26960154D01*
X105651762Y-26960151D01*
X105641734Y-26955475D01*
X111337483Y-26955475D01*
X111356472Y-27172519D01*
X111358375Y-27183312D01*
X111414764Y-27393761D01*
X111418510Y-27404053D01*
X111510586Y-27601511D01*
X111516069Y-27611006D01*
X111552509Y-27663048D01*
X111562988Y-27671424D01*
X111576434Y-27664356D01*
X112277978Y-26962812D01*
X112284356Y-26951132D01*
X113014408Y-26951132D01*
X113014539Y-26952965D01*
X113018790Y-26959580D01*
X113724287Y-27665077D01*
X113736062Y-27671507D01*
X113748077Y-27662211D01*
X113783934Y-27611002D01*
X113790591Y-27599472D01*
X113841973Y-27550479D01*
X113911687Y-27537042D01*
X113977598Y-27563429D01*
X114008829Y-27599472D01*
X114010153Y-27601765D01*
X114012477Y-27606749D01*
X114057763Y-27671424D01*
X114089852Y-27717251D01*
X114143802Y-27794300D01*
X114305700Y-27956198D01*
X114310208Y-27959355D01*
X114310211Y-27959357D01*
X114348940Y-27986475D01*
X114493251Y-28087523D01*
X114498233Y-28089846D01*
X114498238Y-28089849D01*
X114694765Y-28181490D01*
X114700757Y-28184284D01*
X114706065Y-28185706D01*
X114706067Y-28185707D01*
X114916598Y-28242119D01*
X114916600Y-28242119D01*
X114921913Y-28243543D01*
X115150000Y-28263498D01*
X115378087Y-28243543D01*
X115383400Y-28242119D01*
X115383402Y-28242119D01*
X115593933Y-28185707D01*
X115593935Y-28185706D01*
X115599243Y-28184284D01*
X115605235Y-28181490D01*
X115801762Y-28089849D01*
X115801767Y-28089846D01*
X115806749Y-28087523D01*
X115951060Y-27986475D01*
X115989789Y-27959357D01*
X115989792Y-27959355D01*
X115994300Y-27956198D01*
X116156198Y-27794300D01*
X116287523Y-27606749D01*
X116289846Y-27601767D01*
X116289849Y-27601762D01*
X116381961Y-27404225D01*
X116381961Y-27404224D01*
X116384284Y-27399243D01*
X116404976Y-27322022D01*
X116442119Y-27183402D01*
X116442119Y-27183400D01*
X116443543Y-27178087D01*
X116463498Y-26950000D01*
X116443543Y-26721913D01*
X116442119Y-26716598D01*
X116385707Y-26506067D01*
X116385706Y-26506065D01*
X116384284Y-26500757D01*
X116359543Y-26447699D01*
X116289849Y-26298238D01*
X116289846Y-26298233D01*
X116287523Y-26293251D01*
X116164535Y-26117606D01*
X116159357Y-26110211D01*
X116159355Y-26110208D01*
X116156198Y-26105700D01*
X115994300Y-25943802D01*
X115989792Y-25940645D01*
X115989789Y-25940643D01*
X115877833Y-25862251D01*
X115806749Y-25812477D01*
X115801767Y-25810154D01*
X115801762Y-25810151D01*
X115604225Y-25718039D01*
X115604224Y-25718039D01*
X115599243Y-25715716D01*
X115593935Y-25714294D01*
X115593933Y-25714293D01*
X115383402Y-25657881D01*
X115383400Y-25657881D01*
X115378087Y-25656457D01*
X115150000Y-25636502D01*
X114921913Y-25656457D01*
X114916600Y-25657881D01*
X114916598Y-25657881D01*
X114706067Y-25714293D01*
X114706065Y-25714294D01*
X114700757Y-25715716D01*
X114695776Y-25718039D01*
X114695775Y-25718039D01*
X114498238Y-25810151D01*
X114498233Y-25810154D01*
X114493251Y-25812477D01*
X114422167Y-25862251D01*
X114310211Y-25940643D01*
X114310208Y-25940645D01*
X114305700Y-25943802D01*
X114143802Y-26105700D01*
X114140645Y-26110208D01*
X114140643Y-26110211D01*
X114135465Y-26117606D01*
X114012477Y-26293251D01*
X114010153Y-26298235D01*
X114008829Y-26300528D01*
X113957447Y-26349521D01*
X113887733Y-26362957D01*
X113821822Y-26336571D01*
X113790591Y-26300528D01*
X113783934Y-26288998D01*
X113747491Y-26236952D01*
X113737012Y-26228576D01*
X113723566Y-26235644D01*
X113022022Y-26937188D01*
X113014408Y-26951132D01*
X112284356Y-26951132D01*
X112285592Y-26948868D01*
X112285461Y-26947035D01*
X112281210Y-26940420D01*
X111575713Y-26234923D01*
X111563938Y-26228493D01*
X111551923Y-26237789D01*
X111516069Y-26288994D01*
X111510586Y-26298489D01*
X111418510Y-26495947D01*
X111414764Y-26506239D01*
X111358375Y-26716688D01*
X111356472Y-26727481D01*
X111337483Y-26944525D01*
X111337483Y-26955475D01*
X105641734Y-26955475D01*
X105454225Y-26868039D01*
X105454224Y-26868039D01*
X105449243Y-26865716D01*
X105443935Y-26864294D01*
X105443933Y-26864293D01*
X105233402Y-26807881D01*
X105233400Y-26807881D01*
X105228087Y-26806457D01*
X105000000Y-26786502D01*
X104771913Y-26806457D01*
X104766600Y-26807881D01*
X104766598Y-26807881D01*
X104556067Y-26864293D01*
X104556065Y-26864294D01*
X104550757Y-26865716D01*
X104545776Y-26868039D01*
X104545775Y-26868039D01*
X104348238Y-26960151D01*
X104348233Y-26960154D01*
X104343251Y-26962477D01*
X104265830Y-27016688D01*
X104160211Y-27090643D01*
X104160208Y-27090645D01*
X104155700Y-27093802D01*
X103993802Y-27255700D01*
X103990645Y-27260208D01*
X103990643Y-27260211D01*
X103968488Y-27291852D01*
X103862477Y-27443251D01*
X103860154Y-27448233D01*
X103860151Y-27448238D01*
X103781230Y-27617487D01*
X103765716Y-27650757D01*
X103764294Y-27656065D01*
X103764293Y-27656067D01*
X103747899Y-27717251D01*
X103706457Y-27871913D01*
X103686502Y-28100000D01*
X102139309Y-28100000D01*
X102153307Y-27940000D01*
X102134115Y-27720629D01*
X102077120Y-27507924D01*
X102023885Y-27393761D01*
X101986382Y-27313334D01*
X101986379Y-27313329D01*
X101984056Y-27308347D01*
X101978648Y-27300623D01*
X101860908Y-27132473D01*
X101860906Y-27132470D01*
X101857749Y-27127962D01*
X101702038Y-26972251D01*
X101688080Y-26962477D01*
X101602402Y-26902485D01*
X101521654Y-26845944D01*
X101516672Y-26843621D01*
X101516667Y-26843618D01*
X101389232Y-26784195D01*
X101335947Y-26737278D01*
X101316486Y-26669001D01*
X101337028Y-26601041D01*
X101389232Y-26555805D01*
X101516667Y-26496382D01*
X101516672Y-26496379D01*
X101521654Y-26494056D01*
X101653404Y-26401803D01*
X101697527Y-26370908D01*
X101697529Y-26370906D01*
X101702038Y-26367749D01*
X101857749Y-26212038D01*
X101882680Y-26176434D01*
X101980899Y-26036162D01*
X101980900Y-26036160D01*
X101984056Y-26031653D01*
X101986379Y-26026671D01*
X101986382Y-26026666D01*
X102054850Y-25879834D01*
X102062705Y-25862988D01*
X111928576Y-25862988D01*
X111935644Y-25876434D01*
X112637188Y-26577978D01*
X112651132Y-26585592D01*
X112652965Y-26585461D01*
X112659580Y-26581210D01*
X113365077Y-25875713D01*
X113371507Y-25863938D01*
X113362211Y-25851923D01*
X113311006Y-25816069D01*
X113301511Y-25810586D01*
X113104053Y-25718510D01*
X113093761Y-25714764D01*
X112883312Y-25658375D01*
X112872519Y-25656472D01*
X112655475Y-25637483D01*
X112644525Y-25637483D01*
X112427481Y-25656472D01*
X112416688Y-25658375D01*
X112206239Y-25714764D01*
X112195947Y-25718510D01*
X111998489Y-25810586D01*
X111988994Y-25816069D01*
X111936952Y-25852509D01*
X111928576Y-25862988D01*
X102062705Y-25862988D01*
X102077120Y-25832076D01*
X102134115Y-25619371D01*
X102153307Y-25400000D01*
X102134115Y-25180629D01*
X102077120Y-24967924D01*
X102003942Y-24810993D01*
X101986382Y-24773334D01*
X101986379Y-24773329D01*
X101984056Y-24768347D01*
X101980899Y-24763838D01*
X101860908Y-24592473D01*
X101860906Y-24592470D01*
X101857749Y-24587962D01*
X101702038Y-24432251D01*
X101580589Y-24347211D01*
X101536262Y-24291755D01*
X101528953Y-24221135D01*
X101560984Y-24157775D01*
X101622185Y-24121790D01*
X101652861Y-24117999D01*
X101684669Y-24117999D01*
X101691490Y-24117629D01*
X101742352Y-24112105D01*
X101757604Y-24108479D01*
X101878054Y-24063324D01*
X101893649Y-24054786D01*
X101995724Y-23978285D01*
X102008285Y-23965724D01*
X102084786Y-23863649D01*
X102093324Y-23848054D01*
X102138478Y-23727606D01*
X102142105Y-23712351D01*
X102147631Y-23661486D01*
X102148000Y-23654672D01*
X102148000Y-23132115D01*
X102143525Y-23116876D01*
X102142135Y-23115671D01*
X102134452Y-23114000D01*
X99650116Y-23114000D01*
X99634877Y-23118475D01*
X99633672Y-23119865D01*
X99632001Y-23127548D01*
X99632001Y-23654669D01*
X99632371Y-23661490D01*
X99637895Y-23712352D01*
X99641521Y-23727604D01*
X99686676Y-23848054D01*
X99695214Y-23863649D01*
X99771715Y-23965724D01*
X99784276Y-23978285D01*
X99886351Y-24054786D01*
X99901946Y-24063324D01*
X100022394Y-24108478D01*
X100037649Y-24112105D01*
X100088514Y-24117631D01*
X100095328Y-24118000D01*
X100127138Y-24118000D01*
X100195259Y-24138002D01*
X100241752Y-24191658D01*
X100251856Y-24261932D01*
X100222362Y-24326512D01*
X100199409Y-24347213D01*
X100082473Y-24429092D01*
X100082470Y-24429094D01*
X100077962Y-24432251D01*
X99922251Y-24587962D01*
X99919094Y-24592470D01*
X99919092Y-24592473D01*
X99799101Y-24763838D01*
X99795944Y-24768347D01*
X99793621Y-24773329D01*
X99793618Y-24773334D01*
X99776058Y-24810993D01*
X99702880Y-24967924D01*
X99645885Y-25180629D01*
X99626693Y-25400000D01*
X99645885Y-25619371D01*
X99702880Y-25832076D01*
X99705203Y-25837058D01*
X99705206Y-25837066D01*
X99716950Y-25862251D01*
X99727611Y-25932443D01*
X99698630Y-25997255D01*
X99639210Y-26036111D01*
X99602755Y-26041500D01*
X98311405Y-26041500D01*
X98243284Y-26021498D01*
X98237344Y-26017436D01*
X98162094Y-25962763D01*
X98162093Y-25962762D01*
X98156752Y-25958882D01*
X98150724Y-25956198D01*
X98150722Y-25956197D01*
X97988319Y-25883891D01*
X97988318Y-25883891D01*
X97982288Y-25881206D01*
X97867303Y-25856765D01*
X97801944Y-25842872D01*
X97801939Y-25842872D01*
X97795487Y-25841500D01*
X97604513Y-25841500D01*
X97598061Y-25842872D01*
X97598056Y-25842872D01*
X97532697Y-25856765D01*
X97417712Y-25881206D01*
X97411682Y-25883891D01*
X97411681Y-25883891D01*
X97249278Y-25956197D01*
X97249276Y-25956198D01*
X97243248Y-25958882D01*
X97088747Y-26071134D01*
X97084326Y-26076044D01*
X97084325Y-26076045D01*
X96993935Y-26176434D01*
X96960960Y-26213056D01*
X96865473Y-26378444D01*
X96806458Y-26560072D01*
X96805768Y-26566633D01*
X96805768Y-26566635D01*
X96802420Y-26598489D01*
X96786496Y-26750000D01*
X70463504Y-26750000D01*
X70447580Y-26598489D01*
X70444232Y-26566635D01*
X70444232Y-26566633D01*
X70443542Y-26560072D01*
X70384527Y-26378444D01*
X70289040Y-26213056D01*
X70256066Y-26176434D01*
X70165675Y-26076045D01*
X70165674Y-26076044D01*
X70161253Y-26071134D01*
X70006752Y-25958882D01*
X70000724Y-25956198D01*
X70000722Y-25956197D01*
X69838319Y-25883891D01*
X69838318Y-25883891D01*
X69832288Y-25881206D01*
X69717303Y-25856765D01*
X69651944Y-25842872D01*
X69651939Y-25842872D01*
X69645487Y-25841500D01*
X69534000Y-25841500D01*
X69465879Y-25821498D01*
X69419386Y-25767842D01*
X69408000Y-25715500D01*
X69408000Y-24172115D01*
X69403525Y-24156876D01*
X69402135Y-24155671D01*
X69394452Y-24154000D01*
X68497115Y-24154000D01*
X68481876Y-24158475D01*
X68480671Y-24159865D01*
X68479000Y-24167548D01*
X68479000Y-26489884D01*
X68483475Y-26505123D01*
X68484865Y-26506328D01*
X68492548Y-26507999D01*
X68521994Y-26507999D01*
X68590115Y-26528001D01*
X68636608Y-26581657D01*
X68647304Y-26647169D01*
X68636496Y-26750000D01*
X68637186Y-26756565D01*
X68652523Y-26902485D01*
X68656458Y-26939928D01*
X68715473Y-27121556D01*
X68718776Y-27127278D01*
X68718777Y-27127279D01*
X68787226Y-27245835D01*
X68810960Y-27286944D01*
X68815379Y-27291852D01*
X68817436Y-27294683D01*
X68841295Y-27361551D01*
X68841500Y-27368744D01*
X68841500Y-28538810D01*
X68821498Y-28606931D01*
X68767842Y-28653424D01*
X68697568Y-28663528D01*
X68671273Y-28656793D01*
X68610316Y-28633941D01*
X68548134Y-28627186D01*
X66851866Y-28627186D01*
X66789684Y-28633941D01*
X66653295Y-28685071D01*
X66536739Y-28772425D01*
X66449385Y-28888981D01*
X66398255Y-29025370D01*
X66391500Y-29087552D01*
X66391500Y-30783820D01*
X66398255Y-30846002D01*
X66449385Y-30982391D01*
X66536739Y-31098947D01*
X66653295Y-31186301D01*
X66789684Y-31237431D01*
X66800474Y-31238603D01*
X66802606Y-31239489D01*
X66805222Y-31240111D01*
X66805121Y-31240534D01*
X66866035Y-31265841D01*
X66906463Y-31324203D01*
X66908922Y-31395157D01*
X66872629Y-31456176D01*
X66863969Y-31463175D01*
X66860207Y-31466332D01*
X66855700Y-31469488D01*
X66693802Y-31631386D01*
X66690645Y-31635894D01*
X66690643Y-31635897D01*
X66656451Y-31684729D01*
X66562477Y-31818937D01*
X66560154Y-31823919D01*
X66560151Y-31823924D01*
X66468039Y-32021461D01*
X66465716Y-32026443D01*
X66464294Y-32031751D01*
X66464293Y-32031753D01*
X66414141Y-32218921D01*
X66406457Y-32247599D01*
X66386502Y-32475686D01*
X63666052Y-32475686D01*
X63692119Y-32378402D01*
X63692119Y-32378400D01*
X63693543Y-32373087D01*
X63713498Y-32145000D01*
X63693543Y-31916913D01*
X63687341Y-31893767D01*
X63635707Y-31701067D01*
X63635706Y-31701065D01*
X63634284Y-31695757D01*
X63606371Y-31635897D01*
X63539849Y-31493238D01*
X63539846Y-31493233D01*
X63537523Y-31488251D01*
X63450778Y-31364366D01*
X63409357Y-31305211D01*
X63409355Y-31305208D01*
X63406198Y-31300700D01*
X63244300Y-31138802D01*
X63239792Y-31135645D01*
X63239789Y-31135643D01*
X63149851Y-31072668D01*
X63056749Y-31007477D01*
X63051767Y-31005154D01*
X63051762Y-31005151D01*
X63017543Y-30989195D01*
X62964258Y-30942278D01*
X62944797Y-30874001D01*
X62965339Y-30806041D01*
X63017543Y-30760805D01*
X63051762Y-30744849D01*
X63051767Y-30744846D01*
X63056749Y-30742523D01*
X63184661Y-30652958D01*
X63239789Y-30614357D01*
X63239792Y-30614355D01*
X63244300Y-30611198D01*
X63406198Y-30449300D01*
X63418652Y-30431515D01*
X63511964Y-30298251D01*
X63537523Y-30261749D01*
X63539846Y-30256767D01*
X63539849Y-30256762D01*
X63631961Y-30059225D01*
X63631961Y-30059224D01*
X63634284Y-30054243D01*
X63647060Y-30006565D01*
X63692119Y-29838402D01*
X63692119Y-29838400D01*
X63693543Y-29833087D01*
X63713498Y-29605000D01*
X63693543Y-29376913D01*
X63682633Y-29336197D01*
X63635707Y-29161067D01*
X63635706Y-29161065D01*
X63634284Y-29155757D01*
X63621594Y-29128543D01*
X63539849Y-28953238D01*
X63539846Y-28953233D01*
X63537523Y-28948251D01*
X63428591Y-28792680D01*
X63409357Y-28765211D01*
X63409355Y-28765208D01*
X63406198Y-28760700D01*
X63244300Y-28598802D01*
X63239792Y-28595645D01*
X63239789Y-28595643D01*
X63158623Y-28538810D01*
X63056749Y-28467477D01*
X63051767Y-28465154D01*
X63051762Y-28465151D01*
X62854225Y-28373039D01*
X62854224Y-28373039D01*
X62849243Y-28370716D01*
X62843935Y-28369294D01*
X62843933Y-28369293D01*
X62633402Y-28312881D01*
X62633400Y-28312881D01*
X62628087Y-28311457D01*
X62400000Y-28291502D01*
X62171913Y-28311457D01*
X62166600Y-28312881D01*
X62166598Y-28312881D01*
X61956067Y-28369293D01*
X61956065Y-28369294D01*
X61950757Y-28370716D01*
X61945776Y-28373039D01*
X61945775Y-28373039D01*
X61748238Y-28465151D01*
X61748233Y-28465154D01*
X61743251Y-28467477D01*
X61641377Y-28538810D01*
X61560211Y-28595643D01*
X61560208Y-28595645D01*
X61555700Y-28598802D01*
X61393802Y-28760700D01*
X61390645Y-28765208D01*
X61390643Y-28765211D01*
X61371409Y-28792680D01*
X61262477Y-28948251D01*
X61260154Y-28953233D01*
X61260151Y-28953238D01*
X61178406Y-29128543D01*
X61165716Y-29155757D01*
X61164294Y-29161065D01*
X61164293Y-29161067D01*
X61117367Y-29336197D01*
X61106457Y-29376913D01*
X61086502Y-29605000D01*
X61106457Y-29833087D01*
X61107881Y-29838400D01*
X61107881Y-29838402D01*
X61152941Y-30006565D01*
X61165716Y-30054243D01*
X61168039Y-30059224D01*
X61168039Y-30059225D01*
X61260151Y-30256762D01*
X61260154Y-30256767D01*
X61262477Y-30261749D01*
X61288036Y-30298251D01*
X61381349Y-30431515D01*
X61393802Y-30449300D01*
X61555700Y-30611198D01*
X61560208Y-30614355D01*
X61560211Y-30614357D01*
X61615339Y-30652958D01*
X61743251Y-30742523D01*
X61748233Y-30744846D01*
X61748238Y-30744849D01*
X61782457Y-30760805D01*
X61835742Y-30807722D01*
X61855203Y-30875999D01*
X61834661Y-30943959D01*
X61782457Y-30989195D01*
X61748238Y-31005151D01*
X61748233Y-31005154D01*
X61743251Y-31007477D01*
X61650149Y-31072668D01*
X61560211Y-31135643D01*
X61560208Y-31135645D01*
X61555700Y-31138802D01*
X61393802Y-31300700D01*
X61390645Y-31305208D01*
X61390643Y-31305211D01*
X61349222Y-31364366D01*
X61262477Y-31488251D01*
X61260154Y-31493233D01*
X61260151Y-31493238D01*
X61193629Y-31635897D01*
X61165716Y-31695757D01*
X61164294Y-31701065D01*
X61164293Y-31701067D01*
X61112659Y-31893767D01*
X61106457Y-31916913D01*
X61086502Y-32145000D01*
X60748819Y-32145000D01*
X60735707Y-32096067D01*
X60735706Y-32096065D01*
X60734284Y-32090757D01*
X60717860Y-32055536D01*
X60639849Y-31888238D01*
X60639846Y-31888233D01*
X60637523Y-31883251D01*
X60538848Y-31742329D01*
X60509357Y-31700211D01*
X60509355Y-31700208D01*
X60506198Y-31695700D01*
X60344300Y-31533802D01*
X60339789Y-31530643D01*
X60335576Y-31527108D01*
X60336527Y-31525974D01*
X60296529Y-31475929D01*
X60289224Y-31405310D01*
X60321258Y-31341951D01*
X60382462Y-31305970D01*
X60399517Y-31302918D01*
X60410316Y-31301745D01*
X60546705Y-31250615D01*
X60663261Y-31163261D01*
X60750615Y-31046705D01*
X60801745Y-30910316D01*
X60808500Y-30848134D01*
X60808500Y-29151866D01*
X60801745Y-29089684D01*
X60750615Y-28953295D01*
X60663261Y-28836739D01*
X60546705Y-28749385D01*
X60410316Y-28698255D01*
X60348134Y-28691500D01*
X58651866Y-28691500D01*
X58589684Y-28698255D01*
X58453295Y-28749385D01*
X58336739Y-28836739D01*
X58249385Y-28953295D01*
X58198255Y-29089684D01*
X58191500Y-29151866D01*
X58191500Y-30848134D01*
X58198255Y-30910316D01*
X58249385Y-31046705D01*
X58336739Y-31163261D01*
X58453295Y-31250615D01*
X58589684Y-31301745D01*
X58600474Y-31302917D01*
X58602606Y-31303803D01*
X58605222Y-31304425D01*
X58605121Y-31304848D01*
X58666035Y-31330155D01*
X58706463Y-31388517D01*
X58708922Y-31459471D01*
X58672629Y-31520490D01*
X58663969Y-31527489D01*
X58660207Y-31530646D01*
X58655700Y-31533802D01*
X58493802Y-31695700D01*
X58490645Y-31700208D01*
X58490643Y-31700211D01*
X58461152Y-31742329D01*
X58362477Y-31883251D01*
X58360154Y-31888233D01*
X58360151Y-31888238D01*
X58282140Y-32055536D01*
X58265716Y-32090757D01*
X58264294Y-32096065D01*
X58264293Y-32096067D01*
X58218213Y-32268039D01*
X58206457Y-32311913D01*
X58186502Y-32540000D01*
X58206457Y-32768087D01*
X58207881Y-32773400D01*
X58207881Y-32773402D01*
X58257677Y-32959240D01*
X58265716Y-32989243D01*
X58268039Y-32994224D01*
X58268039Y-32994225D01*
X58360151Y-33191762D01*
X58360154Y-33191767D01*
X58362477Y-33196749D01*
X58430177Y-33293435D01*
X58490290Y-33379284D01*
X58493802Y-33384300D01*
X58655700Y-33546198D01*
X58660208Y-33549355D01*
X58660211Y-33549357D01*
X58691012Y-33570924D01*
X58843251Y-33677523D01*
X58848236Y-33679847D01*
X58848242Y-33679851D01*
X58875395Y-33692512D01*
X58889185Y-33698942D01*
X58901576Y-33704720D01*
X58954861Y-33751636D01*
X58974323Y-33819913D01*
X58953782Y-33887873D01*
X58899760Y-33933940D01*
X58859309Y-33944435D01*
X58727405Y-33955976D01*
X58727399Y-33955977D01*
X58721913Y-33956457D01*
X58716600Y-33957881D01*
X58716598Y-33957881D01*
X58506067Y-34014293D01*
X58506065Y-34014294D01*
X58500757Y-34015716D01*
X58495776Y-34018039D01*
X58495775Y-34018039D01*
X58298238Y-34110151D01*
X58298233Y-34110154D01*
X58293251Y-34112477D01*
X58210884Y-34170151D01*
X58110211Y-34240643D01*
X58110208Y-34240645D01*
X58105700Y-34243802D01*
X57943802Y-34405700D01*
X57940645Y-34410208D01*
X57940643Y-34410211D01*
X57915720Y-34445805D01*
X57812477Y-34593251D01*
X57810153Y-34598236D01*
X57810149Y-34598242D01*
X57725206Y-34780405D01*
X57678289Y-34833691D01*
X57610012Y-34853152D01*
X57542052Y-34832610D01*
X57496816Y-34780406D01*
X57439849Y-34658238D01*
X57439846Y-34658233D01*
X57437523Y-34653251D01*
X57333266Y-34504357D01*
X57309357Y-34470211D01*
X57309355Y-34470208D01*
X57306198Y-34465700D01*
X57144300Y-34303802D01*
X57139792Y-34300645D01*
X57139789Y-34300643D01*
X57017291Y-34214869D01*
X56956749Y-34172477D01*
X56951767Y-34170154D01*
X56951762Y-34170151D01*
X56917543Y-34154195D01*
X56864258Y-34107278D01*
X56844797Y-34039001D01*
X56865339Y-33971041D01*
X56917543Y-33925805D01*
X56951762Y-33909849D01*
X56951767Y-33909846D01*
X56956749Y-33907523D01*
X57070712Y-33827725D01*
X57139789Y-33779357D01*
X57139792Y-33779355D01*
X57144300Y-33776198D01*
X57306198Y-33614300D01*
X57317764Y-33597783D01*
X57389733Y-33495000D01*
X57437523Y-33426749D01*
X57439846Y-33421767D01*
X57439849Y-33421762D01*
X57531961Y-33224225D01*
X57531961Y-33224224D01*
X57534284Y-33219243D01*
X57539104Y-33201257D01*
X57592119Y-33003402D01*
X57592119Y-33003400D01*
X57593543Y-32998087D01*
X57613498Y-32770000D01*
X57593543Y-32541913D01*
X57592119Y-32536598D01*
X57535707Y-32326067D01*
X57535706Y-32326065D01*
X57534284Y-32320757D01*
X57531961Y-32315775D01*
X57439849Y-32118238D01*
X57439846Y-32118233D01*
X57437523Y-32113251D01*
X57331054Y-31961198D01*
X57309357Y-31930211D01*
X57309355Y-31930208D01*
X57306198Y-31925700D01*
X57144300Y-31763802D01*
X57139792Y-31760645D01*
X57139789Y-31760643D01*
X57047122Y-31695757D01*
X56956749Y-31632477D01*
X56951767Y-31630154D01*
X56951762Y-31630151D01*
X56917543Y-31614195D01*
X56864258Y-31567278D01*
X56844797Y-31499001D01*
X56865339Y-31431041D01*
X56917543Y-31385805D01*
X56951762Y-31369849D01*
X56951767Y-31369846D01*
X56956749Y-31367523D01*
X57101966Y-31265841D01*
X57139789Y-31239357D01*
X57139792Y-31239355D01*
X57144300Y-31236198D01*
X57306198Y-31074300D01*
X57325521Y-31046705D01*
X57389733Y-30955000D01*
X57437523Y-30886749D01*
X57439846Y-30881767D01*
X57439849Y-30881762D01*
X57531961Y-30684225D01*
X57531961Y-30684224D01*
X57534284Y-30679243D01*
X57574973Y-30527393D01*
X57592119Y-30463402D01*
X57592119Y-30463400D01*
X57593543Y-30458087D01*
X57613498Y-30230000D01*
X57593543Y-30001913D01*
X57579312Y-29948802D01*
X57535707Y-29786067D01*
X57535706Y-29786065D01*
X57534284Y-29780757D01*
X57531961Y-29775775D01*
X57439849Y-29578238D01*
X57439846Y-29578233D01*
X57437523Y-29573251D01*
X57352287Y-29451522D01*
X57309357Y-29390211D01*
X57309355Y-29390208D01*
X57306198Y-29385700D01*
X57144300Y-29223802D01*
X57139792Y-29220645D01*
X57139789Y-29220643D01*
X57040007Y-29150775D01*
X56956749Y-29092477D01*
X56951767Y-29090154D01*
X56951762Y-29090151D01*
X56754225Y-28998039D01*
X56754224Y-28998039D01*
X56749243Y-28995716D01*
X56743935Y-28994294D01*
X56743933Y-28994293D01*
X56533402Y-28937881D01*
X56533400Y-28937881D01*
X56528087Y-28936457D01*
X56300000Y-28916502D01*
X56071913Y-28936457D01*
X56066600Y-28937881D01*
X56066598Y-28937881D01*
X55856067Y-28994293D01*
X55856065Y-28994294D01*
X55850757Y-28995716D01*
X55845776Y-28998039D01*
X55845775Y-28998039D01*
X55648238Y-29090151D01*
X55648233Y-29090154D01*
X55643251Y-29092477D01*
X55559993Y-29150775D01*
X55460211Y-29220643D01*
X55460208Y-29220645D01*
X55455700Y-29223802D01*
X55293802Y-29385700D01*
X55290645Y-29390208D01*
X55290643Y-29390211D01*
X55247713Y-29451522D01*
X55162477Y-29573251D01*
X55160154Y-29578233D01*
X55160151Y-29578238D01*
X55068039Y-29775775D01*
X55065716Y-29780757D01*
X55064294Y-29786065D01*
X55064293Y-29786067D01*
X55020688Y-29948802D01*
X55006457Y-30001913D01*
X54986502Y-30230000D01*
X55006457Y-30458087D01*
X55007881Y-30463400D01*
X55007881Y-30463402D01*
X55025028Y-30527393D01*
X55065716Y-30679243D01*
X55068039Y-30684224D01*
X55068039Y-30684225D01*
X55160151Y-30881762D01*
X55160154Y-30881767D01*
X55162477Y-30886749D01*
X55210267Y-30955000D01*
X55274480Y-31046705D01*
X55293802Y-31074300D01*
X55455700Y-31236198D01*
X55460208Y-31239355D01*
X55460211Y-31239357D01*
X55498034Y-31265841D01*
X55643251Y-31367523D01*
X55648233Y-31369846D01*
X55648238Y-31369849D01*
X55682457Y-31385805D01*
X55735742Y-31432722D01*
X55755203Y-31500999D01*
X55734661Y-31568959D01*
X55682457Y-31614195D01*
X55648238Y-31630151D01*
X55648233Y-31630154D01*
X55643251Y-31632477D01*
X55552878Y-31695757D01*
X55460211Y-31760643D01*
X55460208Y-31760645D01*
X55455700Y-31763802D01*
X55293802Y-31925700D01*
X55290645Y-31930208D01*
X55290643Y-31930211D01*
X55268946Y-31961198D01*
X55162477Y-32113251D01*
X55160154Y-32118233D01*
X55160151Y-32118238D01*
X55068039Y-32315775D01*
X55065716Y-32320757D01*
X55064294Y-32326065D01*
X55064293Y-32326067D01*
X55007881Y-32536598D01*
X55006457Y-32541913D01*
X54986502Y-32770000D01*
X55006457Y-32998087D01*
X55007881Y-33003400D01*
X55007881Y-33003402D01*
X55060897Y-33201257D01*
X55065716Y-33219243D01*
X55068039Y-33224224D01*
X55068039Y-33224225D01*
X55160151Y-33421762D01*
X55160154Y-33421767D01*
X55162477Y-33426749D01*
X55210267Y-33495000D01*
X55282237Y-33597783D01*
X55293802Y-33614300D01*
X55455700Y-33776198D01*
X55460208Y-33779355D01*
X55460211Y-33779357D01*
X55529288Y-33827725D01*
X55643251Y-33907523D01*
X55648233Y-33909846D01*
X55648238Y-33909849D01*
X55682457Y-33925805D01*
X55735742Y-33972722D01*
X55755203Y-34040999D01*
X55734661Y-34108959D01*
X55682457Y-34154195D01*
X55648238Y-34170151D01*
X55648233Y-34170154D01*
X55643251Y-34172477D01*
X55582709Y-34214869D01*
X55460211Y-34300643D01*
X55460208Y-34300645D01*
X55455700Y-34303802D01*
X55293802Y-34465700D01*
X55290645Y-34470208D01*
X55290643Y-34470211D01*
X55266734Y-34504357D01*
X55162477Y-34653251D01*
X55160154Y-34658233D01*
X55160151Y-34658238D01*
X55068377Y-34855051D01*
X55065716Y-34860757D01*
X55064294Y-34866065D01*
X55064293Y-34866067D01*
X55016794Y-35043334D01*
X55006457Y-35081913D01*
X54986502Y-35310000D01*
X53358500Y-35310000D01*
X53358500Y-32668744D01*
X53378502Y-32600623D01*
X53382564Y-32594683D01*
X53384621Y-32591852D01*
X53389040Y-32586944D01*
X53412982Y-32545475D01*
X53481223Y-32427279D01*
X53481224Y-32427278D01*
X53484527Y-32421556D01*
X53543542Y-32239928D01*
X53563504Y-32050000D01*
X53560456Y-32020999D01*
X53544232Y-31866635D01*
X53544232Y-31866633D01*
X53543542Y-31860072D01*
X53484527Y-31678444D01*
X53389040Y-31513056D01*
X53377285Y-31500000D01*
X53265675Y-31376045D01*
X53265674Y-31376044D01*
X53261253Y-31371134D01*
X53106752Y-31258882D01*
X53100724Y-31256198D01*
X53100722Y-31256197D01*
X52938319Y-31183891D01*
X52938318Y-31183891D01*
X52932288Y-31181206D01*
X52835594Y-31160653D01*
X52751944Y-31142872D01*
X52751939Y-31142872D01*
X52745487Y-31141500D01*
X52554513Y-31141500D01*
X52548061Y-31142872D01*
X52548056Y-31142872D01*
X52464406Y-31160653D01*
X52367712Y-31181206D01*
X52361682Y-31183891D01*
X52361681Y-31183891D01*
X52199278Y-31256197D01*
X52199276Y-31256198D01*
X52193248Y-31258882D01*
X52038747Y-31371134D01*
X52034326Y-31376044D01*
X52034325Y-31376045D01*
X51922716Y-31500000D01*
X51910960Y-31513056D01*
X51815473Y-31678444D01*
X51756458Y-31860072D01*
X51755768Y-31866633D01*
X51755768Y-31866635D01*
X51739544Y-32020999D01*
X51736496Y-32050000D01*
X51756458Y-32239928D01*
X51815473Y-32421556D01*
X51818776Y-32427278D01*
X51818777Y-32427279D01*
X51887018Y-32545475D01*
X51910960Y-32586944D01*
X51915379Y-32591852D01*
X51917436Y-32594683D01*
X51941295Y-32661551D01*
X51941500Y-32668744D01*
X51941500Y-35481256D01*
X51921498Y-35549377D01*
X51917436Y-35555317D01*
X51915379Y-35558148D01*
X51910960Y-35563056D01*
X51907659Y-35568774D01*
X51907658Y-35568775D01*
X51833224Y-35697699D01*
X51815473Y-35728444D01*
X51756458Y-35910072D01*
X51755768Y-35916633D01*
X51755768Y-35916635D01*
X51751025Y-35961762D01*
X51736496Y-36100000D01*
X50471970Y-36100000D01*
X50009982Y-35638012D01*
X49975956Y-35575700D01*
X49973556Y-35537935D01*
X49973964Y-35533280D01*
X49993498Y-35310000D01*
X49973543Y-35081913D01*
X49963206Y-35043334D01*
X49915707Y-34866067D01*
X49915706Y-34866065D01*
X49914284Y-34860757D01*
X49911623Y-34855051D01*
X49819849Y-34658238D01*
X49819846Y-34658233D01*
X49817523Y-34653251D01*
X49713266Y-34504357D01*
X49689357Y-34470211D01*
X49689355Y-34470208D01*
X49686198Y-34465700D01*
X49524300Y-34303802D01*
X49519792Y-34300645D01*
X49519789Y-34300643D01*
X49397291Y-34214869D01*
X49336749Y-34172477D01*
X49331767Y-34170154D01*
X49331762Y-34170151D01*
X49297543Y-34154195D01*
X49244258Y-34107278D01*
X49224797Y-34039001D01*
X49245339Y-33971041D01*
X49297543Y-33925805D01*
X49331762Y-33909849D01*
X49331767Y-33909846D01*
X49336749Y-33907523D01*
X49450712Y-33827725D01*
X49519789Y-33779357D01*
X49519792Y-33779355D01*
X49524300Y-33776198D01*
X49686198Y-33614300D01*
X49697764Y-33597783D01*
X49769733Y-33495000D01*
X49817523Y-33426749D01*
X49819846Y-33421767D01*
X49819849Y-33421762D01*
X49911961Y-33224225D01*
X49911961Y-33224224D01*
X49914284Y-33219243D01*
X49919104Y-33201257D01*
X49972119Y-33003402D01*
X49972119Y-33003400D01*
X49973543Y-32998087D01*
X49993498Y-32770000D01*
X49973543Y-32541913D01*
X49972119Y-32536598D01*
X49915707Y-32326067D01*
X49915706Y-32326065D01*
X49914284Y-32320757D01*
X49911961Y-32315775D01*
X49819849Y-32118238D01*
X49819846Y-32118233D01*
X49817523Y-32113251D01*
X49711054Y-31961198D01*
X49689357Y-31930211D01*
X49689355Y-31930208D01*
X49686198Y-31925700D01*
X49524300Y-31763802D01*
X49519792Y-31760645D01*
X49519789Y-31760643D01*
X49427122Y-31695757D01*
X49336749Y-31632477D01*
X49331767Y-31630154D01*
X49331762Y-31630151D01*
X49297543Y-31614195D01*
X49244258Y-31567278D01*
X49224797Y-31499001D01*
X49245339Y-31431041D01*
X49297543Y-31385805D01*
X49331762Y-31369849D01*
X49331767Y-31369846D01*
X49336749Y-31367523D01*
X49481966Y-31265841D01*
X49519789Y-31239357D01*
X49519792Y-31239355D01*
X49524300Y-31236198D01*
X49686198Y-31074300D01*
X49705521Y-31046705D01*
X49769733Y-30955000D01*
X49817523Y-30886749D01*
X49819846Y-30881767D01*
X49819849Y-30881762D01*
X49911961Y-30684225D01*
X49911961Y-30684224D01*
X49914284Y-30679243D01*
X49954973Y-30527393D01*
X49972119Y-30463402D01*
X49972119Y-30463400D01*
X49973543Y-30458087D01*
X49993498Y-30230000D01*
X49973543Y-30001913D01*
X49959312Y-29948802D01*
X49915707Y-29786067D01*
X49915706Y-29786065D01*
X49914284Y-29780757D01*
X49911961Y-29775775D01*
X49819849Y-29578238D01*
X49819846Y-29578233D01*
X49817523Y-29573251D01*
X49732287Y-29451522D01*
X49689357Y-29390211D01*
X49689355Y-29390208D01*
X49686198Y-29385700D01*
X49524300Y-29223802D01*
X49519792Y-29220645D01*
X49519789Y-29220643D01*
X49420007Y-29150775D01*
X49336749Y-29092477D01*
X49331767Y-29090154D01*
X49331762Y-29090151D01*
X49134225Y-28998039D01*
X49134224Y-28998039D01*
X49129243Y-28995716D01*
X49123935Y-28994294D01*
X49123933Y-28994293D01*
X48913402Y-28937881D01*
X48913400Y-28937881D01*
X48908087Y-28936457D01*
X48680000Y-28916502D01*
X48451913Y-28936457D01*
X48446600Y-28937881D01*
X48446598Y-28937881D01*
X48236067Y-28994293D01*
X48236065Y-28994294D01*
X48230757Y-28995716D01*
X48225776Y-28998039D01*
X48225775Y-28998039D01*
X48028238Y-29090151D01*
X48028233Y-29090154D01*
X48023251Y-29092477D01*
X47939993Y-29150775D01*
X47840211Y-29220643D01*
X47840208Y-29220645D01*
X47835700Y-29223802D01*
X47673802Y-29385700D01*
X47670645Y-29390208D01*
X47670643Y-29390211D01*
X47627713Y-29451522D01*
X47542477Y-29573251D01*
X47540154Y-29578233D01*
X47540151Y-29578238D01*
X47448039Y-29775775D01*
X47445716Y-29780757D01*
X47444294Y-29786065D01*
X47444293Y-29786067D01*
X47400688Y-29948802D01*
X47386457Y-30001913D01*
X47366502Y-30230000D01*
X47386457Y-30458087D01*
X47387881Y-30463400D01*
X47387881Y-30463402D01*
X47405028Y-30527393D01*
X47445716Y-30679243D01*
X47448039Y-30684224D01*
X47448039Y-30684225D01*
X47540151Y-30881762D01*
X47540154Y-30881767D01*
X47542477Y-30886749D01*
X47590267Y-30955000D01*
X47654480Y-31046705D01*
X47673802Y-31074300D01*
X47835700Y-31236198D01*
X47840208Y-31239355D01*
X47840211Y-31239357D01*
X47878034Y-31265841D01*
X48023251Y-31367523D01*
X48028233Y-31369846D01*
X48028238Y-31369849D01*
X48062457Y-31385805D01*
X48115742Y-31432722D01*
X48135203Y-31500999D01*
X48114661Y-31568959D01*
X48062457Y-31614195D01*
X48028238Y-31630151D01*
X48028233Y-31630154D01*
X48023251Y-31632477D01*
X47932878Y-31695757D01*
X47840211Y-31760643D01*
X47840208Y-31760645D01*
X47835700Y-31763802D01*
X47673802Y-31925700D01*
X47670645Y-31930208D01*
X47670643Y-31930211D01*
X47648946Y-31961198D01*
X47542477Y-32113251D01*
X47540154Y-32118233D01*
X47540151Y-32118238D01*
X47448039Y-32315775D01*
X47445716Y-32320757D01*
X47444294Y-32326065D01*
X47444293Y-32326067D01*
X47387881Y-32536598D01*
X47386457Y-32541913D01*
X47366502Y-32770000D01*
X47386457Y-32998087D01*
X47387881Y-33003400D01*
X47387881Y-33003402D01*
X47440897Y-33201257D01*
X47445716Y-33219243D01*
X47448039Y-33224224D01*
X47448039Y-33224225D01*
X47540151Y-33421762D01*
X47540154Y-33421767D01*
X47542477Y-33426749D01*
X47590267Y-33495000D01*
X47662237Y-33597783D01*
X47673802Y-33614300D01*
X47835700Y-33776198D01*
X47840208Y-33779355D01*
X47840211Y-33779357D01*
X47909288Y-33827725D01*
X48023251Y-33907523D01*
X48028233Y-33909846D01*
X48028238Y-33909849D01*
X48062457Y-33925805D01*
X48115742Y-33972722D01*
X48135203Y-34040999D01*
X48114661Y-34108959D01*
X48062457Y-34154195D01*
X48028238Y-34170151D01*
X48028233Y-34170154D01*
X48023251Y-34172477D01*
X47962709Y-34214869D01*
X47840211Y-34300643D01*
X47840208Y-34300645D01*
X47835700Y-34303802D01*
X47673802Y-34465700D01*
X47670645Y-34470208D01*
X47670643Y-34470211D01*
X47646734Y-34504357D01*
X47542477Y-34653251D01*
X47540154Y-34658233D01*
X47540151Y-34658238D01*
X47448377Y-34855051D01*
X47445716Y-34860757D01*
X47444294Y-34866065D01*
X47444293Y-34866067D01*
X47396794Y-35043334D01*
X47386457Y-35081913D01*
X47366502Y-35310000D01*
X47386457Y-35538087D01*
X47387881Y-35543400D01*
X47387881Y-35543402D01*
X47427335Y-35690643D01*
X47445716Y-35759243D01*
X47448039Y-35764224D01*
X47448039Y-35764225D01*
X47540151Y-35961762D01*
X47540154Y-35961767D01*
X47542477Y-35966749D01*
X47597812Y-36045775D01*
X47651014Y-36121755D01*
X47673802Y-36154300D01*
X47835700Y-36316198D01*
X47840208Y-36319355D01*
X47840211Y-36319357D01*
X47845260Y-36322892D01*
X48023251Y-36447523D01*
X48028233Y-36449846D01*
X48028238Y-36449849D01*
X48062457Y-36465805D01*
X48115742Y-36512722D01*
X48135203Y-36580999D01*
X48114661Y-36648959D01*
X48062457Y-36694195D01*
X48028238Y-36710151D01*
X48028233Y-36710154D01*
X48023251Y-36712477D01*
X47949589Y-36764056D01*
X47840211Y-36840643D01*
X47840208Y-36840645D01*
X47835700Y-36843802D01*
X47673802Y-37005700D01*
X47542477Y-37193251D01*
X47540154Y-37198233D01*
X47540151Y-37198238D01*
X47448039Y-37395775D01*
X47445716Y-37400757D01*
X47444294Y-37406065D01*
X47444293Y-37406067D01*
X47387881Y-37616598D01*
X47386457Y-37621913D01*
X47366502Y-37850000D01*
X33308500Y-37850000D01*
X33308500Y-31678834D01*
X42360999Y-31678834D01*
X42376826Y-31953325D01*
X42377651Y-31957530D01*
X42377652Y-31957538D01*
X42403106Y-32087278D01*
X42429759Y-32223128D01*
X42431146Y-32227178D01*
X42431147Y-32227183D01*
X42504628Y-32441803D01*
X42518819Y-32483251D01*
X42551079Y-32547393D01*
X42639311Y-32722822D01*
X42642358Y-32728881D01*
X42644784Y-32732410D01*
X42644787Y-32732416D01*
X42715824Y-32835775D01*
X42798089Y-32955471D01*
X42800976Y-32958644D01*
X42800977Y-32958645D01*
X42836867Y-32998087D01*
X42983132Y-33158830D01*
X42986421Y-33161580D01*
X43190775Y-33332448D01*
X43190780Y-33332452D01*
X43194061Y-33335195D01*
X43426975Y-33481301D01*
X43430877Y-33483063D01*
X43430881Y-33483065D01*
X43673650Y-33592680D01*
X43673654Y-33592682D01*
X43677562Y-33594446D01*
X43681681Y-33595666D01*
X43937073Y-33671317D01*
X43937077Y-33671318D01*
X43941186Y-33672535D01*
X43945420Y-33673183D01*
X43945425Y-33673184D01*
X44208727Y-33713474D01*
X44208729Y-33713474D01*
X44212969Y-33714123D01*
X44352909Y-33716322D01*
X44483591Y-33718375D01*
X44483597Y-33718375D01*
X44487882Y-33718442D01*
X44760837Y-33685411D01*
X45026784Y-33615641D01*
X45280802Y-33510423D01*
X45307196Y-33495000D01*
X45514492Y-33373866D01*
X45514493Y-33373866D01*
X45518190Y-33371705D01*
X45535673Y-33357997D01*
X45731183Y-33204697D01*
X45734555Y-33202053D01*
X45751587Y-33184478D01*
X45922911Y-33007685D01*
X45925894Y-33004607D01*
X45928427Y-33001159D01*
X45928431Y-33001154D01*
X46086128Y-32786475D01*
X46088666Y-32783020D01*
X46116142Y-32732416D01*
X46217809Y-32545168D01*
X46217810Y-32545166D01*
X46219859Y-32541392D01*
X46317046Y-32284195D01*
X46346490Y-32155634D01*
X46377471Y-32020367D01*
X46377472Y-32020362D01*
X46378428Y-32016187D01*
X46402869Y-31742329D01*
X46403312Y-31700000D01*
X46401869Y-31678834D01*
X46384903Y-31429967D01*
X46384902Y-31429961D01*
X46384611Y-31425690D01*
X46380272Y-31404735D01*
X46346500Y-31241656D01*
X46328856Y-31156456D01*
X46237077Y-30897280D01*
X46161060Y-30750000D01*
X46112938Y-30656765D01*
X46112938Y-30656764D01*
X46110973Y-30652958D01*
X46098290Y-30634911D01*
X45974015Y-30458087D01*
X45952877Y-30428010D01*
X45871293Y-30340215D01*
X45768636Y-30229743D01*
X45768633Y-30229740D01*
X45765715Y-30226600D01*
X45552950Y-30052454D01*
X45318520Y-29908795D01*
X45314584Y-29907067D01*
X45070689Y-29800004D01*
X45070685Y-29800003D01*
X45066761Y-29798280D01*
X44802334Y-29722956D01*
X44600147Y-29694181D01*
X44534382Y-29684821D01*
X44534380Y-29684821D01*
X44530130Y-29684216D01*
X44525841Y-29684194D01*
X44525834Y-29684193D01*
X44259473Y-29682798D01*
X44259466Y-29682798D01*
X44255187Y-29682776D01*
X44250943Y-29683335D01*
X44250939Y-29683335D01*
X44141677Y-29697720D01*
X43982593Y-29718664D01*
X43978453Y-29719797D01*
X43978451Y-29719797D01*
X43913594Y-29737540D01*
X43717391Y-29791215D01*
X43713443Y-29792899D01*
X43468441Y-29897401D01*
X43468437Y-29897403D01*
X43464489Y-29899087D01*
X43381421Y-29948802D01*
X43232249Y-30038079D01*
X43232245Y-30038082D01*
X43228567Y-30040283D01*
X43225224Y-30042961D01*
X43225220Y-30042964D01*
X43120619Y-30126766D01*
X43013990Y-30212192D01*
X43011046Y-30215294D01*
X43011042Y-30215298D01*
X42892500Y-30340215D01*
X42824729Y-30411631D01*
X42822230Y-30415109D01*
X42822229Y-30415110D01*
X42666795Y-30631420D01*
X42666792Y-30631425D01*
X42664287Y-30634911D01*
X42535631Y-30877899D01*
X42516665Y-30929727D01*
X42457367Y-31091767D01*
X42441143Y-31136100D01*
X42382571Y-31404735D01*
X42382235Y-31409005D01*
X42372107Y-31537699D01*
X42360999Y-31678834D01*
X33308500Y-31678834D01*
X33308500Y-28482409D01*
X33328502Y-28414288D01*
X33382158Y-28367795D01*
X33452432Y-28357691D01*
X33515323Y-28385746D01*
X33690775Y-28532448D01*
X33690780Y-28532452D01*
X33694061Y-28535195D01*
X33697687Y-28537470D01*
X33697689Y-28537471D01*
X33737616Y-28562517D01*
X33926975Y-28681301D01*
X33930877Y-28683063D01*
X33930881Y-28683065D01*
X34173650Y-28792680D01*
X34173654Y-28792682D01*
X34177562Y-28794446D01*
X34181681Y-28795666D01*
X34437073Y-28871317D01*
X34437077Y-28871318D01*
X34441186Y-28872535D01*
X34445420Y-28873183D01*
X34445425Y-28873184D01*
X34708727Y-28913474D01*
X34708729Y-28913474D01*
X34712969Y-28914123D01*
X34852909Y-28916322D01*
X34983591Y-28918375D01*
X34983597Y-28918375D01*
X34987882Y-28918442D01*
X35260837Y-28885411D01*
X35446363Y-28836739D01*
X35522641Y-28816728D01*
X35522642Y-28816728D01*
X35526784Y-28815641D01*
X35780802Y-28710423D01*
X35801626Y-28698255D01*
X36014492Y-28573866D01*
X36014493Y-28573866D01*
X36018190Y-28571705D01*
X36024617Y-28566666D01*
X36231183Y-28404697D01*
X36234555Y-28402053D01*
X36242907Y-28393435D01*
X36422911Y-28207685D01*
X36425894Y-28204607D01*
X36428427Y-28201159D01*
X36428431Y-28201154D01*
X36586128Y-27986475D01*
X36588666Y-27983020D01*
X36627766Y-27911006D01*
X36717809Y-27745168D01*
X36717810Y-27745166D01*
X36719859Y-27741392D01*
X36817046Y-27484195D01*
X36824878Y-27450000D01*
X46536502Y-27450000D01*
X46556457Y-27678087D01*
X46557881Y-27683400D01*
X46557881Y-27683402D01*
X46606120Y-27863429D01*
X46615716Y-27899243D01*
X46618039Y-27904224D01*
X46618039Y-27904225D01*
X46710151Y-28101762D01*
X46710154Y-28101767D01*
X46712477Y-28106749D01*
X46778580Y-28201154D01*
X46819335Y-28259357D01*
X46843802Y-28294300D01*
X47005700Y-28456198D01*
X47010208Y-28459355D01*
X47010211Y-28459357D01*
X47042493Y-28481961D01*
X47193251Y-28587523D01*
X47198233Y-28589846D01*
X47198238Y-28589849D01*
X47356245Y-28663528D01*
X47400757Y-28684284D01*
X47406065Y-28685706D01*
X47406067Y-28685707D01*
X47616598Y-28742119D01*
X47616600Y-28742119D01*
X47621913Y-28743543D01*
X47850000Y-28763498D01*
X48078087Y-28743543D01*
X48083400Y-28742119D01*
X48083402Y-28742119D01*
X48293933Y-28685707D01*
X48293935Y-28685706D01*
X48299243Y-28684284D01*
X48343755Y-28663528D01*
X48501762Y-28589849D01*
X48501767Y-28589846D01*
X48506749Y-28587523D01*
X48657507Y-28481961D01*
X48689789Y-28459357D01*
X48689792Y-28459355D01*
X48694300Y-28456198D01*
X48814436Y-28336062D01*
X52828493Y-28336062D01*
X52837789Y-28348077D01*
X52888994Y-28383931D01*
X52898489Y-28389414D01*
X53095947Y-28481490D01*
X53106239Y-28485236D01*
X53316688Y-28541625D01*
X53327481Y-28543528D01*
X53544525Y-28562517D01*
X53555475Y-28562517D01*
X53772519Y-28543528D01*
X53783312Y-28541625D01*
X53993761Y-28485236D01*
X54004053Y-28481490D01*
X54201511Y-28389414D01*
X54211006Y-28383931D01*
X54263048Y-28347491D01*
X54271424Y-28337012D01*
X54264356Y-28323566D01*
X53562812Y-27622022D01*
X53548868Y-27614408D01*
X53547035Y-27614539D01*
X53540420Y-27618790D01*
X52834923Y-28324287D01*
X52828493Y-28336062D01*
X48814436Y-28336062D01*
X48856198Y-28294300D01*
X48880666Y-28259357D01*
X48921420Y-28201154D01*
X48987523Y-28106749D01*
X48989846Y-28101767D01*
X48989849Y-28101762D01*
X49081961Y-27904225D01*
X49081961Y-27904224D01*
X49084284Y-27899243D01*
X49093881Y-27863429D01*
X49142119Y-27683402D01*
X49142119Y-27683400D01*
X49143543Y-27678087D01*
X49163498Y-27450000D01*
X49146479Y-27255475D01*
X52237483Y-27255475D01*
X52256472Y-27472519D01*
X52258375Y-27483312D01*
X52314764Y-27693761D01*
X52318510Y-27704053D01*
X52410586Y-27901511D01*
X52416069Y-27911006D01*
X52452509Y-27963048D01*
X52462988Y-27971424D01*
X52476434Y-27964356D01*
X53177978Y-27262812D01*
X53184356Y-27251132D01*
X53914408Y-27251132D01*
X53914539Y-27252965D01*
X53918790Y-27259580D01*
X54624287Y-27965077D01*
X54636062Y-27971507D01*
X54648077Y-27962211D01*
X54683934Y-27911002D01*
X54690591Y-27899472D01*
X54741973Y-27850479D01*
X54811687Y-27837042D01*
X54877598Y-27863429D01*
X54908829Y-27899472D01*
X54910153Y-27901765D01*
X54912477Y-27906749D01*
X54915631Y-27911253D01*
X55040381Y-28089414D01*
X55043802Y-28094300D01*
X55205700Y-28256198D01*
X55210208Y-28259355D01*
X55210211Y-28259357D01*
X55269889Y-28301144D01*
X55393251Y-28387523D01*
X55398233Y-28389846D01*
X55398238Y-28389849D01*
X55564714Y-28467477D01*
X55600757Y-28484284D01*
X55606065Y-28485706D01*
X55606067Y-28485707D01*
X55816598Y-28542119D01*
X55816600Y-28542119D01*
X55821913Y-28543543D01*
X56050000Y-28563498D01*
X56278087Y-28543543D01*
X56283400Y-28542119D01*
X56283402Y-28542119D01*
X56493933Y-28485707D01*
X56493935Y-28485706D01*
X56499243Y-28484284D01*
X56535286Y-28467477D01*
X56701762Y-28389849D01*
X56701767Y-28389846D01*
X56706749Y-28387523D01*
X56830111Y-28301144D01*
X56889789Y-28259357D01*
X56889792Y-28259355D01*
X56894300Y-28256198D01*
X57056198Y-28094300D01*
X57059620Y-28089414D01*
X57155627Y-27952301D01*
X57187523Y-27906749D01*
X57189846Y-27901767D01*
X57189849Y-27901762D01*
X57281961Y-27704225D01*
X57281961Y-27704224D01*
X57284284Y-27699243D01*
X57292874Y-27667187D01*
X57342119Y-27483402D01*
X57342119Y-27483400D01*
X57343543Y-27478087D01*
X57363498Y-27250000D01*
X57343543Y-27021913D01*
X57323971Y-26948868D01*
X57285707Y-26806067D01*
X57285706Y-26806065D01*
X57284284Y-26800757D01*
X57257555Y-26743436D01*
X57189849Y-26598238D01*
X57189846Y-26598233D01*
X57187523Y-26593251D01*
X57085606Y-26447699D01*
X57059357Y-26410211D01*
X57059355Y-26410208D01*
X57056198Y-26405700D01*
X56894300Y-26243802D01*
X56889792Y-26240645D01*
X56889789Y-26240643D01*
X56778886Y-26162988D01*
X56706749Y-26112477D01*
X56701767Y-26110154D01*
X56701762Y-26110151D01*
X56561334Y-26044669D01*
X61392001Y-26044669D01*
X61392371Y-26051490D01*
X61397895Y-26102352D01*
X61401521Y-26117604D01*
X61446676Y-26238054D01*
X61455214Y-26253649D01*
X61531715Y-26355724D01*
X61544276Y-26368285D01*
X61646351Y-26444786D01*
X61661946Y-26453324D01*
X61782394Y-26498478D01*
X61797649Y-26502105D01*
X61848514Y-26507631D01*
X61855328Y-26508000D01*
X62302885Y-26508000D01*
X62318124Y-26503525D01*
X62319329Y-26502135D01*
X62321000Y-26494452D01*
X62321000Y-26489884D01*
X62829000Y-26489884D01*
X62833475Y-26505123D01*
X62834865Y-26506328D01*
X62842548Y-26507999D01*
X63294669Y-26507999D01*
X63301490Y-26507629D01*
X63352352Y-26502105D01*
X63367604Y-26498479D01*
X63488054Y-26453324D01*
X63503649Y-26444786D01*
X63605724Y-26368285D01*
X63618285Y-26355724D01*
X63694786Y-26253649D01*
X63703324Y-26238054D01*
X63748478Y-26117606D01*
X63752105Y-26102351D01*
X63757631Y-26051486D01*
X63758000Y-26044672D01*
X63758000Y-26044669D01*
X67042001Y-26044669D01*
X67042371Y-26051490D01*
X67047895Y-26102352D01*
X67051521Y-26117604D01*
X67096676Y-26238054D01*
X67105214Y-26253649D01*
X67181715Y-26355724D01*
X67194276Y-26368285D01*
X67296351Y-26444786D01*
X67311946Y-26453324D01*
X67432394Y-26498478D01*
X67447649Y-26502105D01*
X67498514Y-26507631D01*
X67505328Y-26508000D01*
X67952885Y-26508000D01*
X67968124Y-26503525D01*
X67969329Y-26502135D01*
X67971000Y-26494452D01*
X67971000Y-24172115D01*
X67966525Y-24156876D01*
X67965135Y-24155671D01*
X67957452Y-24154000D01*
X67060116Y-24154000D01*
X67044877Y-24158475D01*
X67043672Y-24159865D01*
X67042001Y-24167548D01*
X67042001Y-26044669D01*
X63758000Y-26044669D01*
X63758000Y-24172115D01*
X63753525Y-24156876D01*
X63752135Y-24155671D01*
X63744452Y-24154000D01*
X62847115Y-24154000D01*
X62831876Y-24158475D01*
X62830671Y-24159865D01*
X62829000Y-24167548D01*
X62829000Y-26489884D01*
X62321000Y-26489884D01*
X62321000Y-24172115D01*
X62316525Y-24156876D01*
X62315135Y-24155671D01*
X62307452Y-24154000D01*
X61410116Y-24154000D01*
X61394877Y-24158475D01*
X61393672Y-24159865D01*
X61392001Y-24167548D01*
X61392001Y-26044669D01*
X56561334Y-26044669D01*
X56504225Y-26018039D01*
X56504224Y-26018039D01*
X56499243Y-26015716D01*
X56493935Y-26014294D01*
X56493933Y-26014293D01*
X56283402Y-25957881D01*
X56283400Y-25957881D01*
X56278087Y-25956457D01*
X56050000Y-25936502D01*
X55821913Y-25956457D01*
X55816600Y-25957881D01*
X55816598Y-25957881D01*
X55606067Y-26014293D01*
X55606065Y-26014294D01*
X55600757Y-26015716D01*
X55595776Y-26018039D01*
X55595775Y-26018039D01*
X55398238Y-26110151D01*
X55398233Y-26110154D01*
X55393251Y-26112477D01*
X55321114Y-26162988D01*
X55210211Y-26240643D01*
X55210208Y-26240645D01*
X55205700Y-26243802D01*
X55043802Y-26405700D01*
X55040645Y-26410208D01*
X55040643Y-26410211D01*
X54984145Y-26490899D01*
X54912477Y-26593251D01*
X54910153Y-26598235D01*
X54908829Y-26600528D01*
X54857447Y-26649521D01*
X54787733Y-26662957D01*
X54721822Y-26636571D01*
X54690591Y-26600528D01*
X54683934Y-26588998D01*
X54647491Y-26536952D01*
X54637012Y-26528576D01*
X54623566Y-26535644D01*
X53922022Y-27237188D01*
X53914408Y-27251132D01*
X53184356Y-27251132D01*
X53185592Y-27248868D01*
X53185461Y-27247035D01*
X53181210Y-27240420D01*
X52475713Y-26534923D01*
X52463938Y-26528493D01*
X52451923Y-26537789D01*
X52416069Y-26588994D01*
X52410586Y-26598489D01*
X52318510Y-26795947D01*
X52314764Y-26806239D01*
X52258375Y-27016688D01*
X52256472Y-27027481D01*
X52237483Y-27244525D01*
X52237483Y-27255475D01*
X49146479Y-27255475D01*
X49143543Y-27221913D01*
X49142009Y-27216187D01*
X49085707Y-27006067D01*
X49085706Y-27006065D01*
X49084284Y-27000757D01*
X49070992Y-26972251D01*
X48989849Y-26798238D01*
X48989846Y-26798233D01*
X48987523Y-26793251D01*
X48870195Y-26625690D01*
X48859357Y-26610211D01*
X48859355Y-26610208D01*
X48856198Y-26605700D01*
X48694300Y-26443802D01*
X48689792Y-26440645D01*
X48689789Y-26440643D01*
X48559653Y-26349521D01*
X48506749Y-26312477D01*
X48501765Y-26310153D01*
X48499472Y-26308829D01*
X48450479Y-26257447D01*
X48437043Y-26187733D01*
X48446949Y-26162988D01*
X52828576Y-26162988D01*
X52835644Y-26176434D01*
X53537188Y-26877978D01*
X53551132Y-26885592D01*
X53552965Y-26885461D01*
X53559580Y-26881210D01*
X54265077Y-26175713D01*
X54271507Y-26163938D01*
X54262211Y-26151923D01*
X54211006Y-26116069D01*
X54201511Y-26110586D01*
X54004053Y-26018510D01*
X53993761Y-26014764D01*
X53783312Y-25958375D01*
X53772519Y-25956472D01*
X53555475Y-25937483D01*
X53544525Y-25937483D01*
X53327481Y-25956472D01*
X53316688Y-25958375D01*
X53106239Y-26014764D01*
X53095947Y-26018510D01*
X52898489Y-26110586D01*
X52888994Y-26116069D01*
X52836952Y-26152509D01*
X52828576Y-26162988D01*
X48446949Y-26162988D01*
X48463429Y-26121822D01*
X48499472Y-26090591D01*
X48511002Y-26083934D01*
X48563048Y-26047491D01*
X48571424Y-26037012D01*
X48564356Y-26023566D01*
X47862812Y-25322022D01*
X47848868Y-25314408D01*
X47847035Y-25314539D01*
X47840420Y-25318790D01*
X47134923Y-26024287D01*
X47128493Y-26036062D01*
X47137789Y-26048077D01*
X47188998Y-26083934D01*
X47200528Y-26090591D01*
X47249521Y-26141973D01*
X47262958Y-26211687D01*
X47236571Y-26277598D01*
X47200528Y-26308829D01*
X47198235Y-26310153D01*
X47193251Y-26312477D01*
X47140347Y-26349521D01*
X47010211Y-26440643D01*
X47010208Y-26440645D01*
X47005700Y-26443802D01*
X46843802Y-26605700D01*
X46840645Y-26610208D01*
X46840643Y-26610211D01*
X46829805Y-26625690D01*
X46712477Y-26793251D01*
X46710154Y-26798233D01*
X46710151Y-26798238D01*
X46629008Y-26972251D01*
X46615716Y-27000757D01*
X46614294Y-27006065D01*
X46614293Y-27006067D01*
X46557991Y-27216187D01*
X46556457Y-27221913D01*
X46536502Y-27450000D01*
X36824878Y-27450000D01*
X36854929Y-27318790D01*
X36877471Y-27220367D01*
X36877472Y-27220362D01*
X36878428Y-27216187D01*
X36902869Y-26942329D01*
X36903312Y-26900000D01*
X36896546Y-26800757D01*
X36884903Y-26629967D01*
X36884902Y-26629961D01*
X36884611Y-26625690D01*
X36881406Y-26610211D01*
X36831195Y-26367749D01*
X36828856Y-26356456D01*
X36737077Y-26097280D01*
X36664146Y-25955978D01*
X36612938Y-25856765D01*
X36612938Y-25856764D01*
X36610973Y-25852958D01*
X36603885Y-25842872D01*
X36474218Y-25658375D01*
X36452877Y-25628010D01*
X36265715Y-25426600D01*
X36052950Y-25252454D01*
X35818520Y-25108795D01*
X35814584Y-25107067D01*
X35570689Y-25000004D01*
X35570685Y-25000003D01*
X35566761Y-24998280D01*
X35556419Y-24995334D01*
X38152039Y-24995334D01*
X38159092Y-25005305D01*
X38191064Y-25032038D01*
X38197996Y-25037073D01*
X38423565Y-25178573D01*
X38431132Y-25182630D01*
X38673824Y-25292209D01*
X38681854Y-25295196D01*
X38937183Y-25370828D01*
X38945535Y-25372695D01*
X39208769Y-25412975D01*
X39217303Y-25413691D01*
X39483565Y-25417875D01*
X39492116Y-25417426D01*
X39756485Y-25385434D01*
X39764886Y-25383832D01*
X40022482Y-25316253D01*
X40030584Y-25313526D01*
X40276614Y-25211617D01*
X40284282Y-25207811D01*
X40514205Y-25073455D01*
X40521286Y-25068642D01*
X40602453Y-25005000D01*
X40610923Y-24993141D01*
X40604406Y-24981517D01*
X40578364Y-24955475D01*
X46537483Y-24955475D01*
X46556472Y-25172519D01*
X46558375Y-25183312D01*
X46614764Y-25393761D01*
X46618510Y-25404053D01*
X46710586Y-25601511D01*
X46716069Y-25611006D01*
X46752509Y-25663048D01*
X46762988Y-25671424D01*
X46776434Y-25664356D01*
X47477978Y-24962812D01*
X47484356Y-24951132D01*
X48214408Y-24951132D01*
X48214539Y-24952965D01*
X48218790Y-24959580D01*
X48924287Y-25665077D01*
X48936062Y-25671507D01*
X48948077Y-25662211D01*
X48983931Y-25611006D01*
X48989414Y-25601511D01*
X49081490Y-25404053D01*
X49085236Y-25393761D01*
X49141625Y-25183312D01*
X49143528Y-25172519D01*
X49162517Y-24955475D01*
X49162517Y-24944525D01*
X49143528Y-24727481D01*
X49141625Y-24716687D01*
X49127979Y-24665758D01*
X49129669Y-24594781D01*
X49169463Y-24535986D01*
X49234728Y-24508038D01*
X49304742Y-24519812D01*
X49344923Y-24550649D01*
X49396147Y-24609784D01*
X49574349Y-24757730D01*
X49774322Y-24874584D01*
X49779147Y-24876426D01*
X49779148Y-24876427D01*
X49801130Y-24884821D01*
X49990694Y-24957209D01*
X49995760Y-24958240D01*
X49995761Y-24958240D01*
X50018858Y-24962939D01*
X50217656Y-25003385D01*
X50347089Y-25008131D01*
X50443949Y-25011683D01*
X50443953Y-25011683D01*
X50449113Y-25011872D01*
X50454233Y-25011216D01*
X50454235Y-25011216D01*
X50541756Y-25000004D01*
X50678847Y-24982442D01*
X50683795Y-24980957D01*
X50683802Y-24980956D01*
X50895747Y-24917369D01*
X50900690Y-24915886D01*
X50967135Y-24883335D01*
X51104049Y-24816262D01*
X51104052Y-24816260D01*
X51108684Y-24813991D01*
X51297243Y-24679494D01*
X51342309Y-24634585D01*
X51404681Y-24600669D01*
X51475487Y-24605857D01*
X51532249Y-24648503D01*
X51549231Y-24679607D01*
X51574385Y-24746705D01*
X51661739Y-24863261D01*
X51778295Y-24950615D01*
X51914684Y-25001745D01*
X51976866Y-25008500D01*
X53873134Y-25008500D01*
X53935316Y-25001745D01*
X54071705Y-24950615D01*
X54188261Y-24863261D01*
X54275615Y-24746705D01*
X54326745Y-24610316D01*
X54333500Y-24548134D01*
X54333500Y-22651866D01*
X54326745Y-22589684D01*
X54275615Y-22453295D01*
X54188261Y-22336739D01*
X54071705Y-22249385D01*
X53935316Y-22198255D01*
X53873134Y-22191500D01*
X51976866Y-22191500D01*
X51914684Y-22198255D01*
X51778295Y-22249385D01*
X51661739Y-22336739D01*
X51574385Y-22453295D01*
X51571233Y-22461703D01*
X51571232Y-22461705D01*
X51550538Y-22516906D01*
X51507897Y-22573671D01*
X51441335Y-22598371D01*
X51371986Y-22583164D01*
X51349167Y-22566666D01*
X51348887Y-22566358D01*
X51216373Y-22461705D01*
X51171177Y-22426011D01*
X51171172Y-22426008D01*
X51167123Y-22422810D01*
X51162607Y-22420317D01*
X51162604Y-22420315D01*
X50968879Y-22313373D01*
X50968875Y-22313371D01*
X50964355Y-22310876D01*
X50959486Y-22309152D01*
X50959482Y-22309150D01*
X50750903Y-22235288D01*
X50750899Y-22235287D01*
X50746028Y-22233562D01*
X50740935Y-22232655D01*
X50740932Y-22232654D01*
X50523095Y-22193851D01*
X50523089Y-22193850D01*
X50518006Y-22192945D01*
X50445096Y-22192054D01*
X50291581Y-22190179D01*
X50291579Y-22190179D01*
X50286411Y-22190116D01*
X50057464Y-22225150D01*
X49837314Y-22297106D01*
X49832726Y-22299494D01*
X49832722Y-22299496D01*
X49736258Y-22349712D01*
X49631872Y-22404052D01*
X49627739Y-22407155D01*
X49627736Y-22407157D01*
X49450790Y-22540012D01*
X49446655Y-22543117D01*
X49286639Y-22710564D01*
X49156119Y-22901899D01*
X49058602Y-23111981D01*
X48996707Y-23335169D01*
X48972095Y-23565469D01*
X48972392Y-23570622D01*
X48972392Y-23570625D01*
X48981443Y-23727604D01*
X48985427Y-23796697D01*
X48986564Y-23801743D01*
X48986565Y-23801749D01*
X49012942Y-23918791D01*
X49036346Y-24022642D01*
X49038290Y-24027428D01*
X49038291Y-24027433D01*
X49048516Y-24052615D01*
X49055612Y-24123256D01*
X49023389Y-24186519D01*
X48962079Y-24222319D01*
X48946894Y-24223382D01*
X48923566Y-24235644D01*
X48222022Y-24937188D01*
X48214408Y-24951132D01*
X47484356Y-24951132D01*
X47485592Y-24948868D01*
X47485461Y-24947035D01*
X47481210Y-24940420D01*
X46775713Y-24234923D01*
X46763938Y-24228493D01*
X46751923Y-24237789D01*
X46716069Y-24288994D01*
X46710586Y-24298489D01*
X46618510Y-24495947D01*
X46614764Y-24506239D01*
X46558375Y-24716688D01*
X46556472Y-24727481D01*
X46537483Y-24944525D01*
X46537483Y-24955475D01*
X40578364Y-24955475D01*
X39394910Y-23772020D01*
X39380969Y-23764408D01*
X39379134Y-23764539D01*
X39372520Y-23768790D01*
X38159331Y-24981980D01*
X38152039Y-24995334D01*
X35556419Y-24995334D01*
X35302334Y-24922956D01*
X35100147Y-24894181D01*
X35034382Y-24884821D01*
X35034380Y-24884821D01*
X35030130Y-24884216D01*
X35025841Y-24884194D01*
X35025834Y-24884193D01*
X34759473Y-24882798D01*
X34759466Y-24882798D01*
X34755187Y-24882776D01*
X34750943Y-24883335D01*
X34750939Y-24883335D01*
X34630954Y-24899132D01*
X34482593Y-24918664D01*
X34217391Y-24991215D01*
X34213443Y-24992899D01*
X33968441Y-25097401D01*
X33968437Y-25097403D01*
X33964489Y-25099087D01*
X33944519Y-25111039D01*
X33732249Y-25238079D01*
X33732245Y-25238082D01*
X33728567Y-25240283D01*
X33725224Y-25242961D01*
X33725220Y-25242964D01*
X33513990Y-25412192D01*
X33512797Y-25410702D01*
X33456108Y-25438643D01*
X33385566Y-25430620D01*
X33330561Y-25385732D01*
X33308500Y-25314510D01*
X33308500Y-23383120D01*
X37361747Y-23383120D01*
X37377076Y-23648975D01*
X37378149Y-23657475D01*
X37429418Y-23918791D01*
X37431631Y-23927053D01*
X37517892Y-24179001D01*
X37521208Y-24186888D01*
X37640862Y-24424795D01*
X37645219Y-24432161D01*
X37775694Y-24622003D01*
X37785947Y-24630347D01*
X37799688Y-24623201D01*
X39010080Y-23412810D01*
X39016457Y-23401131D01*
X39746508Y-23401131D01*
X39746639Y-23402966D01*
X39750890Y-23409580D01*
X40963553Y-24622242D01*
X40975763Y-24628910D01*
X40987261Y-24620221D01*
X41085705Y-24486206D01*
X41090289Y-24478983D01*
X41217353Y-24244959D01*
X41220921Y-24237165D01*
X41315050Y-23988062D01*
X41317523Y-23979870D01*
X41344293Y-23862988D01*
X47128576Y-23862988D01*
X47135644Y-23876434D01*
X47837188Y-24577978D01*
X47851132Y-24585592D01*
X47852965Y-24585461D01*
X47859580Y-24581210D01*
X48565077Y-23875713D01*
X48571507Y-23863938D01*
X48562211Y-23851923D01*
X48511006Y-23816069D01*
X48501511Y-23810586D01*
X48304053Y-23718510D01*
X48293761Y-23714764D01*
X48083312Y-23658375D01*
X48072519Y-23656472D01*
X47855475Y-23637483D01*
X47844525Y-23637483D01*
X47627481Y-23656472D01*
X47616688Y-23658375D01*
X47406239Y-23714764D01*
X47395947Y-23718510D01*
X47198489Y-23810586D01*
X47188994Y-23816069D01*
X47136952Y-23852509D01*
X47128576Y-23862988D01*
X41344293Y-23862988D01*
X41376976Y-23720289D01*
X41378314Y-23711835D01*
X41402148Y-23444784D01*
X41402394Y-23439846D01*
X41402785Y-23402485D01*
X41402642Y-23397519D01*
X41384407Y-23130035D01*
X41383246Y-23121561D01*
X41329242Y-22860788D01*
X41326943Y-22852553D01*
X41238048Y-22601520D01*
X41234651Y-22593670D01*
X41112509Y-22357024D01*
X41108081Y-22349712D01*
X40987874Y-22178675D01*
X40977352Y-22170295D01*
X40963964Y-22177347D01*
X39754120Y-23387190D01*
X39746508Y-23401131D01*
X39016457Y-23401131D01*
X39017692Y-23398869D01*
X39017561Y-23397034D01*
X39013310Y-23390420D01*
X37800181Y-22177292D01*
X37788170Y-22170733D01*
X37776432Y-22179701D01*
X37667218Y-22331688D01*
X37662706Y-22338964D01*
X37538094Y-22574316D01*
X37534615Y-22582130D01*
X37443099Y-22832209D01*
X37440710Y-22840432D01*
X37383980Y-23100622D01*
X37382731Y-23109078D01*
X37361836Y-23374570D01*
X37361747Y-23383120D01*
X33308500Y-23383120D01*
X33308500Y-21934500D01*
X33328502Y-21866379D01*
X33382158Y-21819886D01*
X33434500Y-21808500D01*
X38097621Y-21808500D01*
X38165742Y-21828502D01*
G37*
%TD.AperFunction*%
%TD*%
M02*
