M48
; DRILL file {KiCad (6.0.7)} date Wed Dec  7 12:15:58 2022
; FORMAT={-:-/ absolute / metric / decimal}
; #@! TF.CreationDate,2022-12-07T12:15:58-08:00
; #@! TF.GenerationSoftware,Kicad,Pcbnew,(6.0.7)
; #@! TF.FileFunction,Plated,1,2,PTH
FMAT,2
METRIC
; #@! TA.AperFunction,Plated,PTH,ViaDrill
T1C0.400
; #@! TA.AperFunction,Plated,PTH,ComponentDrill
T2C0.800
; #@! TA.AperFunction,Plated,PTH,ComponentDrill
T3C0.890
; #@! TA.AperFunction,Plated,PTH,ComponentDrill
T4C0.900
; #@! TA.AperFunction,Plated,PTH,ComponentDrill
T5C1.000
; #@! TA.AperFunction,Plated,PTH,ComponentDrill
T6C1.200
; #@! TA.AperFunction,Plated,PTH,ComponentDrill
T7C2.000
; #@! TA.AperFunction,Plated,PTH,ComponentDrill
T8C2.010
; #@! TA.AperFunction,Plated,PTH,ComponentDrill
T9C2.800
%
G90
G05
T1
X35.5Y-46.95
X35.5Y-50.15
X42.4Y-50.3
X43.25Y-56.3
X52.65Y-32.05
X52.65Y-36.1
X57.45Y-44.4
X58.0Y-56.3
X58.35Y-50.3
X60.5Y-23.75
X65.6Y-44.45
X68.8Y-56.3
X69.55Y-26.75
X70.75Y-23.75
X71.65Y-36.0
X76.6Y-28.4
X79.65Y-56.3
X83.08Y-33.47
X84.9Y-41.2
X95.205Y-41.165
X97.05Y-40.4
X97.7Y-26.75
X98.0Y-37.6
X98.85Y-34.95
X112.9Y-37.35
T2
X35.91Y-42.04
X38.45Y-42.04
X40.99Y-42.04
X43.58Y-41.25
X47.85Y-24.95
X47.85Y-27.45
X48.68Y-30.23
X48.68Y-32.77
X48.68Y-35.31
X48.68Y-37.85
X51.2Y-41.25
X53.55Y-27.25
X56.05Y-27.25
X56.24Y-41.45
X56.3Y-30.23
X56.3Y-32.77
X56.3Y-35.31
X56.3Y-37.85
X58.95Y-35.25
X59.5Y-30.0
X59.5Y-32.54
X62.4Y-29.605
X62.4Y-32.145
X63.86Y-41.45
X63.95Y-35.25
X67.7Y-29.936
X67.7Y-32.476
X67.75Y-35.67
X67.75Y-38.21
X67.75Y-40.75
X88.89Y-45.7
X96.51Y-45.7
X99.74Y-45.7
X100.89Y-22.86
X100.89Y-25.4
X100.89Y-27.94
X102.25Y-33.5
X102.45Y-36.51
X102.45Y-39.05
X102.87Y-42.05
X105.0Y-28.1
X105.0Y-30.64
X106.9Y-36.7
X106.9Y-39.24
X107.25Y-33.5
X107.36Y-45.7
X110.05Y-30.75
X110.05Y-33.29
X110.05Y-35.83
X110.05Y-38.37
X112.65Y-26.95
X113.03Y-42.05
X115.15Y-26.95
X117.67Y-30.75
X117.67Y-33.29
X117.67Y-35.83
X117.67Y-38.37
X120.8Y-36.5
X120.8Y-39.0
X121.0Y-30.955
X121.0Y-33.495
T3
X87.11Y-34.341
X89.65Y-34.341
T4
X50.385Y-23.6
X52.925Y-23.6
T5
X44.3Y-54.4
X44.3Y-85.4
X46.84Y-54.4
X46.84Y-85.4
X49.38Y-54.4
X49.38Y-85.4
X51.92Y-54.4
X51.92Y-85.4
X54.46Y-54.4
X54.46Y-85.4
X57.0Y-54.4
X57.0Y-85.4
X59.54Y-54.4
X59.54Y-85.4
X62.08Y-54.4
X62.08Y-85.4
X64.62Y-54.4
X64.62Y-85.4
X67.16Y-54.4
X67.16Y-85.4
X69.7Y-54.4
X69.7Y-85.4
X72.24Y-54.4
X72.24Y-85.4
X74.78Y-54.4
X74.78Y-85.4
X77.32Y-54.4
X77.32Y-85.4
X79.86Y-54.4
X79.86Y-85.4
X82.4Y-54.4
X82.4Y-85.4
T6
X44.15Y-46.9
X46.69Y-46.9
X49.23Y-46.9
X51.77Y-46.9
X54.31Y-46.9
X56.85Y-46.9
X59.39Y-46.9
X61.93Y-46.9
X64.47Y-46.9
X67.01Y-46.9
X69.55Y-46.9
X72.09Y-46.9
X74.63Y-46.9
X77.17Y-46.9
X79.71Y-46.9
X82.25Y-46.9
T7
X34.882Y-26.9
X39.382Y-23.4
X44.382Y-31.7
T8
X84.57Y-29.261
X94.73Y-29.261
T9
X38.651Y-46.9
X38.651Y-78.301
X38.8Y-54.4
X38.8Y-85.4
X113.8Y-54.4
X113.8Y-85.4
X114.049Y-78.301
X114.05Y-46.9
T0
M30
