%TF.GenerationSoftware,KiCad,Pcbnew,(6.0.7)*%
%TF.CreationDate,2022-12-07T12:16:08-08:00*%
%TF.ProjectId,TR interface,54522069-6e74-4657-9266-6163652e6b69,rev?*%
%TF.SameCoordinates,Original*%
%TF.FileFunction,Legend,Bot*%
%TF.FilePolarity,Positive*%
%FSLAX46Y46*%
G04 Gerber Fmt 4.6, Leading zero omitted, Abs format (unit mm)*
G04 Created by KiCad (PCBNEW (6.0.7)) date 2022-12-07 12:16:08*
%MOMM*%
%LPD*%
G01*
G04 APERTURE LIST*
%ADD10C,0.300000*%
%ADD11C,0.250000*%
%ADD12C,0.200000*%
G04 APERTURE END LIST*
D10*
X104657142Y-85528571D02*
X104657142Y-84028571D01*
X104300000Y-84028571D01*
X104085714Y-84100000D01*
X103942857Y-84242857D01*
X103871428Y-84385714D01*
X103800000Y-84671428D01*
X103800000Y-84885714D01*
X103871428Y-85171428D01*
X103942857Y-85314285D01*
X104085714Y-85457142D01*
X104300000Y-85528571D01*
X104657142Y-85528571D01*
X102585714Y-85457142D02*
X102728571Y-85528571D01*
X103014285Y-85528571D01*
X103157142Y-85457142D01*
X103228571Y-85314285D01*
X103228571Y-84742857D01*
X103157142Y-84600000D01*
X103014285Y-84528571D01*
X102728571Y-84528571D01*
X102585714Y-84600000D01*
X102514285Y-84742857D01*
X102514285Y-84885714D01*
X103228571Y-85028571D01*
X101228571Y-85457142D02*
X101371428Y-85528571D01*
X101657142Y-85528571D01*
X101800000Y-85457142D01*
X101871428Y-85385714D01*
X101942857Y-85242857D01*
X101942857Y-84814285D01*
X101871428Y-84671428D01*
X101800000Y-84600000D01*
X101657142Y-84528571D01*
X101371428Y-84528571D01*
X101228571Y-84600000D01*
X99514285Y-84171428D02*
X99442857Y-84100000D01*
X99300000Y-84028571D01*
X98942857Y-84028571D01*
X98800000Y-84100000D01*
X98728571Y-84171428D01*
X98657142Y-84314285D01*
X98657142Y-84457142D01*
X98728571Y-84671428D01*
X99585714Y-85528571D01*
X98657142Y-85528571D01*
X97728571Y-84028571D02*
X97585714Y-84028571D01*
X97442857Y-84100000D01*
X97371428Y-84171428D01*
X97300000Y-84314285D01*
X97228571Y-84600000D01*
X97228571Y-84957142D01*
X97300000Y-85242857D01*
X97371428Y-85385714D01*
X97442857Y-85457142D01*
X97585714Y-85528571D01*
X97728571Y-85528571D01*
X97871428Y-85457142D01*
X97942857Y-85385714D01*
X98014285Y-85242857D01*
X98085714Y-84957142D01*
X98085714Y-84600000D01*
X98014285Y-84314285D01*
X97942857Y-84171428D01*
X97871428Y-84100000D01*
X97728571Y-84028571D01*
X96657142Y-84171428D02*
X96585714Y-84100000D01*
X96442857Y-84028571D01*
X96085714Y-84028571D01*
X95942857Y-84100000D01*
X95871428Y-84171428D01*
X95800000Y-84314285D01*
X95800000Y-84457142D01*
X95871428Y-84671428D01*
X96728571Y-85528571D01*
X95800000Y-85528571D01*
X95228571Y-84171428D02*
X95157142Y-84100000D01*
X95014285Y-84028571D01*
X94657142Y-84028571D01*
X94514285Y-84100000D01*
X94442857Y-84171428D01*
X94371428Y-84314285D01*
X94371428Y-84457142D01*
X94442857Y-84671428D01*
X95300000Y-85528571D01*
X94371428Y-85528571D01*
D11*
X85714285Y-66416666D02*
X83809523Y-66416666D01*
X86095238Y-67559523D02*
X84761904Y-63559523D01*
X83428571Y-67559523D01*
X82095238Y-67559523D02*
X82095238Y-63559523D01*
X78476190Y-63559523D02*
X79238095Y-63559523D01*
X79619047Y-63750000D01*
X79809523Y-63940476D01*
X80190476Y-64511904D01*
X80380952Y-65273809D01*
X80380952Y-66797619D01*
X80190476Y-67178571D01*
X80000000Y-67369047D01*
X79619047Y-67559523D01*
X78857142Y-67559523D01*
X78476190Y-67369047D01*
X78285714Y-67178571D01*
X78095238Y-66797619D01*
X78095238Y-65845238D01*
X78285714Y-65464285D01*
X78476190Y-65273809D01*
X78857142Y-65083333D01*
X79619047Y-65083333D01*
X80000000Y-65273809D01*
X80190476Y-65464285D01*
X80380952Y-65845238D01*
X76761904Y-63559523D02*
X74095238Y-67559523D01*
X74095238Y-63559523D02*
X76761904Y-67559523D01*
X70476190Y-63750000D02*
X70857142Y-63559523D01*
X71428571Y-63559523D01*
X72000000Y-63750000D01*
X72380952Y-64130952D01*
X72571428Y-64511904D01*
X72761904Y-65273809D01*
X72761904Y-65845238D01*
X72571428Y-66607142D01*
X72380952Y-66988095D01*
X72000000Y-67369047D01*
X71428571Y-67559523D01*
X71047619Y-67559523D01*
X70476190Y-67369047D01*
X70285714Y-67178571D01*
X70285714Y-65845238D01*
X71047619Y-65845238D01*
D12*
X69745238Y-67364285D02*
X69650000Y-67459523D01*
X69745238Y-67554761D01*
X69840476Y-67459523D01*
X69745238Y-67364285D01*
X69745238Y-67554761D01*
X67935714Y-67459523D02*
X68126190Y-67554761D01*
X68507142Y-67554761D01*
X68697619Y-67459523D01*
X68792857Y-67364285D01*
X68888095Y-67173809D01*
X68888095Y-66602380D01*
X68792857Y-66411904D01*
X68697619Y-66316666D01*
X68507142Y-66221428D01*
X68126190Y-66221428D01*
X67935714Y-66316666D01*
X66792857Y-67554761D02*
X66983333Y-67459523D01*
X67078571Y-67364285D01*
X67173809Y-67173809D01*
X67173809Y-66602380D01*
X67078571Y-66411904D01*
X66983333Y-66316666D01*
X66792857Y-66221428D01*
X66507142Y-66221428D01*
X66316666Y-66316666D01*
X66221428Y-66411904D01*
X66126190Y-66602380D01*
X66126190Y-67173809D01*
X66221428Y-67364285D01*
X66316666Y-67459523D01*
X66507142Y-67554761D01*
X66792857Y-67554761D01*
X65269047Y-67554761D02*
X65269047Y-66221428D01*
X65269047Y-66411904D02*
X65173809Y-66316666D01*
X64983333Y-66221428D01*
X64697619Y-66221428D01*
X64507142Y-66316666D01*
X64411904Y-66507142D01*
X64411904Y-67554761D01*
X64411904Y-66507142D02*
X64316666Y-66316666D01*
X64126190Y-66221428D01*
X63840476Y-66221428D01*
X63650000Y-66316666D01*
X63554761Y-66507142D01*
X63554761Y-67554761D01*
X93483333Y-66221428D02*
X93102380Y-67554761D01*
X92721428Y-66602380D01*
X92340476Y-67554761D01*
X91959523Y-66221428D01*
X91388095Y-66221428D02*
X91007142Y-67554761D01*
X90626190Y-66602380D01*
X90245238Y-67554761D01*
X89864285Y-66221428D01*
X89292857Y-66221428D02*
X88911904Y-67554761D01*
X88530952Y-66602380D01*
X88150000Y-67554761D01*
X87769047Y-66221428D01*
X87007142Y-67364285D02*
X86911904Y-67459523D01*
X87007142Y-67554761D01*
X87102380Y-67459523D01*
X87007142Y-67364285D01*
X87007142Y-67554761D01*
M02*
