%TF.GenerationSoftware,KiCad,Pcbnew,(6.0.7)*%
%TF.CreationDate,2022-12-07T12:16:08-08:00*%
%TF.ProjectId,TR interface,54522069-6e74-4657-9266-6163652e6b69,rev?*%
%TF.SameCoordinates,Original*%
%TF.FileFunction,Legend,Top*%
%TF.FilePolarity,Positive*%
%FSLAX46Y46*%
G04 Gerber Fmt 4.6, Leading zero omitted, Abs format (unit mm)*
G04 Created by KiCad (PCBNEW (6.0.7)) date 2022-12-07 12:16:08*
%MOMM*%
%LPD*%
G01*
G04 APERTURE LIST*
%ADD10C,0.453113*%
%ADD11C,0.150000*%
%ADD12C,0.300000*%
%ADD13C,0.250000*%
%ADD14C,0.254000*%
%ADD15C,0.127000*%
%ADD16C,0.340000*%
%ADD17C,0.120000*%
%ADD18C,0.200000*%
%ADD19C,0.100000*%
G04 APERTURE END LIST*
D10*
X58676556Y-38000000D02*
G75*
G03*
X58676556Y-38000000I-226556J0D01*
G01*
X107926556Y-30500000D02*
G75*
G03*
X107926556Y-30500000I-226556J0D01*
G01*
D11*
X59633333Y-39402380D02*
X59300000Y-38926190D01*
X59061904Y-39402380D02*
X59061904Y-38402380D01*
X59442857Y-38402380D01*
X59538095Y-38450000D01*
X59585714Y-38497619D01*
X59633333Y-38592857D01*
X59633333Y-38735714D01*
X59585714Y-38830952D01*
X59538095Y-38878571D01*
X59442857Y-38926190D01*
X59061904Y-38926190D01*
X59966666Y-38402380D02*
X60633333Y-38402380D01*
X60204761Y-39402380D01*
D12*
X83407142Y-39666666D02*
X84359523Y-39666666D01*
X83216666Y-40380952D02*
X83883333Y-37880952D01*
X84550000Y-40380952D01*
X85216666Y-40380952D02*
X85216666Y-37880952D01*
X86359523Y-40380952D01*
X86359523Y-37880952D01*
X87026190Y-37880952D02*
X88169047Y-37880952D01*
X87597619Y-40380952D02*
X87597619Y-37880952D01*
X88835714Y-39071428D02*
X89502380Y-39071428D01*
X89788095Y-40380952D02*
X88835714Y-40380952D01*
X88835714Y-37880952D01*
X89788095Y-37880952D01*
X90645238Y-40380952D02*
X90645238Y-37880952D01*
X91788095Y-40380952D01*
X91788095Y-37880952D01*
X92740476Y-40380952D02*
X92740476Y-37880952D01*
X93883333Y-40380952D01*
X93883333Y-37880952D01*
X94740476Y-39666666D02*
X95692857Y-39666666D01*
X94550000Y-40380952D02*
X95216666Y-37880952D01*
X95883333Y-40380952D01*
D11*
X99383333Y-33757142D02*
X99335714Y-33804761D01*
X99192857Y-33852380D01*
X99097619Y-33852380D01*
X98954761Y-33804761D01*
X98859523Y-33709523D01*
X98811904Y-33614285D01*
X98764285Y-33423809D01*
X98764285Y-33280952D01*
X98811904Y-33090476D01*
X98859523Y-32995238D01*
X98954761Y-32900000D01*
X99097619Y-32852380D01*
X99192857Y-32852380D01*
X99335714Y-32900000D01*
X99383333Y-32947619D01*
X99764285Y-32947619D02*
X99811904Y-32900000D01*
X99907142Y-32852380D01*
X100145238Y-32852380D01*
X100240476Y-32900000D01*
X100288095Y-32947619D01*
X100335714Y-33042857D01*
X100335714Y-33138095D01*
X100288095Y-33280952D01*
X99716666Y-33852380D01*
X100335714Y-33852380D01*
D12*
X34121428Y-37928571D02*
X34121428Y-36428571D01*
X34978571Y-37928571D02*
X34335714Y-37071428D01*
X34978571Y-36428571D02*
X34121428Y-37285714D01*
X36192857Y-37857142D02*
X36050000Y-37928571D01*
X35764285Y-37928571D01*
X35621428Y-37857142D01*
X35550000Y-37714285D01*
X35550000Y-37142857D01*
X35621428Y-37000000D01*
X35764285Y-36928571D01*
X36050000Y-36928571D01*
X36192857Y-37000000D01*
X36264285Y-37142857D01*
X36264285Y-37285714D01*
X35550000Y-37428571D01*
X36764285Y-36928571D02*
X37121428Y-37928571D01*
X37478571Y-36928571D02*
X37121428Y-37928571D01*
X36978571Y-38285714D01*
X36907142Y-38357142D01*
X36764285Y-38428571D01*
X38621428Y-37857142D02*
X38478571Y-37928571D01*
X38192857Y-37928571D01*
X38050000Y-37857142D01*
X37978571Y-37714285D01*
X37978571Y-37142857D01*
X38050000Y-37000000D01*
X38192857Y-36928571D01*
X38478571Y-36928571D01*
X38621428Y-37000000D01*
X38692857Y-37142857D01*
X38692857Y-37285714D01*
X37978571Y-37428571D01*
X39335714Y-37928571D02*
X39335714Y-36928571D01*
X39335714Y-37214285D02*
X39407142Y-37071428D01*
X39478571Y-37000000D01*
X39621428Y-36928571D01*
X39764285Y-36928571D01*
X39907142Y-38071428D02*
X41050000Y-38071428D01*
X41692857Y-36428571D02*
X41978571Y-36428571D01*
X42121428Y-36500000D01*
X42264285Y-36642857D01*
X42335714Y-36928571D01*
X42335714Y-37428571D01*
X42264285Y-37714285D01*
X42121428Y-37857142D01*
X41978571Y-37928571D01*
X41692857Y-37928571D01*
X41550000Y-37857142D01*
X41407142Y-37714285D01*
X41335714Y-37428571D01*
X41335714Y-36928571D01*
X41407142Y-36642857D01*
X41550000Y-36500000D01*
X41692857Y-36428571D01*
X43621428Y-36928571D02*
X43621428Y-37928571D01*
X42978571Y-36928571D02*
X42978571Y-37714285D01*
X43050000Y-37857142D01*
X43192857Y-37928571D01*
X43407142Y-37928571D01*
X43550000Y-37857142D01*
X43621428Y-37785714D01*
X44121428Y-36928571D02*
X44692857Y-36928571D01*
X44335714Y-36428571D02*
X44335714Y-37714285D01*
X44407142Y-37857142D01*
X44550000Y-37928571D01*
X44692857Y-37928571D01*
D13*
X121195238Y-82833333D02*
X121100000Y-83023809D01*
X120909523Y-83214285D01*
X120623809Y-83500000D01*
X120528571Y-83690476D01*
X120528571Y-83880952D01*
X121004761Y-83785714D02*
X120909523Y-83976190D01*
X120719047Y-84166666D01*
X120338095Y-84261904D01*
X119671428Y-84261904D01*
X119290476Y-84166666D01*
X119100000Y-83976190D01*
X119004761Y-83785714D01*
X119004761Y-83404761D01*
X119100000Y-83214285D01*
X119290476Y-83023809D01*
X119671428Y-82928571D01*
X120338095Y-82928571D01*
X120719047Y-83023809D01*
X120909523Y-83214285D01*
X121004761Y-83404761D01*
X121004761Y-83785714D01*
X121004761Y-80928571D02*
X120052380Y-81595238D01*
X121004761Y-82071428D02*
X119004761Y-82071428D01*
X119004761Y-81309523D01*
X119100000Y-81119047D01*
X119195238Y-81023809D01*
X119385714Y-80928571D01*
X119671428Y-80928571D01*
X119861904Y-81023809D01*
X119957142Y-81119047D01*
X120052380Y-81309523D01*
X120052380Y-82071428D01*
X121004761Y-80071428D02*
X119004761Y-80071428D01*
X119004761Y-79309523D01*
X119100000Y-79119047D01*
X119195238Y-79023809D01*
X119385714Y-78928571D01*
X119671428Y-78928571D01*
X119861904Y-79023809D01*
X119957142Y-79119047D01*
X120052380Y-79309523D01*
X120052380Y-80071428D01*
X119004761Y-76833333D02*
X119004761Y-75690476D01*
X121004761Y-76261904D02*
X119004761Y-76261904D01*
X119671428Y-74166666D02*
X121004761Y-74166666D01*
X119671428Y-75023809D02*
X120719047Y-75023809D01*
X120909523Y-74928571D01*
X121004761Y-74738095D01*
X121004761Y-74452380D01*
X120909523Y-74261904D01*
X120814285Y-74166666D01*
X121004761Y-73214285D02*
X119004761Y-73214285D01*
X119766666Y-73214285D02*
X119671428Y-73023809D01*
X119671428Y-72642857D01*
X119766666Y-72452380D01*
X119861904Y-72357142D01*
X120052380Y-72261904D01*
X120623809Y-72261904D01*
X120814285Y-72357142D01*
X120909523Y-72452380D01*
X121004761Y-72642857D01*
X121004761Y-73023809D01*
X120909523Y-73214285D01*
X120909523Y-70642857D02*
X121004761Y-70833333D01*
X121004761Y-71214285D01*
X120909523Y-71404761D01*
X120719047Y-71500000D01*
X119957142Y-71500000D01*
X119766666Y-71404761D01*
X119671428Y-71214285D01*
X119671428Y-70833333D01*
X119766666Y-70642857D01*
X119957142Y-70547619D01*
X120147619Y-70547619D01*
X120338095Y-71500000D01*
X119004761Y-68452380D02*
X119004761Y-67309523D01*
X121004761Y-67880952D02*
X119004761Y-67880952D01*
X121004761Y-65500000D02*
X120052380Y-66166666D01*
X121004761Y-66642857D02*
X119004761Y-66642857D01*
X119004761Y-65880952D01*
X119100000Y-65690476D01*
X119195238Y-65595238D01*
X119385714Y-65500000D01*
X119671428Y-65500000D01*
X119861904Y-65595238D01*
X119957142Y-65690476D01*
X120052380Y-65880952D01*
X120052380Y-66642857D01*
X121004761Y-63119047D02*
X119004761Y-63119047D01*
X119671428Y-62166666D02*
X121004761Y-62166666D01*
X119861904Y-62166666D02*
X119766666Y-62071428D01*
X119671428Y-61880952D01*
X119671428Y-61595238D01*
X119766666Y-61404761D01*
X119957142Y-61309523D01*
X121004761Y-61309523D01*
X119671428Y-60642857D02*
X119671428Y-59880952D01*
X119004761Y-60357142D02*
X120719047Y-60357142D01*
X120909523Y-60261904D01*
X121004761Y-60071428D01*
X121004761Y-59880952D01*
X120909523Y-58452380D02*
X121004761Y-58642857D01*
X121004761Y-59023809D01*
X120909523Y-59214285D01*
X120719047Y-59309523D01*
X119957142Y-59309523D01*
X119766666Y-59214285D01*
X119671428Y-59023809D01*
X119671428Y-58642857D01*
X119766666Y-58452380D01*
X119957142Y-58357142D01*
X120147619Y-58357142D01*
X120338095Y-59309523D01*
X121004761Y-57500000D02*
X119671428Y-57500000D01*
X120052380Y-57500000D02*
X119861904Y-57404761D01*
X119766666Y-57309523D01*
X119671428Y-57119047D01*
X119671428Y-56928571D01*
X119671428Y-56547619D02*
X119671428Y-55785714D01*
X121004761Y-56261904D02*
X119290476Y-56261904D01*
X119100000Y-56166666D01*
X119004761Y-55976190D01*
X119004761Y-55785714D01*
X121004761Y-54261904D02*
X119957142Y-54261904D01*
X119766666Y-54357142D01*
X119671428Y-54547619D01*
X119671428Y-54928571D01*
X119766666Y-55119047D01*
X120909523Y-54261904D02*
X121004761Y-54452380D01*
X121004761Y-54928571D01*
X120909523Y-55119047D01*
X120719047Y-55214285D01*
X120528571Y-55214285D01*
X120338095Y-55119047D01*
X120242857Y-54928571D01*
X120242857Y-54452380D01*
X120147619Y-54261904D01*
X120909523Y-52452380D02*
X121004761Y-52642857D01*
X121004761Y-53023809D01*
X120909523Y-53214285D01*
X120814285Y-53309523D01*
X120623809Y-53404761D01*
X120052380Y-53404761D01*
X119861904Y-53309523D01*
X119766666Y-53214285D01*
X119671428Y-53023809D01*
X119671428Y-52642857D01*
X119766666Y-52452380D01*
X120909523Y-50833333D02*
X121004761Y-51023809D01*
X121004761Y-51404761D01*
X120909523Y-51595238D01*
X120719047Y-51690476D01*
X119957142Y-51690476D01*
X119766666Y-51595238D01*
X119671428Y-51404761D01*
X119671428Y-51023809D01*
X119766666Y-50833333D01*
X119957142Y-50738095D01*
X120147619Y-50738095D01*
X120338095Y-51690476D01*
D11*
X103433333Y-48602380D02*
X103100000Y-48126190D01*
X102861904Y-48602380D02*
X102861904Y-47602380D01*
X103242857Y-47602380D01*
X103338095Y-47650000D01*
X103385714Y-47697619D01*
X103433333Y-47792857D01*
X103433333Y-47935714D01*
X103385714Y-48030952D01*
X103338095Y-48078571D01*
X103242857Y-48126190D01*
X102861904Y-48126190D01*
X104385714Y-48602380D02*
X103814285Y-48602380D01*
X104100000Y-48602380D02*
X104100000Y-47602380D01*
X104004761Y-47745238D01*
X103909523Y-47840476D01*
X103814285Y-47888095D01*
X110033333Y-45052380D02*
X109700000Y-44576190D01*
X109461904Y-45052380D02*
X109461904Y-44052380D01*
X109842857Y-44052380D01*
X109938095Y-44100000D01*
X109985714Y-44147619D01*
X110033333Y-44242857D01*
X110033333Y-44385714D01*
X109985714Y-44480952D01*
X109938095Y-44528571D01*
X109842857Y-44576190D01*
X109461904Y-44576190D01*
X110604761Y-44480952D02*
X110509523Y-44433333D01*
X110461904Y-44385714D01*
X110414285Y-44290476D01*
X110414285Y-44242857D01*
X110461904Y-44147619D01*
X110509523Y-44100000D01*
X110604761Y-44052380D01*
X110795238Y-44052380D01*
X110890476Y-44100000D01*
X110938095Y-44147619D01*
X110985714Y-44242857D01*
X110985714Y-44290476D01*
X110938095Y-44385714D01*
X110890476Y-44433333D01*
X110795238Y-44480952D01*
X110604761Y-44480952D01*
X110509523Y-44528571D01*
X110461904Y-44576190D01*
X110414285Y-44671428D01*
X110414285Y-44861904D01*
X110461904Y-44957142D01*
X110509523Y-45004761D01*
X110604761Y-45052380D01*
X110795238Y-45052380D01*
X110890476Y-45004761D01*
X110938095Y-44957142D01*
X110985714Y-44861904D01*
X110985714Y-44671428D01*
X110938095Y-44576190D01*
X110890476Y-44528571D01*
X110795238Y-44480952D01*
X92483333Y-48602380D02*
X92150000Y-48126190D01*
X91911904Y-48602380D02*
X91911904Y-47602380D01*
X92292857Y-47602380D01*
X92388095Y-47650000D01*
X92435714Y-47697619D01*
X92483333Y-47792857D01*
X92483333Y-47935714D01*
X92435714Y-48030952D01*
X92388095Y-48078571D01*
X92292857Y-48126190D01*
X91911904Y-48126190D01*
X93340476Y-47602380D02*
X93150000Y-47602380D01*
X93054761Y-47650000D01*
X93007142Y-47697619D01*
X92911904Y-47840476D01*
X92864285Y-48030952D01*
X92864285Y-48411904D01*
X92911904Y-48507142D01*
X92959523Y-48554761D01*
X93054761Y-48602380D01*
X93245238Y-48602380D01*
X93340476Y-48554761D01*
X93388095Y-48507142D01*
X93435714Y-48411904D01*
X93435714Y-48173809D01*
X93388095Y-48078571D01*
X93340476Y-48030952D01*
X93245238Y-47983333D01*
X93054761Y-47983333D01*
X92959523Y-48030952D01*
X92911904Y-48078571D01*
X92864285Y-48173809D01*
D12*
X55121428Y-22428571D02*
X56121428Y-23928571D01*
X56121428Y-22428571D02*
X55121428Y-23928571D01*
X56692857Y-23928571D02*
X56692857Y-22428571D01*
X57192857Y-23500000D01*
X57692857Y-22428571D01*
X57692857Y-23928571D01*
X58192857Y-22428571D02*
X59050000Y-22428571D01*
X58621428Y-23928571D02*
X58621428Y-22428571D01*
X60407142Y-23928571D02*
X59907142Y-23214285D01*
X59550000Y-23928571D02*
X59550000Y-22428571D01*
X60121428Y-22428571D01*
X60264285Y-22500000D01*
X60335714Y-22571428D01*
X60407142Y-22714285D01*
X60407142Y-22928571D01*
X60335714Y-23071428D01*
X60264285Y-23142857D01*
X60121428Y-23214285D01*
X59550000Y-23214285D01*
D11*
X45733333Y-39402380D02*
X45400000Y-38926190D01*
X45161904Y-39402380D02*
X45161904Y-38402380D01*
X45542857Y-38402380D01*
X45638095Y-38450000D01*
X45685714Y-38497619D01*
X45733333Y-38592857D01*
X45733333Y-38735714D01*
X45685714Y-38830952D01*
X45638095Y-38878571D01*
X45542857Y-38926190D01*
X45161904Y-38926190D01*
X46590476Y-38735714D02*
X46590476Y-39402380D01*
X46352380Y-38354761D02*
X46114285Y-39069047D01*
X46733333Y-39069047D01*
%TO.C,J5*%
X39172131Y-29117155D02*
X40173177Y-29117155D01*
X40373386Y-29183891D01*
X40506859Y-29317364D01*
X40573596Y-29517573D01*
X40573596Y-29651046D01*
X39172131Y-27782426D02*
X39172131Y-28449790D01*
X39839495Y-28516527D01*
X39772758Y-28449790D01*
X39706022Y-28316317D01*
X39706022Y-27982635D01*
X39772758Y-27849162D01*
X39839495Y-27782426D01*
X39972968Y-27715690D01*
X40306650Y-27715690D01*
X40440123Y-27782426D01*
X40506859Y-27849162D01*
X40573596Y-27982635D01*
X40573596Y-28316317D01*
X40506859Y-28449790D01*
X40440123Y-28516527D01*
%TO.C,D1*%
X58311904Y-28202380D02*
X58311904Y-27202380D01*
X58550000Y-27202380D01*
X58692857Y-27250000D01*
X58788095Y-27345238D01*
X58835714Y-27440476D01*
X58883333Y-27630952D01*
X58883333Y-27773809D01*
X58835714Y-27964285D01*
X58788095Y-28059523D01*
X58692857Y-28154761D01*
X58550000Y-28202380D01*
X58311904Y-28202380D01*
X59835714Y-28202380D02*
X59264285Y-28202380D01*
X59550000Y-28202380D02*
X59550000Y-27202380D01*
X59454761Y-27345238D01*
X59359523Y-27440476D01*
X59264285Y-27488095D01*
X60188095Y-28202380D02*
X60188095Y-27202380D01*
X60759523Y-28202380D02*
X60330952Y-27630952D01*
X60759523Y-27202380D02*
X60188095Y-27773809D01*
%TO.C,J1*%
X41916666Y-46152380D02*
X41916666Y-46866666D01*
X41869047Y-47009523D01*
X41773809Y-47104761D01*
X41630952Y-47152380D01*
X41535714Y-47152380D01*
X42916666Y-47152380D02*
X42345238Y-47152380D01*
X42630952Y-47152380D02*
X42630952Y-46152380D01*
X42535714Y-46295238D01*
X42440476Y-46390476D01*
X42345238Y-46438095D01*
%TO.C,R1*%
X103433333Y-46152380D02*
X103100000Y-45676190D01*
X102861904Y-46152380D02*
X102861904Y-45152380D01*
X103242857Y-45152380D01*
X103338095Y-45200000D01*
X103385714Y-45247619D01*
X103433333Y-45342857D01*
X103433333Y-45485714D01*
X103385714Y-45580952D01*
X103338095Y-45628571D01*
X103242857Y-45676190D01*
X102861904Y-45676190D01*
X104385714Y-46152380D02*
X103814285Y-46152380D01*
X104100000Y-46152380D02*
X104100000Y-45152380D01*
X104004761Y-45295238D01*
X103909523Y-45390476D01*
X103814285Y-45438095D01*
%TO.C,D2*%
X99561904Y-38002380D02*
X99561904Y-37002380D01*
X99800000Y-37002380D01*
X99942857Y-37050000D01*
X100038095Y-37145238D01*
X100085714Y-37240476D01*
X100133333Y-37430952D01*
X100133333Y-37573809D01*
X100085714Y-37764285D01*
X100038095Y-37859523D01*
X99942857Y-37954761D01*
X99800000Y-38002380D01*
X99561904Y-38002380D01*
X100514285Y-37097619D02*
X100561904Y-37050000D01*
X100657142Y-37002380D01*
X100895238Y-37002380D01*
X100990476Y-37050000D01*
X101038095Y-37097619D01*
X101085714Y-37192857D01*
X101085714Y-37288095D01*
X101038095Y-37430952D01*
X100466666Y-38002380D01*
X101085714Y-38002380D01*
X100388095Y-39502380D02*
X100388095Y-38502380D01*
X100959523Y-39502380D02*
X100530952Y-38930952D01*
X100959523Y-38502380D02*
X100388095Y-39073809D01*
X100411904Y-36266666D02*
X100888095Y-36266666D01*
X100316666Y-36552380D02*
X100650000Y-35552380D01*
X100983333Y-36552380D01*
%TO.C,R7*%
X59693333Y-41852380D02*
X59360000Y-41376190D01*
X59121904Y-41852380D02*
X59121904Y-40852380D01*
X59502857Y-40852380D01*
X59598095Y-40900000D01*
X59645714Y-40947619D01*
X59693333Y-41042857D01*
X59693333Y-41185714D01*
X59645714Y-41280952D01*
X59598095Y-41328571D01*
X59502857Y-41376190D01*
X59121904Y-41376190D01*
X60026666Y-40852380D02*
X60693333Y-40852380D01*
X60264761Y-41852380D01*
%TO.C,Q1*%
X35054761Y-40497619D02*
X34959523Y-40450000D01*
X34864285Y-40354761D01*
X34721428Y-40211904D01*
X34626190Y-40164285D01*
X34530952Y-40164285D01*
X34578571Y-40402380D02*
X34483333Y-40354761D01*
X34388095Y-40259523D01*
X34340476Y-40069047D01*
X34340476Y-39735714D01*
X34388095Y-39545238D01*
X34483333Y-39450000D01*
X34578571Y-39402380D01*
X34769047Y-39402380D01*
X34864285Y-39450000D01*
X34959523Y-39545238D01*
X35007142Y-39735714D01*
X35007142Y-40069047D01*
X34959523Y-40259523D01*
X34864285Y-40354761D01*
X34769047Y-40402380D01*
X34578571Y-40402380D01*
X35959523Y-40402380D02*
X35388095Y-40402380D01*
X35673809Y-40402380D02*
X35673809Y-39402380D01*
X35578571Y-39545238D01*
X35483333Y-39640476D01*
X35388095Y-39688095D01*
%TO.C,R3*%
X105052380Y-38116666D02*
X104576190Y-38450000D01*
X105052380Y-38688095D02*
X104052380Y-38688095D01*
X104052380Y-38307142D01*
X104100000Y-38211904D01*
X104147619Y-38164285D01*
X104242857Y-38116666D01*
X104385714Y-38116666D01*
X104480952Y-38164285D01*
X104528571Y-38211904D01*
X104576190Y-38307142D01*
X104576190Y-38688095D01*
X104052380Y-37783333D02*
X104052380Y-37164285D01*
X104433333Y-37497619D01*
X104433333Y-37354761D01*
X104480952Y-37259523D01*
X104528571Y-37211904D01*
X104623809Y-37164285D01*
X104861904Y-37164285D01*
X104957142Y-37211904D01*
X105004761Y-37259523D01*
X105052380Y-37354761D01*
X105052380Y-37640476D01*
X105004761Y-37735714D01*
X104957142Y-37783333D01*
%TO.C,D5*%
X104461904Y-26682380D02*
X104461904Y-25682380D01*
X104700000Y-25682380D01*
X104842857Y-25730000D01*
X104938095Y-25825238D01*
X104985714Y-25920476D01*
X105033333Y-26110952D01*
X105033333Y-26253809D01*
X104985714Y-26444285D01*
X104938095Y-26539523D01*
X104842857Y-26634761D01*
X104700000Y-26682380D01*
X104461904Y-26682380D01*
X105938095Y-25682380D02*
X105461904Y-25682380D01*
X105414285Y-26158571D01*
X105461904Y-26110952D01*
X105557142Y-26063333D01*
X105795238Y-26063333D01*
X105890476Y-26110952D01*
X105938095Y-26158571D01*
X105985714Y-26253809D01*
X105985714Y-26491904D01*
X105938095Y-26587142D01*
X105890476Y-26634761D01*
X105795238Y-26682380D01*
X105557142Y-26682380D01*
X105461904Y-26634761D01*
X105414285Y-26587142D01*
X102938095Y-31092380D02*
X102938095Y-30092380D01*
X103509523Y-31092380D02*
X103080952Y-30520952D01*
X103509523Y-30092380D02*
X102938095Y-30663809D01*
%TO.C,C4*%
X120533333Y-41207142D02*
X120485714Y-41254761D01*
X120342857Y-41302380D01*
X120247619Y-41302380D01*
X120104761Y-41254761D01*
X120009523Y-41159523D01*
X119961904Y-41064285D01*
X119914285Y-40873809D01*
X119914285Y-40730952D01*
X119961904Y-40540476D01*
X120009523Y-40445238D01*
X120104761Y-40350000D01*
X120247619Y-40302380D01*
X120342857Y-40302380D01*
X120485714Y-40350000D01*
X120533333Y-40397619D01*
X121390476Y-40635714D02*
X121390476Y-41302380D01*
X121152380Y-40254761D02*
X120914285Y-40969047D01*
X121533333Y-40969047D01*
%TO.C,K1*%
X74661904Y-41652380D02*
X74661904Y-40652380D01*
X75233333Y-41652380D02*
X74804761Y-41080952D01*
X75233333Y-40652380D02*
X74661904Y-41223809D01*
X76185714Y-41652380D02*
X75614285Y-41652380D01*
X75900000Y-41652380D02*
X75900000Y-40652380D01*
X75804761Y-40795238D01*
X75709523Y-40890476D01*
X75614285Y-40938095D01*
%TO.C,D4*%
X66611904Y-28302380D02*
X66611904Y-27302380D01*
X66850000Y-27302380D01*
X66992857Y-27350000D01*
X67088095Y-27445238D01*
X67135714Y-27540476D01*
X67183333Y-27730952D01*
X67183333Y-27873809D01*
X67135714Y-28064285D01*
X67088095Y-28159523D01*
X66992857Y-28254761D01*
X66850000Y-28302380D01*
X66611904Y-28302380D01*
X68040476Y-27635714D02*
X68040476Y-28302380D01*
X67802380Y-27254761D02*
X67564285Y-27969047D01*
X68183333Y-27969047D01*
X65388095Y-30402380D02*
X65388095Y-29402380D01*
X65959523Y-30402380D02*
X65530952Y-29830952D01*
X65959523Y-29402380D02*
X65388095Y-29973809D01*
%TO.C,Q3*%
X103654761Y-23397619D02*
X103559523Y-23350000D01*
X103464285Y-23254761D01*
X103321428Y-23111904D01*
X103226190Y-23064285D01*
X103130952Y-23064285D01*
X103178571Y-23302380D02*
X103083333Y-23254761D01*
X102988095Y-23159523D01*
X102940476Y-22969047D01*
X102940476Y-22635714D01*
X102988095Y-22445238D01*
X103083333Y-22350000D01*
X103178571Y-22302380D01*
X103369047Y-22302380D01*
X103464285Y-22350000D01*
X103559523Y-22445238D01*
X103607142Y-22635714D01*
X103607142Y-22969047D01*
X103559523Y-23159523D01*
X103464285Y-23254761D01*
X103369047Y-23302380D01*
X103178571Y-23302380D01*
X103940476Y-22302380D02*
X104559523Y-22302380D01*
X104226190Y-22683333D01*
X104369047Y-22683333D01*
X104464285Y-22730952D01*
X104511904Y-22778571D01*
X104559523Y-22873809D01*
X104559523Y-23111904D01*
X104511904Y-23207142D01*
X104464285Y-23254761D01*
X104369047Y-23302380D01*
X104083333Y-23302380D01*
X103988095Y-23254761D01*
X103940476Y-23207142D01*
%TO.C,Q2*%
X67654761Y-43447619D02*
X67559523Y-43400000D01*
X67464285Y-43304761D01*
X67321428Y-43161904D01*
X67226190Y-43114285D01*
X67130952Y-43114285D01*
X67178571Y-43352380D02*
X67083333Y-43304761D01*
X66988095Y-43209523D01*
X66940476Y-43019047D01*
X66940476Y-42685714D01*
X66988095Y-42495238D01*
X67083333Y-42400000D01*
X67178571Y-42352380D01*
X67369047Y-42352380D01*
X67464285Y-42400000D01*
X67559523Y-42495238D01*
X67607142Y-42685714D01*
X67607142Y-43019047D01*
X67559523Y-43209523D01*
X67464285Y-43304761D01*
X67369047Y-43352380D01*
X67178571Y-43352380D01*
X67988095Y-42447619D02*
X68035714Y-42400000D01*
X68130952Y-42352380D01*
X68369047Y-42352380D01*
X68464285Y-42400000D01*
X68511904Y-42447619D01*
X68559523Y-42542857D01*
X68559523Y-42638095D01*
X68511904Y-42780952D01*
X67940476Y-43352380D01*
X68559523Y-43352380D01*
%TO.C,R4*%
X47133333Y-41852380D02*
X46800000Y-41376190D01*
X46561904Y-41852380D02*
X46561904Y-40852380D01*
X46942857Y-40852380D01*
X47038095Y-40900000D01*
X47085714Y-40947619D01*
X47133333Y-41042857D01*
X47133333Y-41185714D01*
X47085714Y-41280952D01*
X47038095Y-41328571D01*
X46942857Y-41376190D01*
X46561904Y-41376190D01*
X47990476Y-41185714D02*
X47990476Y-41852380D01*
X47752380Y-40804761D02*
X47514285Y-41519047D01*
X48133333Y-41519047D01*
%TO.C,C3*%
X49933333Y-27457142D02*
X49885714Y-27504761D01*
X49742857Y-27552380D01*
X49647619Y-27552380D01*
X49504761Y-27504761D01*
X49409523Y-27409523D01*
X49361904Y-27314285D01*
X49314285Y-27123809D01*
X49314285Y-26980952D01*
X49361904Y-26790476D01*
X49409523Y-26695238D01*
X49504761Y-26600000D01*
X49647619Y-26552380D01*
X49742857Y-26552380D01*
X49885714Y-26600000D01*
X49933333Y-26647619D01*
X50266666Y-26552380D02*
X50885714Y-26552380D01*
X50552380Y-26933333D01*
X50695238Y-26933333D01*
X50790476Y-26980952D01*
X50838095Y-27028571D01*
X50885714Y-27123809D01*
X50885714Y-27361904D01*
X50838095Y-27457142D01*
X50790476Y-27504761D01*
X50695238Y-27552380D01*
X50409523Y-27552380D01*
X50314285Y-27504761D01*
X50266666Y-27457142D01*
%TO.C,R2*%
X62133333Y-28202380D02*
X61800000Y-27726190D01*
X61561904Y-28202380D02*
X61561904Y-27202380D01*
X61942857Y-27202380D01*
X62038095Y-27250000D01*
X62085714Y-27297619D01*
X62133333Y-27392857D01*
X62133333Y-27535714D01*
X62085714Y-27630952D01*
X62038095Y-27678571D01*
X61942857Y-27726190D01*
X61561904Y-27726190D01*
X62514285Y-27297619D02*
X62561904Y-27250000D01*
X62657142Y-27202380D01*
X62895238Y-27202380D01*
X62990476Y-27250000D01*
X63038095Y-27297619D01*
X63085714Y-27392857D01*
X63085714Y-27488095D01*
X63038095Y-27630952D01*
X62466666Y-28202380D01*
X63085714Y-28202380D01*
%TO.C,U2*%
X109338095Y-27252380D02*
X109338095Y-28061904D01*
X109385714Y-28157142D01*
X109433333Y-28204761D01*
X109528571Y-28252380D01*
X109719047Y-28252380D01*
X109814285Y-28204761D01*
X109861904Y-28157142D01*
X109909523Y-28061904D01*
X109909523Y-27252380D01*
X110338095Y-27347619D02*
X110385714Y-27300000D01*
X110480952Y-27252380D01*
X110719047Y-27252380D01*
X110814285Y-27300000D01*
X110861904Y-27347619D01*
X110909523Y-27442857D01*
X110909523Y-27538095D01*
X110861904Y-27680952D01*
X110290476Y-28252380D01*
X110909523Y-28252380D01*
%TO.C,J3*%
X95999295Y-4794435D02*
X96714925Y-4794435D01*
X96858051Y-4842144D01*
X96953468Y-4937561D01*
X97001177Y-5080687D01*
X97001177Y-5176105D01*
X95999295Y-4412766D02*
X95999295Y-3792553D01*
X96380964Y-4126514D01*
X96380964Y-3983388D01*
X96428673Y-3887971D01*
X96476382Y-3840262D01*
X96571799Y-3792553D01*
X96810342Y-3792553D01*
X96905760Y-3840262D01*
X96953468Y-3887971D01*
X97001177Y-3983388D01*
X97001177Y-4269640D01*
X96953468Y-4365057D01*
X96905760Y-4412766D01*
%TO.C,R8*%
X107933333Y-42502380D02*
X107600000Y-42026190D01*
X107361904Y-42502380D02*
X107361904Y-41502380D01*
X107742857Y-41502380D01*
X107838095Y-41550000D01*
X107885714Y-41597619D01*
X107933333Y-41692857D01*
X107933333Y-41835714D01*
X107885714Y-41930952D01*
X107838095Y-41978571D01*
X107742857Y-42026190D01*
X107361904Y-42026190D01*
X108504761Y-41930952D02*
X108409523Y-41883333D01*
X108361904Y-41835714D01*
X108314285Y-41740476D01*
X108314285Y-41692857D01*
X108361904Y-41597619D01*
X108409523Y-41550000D01*
X108504761Y-41502380D01*
X108695238Y-41502380D01*
X108790476Y-41550000D01*
X108838095Y-41597619D01*
X108885714Y-41692857D01*
X108885714Y-41740476D01*
X108838095Y-41835714D01*
X108790476Y-41883333D01*
X108695238Y-41930952D01*
X108504761Y-41930952D01*
X108409523Y-41978571D01*
X108361904Y-42026190D01*
X108314285Y-42121428D01*
X108314285Y-42311904D01*
X108361904Y-42407142D01*
X108409523Y-42454761D01*
X108504761Y-42502380D01*
X108695238Y-42502380D01*
X108790476Y-42454761D01*
X108838095Y-42407142D01*
X108885714Y-42311904D01*
X108885714Y-42121428D01*
X108838095Y-42026190D01*
X108790476Y-41978571D01*
X108695238Y-41930952D01*
%TO.C,R5*%
X120783333Y-29502380D02*
X120450000Y-29026190D01*
X120211904Y-29502380D02*
X120211904Y-28502380D01*
X120592857Y-28502380D01*
X120688095Y-28550000D01*
X120735714Y-28597619D01*
X120783333Y-28692857D01*
X120783333Y-28835714D01*
X120735714Y-28930952D01*
X120688095Y-28978571D01*
X120592857Y-29026190D01*
X120211904Y-29026190D01*
X121688095Y-28502380D02*
X121211904Y-28502380D01*
X121164285Y-28978571D01*
X121211904Y-28930952D01*
X121307142Y-28883333D01*
X121545238Y-28883333D01*
X121640476Y-28930952D01*
X121688095Y-28978571D01*
X121735714Y-29073809D01*
X121735714Y-29311904D01*
X121688095Y-29407142D01*
X121640476Y-29454761D01*
X121545238Y-29502380D01*
X121307142Y-29502380D01*
X121211904Y-29454761D01*
X121164285Y-29407142D01*
%TO.C,C1*%
X61433333Y-35707142D02*
X61385714Y-35754761D01*
X61242857Y-35802380D01*
X61147619Y-35802380D01*
X61004761Y-35754761D01*
X60909523Y-35659523D01*
X60861904Y-35564285D01*
X60814285Y-35373809D01*
X60814285Y-35230952D01*
X60861904Y-35040476D01*
X60909523Y-34945238D01*
X61004761Y-34850000D01*
X61147619Y-34802380D01*
X61242857Y-34802380D01*
X61385714Y-34850000D01*
X61433333Y-34897619D01*
X62385714Y-35802380D02*
X61814285Y-35802380D01*
X62100000Y-35802380D02*
X62100000Y-34802380D01*
X62004761Y-34945238D01*
X61909523Y-35040476D01*
X61814285Y-35088095D01*
%TO.C,J4*%
X70216666Y-22202380D02*
X70216666Y-22916666D01*
X70169047Y-23059523D01*
X70073809Y-23154761D01*
X69930952Y-23202380D01*
X69835714Y-23202380D01*
X71121428Y-22535714D02*
X71121428Y-23202380D01*
X70883333Y-22154761D02*
X70645238Y-22869047D01*
X71264285Y-22869047D01*
%TO.C,D3*%
X47157704Y-22502980D02*
X47157704Y-21502980D01*
X47395800Y-21502980D01*
X47538657Y-21550600D01*
X47633895Y-21645838D01*
X47681514Y-21741076D01*
X47729133Y-21931552D01*
X47729133Y-22074409D01*
X47681514Y-22264885D01*
X47633895Y-22360123D01*
X47538657Y-22455361D01*
X47395800Y-22502980D01*
X47157704Y-22502980D01*
X48062466Y-21502980D02*
X48681514Y-21502980D01*
X48348180Y-21883933D01*
X48491038Y-21883933D01*
X48586276Y-21931552D01*
X48633895Y-21979171D01*
X48681514Y-22074409D01*
X48681514Y-22312504D01*
X48633895Y-22407742D01*
X48586276Y-22455361D01*
X48491038Y-22502980D01*
X48205323Y-22502980D01*
X48110085Y-22455361D01*
X48062466Y-22407742D01*
X48511904Y-23716666D02*
X48988095Y-23716666D01*
X48416666Y-24002380D02*
X48750000Y-23002380D01*
X49083333Y-24002380D01*
D14*
%TO.C,DS1*%
X74757857Y-70474523D02*
X74757857Y-69204523D01*
X75060238Y-69204523D01*
X75241666Y-69265000D01*
X75362619Y-69385952D01*
X75423095Y-69506904D01*
X75483571Y-69748809D01*
X75483571Y-69930238D01*
X75423095Y-70172142D01*
X75362619Y-70293095D01*
X75241666Y-70414047D01*
X75060238Y-70474523D01*
X74757857Y-70474523D01*
X75967380Y-70414047D02*
X76148809Y-70474523D01*
X76451190Y-70474523D01*
X76572142Y-70414047D01*
X76632619Y-70353571D01*
X76693095Y-70232619D01*
X76693095Y-70111666D01*
X76632619Y-69990714D01*
X76572142Y-69930238D01*
X76451190Y-69869761D01*
X76209285Y-69809285D01*
X76088333Y-69748809D01*
X76027857Y-69688333D01*
X75967380Y-69567380D01*
X75967380Y-69446428D01*
X76027857Y-69325476D01*
X76088333Y-69265000D01*
X76209285Y-69204523D01*
X76511666Y-69204523D01*
X76693095Y-69265000D01*
X77902619Y-70474523D02*
X77176904Y-70474523D01*
X77539761Y-70474523D02*
X77539761Y-69204523D01*
X77418809Y-69385952D01*
X77297857Y-69506904D01*
X77176904Y-69567380D01*
D11*
%TO.C,R6*%
X92483333Y-46102380D02*
X92150000Y-45626190D01*
X91911904Y-46102380D02*
X91911904Y-45102380D01*
X92292857Y-45102380D01*
X92388095Y-45150000D01*
X92435714Y-45197619D01*
X92483333Y-45292857D01*
X92483333Y-45435714D01*
X92435714Y-45530952D01*
X92388095Y-45578571D01*
X92292857Y-45626190D01*
X91911904Y-45626190D01*
X93340476Y-45102380D02*
X93150000Y-45102380D01*
X93054761Y-45150000D01*
X93007142Y-45197619D01*
X92911904Y-45340476D01*
X92864285Y-45530952D01*
X92864285Y-45911904D01*
X92911904Y-46007142D01*
X92959523Y-46054761D01*
X93054761Y-46102380D01*
X93245238Y-46102380D01*
X93340476Y-46054761D01*
X93388095Y-46007142D01*
X93435714Y-45911904D01*
X93435714Y-45673809D01*
X93388095Y-45578571D01*
X93340476Y-45530952D01*
X93245238Y-45483333D01*
X93054761Y-45483333D01*
X92959523Y-45530952D01*
X92911904Y-45578571D01*
X92864285Y-45673809D01*
%TO.C,C6*%
X113733333Y-25007142D02*
X113685714Y-25054761D01*
X113542857Y-25102380D01*
X113447619Y-25102380D01*
X113304761Y-25054761D01*
X113209523Y-24959523D01*
X113161904Y-24864285D01*
X113114285Y-24673809D01*
X113114285Y-24530952D01*
X113161904Y-24340476D01*
X113209523Y-24245238D01*
X113304761Y-24150000D01*
X113447619Y-24102380D01*
X113542857Y-24102380D01*
X113685714Y-24150000D01*
X113733333Y-24197619D01*
X114590476Y-24102380D02*
X114400000Y-24102380D01*
X114304761Y-24150000D01*
X114257142Y-24197619D01*
X114161904Y-24340476D01*
X114114285Y-24530952D01*
X114114285Y-24911904D01*
X114161904Y-25007142D01*
X114209523Y-25054761D01*
X114304761Y-25102380D01*
X114495238Y-25102380D01*
X114590476Y-25054761D01*
X114638095Y-25007142D01*
X114685714Y-24911904D01*
X114685714Y-24673809D01*
X114638095Y-24578571D01*
X114590476Y-24530952D01*
X114495238Y-24483333D01*
X114304761Y-24483333D01*
X114209523Y-24530952D01*
X114161904Y-24578571D01*
X114114285Y-24673809D01*
%TO.C,U1*%
X51728095Y-39632380D02*
X51728095Y-40441904D01*
X51775714Y-40537142D01*
X51823333Y-40584761D01*
X51918571Y-40632380D01*
X52109047Y-40632380D01*
X52204285Y-40584761D01*
X52251904Y-40537142D01*
X52299523Y-40441904D01*
X52299523Y-39632380D01*
X53299523Y-40632380D02*
X52728095Y-40632380D01*
X53013809Y-40632380D02*
X53013809Y-39632380D01*
X52918571Y-39775238D01*
X52823333Y-39870476D01*
X52728095Y-39918095D01*
%TO.C,C5*%
X57933333Y-26757142D02*
X57885714Y-26804761D01*
X57742857Y-26852380D01*
X57647619Y-26852380D01*
X57504761Y-26804761D01*
X57409523Y-26709523D01*
X57361904Y-26614285D01*
X57314285Y-26423809D01*
X57314285Y-26280952D01*
X57361904Y-26090476D01*
X57409523Y-25995238D01*
X57504761Y-25900000D01*
X57647619Y-25852380D01*
X57742857Y-25852380D01*
X57885714Y-25900000D01*
X57933333Y-25947619D01*
X58838095Y-25852380D02*
X58361904Y-25852380D01*
X58314285Y-26328571D01*
X58361904Y-26280952D01*
X58457142Y-26233333D01*
X58695238Y-26233333D01*
X58790476Y-26280952D01*
X58838095Y-26328571D01*
X58885714Y-26423809D01*
X58885714Y-26661904D01*
X58838095Y-26757142D01*
X58790476Y-26804761D01*
X58695238Y-26852380D01*
X58457142Y-26852380D01*
X58361904Y-26804761D01*
X58314285Y-26757142D01*
%TO.C,C2*%
X104433333Y-33907142D02*
X104385714Y-33954761D01*
X104242857Y-34002380D01*
X104147619Y-34002380D01*
X104004761Y-33954761D01*
X103909523Y-33859523D01*
X103861904Y-33764285D01*
X103814285Y-33573809D01*
X103814285Y-33430952D01*
X103861904Y-33240476D01*
X103909523Y-33145238D01*
X104004761Y-33050000D01*
X104147619Y-33002380D01*
X104242857Y-33002380D01*
X104385714Y-33050000D01*
X104433333Y-33097619D01*
X104814285Y-33097619D02*
X104861904Y-33050000D01*
X104957142Y-33002380D01*
X105195238Y-33002380D01*
X105290476Y-33050000D01*
X105338095Y-33097619D01*
X105385714Y-33192857D01*
X105385714Y-33288095D01*
X105338095Y-33430952D01*
X104766666Y-34002380D01*
X105385714Y-34002380D01*
D15*
%TO.C,J5*%
X33159100Y-21596600D02*
X36382100Y-21600000D01*
X33190800Y-35596000D02*
X33159100Y-21596600D01*
X46087700Y-35592000D02*
X33190800Y-35596000D01*
X46113100Y-21596600D02*
X46087700Y-35592000D01*
X42382100Y-21600000D02*
X46113100Y-21596600D01*
D16*
X47451500Y-23222200D02*
G75*
G03*
X47451500Y-23222200I-170000J0D01*
G01*
D17*
%TO.C,D1*%
X59500000Y-31326371D02*
X59500000Y-31440000D01*
X60826371Y-30000000D02*
G75*
G03*
X60826371Y-30000000I-1326371J0D01*
G01*
%TO.C,J1*%
X42650000Y-43900000D02*
X45650000Y-43900000D01*
X85704400Y-48970100D02*
X41229000Y-48957400D01*
X41229000Y-44207600D02*
X41229000Y-48957400D01*
X85450400Y-44233000D02*
X41229000Y-44207600D01*
%TO.C,R1*%
X106820000Y-47070000D02*
X100280000Y-47070000D01*
X106820000Y-46740000D02*
X106820000Y-47070000D01*
X100280000Y-47070000D02*
X100280000Y-46740000D01*
X106820000Y-44660000D02*
X106820000Y-44330000D01*
X106820000Y-44330000D02*
X100280000Y-44330000D01*
X100280000Y-44330000D02*
X100280000Y-44660000D01*
%TO.C,D2*%
X102450000Y-37723629D02*
X102450000Y-37610000D01*
X103776371Y-39050000D02*
G75*
G03*
X103776371Y-39050000I-1326371J0D01*
G01*
%TO.C,R7*%
X56780000Y-40080000D02*
X56780000Y-40410000D01*
X63320000Y-40080000D02*
X56780000Y-40080000D01*
X63320000Y-40410000D02*
X63320000Y-40080000D01*
X56780000Y-42820000D02*
X56780000Y-42490000D01*
X63320000Y-42820000D02*
X56780000Y-42820000D01*
X63320000Y-42490000D02*
X63320000Y-42820000D01*
%TO.C,Q1*%
X36650000Y-43890000D02*
X40250000Y-43890000D01*
X36125816Y-43162795D02*
G75*
G03*
X36650000Y-43890000I2324184J1122795D01*
G01*
X38450000Y-39440000D02*
G75*
G03*
X36093600Y-40941193I0J-2600000D01*
G01*
X40250000Y-43890000D02*
G75*
G03*
X40774184Y-43162795I-1800000J1850000D01*
G01*
X40806400Y-40941193D02*
G75*
G03*
X38450000Y-39440000I-2356400J-1098807D01*
G01*
%TO.C,R3*%
X106900000Y-38070000D02*
X106900000Y-38140000D01*
X108270000Y-36700000D02*
G75*
G03*
X108270000Y-36700000I-1370000J0D01*
G01*
%TO.C,D5*%
X105000000Y-29313629D02*
X105000000Y-29200000D01*
X106326371Y-30640000D02*
G75*
G03*
X106326371Y-30640000I-1326371J0D01*
G01*
%TO.C,C4*%
X119630000Y-35930000D02*
X119875000Y-35930000D01*
X121725000Y-35930000D02*
X121970000Y-35930000D01*
X119630000Y-39570000D02*
X119630000Y-35930000D01*
X121725000Y-39570000D02*
X121970000Y-39570000D01*
X119630000Y-39570000D02*
X119875000Y-39570000D01*
X121970000Y-39570000D02*
X121970000Y-35930000D01*
%TO.C,K1*%
X71510000Y-24560000D02*
X79290000Y-24560000D01*
X79290000Y-25020000D02*
X79290000Y-24560000D01*
X79290000Y-39380000D02*
X80410000Y-39380000D01*
X71510000Y-37720000D02*
X71510000Y-34300000D01*
X75810000Y-39150000D02*
X75810000Y-37950000D01*
X79290000Y-37720000D02*
X79290000Y-34300000D01*
X79290000Y-39840000D02*
X79290000Y-39380000D01*
X79290000Y-37720000D02*
X80410000Y-37720000D01*
X75110000Y-25250000D02*
X75110000Y-26450000D01*
X71510000Y-39840000D02*
X79290000Y-39840000D01*
X75110000Y-26450000D02*
X75810000Y-26450000D01*
X75110000Y-39150000D02*
X75810000Y-39150000D01*
X75810000Y-25650000D02*
X75110000Y-26050000D01*
X75810000Y-38350000D02*
X75110000Y-38750000D01*
X75810000Y-26450000D02*
X75810000Y-25250000D01*
X71510000Y-25020000D02*
X71510000Y-24560000D01*
X71510000Y-39840000D02*
X71510000Y-39380000D01*
X75110000Y-37950000D02*
X75110000Y-39150000D01*
X75810000Y-37950000D02*
X75110000Y-37950000D01*
X75810000Y-25250000D02*
X75110000Y-25250000D01*
%TO.C,D4*%
X67700000Y-31262057D02*
X67700000Y-31375686D01*
X69026371Y-29935686D02*
G75*
G03*
X69026371Y-29935686I-1326371J0D01*
G01*
%TO.C,Q3*%
X99040000Y-23600000D02*
X99040000Y-27200000D01*
X99767205Y-23075816D02*
G75*
G03*
X99040000Y-23600000I1122795J-2324184D01*
G01*
X101988807Y-27756400D02*
G75*
G03*
X103490000Y-25400000I-1098807J2356400D01*
G01*
X99040000Y-27200000D02*
G75*
G03*
X99767205Y-27724184I1850000J1800000D01*
G01*
X103490000Y-25400000D02*
G75*
G03*
X101988807Y-23043600I-2600000J0D01*
G01*
%TO.C,Q2*%
X69600000Y-40010000D02*
X69600000Y-36410000D01*
X68872795Y-40534184D02*
G75*
G03*
X69600000Y-40010000I-1122795J2324184D01*
G01*
X69600000Y-36410000D02*
G75*
G03*
X68872795Y-35885816I-1850000J-1800000D01*
G01*
X65150000Y-38210000D02*
G75*
G03*
X66651193Y-40566400I2600000J0D01*
G01*
X66651193Y-35853600D02*
G75*
G03*
X65150000Y-38210000I1098807J-2356400D01*
G01*
%TO.C,R4*%
X50660000Y-42620000D02*
X44120000Y-42620000D01*
X50660000Y-39880000D02*
X44120000Y-39880000D01*
X50660000Y-42290000D02*
X50660000Y-42620000D01*
X50660000Y-40210000D02*
X50660000Y-39880000D01*
X44120000Y-39880000D02*
X44120000Y-40210000D01*
X44120000Y-42620000D02*
X44120000Y-42290000D01*
%TO.C,C3*%
X49020000Y-24380000D02*
X49020000Y-28020000D01*
X46925000Y-28020000D02*
X46680000Y-28020000D01*
X49020000Y-28020000D02*
X48775000Y-28020000D01*
X49020000Y-24380000D02*
X48775000Y-24380000D01*
X46680000Y-24380000D02*
X46680000Y-28020000D01*
X46925000Y-24380000D02*
X46680000Y-24380000D01*
%TO.C,R2*%
X62400000Y-30775000D02*
X62400000Y-30705000D01*
X63770000Y-32145000D02*
G75*
G03*
X63770000Y-32145000I-1370000J0D01*
G01*
%TO.C,U2*%
X116510000Y-29420000D02*
X114860000Y-29420000D01*
X116510000Y-39700000D02*
X116510000Y-29420000D01*
X108720000Y-29360000D02*
X108720000Y-39760000D01*
X119000000Y-29360000D02*
X108720000Y-29360000D01*
X119000000Y-39760000D02*
X119000000Y-29360000D01*
X111210000Y-29420000D02*
X111210000Y-39700000D01*
X112860000Y-29420000D02*
X111210000Y-29420000D01*
X108720000Y-39760000D02*
X119000000Y-39760000D01*
X111210000Y-39700000D02*
X116510000Y-39700000D01*
X112860000Y-29420000D02*
G75*
G03*
X114860000Y-29420000I1000000J0D01*
G01*
D15*
%TO.C,J3*%
X97000000Y-21961500D02*
X97000000Y-36361500D01*
X82300000Y-21961500D02*
X84150000Y-21961500D01*
X84150000Y-21961500D02*
X95150000Y-21961500D01*
X82300000Y-36361500D02*
X82300000Y-21961500D01*
X95150000Y-21961500D02*
X97000000Y-21961500D01*
X97000000Y-36361500D02*
X82300000Y-36361500D01*
D18*
X89750000Y-36833500D02*
G75*
G03*
X89750000Y-36833500I-100000J0D01*
G01*
D17*
%TO.C,R8*%
X111220000Y-43420000D02*
X111220000Y-40680000D01*
X104680000Y-43420000D02*
X111220000Y-43420000D01*
X103910000Y-42050000D02*
X104680000Y-42050000D01*
X104680000Y-40680000D02*
X104680000Y-43420000D01*
X111220000Y-40680000D02*
X104680000Y-40680000D01*
X111990000Y-42050000D02*
X111220000Y-42050000D01*
%TO.C,R5*%
X121000000Y-32125000D02*
X121000000Y-32055000D01*
X122370000Y-33495000D02*
G75*
G03*
X122370000Y-33495000I-1370000J0D01*
G01*
%TO.C,C1*%
X63920000Y-36620000D02*
X58980000Y-36620000D01*
X58980000Y-36620000D02*
X58980000Y-36305000D01*
X63920000Y-36620000D02*
X63920000Y-36305000D01*
X63920000Y-34195000D02*
X63920000Y-33880000D01*
X63920000Y-33880000D02*
X58980000Y-33880000D01*
X58980000Y-34195000D02*
X58980000Y-33880000D01*
%TO.C,J4*%
X64560000Y-21900000D02*
X63450000Y-21900000D01*
X64560000Y-25610000D02*
X63450000Y-25610000D01*
X67350000Y-21900000D02*
X66240000Y-21900000D01*
X67350000Y-25610000D02*
X66240000Y-25610000D01*
%TO.C,D3*%
X53215000Y-24836000D02*
X53215000Y-24680000D01*
X53215000Y-22520000D02*
X53215000Y-22364000D01*
X53215000Y-22364484D02*
G75*
G03*
X49982665Y-22521392I-1560000J-1235516D01*
G01*
X50613870Y-24679837D02*
G75*
G03*
X52695961Y-24680000I1041130J1079837D01*
G01*
X52695961Y-22520000D02*
G75*
G03*
X50613870Y-22520163I-1040961J-1080000D01*
G01*
X49982665Y-24678608D02*
G75*
G03*
X53215000Y-24835516I1672335J1078608D01*
G01*
D19*
%TO.C,DS1*%
X116300000Y-87900000D02*
X36300000Y-87900000D01*
X36300000Y-51900000D02*
X116300000Y-51900000D01*
X116300000Y-51900000D02*
X116300000Y-87900000D01*
X36300000Y-87900000D02*
X36300000Y-51900000D01*
D17*
%TO.C,R6*%
X89430000Y-46740000D02*
X89430000Y-47070000D01*
X89430000Y-44330000D02*
X95970000Y-44330000D01*
X89430000Y-47070000D02*
X95970000Y-47070000D01*
X95970000Y-47070000D02*
X95970000Y-46740000D01*
X89430000Y-44660000D02*
X89430000Y-44330000D01*
X95970000Y-44330000D02*
X95970000Y-44660000D01*
%TO.C,C6*%
X112080000Y-27875000D02*
X112080000Y-28120000D01*
X112080000Y-28120000D02*
X115720000Y-28120000D01*
X112080000Y-25780000D02*
X115720000Y-25780000D01*
X115720000Y-25780000D02*
X115720000Y-26025000D01*
X115720000Y-27875000D02*
X115720000Y-28120000D01*
X112080000Y-25780000D02*
X112080000Y-26025000D01*
%TO.C,U1*%
X57630000Y-28840000D02*
X47350000Y-28840000D01*
X55140000Y-39180000D02*
X55140000Y-28900000D01*
X55140000Y-28900000D02*
X49840000Y-28900000D01*
X49840000Y-39180000D02*
X51490000Y-39180000D01*
X57630000Y-39240000D02*
X57630000Y-28840000D01*
X47350000Y-28840000D02*
X47350000Y-39240000D01*
X49840000Y-28900000D02*
X49840000Y-39180000D01*
X47350000Y-39240000D02*
X57630000Y-39240000D01*
X53490000Y-39180000D02*
X55140000Y-39180000D01*
X53490000Y-39180000D02*
G75*
G03*
X51490000Y-39180000I-1000000J0D01*
G01*
%TO.C,C5*%
X52980000Y-26080000D02*
X56620000Y-26080000D01*
X52980000Y-28420000D02*
X56620000Y-28420000D01*
X52980000Y-26080000D02*
X52980000Y-26325000D01*
X52980000Y-28175000D02*
X52980000Y-28420000D01*
X56620000Y-28175000D02*
X56620000Y-28420000D01*
X56620000Y-26080000D02*
X56620000Y-26325000D01*
%TO.C,C2*%
X107220000Y-34555000D02*
X107220000Y-34870000D01*
X107220000Y-32130000D02*
X107220000Y-32445000D01*
X102280000Y-34870000D02*
X107220000Y-34870000D01*
X102280000Y-32130000D02*
X107220000Y-32130000D01*
X102280000Y-32130000D02*
X102280000Y-32445000D01*
X102280000Y-34555000D02*
X102280000Y-34870000D01*
%TD*%
M02*
